<?xml version="1.0" standalone="no"?><!DOCTYPE svg PUBLIC "-//W3C//DTD SVG 1.0//EN" "http://www.w3.org/TR/2001/REC-SVG-20010904/DTD/svg10.dtd"><svg xmlns="http://www.w3.org/2000/svg" width="100%" height="100%">
<defs>
<font id="VolvoNovumWebLatin-Regular" horiz-adv-x="594"><font-face
    font-family="Volvo Novum Web Latin Regular"
    units-per-em="1000"
    panose-1="2 11 5 3 4 5 2 6 2 4"
    ascent="980"
    descent="-220"
    alphabetic="0" />
<missing-glyph horiz-adv-x="1081"/>
<glyph unicode="" glyph-name="nonmarkingreturn" horiz-adv-x="256"/>
<glyph unicode=" " glyph-name="space" horiz-adv-x="254"/>
<glyph unicode="A" glyph-name="A" horiz-adv-x="651" d="M321 602q-17-63-61-182L199 250H445L383 423q-48 131-61 179h-1Zm51 80L634 0H536L470 182H175L111 0H17L278 682h94Z"/>
<glyph unicode="a" glyph-name="a" horiz-adv-x="521" d="M47 131q0 40 18 70t57 50 99 30 145 10v33q0 51-28.5 77.5T255 428q-45 0-82.5-20.5T105 346L56 393q38 49 90 75t115 26q90 0 137.5-43T446 326V236q0-56 0-99T449 0H372l-2 69h-1Q341 30 300 8.5T211-13Q137-13 92 26T47 131Zm319 98q-67 0-111.5-5.5T183 207t-39.5-29T131 134q0-39 25.5-60T229 53q39 0 70 19t49 53 18 73v31Z"/>
<glyph unicode="&#xc0;" glyph-name="Agrave" horiz-adv-x="651" d="M321 602q-17-63-61-182L199 250H445L383 423q-48 131-61 179h-1Zm51 80L634 0H536L470 182H175L111 0H17L278 682h94Zm8 66H298L169 882H288l92-134Z"/>
<glyph unicode="&#xe0;" glyph-name="agrave" horiz-adv-x="521" d="M47 131q0 40 18 70t57 50 99 30 145 10v33q0 51-28.5 77.5T255 428q-45 0-82.5-20.5T105 346L56 393q38 49 90 75t115 26q90 0 137.5-43T446 326V236q0-56 0-99T449 0H372l-2 69h-1Q341 30 300 8.5T211-13Q137-13 92 26T47 131Zm319 98q-67 0-111.5-5.5T183 207t-39.5-29T131 134q0-39 25.5-60T229 53q39 0 70 19t49 53 18 73v31ZM313 552H237L118 694H228l85-142Z"/>
<glyph unicode="&#xc1;" glyph-name="Aacute" horiz-adv-x="651" d="M321 602q-17-63-61-182L199 250H445L383 423q-48 131-61 179h-1Zm51 80L634 0H536L470 182H175L111 0H17L278 682h94ZM361 882H480L351 748H270l91 134Z"/>
<glyph unicode="&#xe1;" glyph-name="aacute" horiz-adv-x="521" d="M47 131q0 40 18 70t57 50 99 30 145 10v33q0 51-28.5 77.5T255 428q-45 0-82.5-20.5T105 346L56 393q38 49 90 75t115 26q90 0 137.5-43T446 326V236q0-56 0-99T449 0H372l-2 69h-1Q341 30 300 8.5T211-13Q137-13 92 26T47 131Zm319 98q-67 0-111.5-5.5T183 207t-39.5-29T131 134q0-39 25.5-60T229 53q39 0 70 19t49 53 18 73v31ZM298 694H407L289 552H213l85 142Z"/>
<glyph unicode="&#xc2;" glyph-name="Acircumflex" horiz-adv-x="651" d="M321 602q-17-63-61-182L199 250H445L383 423q-48 131-61 179h-1Zm51 80L634 0H536L470 182H175L111 0H17L278 682h94ZM280 882h89L486 748H402l-78 74-77-74H164L280 882Z"/>
<glyph unicode="&#xe2;" glyph-name="acircumflex" horiz-adv-x="521" d="M47 131q0 40 18 70t57 50 99 30 145 10v33q0 51-28.5 77.5T255 428q-45 0-82.5-20.5T105 346L56 393q38 49 90 75t115 26q90 0 137.5-43T446 326V236q0-56 0-99T449 0H372l-2 69h-1Q341 30 300 8.5T211-13Q137-13 92 26T47 131Zm319 98q-67 0-111.5-5.5T183 207t-39.5-29T131 134q0-39 25.5-60T229 53q39 0 70 19t49 53 18 73v31ZM214 694h99L413 552H335l-73 88-73-88H113L214 694Z"/>
<glyph unicode="&#xc3;" glyph-name="Atilde" horiz-adv-x="651" d="M321 602q-17-63-61-182L199 250H445L383 423q-48 131-61 179h-1Zm51 80L634 0H536L470 182H175L111 0H17L278 682h94ZM254 811q-18 0-28-16t-10-43H150q0 39 12.5 68t36 44T256 879q22 0 43-8t46.5-27.5 34-24T396 815q17 0 27 16.5T433 874h67q0-39-12.5-68T451 762t-58-15q-22 0-43 8t-46 27.5-33.5 24T254 811Z"/>
<glyph unicode="&#xe3;" glyph-name="atilde" horiz-adv-x="521" d="M47 131q0 40 18 70t57 50 99 30 145 10v33q0 51-28.5 77.5T255 428q-45 0-82.5-20.5T105 346L56 393q38 49 90 75t115 26q90 0 137.5-43T446 326V236q0-56 0-99T449 0H372l-2 69h-1Q341 30 300 8.5T211-13Q137-13 92 26T47 131Zm319 98q-67 0-111.5-5.5T183 207t-39.5-29T131 134q0-39 25.5-60T229 53q39 0 70 19t49 53 18 73v31ZM199 622q-17 0-26-15.5T164 563H101q0 39 11.5 67t34 42.5T202 687q21 0 39.5-8T282 651.5 311.5 628t14.5-4q18 0 27 15.5t9 42.5h63q0-38-12-66t-35-42.5T323 559q-20 0-38.5 8T244 594t-30 23.5T199 622Z"/>
<glyph unicode="&#xc4;" glyph-name="Adieresis" horiz-adv-x="651" d="M321 602q-17-63-61-182L199 250H445L383 423q-48 131-61 179h-1Zm51 80L634 0H536L470 182H175L111 0H17L278 682h94Zm24 76V874h85V758H396Zm-226 0V874h85V758H170Z"/>
<glyph unicode="&#xe4;" glyph-name="adieresis" horiz-adv-x="521" d="M47 131q0 40 18 70t57 50 99 30 145 10v33q0 51-28.5 77.5T255 428q-45 0-82.5-20.5T105 346L56 393q38 49 90 75t115 26q90 0 137.5-43T446 326V236q0-56 0-99T449 0H372l-2 69h-1Q341 30 300 8.5T211-13Q137-13 92 26T47 131Zm319 98q-67 0-111.5-5.5T183 207t-39.5-29T131 134q0-39 25.5-60T229 53q39 0 70 19t49 53 18 73v31ZM318 567V683h79V567H318Zm-188 0V683h79V567H130Z"/>
<glyph unicode="&#x100;" glyph-name="Amacron" horiz-adv-x="651" d="M321 602q-17-63-61-182L199 250H445L383 423q-48 131-61 179h-1Zm51 80L634 0H536L470 182H175L111 0H17L278 682h94Zm105 94H172v71H477V776Z"/>
<glyph unicode="&#x101;" glyph-name="amacron" horiz-adv-x="521" d="M47 131q0 40 18 70t57 50 99 30 145 10v33q0 51-28.5 77.5T255 428q-45 0-82.5-20.5T105 346L56 393q38 49 90 75t115 26q90 0 137.5-43T446 326V236q0-56 0-99T449 0H372l-2 69h-1Q341 30 300 8.5T211-13Q137-13 92 26T47 131Zm319 98q-67 0-111.5-5.5T183 207t-39.5-29T131 134q0-39 25.5-60T229 53q39 0 70 19t49 53 18 73v31Zm36 357H125v67H402V586Z"/>
<glyph unicode="&#x102;" glyph-name="Abreve" horiz-adv-x="651" d="M321 602q-17-63-61-182L199 250H445L383 423q-48 131-61 179h-1Zm51 80L634 0H536L470 182H175L111 0H17L278 682h94ZM476 886q0-46-18-78.5t-52.5-48T324 744q-48 0-81.5 15.5t-51 47.5T174 886h70q0-25 8.5-41.5t26.5-25 46-8.5q27 0 45.5 9t27 25.5T406 886h70Z"/>
<glyph unicode="&#x103;" glyph-name="abreve" horiz-adv-x="521" d="M47 131q0 40 18 70t57 50 99 30 145 10v33q0 51-28.5 77.5T255 428q-45 0-82.5-20.5T105 346L56 393q38 49 90 75t115 26q90 0 137.5-43T446 326V236q0-56 0-99T449 0H372l-2 69h-1Q341 30 300 8.5T211-13Q137-13 92 26T47 131Zm319 98q-67 0-111.5-5.5T183 207t-39.5-29T131 134q0-39 25.5-60T229 53q39 0 70 19t49 53 18 73v31Zm39 465q0-45-15.5-76t-47-47.5T263 554q-47 0-78 16.5T138.5 618 123 694h65q0-24 8-41t25-26 43-9 43 9.5T332 654t8 40h65Z"/>
<glyph unicode="&#xc5;" glyph-name="Aring" horiz-adv-x="651" d="M321 602q-17-63-61-182L199 250H445L383 423q-48 131-61 179h-1Zm51 80L634 0H536L470 182H175L111 0H17L278 682h94Zm-3 152q0 20-11.5 33.5T325 881q-22 0-33-13t-11-34q0-20 11.5-33T325 788t32.5 13T369 834Zm64 1q0-41-29-69t-80-28q-52 0-80 26.5T216 834q0 41 29.5 69T326 931q52 0 79.5-26.5T433 835Z"/>
<glyph unicode="&#xe5;" glyph-name="aring" horiz-adv-x="521" d="M47 131q0 40 18 70t57 50 99 30 145 10v33q0 51-28.5 77.5T255 428q-45 0-82.5-20.5T105 346L56 393q38 49 90 75t115 26q90 0 137.5-43T446 326V236q0-56 0-99T449 0H372l-2 69h-1Q341 30 300 8.5T211-13Q137-13 92 26T47 131Zm319 98q-67 0-111.5-5.5T183 207t-39.5-29T131 134q0-39 25.5-60T229 53q39 0 70 19t49 53 18 73v31ZM308 645q0 20-11.5 33T264 691t-32.5-13T220 645t11.5-33T264 599t32.5 13T308 645Zm64 1q0-41-29-69t-80-28q-52 0-80 26.5T155 644q0 41 29.5 69T265 741t79-26.5T372 646Z"/>
<glyph unicode="&#x1fa;" glyph-name="Aringacute" horiz-adv-x="651" d="M321 602q-17-63-61-182L199 250H445L383 423q-48 131-61 179h-1Zm51 80L634 0H536L470 182H175L111 0H17L278 682h94ZM359 980H476L358 874H278l81 106Zm8-239q0 20-10.5 32.5T325 786t-32-12.5T282 742q0-20 11-32.5T325 697t31.5 12.5T367 741Zm65 1q0-40-28.5-67.5T324 647q-52 0-79.5 26T217 741q0 40 29 67t80 27q52 0 79-25.5T432 742Z"/>
<glyph unicode="&#x1fb;" glyph-name="aringacute" horiz-adv-x="521" d="M47 131q0 40 18 70t57 50 99 30 145 10v33q0 51-28.5 77.5T255 428q-45 0-82.5-20.5T105 346L56 393q38 49 90 75t115 26q90 0 137.5-43T446 326V236q0-56 0-99T449 0H372l-2 69h-1Q341 30 300 8.5T211-13Q137-13 92 26T47 131Zm319 98q-67 0-111.5-5.5T183 207t-39.5-29T131 134q0-39 25.5-60T229 53q39 0 70 19t49 53 18 73v31ZM308 889H417L300 771H227l81 118Zm0-257q0 20-11.5 33T264 678t-32.5-13T220 632t11.5-33T264 586t32.5 13T308 632Zm63 1q0-40-29-68t-79-28q-51 0-78.5 26.5T157 631q0 40 29 68t79 28q51 0 78.5-26.5T371 633Z"/>
<glyph unicode="&#x104;" glyph-name="Aogonek" horiz-adv-x="651" d="M199 250H446L383 423q-48 131-61 179h-1q-17-63-61-182L199 250ZM637-204q-27-8-65-8-37 0-60.5 8.5t-34.5 25T466-137q0 32 20.5 67T547 0H536L469 182H177L111 0H17L278 682h94L634 0q-42-38-63-69t-21-56q0-13 8.5-19t27.5-6h51v-54Z"/>
<glyph unicode="&#x105;" glyph-name="aogonek" horiz-adv-x="521" d="M370 69h-1Q342 30 300.5 8.5T211-13Q137-13 92 26T47 131q0 40 18 70t57 50 99 30 145 10v33q0 51-28.5 77.5T255 428q-45 0-82.5-20.5T105 346L56 393q38 49 90 75t115 26q90 0 137.5-43.5T446 326V236q0-119 0-160.5T448 0q-40-43-58-72t-18-56q0-14 9-19.5t27-5.5h49v-52q-12-3-28.5-5T398-212q-38 0-61 8.5t-33.5 25T293-137q0 31 18 62.5T372 3l-2 66Zm-4 160q-67 0-111.5-5.5T183 207t-39.5-29T131 134q0-39 25.5-60T229 53q38 0 69 18.5T347.5 124 366 198v31Z"/>
<glyph unicode="&#xc6;" glyph-name="AE" horiz-adv-x="972" d="M199 246H455V610H378L199 246ZM892 682V610H541V383H845V314H541V73H909V0H455V177H167L80 0H-16L325 682H892Z"/>
<glyph unicode="&#xe6;" glyph-name="ae" horiz-adv-x="849" d="M229 53q38 0 69 18.5T347.5 124 366 198v31q-66 0-111-5.5T183 207t-39.5-28.5T131 134q0-39 25.5-60T229 53ZM719 283q-1 42-18 75.5T654 410t-68 18-67.5-17T471 361.5 448 283H719ZM212-13Q137-13 92 26T47 131q0 41 18.5 71T123 251.5 222.5 281 366 291v33q-1 52-29 78t-82 26q-46 0-83-20.5T105 346L56 393q38 49 90.5 75T261 494q61 0 101-20.5T421 414q28 39 71 59.5T589 494q65 0 113-28t75-80 27-113q0-31-4-51H446q2-77 44.5-122.5T600 54q51 0 89 19t66 59l48-46q-39-51-89-75T596-13q-69 0-117.5 28T400 100q-28-57-75-85T212-13Z"/>
<glyph unicode="&#x1fc;" glyph-name="AEacute" horiz-adv-x="972" d="M199 246H455V610H378L199 246ZM892 682V610H541V383H845V314H541V73H909V0H455V177H167L80 0H-16L325 682H892ZM641 882H760L631 748H550l91 134Z"/>
<glyph unicode="&#x1fd;" glyph-name="aeacute" horiz-adv-x="849" d="M229 53q38 0 69 18.5T347.5 124 366 198v31q-66 0-111-5.5T183 207t-39.5-28.5T131 134q0-39 25.5-60T229 53ZM719 283q-1 42-18 75.5T654 410t-68 18-67.5-17T471 361.5 448 283H719ZM212-13Q137-13 92 26T47 131q0 41 18.5 71T123 251.5 222.5 281 366 291v33q-1 52-29 78t-82 26q-46 0-83-20.5T105 346L56 393q38 49 90.5 75T261 494q61 0 101-20.5T421 414q28 39 71 59.5T589 494q65 0 113-28t75-80 27-113q0-31-4-51H446q2-77 44.5-122.5T600 54q51 0 89 19t66 59l48-46q-39-51-89-75T596-13q-69 0-117.5 28T400 100q-28-57-75-85T212-13ZM472 693H581L463 551H387l85 142Z"/>
<glyph unicode="B" glyph-name="B" horiz-adv-x="709" d="M106 682q31 0 104 0.5T333 683q109 0 163.5-14T585 621q44-44 44-109 0-58-28.5-97.5T514 354q66-15 101.5-57.5T651 190q0-67-32-109T523 19 351-1Q217-1 106 0V682Zm86-301H352q72 0 104.5 9T511 421q14 14 21.5 34.5T540 501q0 43-28 71-22 22-62 30.5T326 611q-93 0-134-1V381Zm0-309q53-1 167-1 78 0 119.5 12T540 121t20 68q0 43-19 70t-59.5 40T353 312H192V72Z"/>
<glyph unicode="b" glyph-name="b" horiz-adv-x="584" d="M160 231q0-52 18-92.5T229.5 76 307 54q45 0 78 22.5t50 65T452 241q0 56-18.5 98t-52 64.5T303 426q-43 0-75.5-21t-50-61T160 250V231ZM82 710h80V505q0-49-4-93h1q24 39 65 60.5T319 494q66 0 115.5-31t76-88.5T537 243q0-76-27-134T432 19 315-13q-52 0-92 21T157 68h-1L152 0H75q1 13 4 73t3 166V710Z"/>
<glyph unicode="&#x1e02;" glyph-name="uni1E02" horiz-adv-x="709" d="M106 682q31 0 104 0.5T333 683q109 0 163.5-14T585 621q44-44 44-109 0-58-28.5-97.5T514 354q66-15 101.5-57.5T651 190q0-67-32-109T523 19 351-1Q217-1 106 0V682Zm86-301H352q72 0 104.5 9T511 421q14 14 21.5 34.5T540 501q0 43-28 71-22 22-62 30.5T326 611q-93 0-134-1V381Zm0-309q53-1 167-1 78 0 119.5 12T540 121t20 68q0 43-19 70t-59.5 40T353 312H192V72ZM311 758V874h87V758H311Z"/>
<glyph unicode="&#x1e03;" glyph-name="uni1E03" horiz-adv-x="584" d="M160 231q0-52 18-92.5T229.5 76 307 54q45 0 78 22.5t50 65T452 241q0 56-18.5 98t-52 64.5T303 426q-43 0-75.5-21t-50-61T160 250V231ZM82 710h80V505q0-49-4-93h1q24 39 65 60.5T319 494q66 0 115.5-31t76-88.5T537 243q0-76-27-134T432 19 315-13q-52 0-92 21T157 68h-1L152 0H75q1 13 4 73t3 166V710ZM273 567V683h82V567H273Z"/>
<glyph unicode="C" glyph-name="C" horiz-adv-x="693" d="M658 175Q625 83 554 34T380-15q-92 0-164.5 43.5T103 153 63 340t40.5 186.5T218 652t162 45q93 0 164-47T649 519l-78-31q-25 63-76 98T378 621q-65 0-116.5-34.5t-79.5-98T154 341q0-85 28.5-148.5t80.5-97T382 62q74 0 124.5 35T581 199l77-24Z"/>
<glyph unicode="c" glyph-name="c" horiz-adv-x="519" d="M481 124Q447 53 396.5 20T272-13q-69 0-120.5 31.5t-78 88T47 239 74.5 373 153 462.5 271 494q72 0 122.5-32.5T474 364l-73-35q-20 49-52.5 73T269 426q-41 0-72-22.5t-48-64T132 241q0-56 17.5-98T199 78t75-23q49 0 82.5 24T411 153l70-29Z"/>
<glyph unicode="&#x106;" glyph-name="Cacute" horiz-adv-x="693" d="M658 175Q625 83 554 34T380-15q-92 0-164.5 43.5T103 153 63 340t40.5 186.5T218 652t162 45q93 0 164-47T649 519l-78-31q-25 63-76 98T378 621q-65 0-116.5-34.5t-79.5-98T154 341q0-85 28.5-148.5t80.5-97T382 62q74 0 124.5 35T581 199l77-24ZM417 882H536L407 748H326l91 134Z"/>
<glyph unicode="&#x107;" glyph-name="cacute" horiz-adv-x="519" d="M481 124Q447 53 396.5 20T272-13q-69 0-120.5 31.5t-78 88T47 239 74.5 373 153 462.5 271 494q72 0 122.5-32.5T474 364l-73-35q-20 49-52.5 73T269 426q-41 0-72-22.5t-48-64T132 241q0-56 17.5-98T199 78t75-23q49 0 82.5 24T411 153l70-29ZM306 694H415L297 552H221l85 142Z"/>
<glyph unicode="&#x108;" glyph-name="Ccircumflex" horiz-adv-x="693" d="M658 175Q625 83 554 34T380-15q-92 0-164.5 43.5T103 153 63 340t40.5 186.5T218 652t162 45q93 0 164-47T649 519l-78-31q-25 63-76 98T378 621q-65 0-116.5-34.5t-79.5-98T154 341q0-85 28.5-148.5t80.5-97T382 62q74 0 124.5 35T581 199l77-24ZM336 882h89L542 748H458l-78 74-77-74H220L336 882Z"/>
<glyph unicode="&#x109;" glyph-name="ccircumflex" horiz-adv-x="519" d="M481 124Q447 53 396.5 20T272-13q-69 0-120.5 31.5t-78 88T47 239 74.5 373 153 462.5 271 494q72 0 122.5-32.5T474 364l-73-35q-20 49-52.5 73T269 426q-41 0-72-22.5t-48-64T132 241q0-56 17.5-98T199 78t75-23q49 0 82.5 24T411 153l70-29ZM222 694h99L421 552H343l-73 88-73-88H121L222 694Z"/>
<glyph unicode="&#x10c;" glyph-name="Ccaron" horiz-adv-x="693" d="M658 175Q625 83 554 34T380-15q-92 0-164.5 43.5T103 153 63 340t40.5 186.5T218 652t162 45q93 0 164-47T649 519l-78-31q-25 63-76 98T378 621q-65 0-116.5-34.5t-79.5-98T154 341q0-85 28.5-148.5t80.5-97T382 62q74 0 124.5 35T581 199l77-24ZM426 748H336L220 882h83l78-74 79 74h82L426 748Z"/>
<glyph unicode="&#x10d;" glyph-name="ccaron" horiz-adv-x="519" d="M481 124Q447 53 396.5 20T272-13q-69 0-120.5 31.5t-78 88T47 239 74.5 373 153 462.5 271 494q72 0 122.5-32.5T474 364l-73-35q-20 49-52.5 73T269 426q-41 0-72-22.5t-48-64T132 241q0-56 17.5-98T199 78t75-23q49 0 82.5 24T411 153l70-29ZM319 552H220L120 694h78l73-87 73 87h76L319 552Z"/>
<glyph unicode="&#x10a;" glyph-name="Cdotaccent" horiz-adv-x="693" d="M658 175Q625 83 554 34T380-15q-92 0-164.5 43.5T103 153 63 340t40.5 186.5T218 652t162 45q93 0 164-47T649 519l-78-31q-25 63-76 98T378 621q-65 0-116.5-34.5t-79.5-98T154 341q0-85 28.5-148.5t80.5-97T382 62q74 0 124.5 35T581 199l77-24ZM338 758V874h87V758H338Z"/>
<glyph unicode="&#x10b;" glyph-name="cdotaccent" horiz-adv-x="519" d="M481 124Q447 53 396.5 20T272-13q-69 0-120.5 31.5t-78 88T47 239 74.5 373 153 462.5 271 494q72 0 122.5-32.5T474 364l-73-35q-20 49-52.5 73T269 426q-41 0-72-22.5t-48-64T132 241q0-56 17.5-98T199 78t75-23q49 0 82.5 24T411 153l70-29ZM229 567V683h82V567H229Z"/>
<glyph unicode="&#xc7;" glyph-name="Ccedilla" horiz-adv-x="693" d="M291-204q2 2 18.5 17.5T336-156t10 28q0 14-12.5 26.5T296-78l38 67Q251-1 189.5 46t-94 123T63 340q0 106 40.5 186.5T218 652t162 45q93 0 164-47T649 519l-78-31q-24 62-75.5 97.5T378 621q-65 0-116.5-34.5t-79.5-98T154 341q0-83 28-146.5t79.5-98T382 62q73 0 125 35.5T581 199l77-24Q629 90 563 41T408-13L386-50q23-17 33.5-34T430-122q0-20-15.5-43.5T378-204H291Z"/>
<glyph unicode="&#xe7;" glyph-name="ccedilla" horiz-adv-x="519" d="M190-204q23 19 38 40t15 36q0 14-10.5 25T194-77L233-9q-57 7-99.5 40T69 117.5 47 239q0 77 28 135t79 89 117 31q72 0 122.5-32.5T474 364l-73-35q-40 97-132 97-63 0-100-50T132 240q0-55 17.5-97T199 78t75-23q49 0 82 24t55 74l70-29q-30-62-74.5-95.5T303-11L280-50q23-17 33-34t10-38q0-20-14-42.5T273-204H190Z"/>
<glyph unicode="D" glyph-name="D" horiz-adv-x="729" d="M106 681q75 1 203 1 98 0 159-20t108-67q45-45 68-108t23-144T643 196 575 86Q529 40 467.5 20T309 0Q207 1 106 1V681ZM191 78q60-3 120-3 82 0 122.5 12.5T505 131q36 36 53.5 88.5T576 340q0 65-19 119t-54 89q-34 34-76 47.5T306 609q-82 0-115-1V78Z"/>
<glyph unicode="d" glyph-name="d" horiz-adv-x="584" d="M428 0l-2 70h-1Q402 30 361 8.5T265-13q-67 0-116 31T73.5 106.5 47 238q0 76 27 134t78 90 117 32q51 0 90.5-20T424 417h1q-3 35-3 88V710h80V239q0-87 0.5-135.5T505 0H428Zm-3 250q0 53-18.5 93T354 404.5 278 426q-46 0-78.5-22.5t-50-64.5T132 240q0-55 18-97.5T202 77t79-23q44 0 77 22t50 62 17 92v20Z"/>
<glyph unicode="&#x10e;" glyph-name="Dcaron" horiz-adv-x="729" d="M106 681q75 1 203 1 98 0 159-20t108-67q45-45 68-108t23-144T643 196 575 86Q529 40 467.5 20T309 0Q207 1 106 1V681ZM191 78q60-3 120-3 82 0 122.5 12.5T505 131q36 36 53.5 88.5T576 340q0 65-19 119t-54 89q-34 34-76 47.5T306 609q-82 0-115-1V78ZM389 748H299L183 882h83l78-74 79 74h82L389 748Z"/>
<glyph unicode="&#x10f;" glyph-name="dcaron" horiz-adv-x="609" d="M428 0l-2 70h-1Q402 30 361 8.5T265-13q-67 0-116 31T73.5 106.5 47 238q0 76 27 134t78 90 117 32q51 0 90.5-20T424 417h1q-3 35-3 88V710h80V239q0-87 0.5-135.5T505 0H428Zm-3 250q0 53-18.5 93T354 404.5 278 426q-46 0-78.5-22.5t-50-64.5T132 240q0-55 18-97.5T202 77t79-23q44 0 77 22t50 62 17 92v20ZM585 757h86L617 568H552l33 189Z"/>
<glyph unicode="&#x1e0a;" glyph-name="uni1E0A" horiz-adv-x="729" d="M106 681q75 1 203 1 98 0 159-20t108-67q45-45 68-108t23-144T643 196 575 86Q529 40 467.5 20T309 0Q207 1 106 1V681ZM191 78q60-3 120-3 82 0 122.5 12.5T505 131q36 36 53.5 88.5T576 340q0 65-19 119t-54 89q-34 34-76 47.5T306 609q-82 0-115-1V78ZM301 758V874h87V758H301Z"/>
<glyph unicode="&#x1e0b;" glyph-name="uni1E0B" horiz-adv-x="584" d="M428 0l-2 70h-1Q402 30 361 8.5T265-13q-67 0-116 31T73.5 106.5 47 238q0 76 27 134t78 90 117 32q51 0 90.5-20T424 417h1q-3 35-3 88V710h80V239q0-87 0.5-135.5T505 0H428Zm-3 250q0 53-18.5 93T354 404.5 278 426q-46 0-78.5-22.5t-50-64.5T132 240q0-55 18-97.5T202 77t79-23q44 0 77 22t50 62 17 92v20ZM227 567V683h82V567H227Z"/>
<glyph unicode="&#xd0;" glyph-name="Eth" horiz-adv-x="743" d="M120 315H10v68H120V681q75 1 203 1 98 0 159-20t108-67q45-45 68-108t23-144T657 196 589 86Q543 40 481.5 20T323 0Q221 1 120 1V315ZM205 77q60-3 120-3 81 0 122 13t72 44q36 36 53.5 88.5T590 340q0 65-19 119t-54 89q-34 34-76 47.5T320 609q-82 0-115-1V383H405V315H205V77Z"/>
<glyph unicode="&#xf0;" glyph-name="eth" horiz-adv-x="568" d="M169 525l-26 52 106 50q-46 36-98 64l83 35q49-29 90-64l121 58 26-52L370 620q73-72 110.5-161T518 270q0-86-28-150.5T408.5 21 281-13q-73 0-125.5 31T75 106 47 238q0 73 27.5 130.5T153 458t116 32q48 0 87-19.5T418 416q0 0 0.5 0.5T419 417q-15 37-41.5 76T297 585L169 525ZM431 239q0 53-18 95t-52 65-79 23q-46 0-80-23t-52-65-18-95q0-55 19-97t53-64.5T282 55q46 0 80 23.5T413.5 144 431 239Z"/>
<glyph unicode="&#x110;" glyph-name="Dcroat" horiz-adv-x="743" d="M120 315H10v68H120V681q75 1 203 1 98 0 159-20t108-67q45-45 68-108t23-144T657 196 589 86Q543 40 481.5 20T323 0Q221 1 120 1V315ZM205 77q60-3 120-3 81 0 122 13t72 44q36 36 53.5 88.5T590 340q0 65-19 119t-54 89q-34 34-76 47.5T320 609q-82 0-115-1V383H405V315H205V77Z"/>
<glyph unicode="&#x111;" glyph-name="dcroat" horiz-adv-x="584" d="M425 250q0 52-18.5 92t-52 62T278 426q-46 0-78.5-22.5t-50-64.5T132 240q0-55 18-97.5T202 77t79-23q44 0 77 22t50 62 17 92v20ZM428 0l-2 70h-1Q402 30 361 8.5T265-13q-67 0-116 31T73.5 106.5 47 238q0 76 27 134t78 90 117 32q51 0 90.5-20T424 417h1q-3 35-3 88v56H286v64H422v88h80V625h95V561H502V239q0-87 0.5-135.5T505 0H428Z"/>
<glyph unicode="E" glyph-name="E" horiz-adv-x="646" d="M106 682H566V610H192V383H519V314H192V73H583V0H106V682Z"/>
<glyph unicode="e" glyph-name="e" horiz-adv-x="536" d="M405 283q0 41-16.5 74.5t-46.5 52T273 428q-38 0-67.5-16.5T158 362t-23-79H405ZM283-13q-73 0-126 30T75.5 104.5 47 239q0 76 28 134t80 89.5T276 494q66 0 114-28.5T464.5 385 491 273q0-30-4-51H133q1-51 21-89t54.5-58.5T287 54q50 0 87.5 18.5T441 132l49-46q-40-52-90-75.5T283-13Z"/>
<glyph unicode="&#xc8;" glyph-name="Egrave" horiz-adv-x="646" d="M106 682H566V610H192V383H519V314H192V73H583V0H106V682Zm286 66H310L181 882H300l92-134Z"/>
<glyph unicode="&#xe8;" glyph-name="egrave" horiz-adv-x="536" d="M405 283q0 41-16.5 74.5t-46.5 52T273 428q-38 0-67.5-16.5T158 362t-23-79H405ZM283-13q-73 0-126 30T75.5 104.5 47 239q0 76 28 134t80 89.5T276 494q66 0 114-28.5T464.5 385 491 273q0-30-4-51H133q1-51 21-89t54.5-58.5T287 54q50 0 87.5 18.5T441 132l49-46q-40-52-90-75.5T283-13Zm35 565H242L123 694H233l85-142Z"/>
<glyph unicode="&#xc9;" glyph-name="Eacute" horiz-adv-x="646" d="M106 682H566V610H192V383H519V314H192V73H583V0H106V682ZM369 882H488L359 748H278l91 134Z"/>
<glyph unicode="&#xe9;" glyph-name="eacute" horiz-adv-x="536" d="M405 283q0 41-16.5 74.5t-46.5 52T273 428q-38 0-67.5-16.5T158 362t-23-79H405ZM283-13q-73 0-126 30T75.5 104.5 47 239q0 76 28 134t80 89.5T276 494q66 0 114-28.5T464.5 385 491 273q0-30-4-51H133q1-51 21-89t54.5-58.5T287 54q50 0 87.5 18.5T441 132l49-46q-40-52-90-75.5T283-13Zm20 707H412L294 552H218l85 142Z"/>
<glyph unicode="&#xca;" glyph-name="Ecircumflex" horiz-adv-x="646" d="M106 682H566V610H192V383H519V314H192V73H583V0H106V682ZM292 882h89L498 748H414l-78 74-77-74H176L292 882Z"/>
<glyph unicode="&#xea;" glyph-name="ecircumflex" horiz-adv-x="536" d="M405 283q0 41-16.5 74.5t-46.5 52T273 428q-38 0-67.5-16.5T158 362t-23-79H405ZM283-13q-73 0-126 30T75.5 104.5 47 239q0 76 28 134t80 89.5T276 494q66 0 114-28.5T464.5 385 491 273q0-30-4-51H133q1-51 21-89t54.5-58.5T287 54q50 0 87.5 18.5T441 132l49-46q-40-52-90-75.5T283-13ZM219 694h99L418 552H340l-73 88-73-88H118L219 694Z"/>
<glyph unicode="&#x11a;" glyph-name="Ecaron" horiz-adv-x="646" d="M106 682H566V610H192V383H519V314H192V73H583V0H106V682Zm277 66H293L177 882h83l78-74 79 74h82L383 748Z"/>
<glyph unicode="&#x11b;" glyph-name="ecaron" horiz-adv-x="536" d="M405 283q0 41-16.5 74.5t-46.5 52T273 428q-38 0-67.5-16.5T158 362t-23-79H405ZM283-13q-73 0-126 30T75.5 104.5 47 239q0 76 28 134t80 89.5T276 494q66 0 114-28.5T464.5 385 491 273q0-30-4-51H133q1-51 21-89t54.5-58.5T287 54q50 0 87.5 18.5T441 132l49-46q-40-52-90-75.5T283-13Zm34 565H218L118 694h78l73-87 73 87h76L317 552Z"/>
<glyph unicode="&#xcb;" glyph-name="Edieresis" horiz-adv-x="646" d="M106 682H566V610H192V383H519V314H192V73H583V0H106V682Zm303 76V874h85V758H409Zm-226 0V874h85V758H183Z"/>
<glyph unicode="&#xeb;" glyph-name="edieresis" horiz-adv-x="536" d="M405 283q0 41-16.5 74.5t-46.5 52T273 428q-38 0-67.5-16.5T158 362t-23-79H405ZM283-13q-73 0-126 30T75.5 104.5 47 239q0 76 28 134t80 89.5T276 494q66 0 114-28.5T464.5 385 491 273q0-30-4-51H133q1-51 21-89t54.5-58.5T287 54q50 0 87.5 18.5T441 132l49-46q-40-52-90-75.5T283-13Zm39 580V683h79V567H322Zm-188 0V683h79V567H134Z"/>
<glyph unicode="&#x112;" glyph-name="Emacron" horiz-adv-x="646" d="M106 682H566V610H192V383H519V314H192V73H583V0H106V682Zm383 94H184v71H489V776Z"/>
<glyph unicode="&#x113;" glyph-name="emacron" horiz-adv-x="536" d="M405 283q0 41-16.5 74.5t-46.5 52T273 428q-38 0-67.5-16.5T158 362t-23-79H405ZM283-13q-73 0-126 30T75.5 104.5 47 239q0 76 28 134t80 89.5T276 494q66 0 114-28.5T464.5 385 491 273q0-30-4-51H133q1-51 21-89t54.5-58.5T287 54q50 0 87.5 18.5T441 132l49-46q-40-52-90-75.5T283-13ZM406 586H129v67H406V586Z"/>
<glyph unicode="&#x116;" glyph-name="Edotaccent" horiz-adv-x="646" d="M106 682H566V610H192V383H519V314H192V73H583V0H106V682Zm187 76V874h87V758H293Z"/>
<glyph unicode="&#x117;" glyph-name="edotaccent" horiz-adv-x="536" d="M405 283q0 41-16.5 74.5t-46.5 52T273 428q-38 0-67.5-16.5T158 362t-23-79H405ZM283-13q-73 0-126 30T75.5 104.5 47 239q0 76 28 134t80 89.5T276 494q66 0 114-28.5T464.5 385 491 273q0-30-4-51H133q1-51 21-89t54.5-58.5T287 54q50 0 87.5 18.5T441 132l49-46q-40-52-90-75.5T283-13ZM227 567V683h82V567H227Z"/>
<glyph unicode="&#x114;" glyph-name="Ebreve" horiz-adv-x="646" d="M106 682H566V610H192V383H519V314H192V73H583V0H106V682ZM489 886q0-46-18-78.5t-52.5-48T337 744q-48 0-81.5 15.5t-51 47.5T187 886h70q0-25 8.5-41.5t26.5-25 46-8.5q27 0 45.5 9t27 25.5T419 886h70Z"/>
<glyph unicode="&#x115;" glyph-name="ebreve" horiz-adv-x="536" d="M405 283q0 41-16.5 74.5t-46.5 52T273 428q-38 0-67.5-16.5T158 362t-23-79H405ZM283-13q-73 0-126 30T75.5 104.5 47 239q0 76 28 134t80 89.5T276 494q66 0 114-28.5T464.5 385 491 273q0-30-4-51H133q1-51 21-89t54.5-58.5T287 54q50 0 87.5 18.5T441 132l49-46q-40-52-90-75.5T283-13ZM409 694q0-45-15.5-76t-47-47.5T267 554q-47 0-78 16.5T142.5 618 127 694h65q0-24 8-41t25-26 43-9 43 9.5T336 654t8 40h65Z"/>
<glyph unicode="&#x118;" glyph-name="Eogonek" horiz-adv-x="646" d="M583-204q-12-3-29-5.5T518-212q-36 0-59 8t-34.5 24.5T413-137q0 30 21 66T495 0H106V682H566V610H192V383H519V314H192V73H583V3q-43-42-65-73.5T496-125q0-13 8.5-19t27.5-6h51v-54Z"/>
<glyph unicode="&#x119;" glyph-name="eogonek" horiz-adv-x="536" d="M273 428q-38 0-67.5-16.5T158 362t-23-79H405q0 41-17 74.5t-47 52T273 428ZM458-204q-32-8-59-8-38 0-61 8.5T304.5-179 294-137q0 33 15.5 66.5T356-3q-33-10-73-10-72 0-125.5 30.5t-82 88T47 239q0 77 28.5 135T156 463t120 31q65 0 113-28t75-80.5T491 273q0-31-4-51H133q1-50 21-88.5t54.5-59T287 54q51 0 88.5 19T441 132l49-46q-3-4-36.5-50.5t-57-92T373-127q0-14 9-20t27-6h49v-51Z"/>
<glyph unicode="&#x18f;" glyph-name="uni018F" horiz-adv-x="728" d="M74 546q49 76 118.5 113.5T352 697t162.5-44.5T626.5 527 666 342q0-102-39-183.5T517 31 357-15q-95 0-163 41T90 147 54 340q0 15 2 39H573q-6 75-36 129.5t-78.5 83T349 620q-70 0-120.5-27.5T140 506L74 546ZM359 62q63 0 109.5 30T542 178.5 573 310H145q3-79 28.5-134.5T246 91 359 62Z"/>
<glyph unicode="&#x259;" glyph-name="uni0259" horiz-adv-x="536" d="M46 395q39 50 90.5 74.5T253 494q72 0 125-30.5t82-88T489 241 460.5 106.5 380 18 260-13q-66 0-114 28.5T71.5 96 45 207q0 31 4 52H403q-1 51-21 89t-54.5 58.5T249 427q-50 0-87-19T94 349L46 395Zm85-198q0-40 16.5-73.5T194 71t69-19q38 0 67.5 17T378 118.5 401 197H131Z"/>
<glyph unicode="F" glyph-name="F" horiz-adv-x="599" d="M106 682H553V609H192V378H507V309H192V0H106V682Z"/>
<glyph unicode="f" glyph-name="f" horiz-adv-x="315" d="M107 416H9v65h98v94q0 46 15 77.5T167 700t73 16q21 0 45.5-4T325 702V633q-17 7-39.5 11T245 648q-20 0-32.5-7t-19-23T187 573V481H311V416H187V0H107V416Z"/>
<glyph unicode="&#x1e1e;" glyph-name="uni1E1E" horiz-adv-x="599" d="M106 682H553V609H192V378H507V309H192V0H106V682Zm176 76V874h87V758H282Z"/>
<glyph unicode="&#x1e1f;" glyph-name="uni1E1F" horiz-adv-x="315" d="M107 416H9v65h98v94q0 46 15 77.5T167 700t73 16q21 0 45.5-4T325 702V633q-17 7-39.5 11T245 648q-20 0-32.5-7t-19-23T187 573V481H311V416H187V0H107V416Zm86 379V911h82V795H193Z"/>
<glyph unicode="&#xfb01;" glyph-name="fi" horiz-adv-x="574" d="M107 416H9v65h98v94q0 46 15 77.5T167 700t73 16q21 0 45.5-4T325 702V633q-17 7-39.5 11T245 648q-20 0-32.5-7t-19-23T187 573V481H311V416H187V0H107V416ZM412 562V686h82V562H412ZM413 0V481h80V0H413Z"/>
<glyph unicode="&#xfb02;" glyph-name="fl" horiz-adv-x="574" d="M413 710h80V0H413V710ZM107 416H9v65h98v94q0 46 15 77.5T167 700t73 16q21 0 45.5-4T325 702V633q-17 7-39.5 11T245 648q-20 0-32.5-7t-19-23T187 573V481H311V416H187V0H107V416Z"/>
<glyph unicode="G" glyph-name="G" horiz-adv-x="758" d="M586 0V104h-1q-30-56-85.5-87.5T373-15q-90 0-161 44T102 154 63 340q0 102 40 184T217 651.5 383 697q94 0 161.5-37.5T657 543l-69-49q-35 65-87 96T377 621q-67 0-117.5-35.5t-78-99.5T154 341q0-85 28-149t80-97.5T380 61q57 0 102 28.5T551.5 168 576 278v19H384v70H663V0H586Z"/>
<glyph unicode="g" glyph-name="g" horiz-adv-x="586" d="M425 250q0 52-18 92t-51.5 62T278 426q-45 0-78-22.5T150 339t-17-98q0-54 18-96.5T203 79t79-23q44 0 76.5 22T408 140t17 92v18Zm86 231q-4-40-5.5-94T504 242V-13q0-98-54.5-149.5T289-214q-71 0-126 26.5T67-106l53 51q32-46 75-69.5T291-148q65 0 99.5 33.5T425-18q0 13 0.5 43.5T426 70h-1q-24-39-65-59.5T266-10q-67 0-116 30.5T74.5 108 48 239q0 76 27.5 134t78 89.5T270 494q51 0 91.5-21T428 413h1l4 68h78Z"/>
<glyph unicode="&#x11c;" glyph-name="Gcircumflex" horiz-adv-x="758" d="M586 0V104h-1q-30-56-85.5-87.5T373-15q-90 0-161 44T102 154 63 340q0 102 40 184T217 651.5 383 697q94 0 161.5-37.5T657 543l-69-49q-35 65-87 96T377 621q-67 0-117.5-35.5t-78-99.5T154 341q0-85 28-149t80-97.5T380 61q57 0 102 28.5T551.5 168 576 278v19H384v70H663V0H586ZM338 882h89L544 748H460l-78 74-77-74H222L338 882Z"/>
<glyph unicode="&#x11d;" glyph-name="gcircumflex" horiz-adv-x="586" d="M425 250q0 52-18 92t-51.5 62T278 426q-45 0-78-22.5T150 339t-17-98q0-54 18-96.5T203 79t79-23q44 0 76.5 22T408 140t17 92v18Zm86 231q-4-40-5.5-94T504 242V-13q0-98-54.5-149.5T289-214q-71 0-126 26.5T67-106l53 51q32-46 75-69.5T291-148q65 0 99.5 33.5T425-18q0 13 0.5 43.5T426 70h-1q-24-39-65-59.5T266-10q-67 0-116 30.5T74.5 108 48 239q0 76 27.5 134t78 89.5T270 494q51 0 91.5-21T428 413h1l4 68h78ZM230 694h99L429 552H351l-73 88-73-88H129L230 694Z"/>
<glyph unicode="&#x11e;" glyph-name="Gbreve" horiz-adv-x="758" d="M586 0V104h-1q-30-56-85.5-87.5T373-15q-90 0-161 44T102 154 63 340q0 102 40 184T217 651.5 383 697q94 0 161.5-37.5T657 543l-69-49q-35 65-87 96T377 621q-67 0-117.5-35.5t-78-99.5T154 341q0-85 28-149t80-97.5T380 61q57 0 102 28.5T551.5 168 576 278v19H384v70H663V0H586ZM534 886q0-46-18-78.5t-52.5-48T382 744q-48 0-81.5 15.5t-51 47.5T232 886h70q0-25 8.5-41.5t26.5-25 46-8.5q27 0 45.5 9t27 25.5T464 886h70Z"/>
<glyph unicode="&#x11f;" glyph-name="gbreve" horiz-adv-x="586" d="M425 250q0 52-18 92t-51.5 62T278 426q-45 0-78-22.5T150 339t-17-98q0-54 18-96.5T203 79t79-23q44 0 76.5 22T408 140t17 92v18Zm86 231q-4-40-5.5-94T504 242V-13q0-98-54.5-149.5T289-214q-71 0-126 26.5T67-106l53 51q32-46 75-69.5T291-148q65 0 99.5 33.5T425-18q0 13 0.5 43.5T426 70h-1q-24-39-65-59.5T266-10q-67 0-116 30.5T74.5 108 48 239q0 76 27.5 134t78 89.5T270 494q51 0 91.5-21T428 413h1l4 68h78ZM421 694q0-45-15.5-76t-47-47.5T279 554q-47 0-78 16.5T154.5 618 139 694h65q0-24 8-41t25-26 43-9 43 9.5T348 654t8 40h65Z"/>
<glyph unicode="&#x1e6;" glyph-name="Gcaron" horiz-adv-x="758" d="M586 0V104h-1q-30-56-85.5-87.5T373-15q-90 0-161 44T102 154 63 340q0 102 40 184T217 651.5 383 697q94 0 161.5-37.5T657 543l-69-49q-35 65-87 96T377 621q-67 0-117.5-35.5t-78-99.5T154 341q0-85 28-149t80-97.5T380 61q57 0 102 28.5T551.5 168 576 278v19H384v70H663V0H586ZM428 748H338L222 882h83l78-74 79 74h82L428 748Z"/>
<glyph unicode="&#x1e7;" glyph-name="gcaron" horiz-adv-x="586" d="M425 250q0 52-18 92t-51.5 62T278 426q-45 0-78-22.5T150 339t-17-98q0-54 18-96.5T203 79t79-23q44 0 76.5 22T408 140t17 92v18Zm86 231q-4-40-5.5-94T504 242V-13q0-98-54.5-149.5T289-214q-71 0-126 26.5T67-106l53 51q32-46 75-69.5T291-148q65 0 99.5 33.5T425-18q0 13 0.5 43.5T426 70h-1q-24-39-65-59.5T266-10q-67 0-116 30.5T74.5 108 48 239q0 76 27.5 134t78 89.5T270 494q51 0 91.5-21T428 413h1l4 68h78ZM329 552H230L130 694h78l73-87 73 87h76L329 552Z"/>
<glyph unicode="&#x120;" glyph-name="Gdotaccent" horiz-adv-x="758" d="M586 0V104h-1q-30-56-85.5-87.5T373-15q-90 0-161 44T102 154 63 340q0 102 40 184T217 651.5 383 697q94 0 161.5-37.5T657 543l-69-49q-35 65-87 96T377 621q-67 0-117.5-35.5t-78-99.5T154 341q0-85 28-149t80-97.5T380 61q57 0 102 28.5T551.5 168 576 278v19H384v70H663V0H586ZM339 758V874h87V758H339Z"/>
<glyph unicode="&#x121;" glyph-name="gdotaccent" horiz-adv-x="586" d="M425 250q0 52-18 92t-51.5 62T278 426q-45 0-78-22.5T150 339t-17-98q0-54 18-96.5T203 79t79-23q44 0 76.5 22T408 140t17 92v18Zm86 231q-4-40-5.5-94T504 242V-13q0-98-54.5-149.5T289-214q-71 0-126 26.5T67-106l53 51q32-46 75-69.5T291-148q65 0 99.5 33.5T425-18q0 13 0.5 43.5T426 70h-1q-24-39-65-59.5T266-10q-67 0-116 30.5T74.5 108 48 239q0 76 27.5 134t78 89.5T270 494q51 0 91.5-21T428 413h1l4 68h78ZM238 567V683h82V567H238Z"/>
<glyph unicode="&#x122;" glyph-name="Gcommaaccent" horiz-adv-x="758" d="M586 0V104h-1q-30-56-85.5-87.5T373-15q-90 0-161 44T102 154 63 340q0 102 40 184T217 651.5 383 697q94 0 161.5-37.5T657 543l-69-49q-35 65-87 96T377 621q-67 0-117.5-35.5t-78-99.5T154 341q0-85 28-149t80-97.5T380 61q57 0 102 28.5T551.5 168 576 278v19H384v70H663V0H586ZM422-52v-73q0-41-24-62t-72-21H307v39h17q18 0 26 9t8 28H336v80h86Z"/>
<glyph unicode="&#x123;" glyph-name="gcommaaccent" horiz-adv-x="586" d="M425 250q0 52-18 92t-51.5 62T278 426q-45 0-78-22.5T150 339t-17-98q0-54 18-96.5T203 79t79-23q44 0 76.5 22T408 140t17 92v18Zm86 231q-4-40-5.5-94T504 242V-13q0-98-54.5-149.5T289-214q-71 0-126 26.5T67-106l53 51q32-46 75-69.5T291-148q65 0 99.5 33.5T425-18q0 13 0.5 43.5T426 70h-1q-24-39-65-59.5T266-10q-67 0-116 30.5T74.5 108 48 239q0 76 27.5 134t78 89.5T270 494q51 0 91.5-21T428 413h1l4 68h78ZM232 567v77q0 37 21 60.5T324 728h19V688H324q-20 0-26.5-10.5T291 649h22V567H232Z"/>
<glyph unicode="H" glyph-name="H" horiz-adv-x="756" d="M106 682h86V391H564V682h86V0H564V315H192V0H106V682Z"/>
<glyph unicode="h" glyph-name="h" horiz-adv-x="566" d="M82 710h80V505q0-57-3-93h1q23 39 63.5 60.5T315 494q57 0 96-21.5T470.5 408 491 301V0H411V270q0 45-3.5 65T395 373q-13 26-37.5 39.5T298 426q-27 0-50.5-9T209 393q-25-25-36-62.5T162 231V0H82V710Z"/>
<glyph unicode="&#x124;" glyph-name="Hcircumflex" horiz-adv-x="756" d="M106 682h86V391H564V682h86V0H564V315H192V0H106V682ZM333 882h89L539 748H455l-78 74-77-74H217L333 882Z"/>
<glyph unicode="&#x125;" glyph-name="hcircumflex" horiz-adv-x="566" d="M82 710h80V505q0-57-3-93h1q23 39 63.5 60.5T315 494q57 0 96-21.5T470.5 408 491 301V0H411V270q0 45-3.5 65T395 373q-13 26-37.5 39.5T298 426q-27 0-50.5-9T209 393q-25-25-36-62.5T162 231V0H82V710ZM232 922h99L431 780H353l-73 88-73-88H131L232 922Z"/>
<glyph unicode="&#x126;" glyph-name="Hbar" horiz-adv-x="776" d="M574 376V499H202V376H574ZM116 499H10v70H116V682h86V569H574V682h86V569H766V499H660V0H574V302H202V0H116V499Z"/>
<glyph unicode="&#x127;" glyph-name="hbar" horiz-adv-x="566" d="M82 561H-13v64H82v88h80V625H299V561H162V505q0-57-3-93h1q23 39 63.5 60.5T315 494q57 0 96-21.5T470.5 408 491 301V0H411V270q0 44-3.5 65T395 373q-13 26-37.5 39.5T298 426q-27 0-50.5-9T209 393q-25-25-36-62.5T162 231V0H82V561Z"/>
<glyph unicode="I" glyph-name="I" horiz-adv-x="297" d="M106 682h86V0H106V682Z"/>
<glyph unicode="i" glyph-name="i" horiz-adv-x="244" d="M81 562V686h82V562H81ZM82 0V481h80V0H82Z"/>
<glyph unicode="&#xcc;" glyph-name="Igrave" horiz-adv-x="297" d="M106 682h86V0H106V682Zm98 66H122L-7 882H112l92-134Z"/>
<glyph unicode="&#xec;" glyph-name="igrave" horiz-adv-x="244" d="M82 0V481h80V0H82Zm90 551H96L-23 693H87l85-142Z"/>
<glyph unicode="&#xcd;" glyph-name="Iacute" horiz-adv-x="297" d="M106 682h86V0H106V682Zm80 200H305L176 748H95l91 134Z"/>
<glyph unicode="&#xed;" glyph-name="iacute" horiz-adv-x="244" d="M82 0V481h80V0H82Zm75 693H266L148 551H72l85 142Z"/>
<glyph unicode="&#xce;" glyph-name="Icircumflex" horiz-adv-x="297" d="M106 682h86V0H106V682Zm-2 200h89L310 748H226l-78 74L71 748H-12L104 882Z"/>
<glyph unicode="&#xee;" glyph-name="icircumflex" horiz-adv-x="244" d="M82 0V481h80V0H82ZM73 693h99L272 551H194l-73 88L48 551H-28L73 693Z"/>
<glyph unicode="&#x128;" glyph-name="Itilde" horiz-adv-x="297" d="M106 682h86V0H106V682ZM78 811q-18 0-28-16T40 752H-26q0 39 12.5 68t36 44T80 879q22 0 43-8t46.5-27.5 34-24T220 815q17 0 27 16.5T257 874h67q0-39-12.5-68T275 762t-58-15q-22 0-43 8t-46 27.5-33.5 24T78 811Z"/>
<glyph unicode="&#x129;" glyph-name="itilde" horiz-adv-x="244" d="M82 0V481h80V0H82ZM66 621q-13 0-19.5-15.5T40 562H-20q0 42 10 69.5t29.5 41T68 686q20 0 37-8.5t35.5-28 25-23.5 12.5-4q13 0 19.5 15.5T204 681h61q0-42-10-69.5t-30-41T176 557q-20 0-37 8.5t-35.5 28T78.5 617 66 621Z"/>
<glyph unicode="&#xcf;" glyph-name="Idieresis" horiz-adv-x="297" d="M106 682h86V0H106V682Zm113 76V874h85V758H219ZM-7 758V874H78V758H-7Z"/>
<glyph unicode="&#xef;" glyph-name="idieresis" horiz-adv-x="244" d="M82 0V481h80V0H82Zm83 566V682h77V566H165ZM1 566V682H78V566H1Z"/>
<glyph unicode="&#x12a;" glyph-name="Imacron" horiz-adv-x="297" d="M106 682h86V0H106V682Zm195 94H-4v71H301V776Z"/>
<glyph unicode="&#x12b;" glyph-name="imacron" horiz-adv-x="244" d="M82 0V481h80V0H82ZM260 585H-17v67H260V585Z"/>
<glyph unicode="&#x12c;" glyph-name="Ibreve" horiz-adv-x="297" d="M106 682h86V0H106V682ZM300 886q0-46-18-78.5t-52.5-48T148 744q-48 0-81.5 15.5T15.5 807-2 886H68q0-25 8.5-41.5t26.5-25 46-8.5q27 0 45.5 9t27 25.5T230 886h70Z"/>
<glyph unicode="&#x12d;" glyph-name="ibreve" horiz-adv-x="244" d="M82 0V481h80V0H82ZM263 693q0-45-15.5-76t-47-47.5T121 553q-47 0-78 16.5T-3.5 617-19 693H46q0-24 8-41t25-26 43-9 43 9.5T190 653t8 40h65Z"/>
<glyph unicode="&#x12e;" glyph-name="Iogonek" horiz-adv-x="297" d="M214-204q-12-3-29.5-5.5T150-212q-38 0-62 9T53.5-178 43-137q0 27 16.5 59.5T111 0h-5V682h86V0q-37-54-51-80.5T127-125q0-14 8.5-19.5T162-150h52v-54Z"/>
<glyph unicode="&#x12f;" glyph-name="iogonek" horiz-adv-x="244" d="M185-204q-12-3-29-5.5T125-212q-37 0-60 8.5t-34 25T20-137q0 26 16.5 58.5T87 0H82V481h80V1q-35-54-48.5-81.5T100-128q0-14 9-19.5t27-5.5h49v-51ZM81 562V686h82V562H81Z"/>
<glyph unicode="&#x130;" glyph-name="Idotaccent" horiz-adv-x="297" d="M106 682h86V0H106V682Zm-1 76V874h87V758H105Z"/>
<glyph unicode="&#x131;" glyph-name="dotlessi" horiz-adv-x="244" d="M82 0V481h80V0H82Z"/>
<glyph unicode="&#x132;" glyph-name="IJ" horiz-adv-x="833" d="M106 682h86V0H106V682Zm627 0V210q0-107-55.5-166T525-15q-41 0-78 11T381 33t-47.5 68.5T310 207l85 16q7-85 37-123.5T527 61q58 0 89 37.5T647 211V682h86Z"/>
<glyph unicode="&#x133;" glyph-name="ij" horiz-adv-x="513" d="M81 562V686h82V562H81ZM82 0V481h80V0H82ZM350 562V686h82V562H350Zm81-81V-26q0-68-12.5-108t-41-59T300-212q-14 0-28.5 1.5T249-207v63h44q24 0 36 12t17 36.5T351-23V481h80Z"/>
<glyph unicode="J" glyph-name="J" horiz-adv-x="535" d="M436 682V210q0-107-55.5-166T228-15q-41 0-78 11T84 33 36.5 101.5 13 207l85 16q7-85 37-123.5T230 61q58 0 89 37.5T350 211V682h86Z"/>
<glyph unicode="j" glyph-name="j" horiz-adv-x="253" d="M90 562V686h82V562H90Zm81-81V-26q0-68-12.5-108t-41-59T40-212q-14 0-28.5 1.5T-11-207v63H33q24 0 36 12T86-95.5 91-23V481h80Z"/>
<glyph unicode="&#x134;" glyph-name="Jcircumflex" horiz-adv-x="535" d="M436 682V210q0-107-55.5-166T228-15q-41 0-78 11T84 33 36.5 101.5 13 207l85 16q7-85 37-123.5T230 61q58 0 89 37.5T350 211V682h86ZM341 882h89L547 748H463l-78 74-77-74H225L341 882Z"/>
<glyph unicode="&#x135;" glyph-name="jcircumflex" horiz-adv-x="253" d="M171 481V-26q0-68-12.5-108t-41-59T40-212q-14 0-28.5 1.5T-11-207v63H33q24 0 36 12T86-95.5 91-23V481h80ZM82 693h99L281 551H203l-73 88L57 551H-19L82 693Z"/>
<glyph unicode="&#x237;" glyph-name="dotlessj" horiz-adv-x="253" d="M171 481V-26q0-68-12.5-108t-41-59T40-212q-14 0-28.5 1.5T-11-207v63H33q24 0 36 12T86-95.5 91-23V481h80Z"/>
<glyph unicode="K" glyph-name="K" horiz-adv-x="678" d="M659 682L396 425 677 0H573L335 365 192 226V0H106V682h86V330L545 682H659Z"/>
<glyph unicode="k" glyph-name="k" horiz-adv-x="524" d="M82 710h80V262L394 481H503L316 312 521 0H421L257 258l-95-86V0H82V710Z"/>
<glyph unicode="&#x136;" glyph-name="Kcommaaccent" horiz-adv-x="678" d="M659 682L396 425 677 0H573L335 365 192 226V0H106V682h86V330L545 682H659ZM406-52v-73q0-41-24-62t-72-21H291v39h17q18 0 26 9t8 28H320v80h86Z"/>
<glyph unicode="&#x137;" glyph-name="kcommaaccent" horiz-adv-x="524" d="M82 710h80V262L394 481H503L316 312 521 0H421L257 258l-95-86V0H82V710ZM319-52v-73q0-36-21-59.5T227-208H208v39h19q20 0 26.5 10.5T260-130H238v78h81Z"/>
<glyph unicode="&#x138;" glyph-name="kgreenlandic" horiz-adv-x="523" d="M82 481h80V243L401 481H503L315 300 520 0H421L257 245l-95-91V0H82V481Z"/>
<glyph unicode="L" glyph-name="L" horiz-adv-x="551" d="M106 682h86V75H539V0H106V682Z"/>
<glyph unicode="l" glyph-name="l" horiz-adv-x="244" d="M82 710h80V0H82V710Z"/>
<glyph unicode="&#x139;" glyph-name="Lacute" horiz-adv-x="551" d="M106 682h86V75H539V0H106V682Zm84 200H309L180 748H99l91 134Z"/>
<glyph unicode="&#x13a;" glyph-name="lacute" horiz-adv-x="244" d="M82 710h80V0H82V710Zm75 212H266L148 780H72l85 142Z"/>
<glyph unicode="&#x13d;" glyph-name="Lcaron" horiz-adv-x="551" d="M106 682h86V75H539V0H106V682Zm195 75h86L333 568H268l33 189Z"/>
<glyph unicode="&#x13e;" glyph-name="lcaron" horiz-adv-x="269" d="M82 710h80V0H82V710Zm162 47h86L276 568H211l33 189Z"/>
<glyph unicode="&#x13b;" glyph-name="Lcommaaccent" horiz-adv-x="551" d="M106 682h86V75H539V0H106V682ZM361-52v-73q0-41-24-62t-72-21H246v39h17q18 0 26 9t8 28H275v80h86Z"/>
<glyph unicode="&#x13c;" glyph-name="lcommaaccent" horiz-adv-x="244" d="M82 710h80V0H82V710ZM162-52v-73q0-36-21-59.5T70-208H51v39H70q20 0 26.5 10.5T103-130H81v78h81Z"/>
<glyph unicode="&#x141;" glyph-name="Lslash" horiz-adv-x="561" d="M395 382L202 296V75H549V0H116V260L10 213v73l106 47V682h86V370l193 85V382Z"/>
<glyph unicode="&#x142;" glyph-name="lslash" horiz-adv-x="264" d="M92 0V303L11 251v76l81 51V710h80V428l81 52V403l-81-51V0H92Z"/>
<glyph unicode="&#x13f;" glyph-name="Ldot" horiz-adv-x="551" d="M106 682h86V75H539V0H106V682ZM369 310V434H474V310H369Z"/>
<glyph unicode="&#x140;" glyph-name="ldot" horiz-adv-x="352" d="M82 710h80V0H82V710ZM246 260V384H351V260H246Z"/>
<glyph unicode="M" glyph-name="M" horiz-adv-x="946" d="M106 682H246L386 345q41-98 58.5-144T473 121h2q12 40 31.5 89.5T562 345L701 682H840V0H754V240q0 130 1 227t2 144h-3q-10-29-27-71T668 396L506 0H435L272 397q-39 94-57 138t-29 76h-3q1-47 2-144.5T186 240V0H106V682Z"/>
<glyph unicode="m" glyph-name="m" horiz-adv-x="887" d="M732 0V270q0 45-3.5 65T716 373q-13 26-37.5 39.5T621 426q-26 0-49-9t-38-24q-25-25-36-62.5T487 231V0H407V270q0 45-3.5 65T391 373q-13 26-37.5 39.5T296 426q-26 0-49-9t-38-24q-25-25-36-62.5T162 231V0H82V241q0 41 0 75.5T81.5 379t-1 53T79 481h77l2-71h1q23 40 63 62t91 22q57 0 97.5-24.5T470 398q30 49 72 72.5T638 494q85 0 129.5-49T812 301V0H732Z"/>
<glyph unicode="&#x1e40;" glyph-name="uni1E40" horiz-adv-x="946" d="M106 682H246L386 345q41-98 58.5-144T473 121h2q12 40 31.5 89.5T562 345L701 682H840V0H754V240q0 130 1 227t2 144h-3q-10-29-27-71T668 396L506 0H435L272 397q-39 94-57 138t-29 76h-3q1-47 2-144.5T186 240V0H106V682Zm323 76V874h87V758H429Z"/>
<glyph unicode="&#x1e41;" glyph-name="uni1E41" horiz-adv-x="887" d="M732 0V270q0 45-3.5 65T716 373q-13 26-37.5 39.5T621 426q-26 0-49-9t-38-24q-25-25-36-62.5T487 231V0H407V270q0 45-3.5 65T391 373q-13 26-37.5 39.5T296 426q-26 0-49-9t-38-24q-25-25-36-62.5T162 231V0H82V241q0 41 0 75.5T81.5 379t-1 53T79 481h77l2-71h1q23 40 63 62t91 22q57 0 97.5-24.5T470 398q30 49 72 72.5T638 494q85 0 129.5-49T812 301V0H732ZM406 566V682h82V566H406Z"/>
<glyph unicode="N" glyph-name="N" horiz-adv-x="764" d="M552 0L306 387q-33 52-67 106.5T183 584h-1q2-58 3-162.5T186 232V0H106V682H220L459 308q27-42 53-84t68-113h2q-2 58-3.5 162.5T577 463V682h81V0H552Z"/>
<glyph unicode="n" glyph-name="n" horiz-adv-x="566" d="M411 0V270q0 45-3.5 65T395 373q-13 26-37.5 39.5T298 426q-27 0-50.5-9T209 393q-25-25-36-62.5T162 231V0H82V241q0 41 0 75.5T81.5 379t-1 53T79 481h77l2-71h1q23 40 63.5 62T315 494q86 0 131-49t45-144V0H411Z"/>
<glyph unicode="&#x143;" glyph-name="Nacute" horiz-adv-x="764" d="M552 0L306 387q-33 52-67 106.5T183 584h-1q2-58 3-162.5T186 232V0H106V682H220L459 308q27-42 53-84t68-113h2q-2 58-3.5 162.5T577 463V682h81V0H552ZM418 882H537L408 748H327l91 134Z"/>
<glyph unicode="&#x144;" glyph-name="nacute" horiz-adv-x="566" d="M411 0V270q0 45-3.5 65T395 373q-13 26-37.5 39.5T298 426q-27 0-50.5-9T209 393q-25-25-36-62.5T162 231V0H82V241q0 41 0 75.5T81.5 379t-1 53T79 481h77l2-71h1q23 40 63.5 62T315 494q86 0 131-49t45-144V0H411ZM318 694H427L309 552H233l85 142Z"/>
<glyph unicode="&#x147;" glyph-name="Ncaron" horiz-adv-x="764" d="M552 0L306 387q-33 52-67 106.5T183 584h-1q2-58 3-162.5T186 232V0H106V682H220L459 308q27-42 53-84t68-113h2q-2 58-3.5 162.5T577 463V682h81V0H552ZM427 748H337L221 882h83l78-74 79 74h82L427 748Z"/>
<glyph unicode="&#x148;" glyph-name="ncaron" horiz-adv-x="566" d="M411 0V270q0 45-3.5 65T395 373q-13 26-37.5 39.5T298 426q-27 0-50.5-9T209 393q-25-25-36-62.5T162 231V0H82V241q0 41 0 75.5T81.5 379t-1 53T79 481h77l2-71h1q23 40 63.5 62T315 494q86 0 131-49t45-144V0H411ZM341 552H242L142 694h78l73-87 73 87h76L341 552Z"/>
<glyph unicode="&#xd1;" glyph-name="Ntilde" horiz-adv-x="764" d="M552 0L306 387q-33 52-67 106.5T183 584h-1q2-58 3-162.5T186 232V0H106V682H220L459 308q27-42 53-84t68-113h2q-2 58-3.5 162.5T577 463V682h81V0H552ZM312 811q-18 0-28-16t-10-43H208q0 39 12.5 68t36 44T314 879q22 0 43-8t46.5-27.5 34-24T454 815q17 0 27 16.5T491 874h67q0-39-12.5-68T509 762t-58-15q-22 0-43 8t-46 27.5-33.5 24T312 811Z"/>
<glyph unicode="&#xf1;" glyph-name="ntilde" horiz-adv-x="566" d="M411 0V270q0 45-3.5 65T395 373q-13 26-37.5 39.5T298 426q-27 0-50.5-9T209 393q-25-25-36-62.5T162 231V0H82V241q0 41 0 75.5T81.5 379t-1 53T79 481h77l2-71h1q23 40 63.5 62T315 494q86 0 131-49t45-144V0H411ZM219 622q-17 0-26-15.5T184 563H121q0 39 11.5 67t34 42.5T222 687q21 0 39.5-8T302 651.5 331.5 628t14.5-4q18 0 27 15.5t9 42.5h63q0-38-12-66t-35-42.5T343 559q-20 0-38.5 8T264 594t-30 23.5T219 622Z"/>
<glyph unicode="&#x145;" glyph-name="Ncommaaccent" horiz-adv-x="764" d="M552 0L306 387q-33 52-67 106.5T183 584h-1q2-58 3-162.5T186 232V0H106V682H220L459 308q27-42 53-84t68-113h2q-2 58-3.5 162.5T577 463V682h81V0H552ZM417-52v-73q0-41-24-62t-72-21H302v39h17q18 0 26 9t8 28H331v80h86Z"/>
<glyph unicode="&#x146;" glyph-name="ncommaaccent" horiz-adv-x="566" d="M411 0V270q0 45-3.5 65T395 373q-13 26-37.5 39.5T298 426q-27 0-50.5-9T209 393q-25-25-36-62.5T162 231V0H82V241q0 41 0 75.5T81.5 379t-1 53T79 481h77l2-71h1q23 40 63.5 62T315 494q86 0 131-49t45-144V0H411ZM326-52v-73q0-36-21-59.5T234-208H215v39h19q20 0 26.5 10.5T267-130H245v78h81Z"/>
<glyph unicode="&#x14a;" glyph-name="Eng" horiz-adv-x="764" d="M512-90q24 0 38 10t20 30 6 50V2L315 386q-76 111-95.5 141.5T183 584h-1q2-58 3-162.5T186 232V0H106V682H216L450 341q36-54 67.5-102T581 140h1q-2 76-3.5 161.5T577 462V682h81V-1q0-58-15.5-93T595-145.5 514-162q-27 0-42 5v67h40Z"/>
<glyph unicode="&#x14b;" glyph-name="eng" horiz-adv-x="566" d="M411 270q0 45-3.5 65T395 373q-13 26-37.5 39.5T298 426q-27 0-50.5-9T209 393q-25-25-36-62.5T162 231V0H82V241q0 58-0.5 103T79 481h77l2-71h1q23 40 63.5 62T315 494q86 0 131-49t45-144V-21q0-75-15-113.5t-47-58T347-212q-25 0-39 6v62h33q26 0 41.5 12t22 37.5T411-21V270Z"/>
<glyph unicode="O" glyph-name="O" horiz-adv-x="780" d="M717 342q0-105-41.5-186.5T559 29.5 389-15q-98 0-172 44T103 154 63 340t41.5 186.5T221 652.5 391 697q97 0 171.5-44T677 528t40-186Zm-91-1q0 84-29 147.5t-82.5 98T390 621 265.5 587 183 489.5 154 341q0-84 28.5-147.5t82-97.5T390 62q71 0 124.5 33.5T597 193t29 148Z"/>
<glyph unicode="o" glyph-name="o" horiz-adv-x="564" d="M517 241q0-75-29-133T405.5 18.5 281-13q-73 0-125.5 30.5T75 105.5 47 239q0 75 29 133.5t82.5 90T283 494q73 0 125.5-31T489 374.5 517 241Zm-85-1q0 54-18.5 96.5T361 402t-79 23-79-23-52.5-65.5T132 240q0-53 18.5-95.5t52.5-66T282 55q46 0 80 23.5t52 66T432 240Z"/>
<glyph unicode="&#xd2;" glyph-name="Ograve" horiz-adv-x="780" d="M717 342q0-105-41.5-186.5T559 29.5 389-15q-98 0-172 44T103 154 63 340t41.5 186.5T221 652.5 391 697q97 0 171.5-44T677 528t40-186Zm-91-1q0 84-29 147.5t-82.5 98T390 621 265.5 587 183 489.5 154 341q0-84 28.5-147.5t82-97.5T390 62q71 0 124.5 33.5T597 193t29 148ZM445 748H363L234 882H353l92-134Z"/>
<glyph unicode="&#xf2;" glyph-name="ograve" horiz-adv-x="564" d="M517 241q0-75-29-133T405.5 18.5 281-13q-73 0-125.5 30.5T75 105.5 47 239q0 75 29 133.5t82.5 90T283 494q73 0 125.5-31T489 374.5 517 241Zm-85-1q0 54-18.5 96.5T361 402t-79 23-79-23-52.5-65.5T132 240q0-53 18.5-95.5t52.5-66T282 55q46 0 80 23.5t52 66T432 240ZM332 552H256L137 694H247l85-142Z"/>
<glyph unicode="&#xd3;" glyph-name="Oacute" horiz-adv-x="780" d="M717 342q0-105-41.5-186.5T559 29.5 389-15q-98 0-172 44T103 154 63 340t41.5 186.5T221 652.5 391 697q97 0 171.5-44T677 528t40-186Zm-91-1q0 84-29 147.5t-82.5 98T390 621 265.5 587 183 489.5 154 341q0-84 28.5-147.5t82-97.5T390 62q71 0 124.5 33.5T597 193t29 148ZM426 882H545L416 748H335l91 134Z"/>
<glyph unicode="&#xf3;" glyph-name="oacute" horiz-adv-x="564" d="M517 241q0-75-29-133T405.5 18.5 281-13q-73 0-125.5 30.5T75 105.5 47 239q0 75 29 133.5t82.5 90T283 494q73 0 125.5-31T489 374.5 517 241Zm-85-1q0 54-18.5 96.5T361 402t-79 23-79-23-52.5-65.5T132 240q0-53 18.5-95.5t52.5-66T282 55q46 0 80 23.5t52 66T432 240ZM317 694H426L308 552H232l85 142Z"/>
<glyph unicode="&#xd4;" glyph-name="Ocircumflex" horiz-adv-x="780" d="M717 342q0-105-41.5-186.5T559 29.5 389-15q-98 0-172 44T103 154 63 340t41.5 186.5T221 652.5 391 697q97 0 171.5-44T677 528t40-186Zm-91-1q0 84-29 147.5t-82.5 98T390 621 265.5 587 183 489.5 154 341q0-84 28.5-147.5t82-97.5T390 62q71 0 124.5 33.5T597 193t29 148ZM345 882h89L551 748H467l-78 74-77-74H229L345 882Z"/>
<glyph unicode="&#xf4;" glyph-name="ocircumflex" horiz-adv-x="564" d="M517 241q0-75-29-133T405.5 18.5 281-13q-73 0-125.5 30.5T75 105.5 47 239q0 75 29 133.5t82.5 90T283 494q73 0 125.5-31T489 374.5 517 241Zm-85-1q0 54-18.5 96.5T361 402t-79 23-79-23-52.5-65.5T132 240q0-53 18.5-95.5t52.5-66T282 55q46 0 80 23.5t52 66T432 240ZM233 694h99L432 552H354l-73 88-73-88H132L233 694Z"/>
<glyph unicode="&#xd5;" glyph-name="Otilde" horiz-adv-x="780" d="M717 342q0-105-41.5-186.5T559 29.5 389-15q-98 0-172 44T103 154 63 340t41.5 186.5T221 652.5 391 697q97 0 171.5-44T677 528t40-186Zm-91-1q0 84-29 147.5t-82.5 98T390 621 265.5 587 183 489.5 154 341q0-84 28.5-147.5t82-97.5T390 62q71 0 124.5 33.5T597 193t29 148ZM319 811q-18 0-28-16t-10-43H215q0 39 12.5 68t36 44T321 879q22 0 43-8t46.5-27.5 34-24T461 815q17 0 27 16.5T498 874h67q0-39-12.5-68T516 762t-58-15q-22 0-43 8t-46 27.5-33.5 24T319 811Z"/>
<glyph unicode="&#xf5;" glyph-name="otilde" horiz-adv-x="564" d="M517 241q0-75-29-133T405.5 18.5 281-13q-73 0-125.5 30.5T75 105.5 47 239q0 75 29 133.5t82.5 90T283 494q73 0 125.5-31T489 374.5 517 241Zm-85-1q0 54-18.5 96.5T361 402t-79 23-79-23-52.5-65.5T132 240q0-53 18.5-95.5t52.5-66T282 55q46 0 80 23.5t52 66T432 240ZM218 622q-17 0-26-15.5T183 563H120q0 39 11.5 67t34 42.5T221 687q21 0 39.5-8T301 651.5 330.5 628t14.5-4q18 0 27 15.5t9 42.5h63q0-38-12-66t-35-42.5T342 559q-20 0-38.5 8T263 594t-30 23.5T218 622Z"/>
<glyph unicode="&#xd6;" glyph-name="Odieresis" horiz-adv-x="780" d="M717 342q0-105-41.5-186.5T559 29.5 389-15q-98 0-172 44T103 154 63 340t41.5 186.5T221 652.5 391 697q97 0 171.5-44T677 528t40-186Zm-91-1q0 84-29 147.5t-82.5 98T390 621 265.5 587 183 489.5 154 341q0-84 28.5-147.5t82-97.5T390 62q71 0 124.5 33.5T597 193t29 148ZM461 758V874h85V758H461Zm-226 0V874h85V758H235Z"/>
<glyph unicode="&#xf6;" glyph-name="odieresis" horiz-adv-x="564" d="M517 241q0-75-29-133T405.5 18.5 281-13q-73 0-125.5 30.5T75 105.5 47 239q0 75 29 133.5t82.5 90T283 494q73 0 125.5-31T489 374.5 517 241Zm-85-1q0 54-18.5 96.5T361 402t-79 23-79-23-52.5-65.5T132 240q0-53 18.5-95.5t52.5-66T282 55q46 0 80 23.5t52 66T432 240ZM336 567V683h79V567H336Zm-188 0V683h79V567H148Z"/>
<glyph unicode="&#x14c;" glyph-name="Omacron" horiz-adv-x="780" d="M717 342q0-105-41.5-186.5T559 29.5 389-15q-98 0-172 44T103 154 63 340t41.5 186.5T221 652.5 391 697q97 0 171.5-44T677 528t40-186Zm-91-1q0 84-29 147.5t-82.5 98T390 621 265.5 587 183 489.5 154 341q0-84 28.5-147.5t82-97.5T390 62q71 0 124.5 33.5T597 193t29 148ZM542 776H237v71H542V776Z"/>
<glyph unicode="&#x14d;" glyph-name="omacron" horiz-adv-x="564" d="M517 241q0-75-29-133T405.5 18.5 281-13q-73 0-125.5 30.5T75 105.5 47 239q0 75 29 133.5t82.5 90T283 494q73 0 125.5-31T489 374.5 517 241Zm-85-1q0 54-18.5 96.5T361 402t-79 23-79-23-52.5-65.5T132 240q0-53 18.5-95.5t52.5-66T282 55q46 0 80 23.5t52 66T432 240ZM421 586H144v67H421V586Z"/>
<glyph unicode="&#x14e;" glyph-name="Obreve" horiz-adv-x="780" d="M717 342q0-105-41.5-186.5T559 29.5 389-15q-98 0-172 44T103 154 63 340t41.5 186.5T221 652.5 391 697q97 0 171.5-44T677 528t40-186Zm-91-1q0 84-29 147.5t-82.5 98T390 621 265.5 587 183 489.5 154 341q0-84 28.5-147.5t82-97.5T390 62q71 0 124.5 33.5T597 193t29 148ZM541 886q0-46-18-78.5t-52.5-48T389 744q-48 0-81.5 15.5t-51 47.5T239 886h70q0-25 8.5-41.5t26.5-25 46-8.5q27 0 45.5 9t27 25.5T471 886h70Z"/>
<glyph unicode="&#x14f;" glyph-name="obreve" horiz-adv-x="564" d="M517 241q0-75-29-133T405.5 18.5 281-13q-73 0-125.5 30.5T75 105.5 47 239q0 75 29 133.5t82.5 90T283 494q73 0 125.5-31T489 374.5 517 241Zm-85-1q0 54-18.5 96.5T361 402t-79 23-79-23-52.5-65.5T132 240q0-53 18.5-95.5t52.5-66T282 55q46 0 80 23.5t52 66T432 240Zm-9 454q0-45-15.5-76t-47-47.5T281 554q-47 0-78 16.5T156.5 618 141 694h65q0-24 8-41t25-26 43-9 43 9.5T350 654t8 40h65Z"/>
<glyph unicode="&#x150;" glyph-name="Ohungarumlaut" horiz-adv-x="780" d="M717 342q0-105-41.5-186.5T559 29.5 389-15q-98 0-172 44T103 154 63 340t41.5 186.5T221 652.5 391 697q97 0 171.5-44T677 528t40-186Zm-91-1q0 84-29 147.5t-82.5 98T390 621 265.5 587 183 489.5 154 341q0-84 28.5-147.5t82-97.5T390 62q71 0 124.5 33.5T597 193t29 148ZM536 882H654L526 748H444l92 134Zm-226 0H422L315 748H237l73 134Z"/>
<glyph unicode="&#x151;" glyph-name="ohungarumlaut" horiz-adv-x="564" d="M517 241q0-75-29-133T405.5 18.5 281-13q-73 0-125.5 30.5T75 105.5 47 239q0 75 29 133.5t82.5 90T283 494q73 0 125.5-31T489 374.5 517 241Zm-85-1q0 54-18.5 96.5T361 402t-79 23-79-23-52.5-65.5T132 240q0-53 18.5-95.5t52.5-66T282 55q46 0 80 23.5t52 66T432 240ZM411 694H521L401 552H326l85 142Zm-198 0H316L220 552H147l66 142Z"/>
<glyph unicode="&#xd8;" glyph-name="Oslash" horiz-adv-x="780" d="M153 341q0-48 10-90.5T192 175L543 564q-29 28-68.5 43T390 622q-73 0-126.5-35t-82-98.5T153 341Zm474 0q0 48-10 90t-29 76L237 118q29-28 68-42.5T390 61q73 0 126.5 35t82 98T627 341ZM59 29l72 79Q97 154 80 212.5T63 340q0 104 41 185.5T220 652t171 45q60 0 112.5-18.5T597 626l69 76 54-49-72-80q34-44 51.5-103T717 342q0-104-41-185.5T560 30 389-15Q328-15 275.5 3T182 56L114-20 59 29Z"/>
<glyph unicode="&#xf8;" glyph-name="oslash" horiz-adv-x="564" d="M433 240q0 30-5 54.5T413 339L188 89q18-17 42-26t52-9q46 0 80.5 23.5t52.5 66T433 240Zm-302 0q0-29 5-54t14-45L376 391q-19 17-43 26.5T282 427q-46 0-80.5-23.5t-52.5-66T131 240ZM29 8L91 77q-22 31-33 72.5T47 239q0 76 29 134t82.5 89.5T283 494q43 0 79-11.5T427 449l60 67 48-43-63-69q22-33 33.5-74T517 241q0-75-29-133T405.5 18.5 281-13q-44 0-80 11.5T136 31L77-35 29 8Z"/>
<glyph unicode="&#x1fe;" glyph-name="Oslashacute" horiz-adv-x="780" d="M153 341q0-48 10-90.5T192 175L543 564q-29 28-68.5 43T390 622q-73 0-126.5-35t-82-98.5T153 341Zm474 0q0 48-10 90t-29 76L237 118q29-28 68-42.5T390 61q73 0 126.5 35t82 98T627 341ZM59 29l72 79Q97 154 80 212.5T63 340q0 104 41 185.5T220 652t171 45q60 0 112.5-18.5T597 626l69 76 54-49-72-80q34-44 51.5-103T717 342q0-104-41-185.5T560 30 389-15Q328-15 275.5 3T182 56L114-20 59 29ZM426 882H545L416 748H335l91 134Z"/>
<glyph unicode="&#x1ff;" glyph-name="oslashacute" horiz-adv-x="564" d="M433 240q0 30-5 54.5T413 339L188 89q18-17 42-26t52-9q46 0 80.5 23.5t52.5 66T433 240Zm-302 0q0-29 5-54t14-45L376 391q-19 17-43 26.5T282 427q-46 0-80.5-23.5t-52.5-66T131 240ZM29 8L91 77q-22 31-33 72.5T47 239q0 76 29 134t82.5 89.5T283 494q43 0 79-11.5T427 449l60 67 48-43-63-69q22-33 33.5-74T517 241q0-75-29-133T405.5 18.5 281-13q-44 0-80 11.5T136 31L77-35 29 8ZM317 694H426L308 552H232l85 142Z"/>
<glyph unicode="&#x152;" glyph-name="OE" horiz-adv-x="1129" d="M610 341q0 83-27.5 147t-79 98.5T382 621 260.5 586.5t-79-98.5T154 341q0-85 28.5-149t80-97T382 62q70 0 121.5 34t79 98T610 341ZM381 696q76 0 135-29.5T609 582h1V682h439V609H696V383h306V314H696V74h370V0H610V109h-1q-34-58-94-90.5T379-14q-94 0-165.5 43.5t-111 124T63 340q0 104 39.5 185T215 651t166 45Z"/>
<glyph unicode="&#x153;" glyph-name="oe" horiz-adv-x="916" d="M786 283q-1 41-17.5 74.5t-46.5 52T653 428q-38 0-67.5-16.5T538 362t-23-79H786ZM282 55q44 0 78 22.5t52.5 65T431 240q0 54-18 96.5T361 402t-79 23q-46 0-80-23t-52-65.5T132 240q0-55 19-97t53-65 78-23Zm-1-68q-72 0-124.5 30t-81 87.5T47 239q0 76 29 134t82.5 89.5T283 494q67 0 115.5-29.5T472 379q26 55 73.5 85T656 494q66 0 114-28.5T844.5 385 871 273q0-30-4-51H513q1-49 20-87t53.5-59.5T667 54q51 0 88.5 18.5T822 132l48-46q-39-52-89.5-75.5T663-13q-69 0-117 29.5T471 103q-26-55-75-85.5T281-13Z"/>
<glyph unicode="P" glyph-name="P" horiz-adv-x="643" d="M106 682q128 1 257 1 90 0 149.5-23.5T601 590t29-114q0-67-30.5-114t-92-71.5T356 266q-103 0-164 1V0H106V682ZM539 474q0 47-18.5 76.5t-58 44T361 609q-117 0-169-1V340q53-1 167-1 62 0 102 15t59 44.5T539 474Z"/>
<glyph unicode="p" glyph-name="p" horiz-adv-x="584" d="M82-204V242q0 60-0.5 119.5T79 481h77l2-71h1q23 41 64 62.5T319 494q66 0 115.5-30.5t76-88T537 243q0-76-27-134.5t-77.5-90T315-13q-50 0-90 20T160 64h-1q3-35 3-89V-204H82Zm78 435q0-53 18.5-93.5t52-62T307 54q45 0 78 22.5t50 65T452 241q0 56-18.5 98.5T381 404t-78 22q-43 0-75.5-21t-50-61T160 250V231Z"/>
<glyph unicode="&#x1e56;" glyph-name="uni1E56" horiz-adv-x="643" d="M106 682q128 1 257 1 90 0 149.5-23.5T601 590t29-114q0-67-30.5-114t-92-71.5T356 266q-103 0-164 1V0H106V682ZM539 474q0 47-18.5 76.5t-58 44T361 609q-117 0-169-1V340q53-1 167-1 62 0 102 15t59 44.5T539 474ZM308 758V874h87V758H308Z"/>
<glyph unicode="&#x1e57;" glyph-name="uni1E57" horiz-adv-x="584" d="M82-204V242q0 60-0.5 119.5T79 481h77l2-71h1q23 41 64 62.5T319 494q66 0 115.5-30.5t76-88T537 243q0-76-27-134.5t-77.5-90T315-13q-50 0-90 20T160 64h-1q3-35 3-89V-204H82Zm78 435q0-53 18.5-93.5t52-62T307 54q45 0 78 22.5t50 65T452 241q0 56-18.5 98.5T381 404t-78 22q-43 0-75.5-21t-50-61T160 250V231ZM265 567V683h82V567H265Z"/>
<glyph unicode="&#xde;" glyph-name="Thorn" horiz-adv-x="643" d="M192 226q53-1 167-1 62 0 102 15t59 44.5T539 360q0 47-18.5 76.5t-58 44T361 495q-116 0-169-1V226ZM106 0V682h86V568q6 0 64 0.5T363 569q90 0 149.5-23.5T601 476t29-114q0-67-30.5-114t-92-71.5T356 152q-103 0-164 1V0H106Z"/>
<glyph unicode="&#xfe;" glyph-name="thorn" horiz-adv-x="584" d="M82 710h80V505q0-58-4-93h1q23 39 64.5 60.5T319 494q67 0 116-31.5T510.5 374 537 243q0-76-27-134.5t-77.5-90T315-13q-50 0-90 20T160 64h-1q3-35 3-89V-204H82V710Zm78-479q0-52 18-92.5T229.5 76 307 54q45 0 78 22.5t50 65T452 241q0 55-18 97t-52 65-79 23q-43 0-75.5-21t-50-61T160 250V231Z"/>
<glyph unicode="Q" glyph-name="Q" horiz-adv-x="780" d="M717 342q0-73-20.5-135T638 98l74-74L660-29 584 46Q543 16 493.5 0.5T389-15q-97 0-171.5 44T103 154 63 340t41.5 186.5T221 652.5 391 697q97 0 171.5-44T677 528t40-186ZM483 253l95-95q24 36 36 82t12 101q0 84-29 148t-82.5 98T390 621 265.5 587 183 489.5 154 341q0-84 28.5-147.5t82-97.5T390 62q40 0 74 10.5T526 104l-96 96 53 53Z"/>
<glyph unicode="q" glyph-name="q" horiz-adv-x="586" d="M425 250q0 52-18 92t-51.5 62T278 426q-45 0-78-22.5T150 339t-17-99q0-55 18-97.5T203 77t79-23q44 0 76.5 22T408 138t17 92v20Zm-2-454V-25q0 60 4 94h-1Q402 30 361 8.5T266-13q-67 0-116 31T74.5 106.5 48 238q0 76 27 134t77.5 90T270 494q52 0 92-21t66-60h1l3 68h78q-7-137-7-236V-204H423Z"/>
<glyph unicode="R" glyph-name="R" horiz-adv-x="694" d="M192 349q26-1 62-1.5T355 347q61 0 100.5 14t59 42.5T534 479q0 44-18.5 73t-57 43T360 609q-70 0-104.5 0T192 608V349ZM550 0L337 274H192V0H106V682q21 0 117 0.5T364 683q84 0 142.5-23T595 592t30-111q0-80-48.5-131.5T437 283L659 0H550Z"/>
<glyph unicode="r" glyph-name="r" horiz-adv-x="350" d="M82 0V241q0 58-0.5 103T79 481h77l2-95h1q29 52 70.5 79.5T318 493q10 0 17-1V405q-9 1-19 1-30 0-56-10.5T215 366q-29-29-41-69.5T162 171V0H82Z"/>
<glyph unicode="&#x154;" glyph-name="Racute" horiz-adv-x="694" d="M192 349q26-1 62-1.5T355 347q61 0 100.5 14t59 42.5T534 479q0 44-18.5 73t-57 43T360 609q-70 0-104.5 0T192 608V349ZM550 0L337 274H192V0H106V682q21 0 117 0.5T364 683q84 0 142.5-23T595 592t30-111q0-80-48.5-131.5T437 283L659 0H550ZM385 882H504L375 748H294l91 134Z"/>
<glyph unicode="&#x155;" glyph-name="racute" horiz-adv-x="350" d="M82 0V241q0 58-0.5 103T79 481h77l2-95h1q29 52 70.5 79.5T318 493q10 0 17-1V405q-9 1-19 1-30 0-56-10.5T215 366q-29-29-41-69.5T162 171V0H82ZM239 693H348L230 551H154l85 142Z"/>
<glyph unicode="&#x158;" glyph-name="Rcaron" horiz-adv-x="694" d="M192 349q26-1 62-1.5T355 347q61 0 100.5 14t59 42.5T534 479q0 44-18.5 73t-57 43T360 609q-70 0-104.5 0T192 608V349ZM550 0L337 274H192V0H106V682q21 0 117 0.5T364 683q84 0 142.5-23T595 592t30-111q0-80-48.5-131.5T437 283L659 0H550ZM393 748H303L187 882h83l78-74 79 74h82L393 748Z"/>
<glyph unicode="&#x159;" glyph-name="rcaron" horiz-adv-x="350" d="M82 0V241q0 58-0.5 103T79 481h77l2-95h1q29 52 70.5 79.5T318 493q10 0 17-1V405q-9 1-19 1-30 0-56-10.5T215 366q-29-29-41-69.5T162 171V0H82ZM253 551H154L54 693h78l73-87 73 87h76L253 551Z"/>
<glyph unicode="&#x156;" glyph-name="Rcommaaccent" horiz-adv-x="694" d="M192 349q26-1 62-1.5T355 347q61 0 100.5 14t59 42.5T534 479q0 44-18.5 73t-57 43T360 609q-70 0-104.5 0T192 608V349ZM550 0L337 274H192V0H106V682q21 0 117 0.5T364 683q84 0 142.5-23T595 592t30-111q0-80-48.5-131.5T437 283L659 0H550ZM406-52v-73q0-41-24-62t-72-21H291v39h17q18 0 26 9t8 28H320v80h86Z"/>
<glyph unicode="&#x157;" glyph-name="rcommaaccent" horiz-adv-x="350" d="M82 0V241q0 58-0.5 103T79 481h77l2-95h1q29 52 70.5 79.5T318 493q10 0 17-1V405q-9 1-19 1-30 0-56-10.5T215 366q-29-29-41-69.5T162 171V0H82Zm80-52v-73q0-36-21-59.5T70-208H51v39H70q20 0 26.5 10.5T103-130H81v78h81Z"/>
<glyph unicode="S" glyph-name="S" horiz-adv-x="658" d="M106 172q51-56 112-85T345 58q48 0 84.5 15t56 41.5T505 176q0 33-16.5 56T439 271.5t-130 40T168 361t-65 64T82 515q0 53 29 94.5T193.5 674 316 697q68 0 129-23t116-71l-47-65q-45 44-94 65T314 624q-45 0-77.5-12.5T187 575t-17-55 16-53.5T234.5 428t130-39.5 142-50T572 273t21-92q0-56-31-100.5t-89-70T343-15q-82 0-154 31T57 109l49 63Z"/>
<glyph unicode="s" glyph-name="s" horiz-adv-x="491" d="M87 128q36-36 80-55.5T256 53q48 0 75.5 19.5T359 126q0 21-11 35.5T315 186t-90 26T125 247 78 294 63 360q0 40 22 70.5t62 47T237 494q51 0 98-16.5T421 429l-42-56q-31 27-67.5 41.5T236 429q-28 0-48.5-7.5t-31.5-22T145 364q0-20 11-34.5T188.5 305t89-25.5 100-34.5T425 198t15-67q0-42-22.5-74.5T352 5.5 255-13Q196-13 143 8T45 69l42 59Z"/>
<glyph unicode="&#x15a;" glyph-name="Sacute" horiz-adv-x="658" d="M106 172q51-56 112-85T345 58q48 0 84.5 15t56 41.5T505 176q0 33-16.5 56T439 271.5t-130 40T168 361t-65 64T82 515q0 53 29 94.5T193.5 674 316 697q68 0 129-23t116-71l-47-65q-45 44-94 65T314 624q-45 0-77.5-12.5T187 575t-17-55 16-53.5T234.5 428t130-39.5 142-50T572 273t21-92q0-56-31-100.5t-89-70T343-15q-82 0-154 31T57 109l49 63ZM357 882H476L347 748H266l91 134Z"/>
<glyph unicode="&#x15b;" glyph-name="sacute" horiz-adv-x="491" d="M87 128q36-36 80-55.5T256 53q48 0 75.5 19.5T359 126q0 21-11 35.5T315 186t-90 26T125 247 78 294 63 360q0 40 22 70.5t62 47T237 494q51 0 98-16.5T421 429l-42-56q-31 27-67.5 41.5T236 429q-28 0-48.5-7.5t-31.5-22T145 364q0-20 11-34.5T188.5 305t89-25.5 100-34.5T425 198t15-67q0-42-22.5-74.5T352 5.5 255-13Q196-13 143 8T45 69l42 59ZM274 694H383L265 552H189l85 142Z"/>
<glyph unicode="&#x15c;" glyph-name="Scircumflex" horiz-adv-x="658" d="M106 172q51-56 112-85T345 58q48 0 84.5 15t56 41.5T505 176q0 33-16.5 56T439 271.5t-130 40T168 361t-65 64T82 515q0 53 29 94.5T193.5 674 316 697q68 0 129-23t116-71l-47-65q-45 44-94 65T314 624q-45 0-77.5-12.5T187 575t-17-55 16-53.5T234.5 428t130-39.5 142-50T572 273t21-92q0-56-31-100.5t-89-70T343-15q-82 0-154 31T57 109l49 63ZM274 882h89L480 748H396l-78 74-77-74H158L274 882Z"/>
<glyph unicode="&#x15d;" glyph-name="scircumflex" horiz-adv-x="491" d="M87 128q36-36 80-55.5T256 53q48 0 75.5 19.5T359 126q0 21-11 35.5T315 186t-90 26T125 247 78 294 63 360q0 40 22 70.5t62 47T237 494q51 0 98-16.5T421 429l-42-56q-31 27-67.5 41.5T236 429q-28 0-48.5-7.5t-31.5-22T145 364q0-20 11-34.5T188.5 305t89-25.5 100-34.5T425 198t15-67q0-42-22.5-74.5T352 5.5 255-13Q196-13 143 8T45 69l42 59ZM190 694h99L389 552H311l-73 88-73-88H89L190 694Z"/>
<glyph unicode="&#x160;" glyph-name="Scaron" horiz-adv-x="658" d="M106 172q51-56 112-85T345 58q48 0 84.5 15t56 41.5T505 176q0 33-16.5 56T439 271.5t-130 40T168 361t-65 64T82 515q0 53 29 94.5T193.5 674 316 697q68 0 129-23t116-71l-47-65q-45 44-94 65T314 624q-45 0-77.5-12.5T187 575t-17-55 16-53.5T234.5 428t130-39.5 142-50T572 273t21-92q0-56-31-100.5t-89-70T343-15q-82 0-154 31T57 109l49 63ZM364 748H274L158 882h83l78-74 79 74h82L364 748Z"/>
<glyph unicode="&#x161;" glyph-name="scaron" horiz-adv-x="491" d="M87 128q36-36 80-55.5T256 53q48 0 75.5 19.5T359 126q0 21-11 35.5T315 186t-90 26T125 247 78 294 63 360q0 40 22 70.5t62 47T237 494q51 0 98-16.5T421 429l-42-56q-31 27-67.5 41.5T236 429q-28 0-48.5-7.5t-31.5-22T145 364q0-20 11-34.5T188.5 305t89-25.5 100-34.5T425 198t15-67q0-42-22.5-74.5T352 5.5 255-13Q196-13 143 8T45 69l42 59ZM286 552H187L87 694h78l73-87 73 87h76L286 552Z"/>
<glyph unicode="&#x15e;" glyph-name="Scedilla" horiz-adv-x="658" d="M258-204q3 3 29 28.5T313-128q0 14-12.5 26.5T263-78l38 66Q229-5 172 23.5T57 109l49 63Q210 58 345 58q74 0 117 32t43 86q0 33-16.5 56T439 271.5t-130 40T168 361t-65 64T82 515q0 53 29 94.5T193.5 674 316 697t129.5-23T561 603l-47-65q-45 44-94 65T314 624q-69 0-106.5-28T170 520q0-31 16-53.5T234.5 428t130-39.5 142-50T572 273t21-92q0-52-28-94.5T487 18 374-13L353-50q23-17 33.5-34.5T397-122t-15.5-43.5T345-204H258Z"/>
<glyph unicode="&#x15f;" glyph-name="scedilla" horiz-adv-x="491" d="M174-204q23 19 38 40t15 36q0 14-10 25T179-77l38 67Q184-7 153.5 3.5T96 30.5 45 69l42 59q37-36 81-55.5T256 53q49 0 76 19.5T359 126q0 21-11 35.5T315 186t-81 24-87 26-46.5 29-28 40.5T63 360q0 39 21 69.5T145 477t92 17q50 0 97-16.5T421 429l-42-56q-32 27-68.5 41.5T236 429q-44 0-67.5-17.5T145 364q0-20 11-34.5T188.5 305t88-25 99-33.5 48.5-47T440 131q0-39-19-69T367 13.5 287-10L264-50q23-17 33-34t10-38q0-20-14-42.5T257-204H174Z"/>
<glyph unicode="&#x218;" glyph-name="Scommaaccent" horiz-adv-x="658" d="M106 172q51-56 112-85T345 58q48 0 84.5 15t56 41.5T505 176q0 33-16.5 56T439 271.5t-130 40T168 361t-65 64T82 515q0 53 29 94.5T193.5 674 316 697q68 0 129-23t116-71l-47-65q-45 44-94 65T314 624q-45 0-77.5-12.5T187 575t-17-55 16-53.5T234.5 428t130-39.5 142-50T572 273t21-92q0-56-31-100.5t-89-70T343-15q-82 0-154 31T57 109l49 63ZM386-52v-73q0-41-24-62t-72-21H271v39h17q18 0 26 9t8 28H300v80h86Z"/>
<glyph unicode="&#x219;" glyph-name="scommaaccent" horiz-adv-x="491" d="M87 128q36-36 80-55.5T256 53q48 0 75.5 19.5T359 126q0 21-11 35.5T315 186t-90 26T125 247 78 294 63 360q0 40 22 70.5t62 47T237 494q51 0 98-16.5T421 429l-42-56q-31 27-67.5 41.5T236 429q-28 0-48.5-7.5t-31.5-22T145 364q0-20 11-34.5T188.5 305t89-25.5 100-34.5T425 198t15-67q0-42-22.5-74.5T352 5.5 255-13Q196-13 143 8T45 69l42 59ZM297-52v-73q0-36-21-59.5T205-208H186v39h19q20 0 26.5 10.5T238-130H216v78h81Z"/>
<glyph unicode="&#x1e60;" glyph-name="uni1E60" horiz-adv-x="658" d="M106 172q51-56 112-85T345 58q48 0 84.5 15t56 41.5T505 176q0 33-16.5 56T439 271.5t-130 40T168 361t-65 64T82 515q0 53 29 94.5T193.5 674 316 697q68 0 129-23t116-71l-47-65q-45 44-94 65T314 624q-45 0-77.5-12.5T187 575t-17-55 16-53.5T234.5 428t130-39.5 142-50T572 273t21-92q0-56-31-100.5t-89-70T343-15q-82 0-154 31T57 109l49 63ZM276 758V874h87V758H276Z"/>
<glyph unicode="&#x1e61;" glyph-name="uni1E61" horiz-adv-x="491" d="M87 128q36-36 80-55.5T256 53q48 0 75.5 19.5T359 126q0 21-11 35.5T315 186t-90 26T125 247 78 294 63 360q0 40 22 70.5t62 47T237 494q51 0 98-16.5T421 429l-42-56q-31 27-67.5 41.5T236 429q-28 0-48.5-7.5t-31.5-22T145 364q0-20 11-34.5T188.5 305t89-25.5 100-34.5T425 198t15-67q0-42-22.5-74.5T352 5.5 255-13Q196-13 143 8T45 69l42 59ZM195 567V683h82V567H195Z"/>
<glyph unicode="&#x1e9e;" glyph-name="uni1E9E" horiz-adv-x="747" d="M99 441q0 85 33 141.5T230.5 667 393 695q59 0 125-8.5T639 664V600L443 388q82-2 139-26t86-68 29-105q0-60-29.5-106t-85-72T452-15q-34 0-72.5 6.5T310 8l18 73q28-10 62.5-16.5T455 58q46 0 80.5 15t53 44T607 185q0 43-22.5 72.5t-66 44.5T411 317H343v71L546 606q-35 8-75.5 12T390 622q-72 0-117-18.5T206.5 546 185 443V0H99V441Z"/>
<glyph unicode="&#xdf;" glyph-name="germandbls" horiz-adv-x="581" d="M82 505q0 69 25 116t72.5 71T296 716q65 0 110.5-18t69-53T499 566q0-28-8.5-50T465 477t-51-37-45-30-16.5-21T347 365q0-12 6-23t19.5-21.5 58-35T498 240t34-47.5T543 133q0-43-20-76T465.5 5.5 380-13q-33 0-67 9.5T251 22l29 64q22-15 49-24t53-9 43.5 9 26 26 8.5 40q0 17-7.5 31T430 185.5 370 223t-65.5 44.5T274 310t-10 51q0 25 8 45t23.5 36.5T346 480t47 32.5 17.5 24T416 564q0 25-14.5 45T360 639.5 294 650q-45 0-74-15.5t-43.5-48T162 504V0H82V505Z"/>
<glyph unicode="&#x17f;" glyph-name="longs" horiz-adv-x="260" d="M82 0V570q0 48 15 80t46 49 79 17q17 0 38-3t37-9V635q-17 7-36.5 10T225 648q-23 0-36.5-8t-20-26T162 564V0H82Z"/>
<glyph unicode="T" glyph-name="T" horiz-adv-x="534" d="M224 608H-7v74H541V608H310V0H224V608Z"/>
<glyph unicode="t" glyph-name="t" horiz-adv-x="350" d="M10 415v66h95V645l80 20V481H325V415H185V190q0-48 1.5-69T192 89.5 204 70q7-7 17.5-10.5T248 56q20 0 41.5 4.5T325 72V4Q309-3 283.5-7.5T233-12q-46 0-74 16T118 52.5 105 138V415H10Z"/>
<glyph unicode="&#x164;" glyph-name="Tcaron" horiz-adv-x="534" d="M224 608H-7v74H541V608H310V0H224V608Zm84 140H218L102 882h83l78-74 79 74h82L308 748Z"/>
<glyph unicode="&#x165;" glyph-name="tcaron" horiz-adv-x="350" d="M10 415v66h95V645l80 20V481H325V415H185V190q0-48 1.5-69T192 89.5 204 70q7-7 17.5-10.5T248 56q20 0 41.5 4.5T325 72V4Q309-3 283.5-7.5T233-12q-46 0-74 16T118 52.5 105 138V415H10ZM276 757h86L308 568H243l33 189Z"/>
<glyph unicode="&#x162;" glyph-name="Tcommaaccent" horiz-adv-x="534" d="M224 608H-7v74H541V608H310V0H224V608ZM306-52v-73q0-41-24-62t-72-21H191v39h17q18 0 26 9t8 28H220v80h86Z"/>
<glyph unicode="&#x163;" glyph-name="tcommaaccent" horiz-adv-x="350" d="M10 415v66h95V645l80 20V481H325V415H185V190q0-48 1.5-69T192 89.5 204 70q7-7 17.5-10.5T248 56q20 0 41.5 4.5T325 72V4Q309-3 283.5-7.5T233-12q-46 0-74 16T118 52.5 105 138V415H10ZM255-52v-73q0-36-21-59.5T163-208H144v39h19q20 0 26.5 10.5T196-130H174v78h81Z"/>
<glyph unicode="&#x21a;" glyph-name="uni021A" horiz-adv-x="534" d="M224 608H-7v74H541V608H310V0H224V608ZM306-52v-73q0-41-24-62t-72-21H191v39h17q18 0 26 9t8 28H220v80h86Z"/>
<glyph unicode="&#x21b;" glyph-name="uni021B" horiz-adv-x="350" d="M10 415v66h95V645l80 20V481H325V415H185V190q0-48 1.5-69T192 89.5 204 70q7-7 17.5-10.5T248 56q20 0 41.5 4.5T325 72V4Q309-3 283.5-7.5T233-12q-46 0-74 16T118 52.5 105 138V415H10ZM255-52v-73q0-36-21-59.5T163-208H144v39h19q20 0 26.5 10.5T196-130H174v78h81Z"/>
<glyph unicode="&#x166;" glyph-name="Tbar" horiz-adv-x="534" d="M224 0V309H39v69H224V608H-7v74H541V608H310V378H495V309H310V0H224Z"/>
<glyph unicode="&#x167;" glyph-name="tbar" horiz-adv-x="350" d="M105 415H10v66h95V645l80 20V481H325V415H185V276H298V213H185V186q0-61 3.5-82.5T204 70q14-14 44-14 20 0 41.5 4.5T325 72V4Q309-3 283.5-7.5T233-12q-46 0-74 16T118 52.5 105 138v75H20v63h85V415Z"/>
<glyph unicode="&#x1e6a;" glyph-name="uni1E6A" horiz-adv-x="534" d="M224 608H-7v74H541V608H310V0H224V608Zm0 150V874h87V758H224Z"/>
<glyph unicode="&#x1e6b;" glyph-name="uni1E6B" horiz-adv-x="350" d="M10 415v66h95V645l80 20V481H325V415H185V190q0-48 1.5-69T192 89.5 204 70q7-7 17.5-10.5T248 56q20 0 41.5 4.5T325 72V4Q309-3 283.5-7.5T233-12q-46 0-74 16T118 52.5 105 138V415H10Zm96 307V838h82V722H106Z"/>
<glyph unicode="U" glyph-name="U" horiz-adv-x="732" d="M185 261q0-65 21-109.5t62-67T368 62 468 84.5t62 67T551 261V682h81V258q0-85-31-146.5t-91-94T366-15q-87 0-146.5 31.5t-90 92T99 251V682h86V261Z"/>
<glyph unicode="u" glyph-name="u" horiz-adv-x="560" d="M405 0l-2 70h-1Q378 30 338 8.5T248-13q-57 0-95.5 22.5T94.5 75 75 180V481h80V211q0-45 3.5-65.5T171 107q13-25 36.5-39T264 54q25 0 49 9.5T351 88q25 25 36.5 62T399 250V481h80V237q0-61 0.5-108.5T482 0H405Z"/>
<glyph unicode="&#xd9;" glyph-name="Ugrave" horiz-adv-x="732" d="M185 261q0-65 21-109.5t62-67T368 62 468 84.5t62 67T551 261V682h81V258q0-85-31-146.5t-91-94T366-15q-87 0-146.5 31.5t-90 92T99 251V682h86V261ZM421 748H339L210 882H329l92-134Z"/>
<glyph unicode="&#xf9;" glyph-name="ugrave" horiz-adv-x="560" d="M405 0l-2 70h-1Q378 30 338 8.5T248-13q-57 0-95.5 22.5T94.5 75 75 180V481h80V211q0-45 3.5-65.5T171 107q13-25 36.5-39T264 54q25 0 49 9.5T351 88q25 25 36.5 62T399 250V481h80V237q0-61 0.5-108.5T482 0H405ZM330 551H254L135 693H245l85-142Z"/>
<glyph unicode="&#xda;" glyph-name="Uacute" horiz-adv-x="732" d="M185 261q0-65 21-109.5t62-67T368 62 468 84.5t62 67T551 261V682h81V258q0-85-31-146.5t-91-94T366-15q-87 0-146.5 31.5t-90 92T99 251V682h86V261ZM402 882H521L392 748H311l91 134Z"/>
<glyph unicode="&#xfa;" glyph-name="uacute" horiz-adv-x="560" d="M405 0l-2 70h-1Q378 30 338 8.5T248-13q-57 0-95.5 22.5T94.5 75 75 180V481h80V211q0-45 3.5-65.5T171 107q13-25 36.5-39T264 54q25 0 49 9.5T351 88q25 25 36.5 62T399 250V481h80V237q0-61 0.5-108.5T482 0H405ZM315 693H424L306 551H230l85 142Z"/>
<glyph unicode="&#xdb;" glyph-name="Ucircumflex" horiz-adv-x="732" d="M185 261q0-65 21-109.5t62-67T368 62 468 84.5t62 67T551 261V682h81V258q0-85-31-146.5t-91-94T366-15q-87 0-146.5 31.5t-90 92T99 251V682h86V261ZM321 882h89L527 748H443l-78 74-77-74H205L321 882Z"/>
<glyph unicode="&#xfb;" glyph-name="ucircumflex" horiz-adv-x="560" d="M405 0l-2 70h-1Q378 30 338 8.5T248-13q-57 0-95.5 22.5T94.5 75 75 180V481h80V211q0-45 3.5-65.5T171 107q13-25 36.5-39T264 54q25 0 49 9.5T351 88q25 25 36.5 62T399 250V481h80V237q0-61 0.5-108.5T482 0H405ZM231 693h99L430 551H352l-73 88-73-88H130L231 693Z"/>
<glyph unicode="&#x168;" glyph-name="Utilde" horiz-adv-x="732" d="M185 261q0-65 21-109.5t62-67T368 62 468 84.5t62 67T551 261V682h81V258q0-85-31-146.5t-91-94T366-15q-87 0-146.5 31.5t-90 92T99 251V682h86V261ZM295 811q-18 0-28-16t-10-43H191q0 39 12.5 68t36 44T297 879q22 0 43-8t46.5-27.5 34-24T437 815q17 0 27 16.5T474 874h67q0-39-12.5-68T492 762t-58-15q-22 0-43 8t-46 27.5-33.5 24T295 811Z"/>
<glyph unicode="&#x169;" glyph-name="utilde" horiz-adv-x="560" d="M405 0l-2 70h-1Q378 30 338 8.5T248-13q-57 0-95.5 22.5T94.5 75 75 180V481h80V211q0-45 3.5-65.5T171 107q13-25 36.5-39T264 54q25 0 49 9.5T351 88q25 25 36.5 62T399 250V481h80V237q0-61 0.5-108.5T482 0H405ZM216 621q-17 0-26-15.5T181 562H118q0 39 11.5 67t34 42.5T219 686q21 0 39.5-8T299 650.5 328.5 627t14.5-4q18 0 27 15.5t9 42.5h63q0-38-12-66t-35-42.5T340 558q-20 0-38.5 8T261 593t-30 23.5T216 621Z"/>
<glyph unicode="&#xdc;" glyph-name="Udieresis" horiz-adv-x="732" d="M185 261q0-65 21-109.5t62-67T368 62 468 84.5t62 67T551 261V682h81V258q0-85-31-146.5t-91-94T366-15q-87 0-146.5 31.5t-90 92T99 251V682h86V261ZM437 758V874h85V758H437Zm-226 0V874h85V758H211Z"/>
<glyph unicode="&#xfc;" glyph-name="udieresis" horiz-adv-x="560" d="M405 0l-2 70h-1Q378 30 338 8.5T248-13q-57 0-95.5 22.5T94.5 75 75 180V481h80V211q0-45 3.5-65.5T171 107q13-25 36.5-39T264 54q25 0 49 9.5T351 88q25 25 36.5 62T399 250V481h80V237q0-61 0.5-108.5T482 0H405ZM335 566V682h79V566H335Zm-188 0V682h79V566H147Z"/>
<glyph unicode="&#x16a;" glyph-name="Umacron" horiz-adv-x="732" d="M185 261q0-65 21-109.5t62-67T368 62 468 84.5t62 67T551 261V682h81V258q0-85-31-146.5t-91-94T366-15q-87 0-146.5 31.5t-90 92T99 251V682h86V261ZM518 776H213v71H518V776Z"/>
<glyph unicode="&#x16b;" glyph-name="umacron" horiz-adv-x="560" d="M405 0l-2 70h-1Q378 30 338 8.5T248-13q-57 0-95.5 22.5T94.5 75 75 180V481h80V211q0-45 3.5-65.5T171 107q13-25 36.5-39T264 54q25 0 49 9.5T351 88q25 25 36.5 62T399 250V481h80V237q0-61 0.5-108.5T482 0H405Zm14 585H142v67H419V585Z"/>
<glyph unicode="&#x16c;" glyph-name="Ubreve" horiz-adv-x="732" d="M185 261q0-65 21-109.5t62-67T368 62 468 84.5t62 67T551 261V682h81V258q0-85-31-146.5t-91-94T366-15q-87 0-146.5 31.5t-90 92T99 251V682h86V261ZM517 886q0-46-18-78.5t-52.5-48T365 744q-48 0-81.5 15.5t-51 47.5T215 886h70q0-25 8.5-41.5t26.5-25 46-8.5q27 0 45.5 9t27 25.5T447 886h70Z"/>
<glyph unicode="&#x16d;" glyph-name="ubreve" horiz-adv-x="560" d="M405 0l-2 70h-1Q378 30 338 8.5T248-13q-57 0-95.5 22.5T94.5 75 75 180V481h80V211q0-45 3.5-65.5T171 107q13-25 36.5-39T264 54q25 0 49 9.5T351 88q25 25 36.5 62T399 250V481h80V237q0-61 0.5-108.5T482 0H405Zm16 693q0-45-15.5-76t-47-47.5T279 553q-47 0-78 16.5T154.5 617 139 693h65q0-24 8-41t25-26 43-9 43 9.5T348 653t8 40h65Z"/>
<glyph unicode="&#x16e;" glyph-name="Uring" horiz-adv-x="732" d="M185 261q0-65 21-109.5t62-67T368 62 468 84.5t62 67T551 261V682h81V258q0-85-31-146.5t-91-94T366-15q-87 0-146.5 31.5t-90 92T99 251V682h86V261ZM410 834q0 20-11.5 33.5T366 881q-22 0-33-13t-11-34q0-20 11.5-33T366 788t32.5 13T410 834Zm64 1q0-41-29-69t-80-28q-52 0-80 26.5T257 834q0 41 29.5 69T367 931q52 0 79.5-26.5T474 835Z"/>
<glyph unicode="&#x16f;" glyph-name="uring" horiz-adv-x="560" d="M405 0l-2 70h-1Q378 30 338 8.5T248-13q-57 0-95.5 22.5T94.5 75 75 180V481h80V211q0-45 3.5-65.5T171 107q13-25 36.5-39T264 54q25 0 49 9.5T351 88q25 25 36.5 62T399 250V481h80V237q0-61 0.5-108.5T482 0H405ZM325 644q0 20-11.5 33T281 690t-32.5-13T237 644t11.5-33T281 598t32.5 13T325 644Zm64 1q0-41-29-69t-80-28q-52 0-80 26.5T172 643q0 41 29.5 69T282 740t79-26.5T389 645Z"/>
<glyph unicode="&#x170;" glyph-name="Uhungarumlaut" horiz-adv-x="732" d="M185 261q0-65 21-109.5t62-67T368 62 468 84.5t62 67T551 261V682h81V258q0-85-31-146.5t-91-94T366-15q-87 0-146.5 31.5t-90 92T99 251V682h86V261ZM510 882H628L500 748H418l92 134Zm-226 0H396L289 748H211l73 134Z"/>
<glyph unicode="&#x171;" glyph-name="uhungarumlaut" horiz-adv-x="560" d="M405 0l-2 70h-1Q378 30 338 8.5T248-13q-57 0-95.5 22.5T94.5 75 75 180V481h80V211q0-45 3.5-65.5T171 107q13-25 36.5-39T264 54q25 0 49 9.5T351 88q25 25 36.5 62T399 250V481h80V237q0-61 0.5-108.5T482 0H405Zm-3 693H512L392 551H317l85 142Zm-198 0H307L211 551H138l66 142Z"/>
<glyph unicode="&#x172;" glyph-name="Uogonek" horiz-adv-x="732" d="M523-204q-14-3-30.5-5.5T459-212q-39 0-62.5 9t-34 25T352-137q0 29 16.5 61T418-8q-25-7-52-7-87 0-146.5 31.5t-90 92T99 251V682h86V261q0-65 21-109.5t62-67T368 62 468 84.5t62 67T551 261V682h81V258q0-64-17.5-115.5T562 56q-8-9-25.5-24.5T510 6q-36-35-55-70t-19-61q0-14 8-19.5t28-5.5h51v-54Z"/>
<glyph unicode="&#x173;" glyph-name="uogonek" horiz-adv-x="560" d="M403 70h-1Q378 30 338 8.5T248-13q-56 0-94.5 22T95 74 75 180V481h80V211q0-45 3.5-65.5T171 107q13-25 36.5-39T264 54q25 0 49 9.5T351 88q25 25 36.5 62T399 250V481h80V241q0-90 0.5-142.5T482 0q-40-41-58.5-70.5T405-128q0-14 9-19.5t27-5.5h49v-52q-13-3-29-5t-31-2q-35 0-58.5 8t-35 24T325-137q0 30 18 61.5T406 2l-3 68Z"/>
<glyph unicode="V" glyph-name="V" horiz-adv-x="634" d="M272 0L13 682h97L240 322q34-95 51-143.5T319 95h2q19 59 37.5 112.5T399 322L527 682h94L362 0H272Z"/>
<glyph unicode="v" glyph-name="v" horiz-adv-x="492" d="M206 0L11 481h92l78-202q18-45 38-102.5T249 86h1q11 37 30.5 93.5T317 279l76 202h88L287 0H206Z"/>
<glyph unicode="W" glyph-name="W" horiz-adv-x="1037" d="M244 0L33 682h96l92-320q31-103 48.5-165T298 96h2q13 47 32 110t49 157l99 319h80L662 362q30-90 50-153.5T746 96h1q18 64 39 139t36 128l91 319h91L793 0H693L554 426q-17 54-21.5 72.5T518 556h-1q-4-19-11-44t-26-86L344 0H244Z"/>
<glyph unicode="w" glyph-name="w" horiz-adv-x="820" d="M542 0L460 219q-4 11-23 64.5T407 373h-2q-9-30-21.5-69.5T355 219L277 0H200L20 481h91l83-235q3-10 19.5-60.5T242 96h2q12 42 23.5 78.5T292 247l81 234h71l83-226q4-11 22.5-62.5T582 96h2q10 35 22.5 74T634 253l76 228h89L619 0H542Z"/>
<glyph unicode="&#x1e80;" glyph-name="Wgrave" horiz-adv-x="1037" d="M244 0L33 682h96l92-320q31-103 48.5-165T298 96h2q13 47 32 110t49 157l99 319h80L662 362q30-90 50-153.5T746 96h1q18 64 39 139t36 128l91 319h91L793 0H693L554 426q-17 54-21.5 72.5T518 556h-1q-4-19-11-44t-26-86L344 0H244ZM566 748H484L355 882H474l92-134Z"/>
<glyph unicode="&#x1e81;" glyph-name="wgrave" horiz-adv-x="820" d="M542 0L460 219q-4 11-23 64.5T407 373h-2q-9-30-21.5-69.5T355 219L277 0H200L20 481h91l83-235q3-10 19.5-60.5T242 96h2q12 42 23.5 78.5T292 247l81 234h71l83-226q4-11 22.5-62.5T582 96h2q10 35 22.5 74T634 253l76 228h89L619 0H542ZM453 551H377L258 693H368l85-142Z"/>
<glyph unicode="&#x1e82;" glyph-name="Wacute" horiz-adv-x="1037" d="M244 0L33 682h96l92-320q31-103 48.5-165T298 96h2q13 47 32 110t49 157l99 319h80L662 362q30-90 50-153.5T746 96h1q18 64 39 139t36 128l91 319h91L793 0H693L554 426q-17 54-21.5 72.5T518 556h-1q-4-19-11-44t-26-86L344 0H244ZM562 882H681L552 748H471l91 134Z"/>
<glyph unicode="&#x1e83;" glyph-name="wacute" horiz-adv-x="820" d="M542 0L460 219q-4 11-23 64.5T407 373h-2q-9-30-21.5-69.5T355 219L277 0H200L20 481h91l83-235q3-10 19.5-60.5T242 96h2q12 42 23.5 78.5T292 247l81 234h71l83-226q4-11 22.5-62.5T582 96h2q10 35 22.5 74T634 253l76 228h89L619 0H542ZM443 693H552L434 551H358l85 142Z"/>
<glyph unicode="&#x174;" glyph-name="Wcircumflex" horiz-adv-x="1037" d="M244 0L33 682h96l92-320q31-103 48.5-165T298 96h2q13 47 32 110t49 157l99 319h80L662 362q30-90 50-153.5T746 96h1q18 64 39 139t36 128l91 319h91L793 0H693L554 426q-17 54-21.5 72.5T518 556h-1q-4-19-11-44t-26-86L344 0H244ZM473 882h89L679 748H595l-78 74-77-74H357L473 882Z"/>
<glyph unicode="&#x175;" glyph-name="wcircumflex" horiz-adv-x="820" d="M542 0L460 219q-4 11-23 64.5T407 373h-2q-9-30-21.5-69.5T355 219L277 0H200L20 481h91l83-235q3-10 19.5-60.5T242 96h2q12 42 23.5 78.5T292 247l81 234h71l83-226q4-11 22.5-62.5T582 96h2q10 35 22.5 74T634 253l76 228h89L619 0H542ZM360 693h99L559 551H481l-73 88-73-88H259L360 693Z"/>
<glyph unicode="&#x1e84;" glyph-name="Wdieresis" horiz-adv-x="1037" d="M244 0L33 682h96l92-320q31-103 48.5-165T298 96h2q13 47 32 110t49 157l99 319h80L662 362q30-90 50-153.5T746 96h1q18 64 39 139t36 128l91 319h91L793 0H693L554 426q-17 54-21.5 72.5T518 556h-1q-4-19-11-44t-26-86L344 0H244ZM589 758V874h85V758H589Zm-226 0V874h85V758H363Z"/>
<glyph unicode="&#x1e85;" glyph-name="wdieresis" horiz-adv-x="820" d="M542 0L460 219q-4 11-23 64.5T407 373h-2q-9-30-21.5-69.5T355 219L277 0H200L20 481h91l83-235q3-10 19.5-60.5T242 96h2q12 42 23.5 78.5T292 247l81 234h71l83-226q4-11 22.5-62.5T582 96h2q10 35 22.5 74T634 253l76 228h89L619 0H542ZM462 566V682h79V566H462Zm-188 0V682h79V566H274Z"/>
<glyph unicode="X" glyph-name="X" horiz-adv-x="597" d="M246 358L30 682H134L300 427 470 682h97L351 363 595 0H490L297 295 101 0H2L246 358Z"/>
<glyph unicode="x" glyph-name="x" horiz-adv-x="474" d="M8 0L188 254 27 481h99L240 311 353 481h93L285 254 466 0H366L233 196 102 0H8Z"/>
<glyph unicode="Y" glyph-name="Y" horiz-adv-x="610" d="M262 0V289L0 682H104L308 371 510 682H610L348 289V0H262Z"/>
<glyph unicode="y" glyph-name="y" horiz-adv-x="492" d="M116-204L212 0h-7L11 481h92l78-202q16-40 34-92T249 86h1q10 33 30 91t37 102l76 202h88L204-204H116Z"/>
<glyph unicode="&#x1ef2;" glyph-name="Ygrave" horiz-adv-x="610" d="M262 0V289L0 682H104L308 371 510 682H610L348 289V0H262Zm97 748H277L148 882H267l92-134Z"/>
<glyph unicode="&#x1ef3;" glyph-name="ygrave" horiz-adv-x="492" d="M116-204L212 0h-7L11 481h92l78-202q16-40 34-92T249 86h1q10 33 30 91t37 102l76 202h88L204-204H116ZM296 551H220L101 693H211l85-142Z"/>
<glyph unicode="&#xdd;" glyph-name="Yacute" horiz-adv-x="610" d="M262 0V289L0 682H104L308 371 510 682H610L348 289V0H262Zm79 882H460L331 748H250l91 134Z"/>
<glyph unicode="&#xfd;" glyph-name="yacute" horiz-adv-x="492" d="M116-204L212 0h-7L11 481h92l78-202q16-40 34-92T249 86h1q10 33 30 91t37 102l76 202h88L204-204H116ZM282 693H391L273 551H197l85 142Z"/>
<glyph unicode="&#x176;" glyph-name="Ycircumflex" horiz-adv-x="610" d="M262 0V289L0 682H104L308 371 510 682H610L348 289V0H262Zm-2 882h89L466 748H382l-78 74-77-74H144L260 882Z"/>
<glyph unicode="&#x177;" glyph-name="ycircumflex" horiz-adv-x="492" d="M116-204L212 0h-7L11 481h92l78-202q16-40 34-92T249 86h1q10 33 30 91t37 102l76 202h88L204-204H116Zm82 897h99L397 551H319l-73 88-73-88H97L198 693Z"/>
<glyph unicode="&#x178;" glyph-name="Ydieresis" horiz-adv-x="610" d="M262 0V289L0 682H104L308 371 510 682H610L348 289V0H262ZM376 758V874h85V758H376Zm-226 0V874h85V758H150Z"/>
<glyph unicode="&#xff;" glyph-name="ydieresis" horiz-adv-x="492" d="M116-204L212 0h-7L11 481h92l78-202q16-40 34-92T249 86h1q10 33 30 91t37 102l76 202h88L204-204H116ZM300 566V682h79V566H300Zm-188 0V682h79V566H112Z"/>
<glyph unicode="Z" glyph-name="Z" horiz-adv-x="628" d="M584 0H44V77L465 607q-142-1-249-1H59v76H569V606L148 76q137 1 238 1H584V0Z"/>
<glyph unicode="z" glyph-name="z" horiz-adv-x="494" d="M448 0H46V68L337 415q-33-1-62-1t-85 0H57v67H433V414L143 67q36 1 70.5 1T311 68H448V0Z"/>
<glyph unicode="&#x179;" glyph-name="Zacute" horiz-adv-x="628" d="M584 0H44V77L465 607q-142-1-249-1H59v76H569V606L148 76q137 1 238 1H584V0ZM339 882H458L329 748H248l91 134Z"/>
<glyph unicode="&#x17a;" glyph-name="zacute" horiz-adv-x="494" d="M448 0H46V68L337 415q-33-1-62-1t-85 0H57v67H433V414L143 67q36 1 70.5 1T311 68H448V0ZM276 693H385L267 551H191l85 142Z"/>
<glyph unicode="&#x17d;" glyph-name="Zcaron" horiz-adv-x="628" d="M584 0H44V77L465 607q-142-1-249-1H59v76H569V606L148 76q137 1 238 1H584V0ZM361 748H271L155 882h83l78-74 79 74h82L361 748Z"/>
<glyph unicode="&#x17e;" glyph-name="zcaron" horiz-adv-x="494" d="M448 0H46V68L337 415q-33-1-62-1t-85 0H57v67H433V414L143 67q36 1 70.5 1T311 68H448V0ZM296 551H197L97 693h78l73-87 73 87h76L296 551Z"/>
<glyph unicode="&#x17b;" glyph-name="Zdotaccent" horiz-adv-x="628" d="M584 0H44V77L465 607q-142-1-249-1H59v76H569V606L148 76q137 1 238 1H584V0ZM272 758V874h87V758H272Z"/>
<glyph unicode="&#x17c;" glyph-name="zdotaccent" horiz-adv-x="494" d="M448 0H46V68L337 415q-33-1-62-1t-85 0H57v67H433V414L143 67q36 1 70.5 1T311 68H448V0ZM199 566V682h82V566H199Z"/>
<glyph unicode="&#x394;" glyph-name="Delta" horiz-adv-x="649" d="M130 73H515L413 347q-79 211-91 255h-2q-14-52-88-253L130 73ZM612 0H37V65L278 682h94L612 68V0Z"/>
<glyph unicode="&#x3bc;" glyph-name="mu" horiz-adv-x="567" d="M82-204V481h80V211q0-45 3.5-65.5T178 107q13-25 36.5-39T271 54q25 0 48.5 9.5T358 88q25 25 36 62t11 100V481h80V237q0-61 0.5-108.5T488 0H411l-2 70h-1Q386 31 346.5 9.5T259-12q-69 0-101 41h-1q1-44 2-66l4-167H82Z"/>
<glyph unicode="&#x3c0;" glyph-name="pi" horiz-adv-x="598" d="M556 408H455l15-202q6-70 12-97.5T499.5 70 536 59q17 0 30 4V-4q-22-6-46-6-49 0-75.5 17T406 62.5 389 191L378 408H208L163 0H81l47 408H36v73H556V408Z"/>
<glyph unicode="&#x3a9;" glyph-name="Omega" horiz-adv-x="783" d="M65 0V74H250v1q-91 51-135.5 127.5T70 381q0 90 42.5 163t116 113T393 697q93 0 166-40T672 544.5 712 381q0-97-45.5-175T533 75V74H718V0H456V98q87 52 126 117.5T621 373q0 73-28 129.5T513 590 391 621 268.5 590 189 503 162 373q0-92 39-157T327 98V0H65Z"/>
<glyph unicode="`" glyph-name="grave" horiz-adv-x="331" d="M263 551H187L68 693H178l85-142Z"/>
<glyph unicode="&#xb4;" glyph-name="acute" horiz-adv-x="339" d="M157 693H266L148 551H72l85 142Z"/>
<glyph unicode="&#x2c6;" glyph-name="circumflex" horiz-adv-x="440" d="M171 693h99L370 551H292l-73 88-73-88H70L171 693Z"/>
<glyph unicode="&#x2c7;" glyph-name="caron" horiz-adv-x="440" d="M269 551H170L70 693h78l73-87 73 87h76L269 551Z"/>
<glyph unicode="&#x2dc;" glyph-name="tilde" horiz-adv-x="482" d="M177 621q-17 0-26-15.5T142 562H79q0 39 11.5 67t34 42.5T180 686q21 0 39.5-8T260 650.5 289.5 627t14.5-4q18 0 27 15.5t9 42.5h63q0-38-12-66t-35-42.5T301 558q-20 0-38.5 8T222 593t-30 23.5T177 621Z"/>
<glyph unicode="&#xa8;" glyph-name="dieresis" horiz-adv-x="425" d="M267 566V682h79V566H267ZM79 566V682h79V566H79Z"/>
<glyph unicode="&#x2c9;" glyph-name="macron" horiz-adv-x="435" d="M356 585H79v67H356V585Z"/>
<glyph unicode="&#x2d8;" glyph-name="breve" horiz-adv-x="438" d="M360 693q0-45-15.5-76t-47-47.5T218 553q-47 0-78 16.5T93.5 617 78 693h65q0-24 8-41t25-26 43-9 43 9.5T287 653t8 40h65Z"/>
<glyph unicode="&#x2da;" glyph-name="ring" horiz-adv-x="397" d="M243 644q0 20-11.5 33T199 690t-32.5-13T155 644t11.5-33T199 598t32.5 13T243 644Zm64 1q0-41-29-69t-80-28q-52 0-80 26.5T90 643q0 41 29.5 69T200 740t79-26.5T307 645Z"/>
<glyph unicode="&#x2dd;" glyph-name="hungarumlaut" horiz-adv-x="523" d="M339 693H449L329 551H254l85 142Zm-198 0H244L148 551H75l66 142Z"/>
<glyph unicode="&#x2d9;" glyph-name="dotaccent" horiz-adv-x="240" d="M79 566V682h82V566H79Z"/>
<glyph unicode="&#x326;" glyph-name="uni0326" horiz-adv-x="269" d="M190-52v-73q0-36-21-59.5T98-208H79v39H98q20 0 26.5 10.5T131-130H109v78h81Z"/>
<glyph unicode="&#x312;" glyph-name="uni0312" horiz-adv-x="257" d="M79 566v77q0 37 21 60.5T171 727h19V687H171q-20 0-26.5-10.5T138 648h22V566H79Z"/>
<glyph unicode="&#x315;" glyph-name="uni0315" horiz-adv-x="274" d="M111 757h86L143 568H78l33 189Z"/>
<glyph unicode="&#xb8;" glyph-name="cedilla" horiz-adv-x="290" d="M78-204q23 20 38 40.5T131-128q0 14-10 25T82-77L128 2h70L168-50q22-16 32.5-33.5T211-122q0-20-14-42.5T161-204H78Z"/>
<glyph unicode="&#x2db;" glyph-name="ogonek" horiz-adv-x="322" d="M222 0q-36-53-50-80.5T158-128q0-14 9-19.5t28-5.5h49v-51q-12-3-29-5.5T184-212q-38 0-61 8.5t-33.5 25T79-137q0 26 16 58.5T146 0h76Z"/>
<glyph unicode="&#xaa;" glyph-name="ordfeminine" horiz-adv-x="501" d="M76 177v62H408V177H76ZM345 548q-61 0-101.5-5t-65-15.5-36-26.5T131 461q0-34 23-53t66-19q36 0 64 17t44.5 47.5T345 519v29Zm71-91q0-24 1-59.5t2-55.5H349l-1 61q-26-34-63-53.5T204 330t-77.5 15.5T74.5 390 56 458q0 37 16.5 64t51 45T213 594t132 9v30q-1 47-26 71t-74 24q-41 0-73.5-18T109 652L63 695q41 48 85.5 70T249 787q82 0 124.5-39T416 635V457Z"/>
<glyph unicode="&#xba;" glyph-name="ordmasculine" horiz-adv-x="535" d="M76 177v62H459V177H76ZM479 559q0-68-26.5-120.5t-74.5-81T266 329q-65 0-112.5 28T81 436.5 56 557q0 68 26.5 120.5t74.5 81T269 787q65 0 112-27t72.5-79T479 559Zm-76-1q0 50-17 88.5T338 705t-71 20q-41 0-71.5-21t-47-59T132 558t17-87.5 47.5-59T267 391q42 0 72.5 21t47 59T403 558Z"/>
<glyph unicode="!" glyph-name="exclam" horiz-adv-x="353" d="M137 210L125 710H227L216 210H137ZM126 0V133H226V0H126Z"/>
<glyph unicode="&#xa1;" glyph-name="exclamdown" horiz-adv-x="353" d="M215 404L227-96H125l13 500h77Zm11 210V481H126V614H226Z"/>
<glyph unicode="?" glyph-name="question" horiz-adv-x="616" d="M276 276q-1 25 7 45.5T306.5 360t56 47.5 56.5 48 24 39 8 45.5q0 31-18 57t-50.5 40.5T308 652q-44 0-78-16.5t-52-45T160 524q0-19 1.5-32.5T165 469H82q-4 10-5.5 23.5T75 521q0 61 29 107t83 71 124 25q68 0 121-23t81.5-64.5T542 543q0-34-10-63t-30.5-54T439 370.5t-55-44-19.5-27T358 270l-2-60H277l-1 66ZM267 0V133H367V0H267Z"/>
<glyph unicode="&#xbf;" glyph-name="questiondown" horiz-adv-x="616" d="M340 338q0-25-7.5-45.5T309 254t-56.5-47T196 159.5 172 120t-8-46q0-31 18.5-57t51-40.5T308-38q44 0 78 16t52 45.5T456 90q-2 46-5 55h83q4-10 7-52 0-60-29-106.5T429-85 305-110q-68 0-121 23T102.5-22.5 74 71q0 34 9.5 63T114 188t62.5 55T231 286.5 251 314t7 30l1 60h80l1-66Zm9 276V481H249V614H349Z"/>
<glyph unicode="," glyph-name="comma" horiz-adv-x="263" d="M186 146V24q0-84-8.5-121t-30-60.5T80-206L52-159q34 23 46 38.5t17 40T120 0H77V146H186Z"/>
<glyph unicode=";" glyph-name="semicolon" horiz-adv-x="300" d="M97 342V481H202V342H97ZM202 139V24q0-81-9-119t-30.5-62.5T97-206L69-159q34 23 46 40t17 43 5 76H97V139H202Z"/>
<glyph unicode=":" glyph-name="colon" horiz-adv-x="300" d="M97 342V481H202V342H97ZM97 0V139H202V0H97Z"/>
<glyph unicode="." glyph-name="period" horiz-adv-x="263" d="M77 0V146H186V0H77Z"/>
<glyph unicode="&#x2026;" glyph-name="ellipsis" horiz-adv-x="850" d="M664 0V146H773V0H664ZM371 0V146H480V0H371ZM77 0V146H186V0H77Z"/>
<glyph unicode="&#x2018;" glyph-name="quoteleft" horiz-adv-x="263" d="M77 476V593q0 66 8.5 101T115 754.5 181 806l28-48q-29-20-42.5-38T148 680t-5-63h43V476H77Z"/>
<glyph unicode="&#x2019;" glyph-name="quoteright" horiz-adv-x="263" d="M186 785V668q0-66-9-102.5t-30.5-61T81 456L53 503q31 21 44 38t18 39.5 5 63.5H77V785H186Z"/>
<glyph unicode="&#x201c;" glyph-name="quotedblleft" horiz-adv-x="451" d="M77 476V593q0 66 8.5 101.5T114 756t62 50l27-47q-32-24-43-41t-15.5-39.5T140 617h40V476H77Zm194 0V593q0 68 8.5 103.5t29 61T370 806l27-47q-32-24-43-41t-16-39.5T333 617h40V476H271Z"/>
<glyph unicode="&#x201d;" glyph-name="quotedblright" horiz-adv-x="451" d="M373 785V668q0-69-8-104t-28-59.5T275 455l-28 47q29 21 41.5 38T306 579.5t5 64.5H271V785H373Zm-193 0V668q0-69-8.5-104T143 504.5 82 455L53 502q29 21 41.5 38T112 579.5t5 64.5H77V785H180Z"/>
<glyph unicode="&#x201a;" glyph-name="quotesinglbase" horiz-adv-x="263" d="M186 141V24q0-66-9-102.5t-30.5-61T81-188L53-141q31 21 44 38t18 39.5T120 0H77V141H186Z"/>
<glyph unicode="&#x201e;" glyph-name="quotedblbase" horiz-adv-x="451" d="M373 141V24q0-69-8-104t-28-59.5T275-189l-28 47q29 21 41.5 38T306-64.5 311 0H271V141H373Zm-193 0V24q0-69-8.5-104T143-139.5 82-189L53-142q29 21 41.5 38T112-64.5 117 0H77V141H180Z"/>
<glyph unicode="&#x2039;" glyph-name="guilsinglleft" horiz-adv-x="402" d="M251 41L75 274 252 506l63-33L181 275 315 76 251 41Z"/>
<glyph unicode="&#x203a;" glyph-name="guilsinglright" horiz-adv-x="402" d="M150 507L327 274 150 42 86 75 221 272 87 471l63 36Z"/>
<glyph unicode="&#xab;" glyph-name="guillemotleft" horiz-adv-x="649" d="M499 58L331 274 499 490l63-33L437 275 562 92 499 58ZM251 41L75 274 252 506l63-33L181 275 315 76 251 41Z"/>
<glyph unicode="&#xbb;" glyph-name="guillemotright" horiz-adv-x="649" d="M150 490L318 274 150 58 87 91 212 273 87 456l63 34Zm247 17L574 274 397 42 334 75 468 273 334 472l63 35Z"/>
<glyph unicode="/" glyph-name="slash" horiz-adv-x="400" d="M-46-161L338 778h83L37-161H-46Z"/>
<glyph unicode="|" glyph-name="bar" horiz-adv-x="317" d="M119-172V816h79V-172H119Z"/>
<glyph unicode="&#xa6;" glyph-name="brokenbar" horiz-adv-x="317" d="M119-172V221h79V-172H119Zm0 595V816h79V423H119Z"/>
<glyph unicode="\" glyph-name="backslash" horiz-adv-x="400" d="M364-161L-21 778H62L447-161H364Z"/>
<glyph unicode="&#x2010;" glyph-name="hyphen" horiz-adv-x="362" d="M39 234v81H322V234H39Z"/>
<glyph unicode="&#x2013;" glyph-name="endash" horiz-adv-x="650" d="M589 238H61v72H589V238Z"/>
<glyph unicode="&#x2014;" glyph-name="emdash" horiz-adv-x="970" d="M924 238H46v72H924V238Z"/>
<glyph unicode="_" glyph-name="underscore" horiz-adv-x="650" d="M650-215H0v69H650v-69Z"/>
<glyph unicode="&#x2022;" glyph-name="bullet" horiz-adv-x="420" d="M343 323q0-37-18.5-68T275 206.5 209 189q-37 0-67.5 18T94 255.5 77 321q0 37 18.5 68T145 437.5 211 455q37 0 67.5-18T326 388.5 343 323Z"/>
<glyph unicode="&#x2219;" glyph-name="periodcentered" horiz-adv-x="262" d="M79 260V384H184V260H79Z"/>
<glyph unicode="(" glyph-name="parenleft" horiz-adv-x="318" d="M220-172Q152-66 115.5 61T79 322q0 132 36.5 260T220 816h83Q235 706 199 580T163 323q0-132 35-255T302-172H220Z"/>
<glyph unicode=")" glyph-name="parenright" horiz-adv-x="318" d="M97 816q68-106 105-233t37-261q0-88-17-175.5T173-22 97-172H14Q83-62 119 64t36 257q0 132-35 255T15 816H97Z"/>
<glyph unicode="[" glyph-name="bracketleft" horiz-adv-x="371" d="M339-172H106V816H339V748H185V-104H339v-68Z"/>
<glyph unicode="]" glyph-name="bracketright" horiz-adv-x="371" d="M32-172v68H186V748H32v68H265V-172H32Z"/>
<glyph unicode="{" glyph-name="braceleft" horiz-adv-x="407" d="M36 356H66q32 0 47.5 9.5t22 35T142 478V634q0 63 16.5 103T211 796.5 306 816h69V748H305q-35 0-52.5-11T228 702t-7-69V481q0-51-6.5-82t-20-48T155 323v-1q26-10 39.5-27t20-47.5T221 167V13q0-47 8-71.5t26.5-35T307-104h68v-68H304q-58 0-93.5 18.5T158.5-95 142 9V164q0 52-7 78t-22.5 36T66 288H36v68Z"/>
<glyph unicode="}" glyph-name="braceright" horiz-adv-x="407" d="M32-172v68h70q32 0 50 10t26 33.5T186 11V163q0 51 6.5 82t20 48T252 321v1q-26 10-39.5 27t-20 47.5T186 477V631q0 47-8 71.5t-26.5 35T100 748H32v68h71q58 0 93-18.5t52-58T265 636V480q0-52 7-78t22.5-36T341 356h30V288H341q-32 0-47.5-9.5t-22-35T265 166V10q0-65-18-105t-53.5-58.5T101-172H32Z"/>
<glyph unicode="*" glyph-name="asterisk" horiz-adv-x="500" d="M277 562l160 63 24-73L295 509 404 376l-61-44L250 476 157 332 96 376 205 509 39 552l24 73 158-63-9 172h75L277 562Z"/>
<glyph unicode="&#x2020;" glyph-name="dagger" horiz-adv-x="497" d="M208 97V520H44v68H208V763h80V588H452V520H288V97H208Z"/>
<glyph unicode="&#x2021;" glyph-name="daggerdbl" horiz-adv-x="497" d="M452 262H288V79H208V262H44v68H208V520H44v68H208V763h80V588H452V520H288V330H452V262Z"/>
<glyph unicode="&#xa7;" glyph-name="section" horiz-adv-x="615" d="M479 257q0 29-15.5 51t-47 38-99 34.5T223 409q-36-21-54-47.5T151 302q0-29 15.5-51T214 212.5t99-35T406 150q37 21 55 47.5T479 257ZM68 294q0 44 25.5 82.5T163 442q-26 21-40 50.5T109 557t14 64.5 40 51T225.5 705 306 716q58 0 108.5-18T506 645l-45-63q-33 31-72.5 47T304 645q-53 0-82-21.5T193 564q0-26 14-45t42-33.5 111.5-39T483 399t58.5-56T561 265q0-43-25-82t-69-66q27-20 41.5-50T523 1q0-34-14-63t-41-50.5-64.5-33T321-157q-61 0-118.5 22.5T100-71L146-5q36-38 82.5-59T323-85q56 0 85.5 21T438-5q0 26-14 45T381.5 73.5t-113 39T145 160.5 87 217 68 294Z"/>
<glyph unicode="&#xb6;" glyph-name="paragraph" horiz-adv-x="711" d="M528-204V611H419V-204H342V234H308q-80 0-138 27.5T82 340 52 460q0 71 32.5 121T177 657t142 26q28 0 69-0.5t68-0.5H605V-204H528Z"/>
<glyph unicode="^" glyph-name="asciicircum" horiz-adv-x="650" d="M472 350q-40 68-77.5 135.5T325 617h-1q-30-61-68.5-128.5T176 350H77L280 682h90L573 350H472Z"/>
<glyph unicode="~" glyph-name="asciitilde" horiz-adv-x="650" d="M66 233q0 64 15.5 107T128 404.5 206 426q37 0 69.5-16t74-58.5 60-53T446 288q25 0 38.5 13.5t19.5 40 6 69.5h74q0-64-15.5-107T522 239.5 444 218q-37 0-69.5 16t-74 58.5-60 53T204 356q-25 0-38.5-13.5t-19.5-40T140 233H66Z"/>
<glyph unicode="&apos;" glyph-name="quotesingle" horiz-adv-x="249" d="M89 449L79 730h90l-9-281H89Z"/>
<glyph unicode="&quot;" glyph-name="quotedbl" horiz-adv-x="444" d="M285 449l-9 281h89l-9-281H285ZM89 449L79 730h89l-9-281H89Z"/>
<glyph unicode="&amp;" glyph-name="ampersand" horiz-adv-x="769" d="M193 556q0-34 19-66t58-71q17 7 49 21.5T376 474t36.5 40T424 560q0 43-32.5 69T308 655q-55 0-85-26.5T193 556ZM304 55q119 0 196 74-83 62-146 112.5T245 332q-58-31-83.5-65T136 190q0-63 45-99T304 55ZM48 184q0 64 34 111.5T193 383q-46 48-66 87t-20 81q0 52 24.5 91.5t71 60.5T311 724q61 0 106-20t69-56.5T510 566q0-37-15.5-67.5T448 442t-71.5-46.5T323 370q43-37 98.5-81T549 193q25 44 38 98.5T600 410h83q0-77-18.5-143T611 148L758 43 709-20Q624 39 560 86 509 37 442.5 11T300-15Q186-15 117 39.5T48 184Z"/>
<glyph unicode="@" glyph-name="at" horiz-adv-x="1035" d="M619 303q0 62-26 91.5T513 424q-45 0-78-24.5T383.5 329 365 229q0-62 25-92.5T467 106q47 0 81 25t52.5 71.5T619 303Zm353 31q0-87-28.5-154.5t-81-103T740 41q-53 0-84 20.5T619 123h-1q-27-40-69-61T456 41q-84 0-129 48T282 225q0 73 29 135t81 95 120 33q47 0 80-15.5T645 426h1l10 51h79L693 250q-10-54-8-85t16-45 45-14q47 0 80.5 27.5t51 79T895 330q0 96-42.5 170.5T731 615.5 547 656q-116 0-209-53.5t-146-149T139 247q0-110 46-195.5T315-80t194-46q61 0 121.5 9.5T746-88l12-63q-60-19-124-29T505-190q-129 0-230 54.5T118.5 18 63 242q0 131 64 241.5t176 173T552 719q121 0 217.5-49.5T919 531.5 972 334Z"/>
<glyph unicode="&#xa9;" glyph-name="copyright" horiz-adv-x="890" d="M635 244q-26-57-75-88.5T449 124 341 151t-70.5 75.5T246 340q0 66 24.5 115.5T342 532t107 27q62 0 109.5-28T630 450l-61-34q-17 37-49 57t-73 20q-37 0-64-18t-42-52-15-81q0-45 15-79.5T384.5 209 451 190q43 0 73 20.5T573 274l62-30Zm116 97q0 92-38 165.5t-107 114T446 661 285 620.5 177 507 139 341q0-92 38-165.5t107.5-114T444 21q92 0 162 40T713.5 174.5 751 341Zm77 3q0-110-49.5-199.5T641 5 443-45Q332-45 245 4T110.5 141 63 338q0 110 49 199.5T249 677t198 50q111 0 198-49T780 541t48-197Z"/>
<glyph unicode="&#xae;" glyph-name="registered" horiz-adv-x="712" d="M301 544q21-1 61-1 33 0 47.5 10.5T424 588q0 15-6.5 23.5T398 624t-35 4H301V544ZM423 388L355 495H301V388H242V675q68 1 126 1 40 0 66-10.5T472.5 636 485 590q0-32-18.5-54T415 504l80-116H423ZM575 527q0 63-28 115.5t-78 82T356 754 243 724.5t-78-82T137 527q0-65 29-117.5t78.5-81T356 300q63 0 113 29.5t78 82T575 527Zm60 1q0-77-36.5-142t-101-101.5T355 248 213.5 284t-100 100T77 526q0 77 36.5 142t101 101.5T357 806q79 0 143-36.5T599.5 669 635 528Z"/>
<glyph unicode="&#x2122;" glyph-name="trademark" horiz-adv-x="912" d="M400 682H503l87-210q6-14 12-34t13-44h2q7 24 13.5 43.5T643 471l87 211H832V314H767V443q0 65 0.5 108.5T770 628h-2q-7-24-14-43.5T740 549L641 314H586L488 550q-8 18-15.5 38T459 628h-1q1-24 1.5-57.5T460 443V314H400V682ZM149 625H27v57H337V625H217V314H149V625Z"/>
<glyph unicode="&#xb0;" glyph-name="degree" horiz-adv-x="417" d="M365 603q0-41-19.5-74.5t-55.5-53T208 456q-45 0-80 18T73 525.5 53 601q0 41 19 75t55 53.5T210 749q46 0 81.5-19T346 678t19-75Zm-73-1q0 38-22.5 62T209 688q-39 0-61.5-23.5T125 602q0-38 22.5-61.5T209 517t61 23 22 62Z"/>
<glyph unicode="&#xa4;" glyph-name="currency" horiz-adv-x="655" d="M450 322q0 63-33 100.5T327 460q-58 0-90-38T205 322q0-63 32.5-100.5T327 184q58 0 90.5 38T450 322Zm77 3q0-70-33-119l102-97L543 57 445 159q-50-36-120-36-71 0-118 34L112 57 59 109l100 95q-31 46-31 115 0 70 32 119L59 535l53 53 97-103q53 36 120 36 70 0 118-34l96 101 52-53L494 440q33-48 33-115Z"/>
<glyph unicode="&#x20ac;" glyph-name="Euro" horiz-adv-x="720" d="M443 232H220q21-84 72.5-128.5T421 59q55 0 99.5 23T599 152l55-48Q609 44 550.5 14.5T419-15Q307-15 230.5 50T129 232H33v63h87q-2 28-2 45 0 32 2 48H33v63h96q26 115 105 180.5T422 697q69 0 126-27.5T648 588l-60-52q-33 44-75 66.5T421 625q-76 0-128-45.5T220 451H443V388H210q-2-15-2-47 0-31 2-46H443V232Z"/>
<glyph unicode="$" glyph-name="dollar" horiz-adv-x="667" d="M290-101V13q-65 9-119 37T72 128l49 62q45-52 102.5-80T344 82q66 0 107 29.5T492 191q0 30-15 51t-45.5 35.5T309 313.5 175.5 359t-61 60T95 504q0 73 53.5 119T290 676V789h77V674q56-8 98-28.5T549 587l-46-66q-42 42-89 63T314 605q-62 0-96.5-26T183 509q0-29 15-49.5T243 425t121-35 133.5-45.5 62.5-61T580 196q0-77-60-128.5T367 10V-101H290Z"/>
<glyph unicode="&#xa2;" glyph-name="cent" horiz-adv-x="566" d="M332 692V580q53-9 93.5-39T492 459l-71-36q-24 47-55.5 69.5T290 515q-63 0-99.5-46.5T154 342q0-79 38-126.5T295 168q51 0 83 23t54 73l66-32q-23-55-64.5-86.5T332 104V-10H258V102q-89 11-139 74T69 340q0 100 51 164.5T258 580V692h74Z"/>
<glyph unicode="&#xa3;" glyph-name="sterling" horiz-adv-x="650" d="M579 0H77V62q63 45 87.5 79T189 218q0 32-11 72H69v66h91q-16 49-22.5 83T131 500q0 57 27 102t76 70 111 25q79 0 133.5-37.5T564 547l-73-39q-22 58-58.5 86.5T343 623q-37 0-65.5-15.5t-43-43.5T220 501q0-40 14-86t17-59H435V290H268q10-42 10-69 0-43-20-79T199 77V76q136 2 219 2H579V0Z"/>
<glyph unicode="&#x192;" glyph-name="florin" horiz-adv-x="526" d="M447 321H278L251 108Q240 21 227-19.5T193-84t-51.5-35.5T68-131q-23 0-48 5t-44 13L-4-45q18-7 39-11.5T72-61q22 0 36.5 8t25 25 18 47T167 108l26 213H54v67H201l13 96q11 87 24.5 127.5T273 676t51.5 35.5T397 723q22 0 48-5t44-13l-20-68q-17 7-38 11.5T393 653q-22 0-37-8.5t-25-26T313.5 571 299 484l-13-96H447V321Z"/>
<glyph unicode="&#xa5;" glyph-name="yen" horiz-adv-x="650" d="M283 0V89H116v64H283v85H116v63H283v35L25 682H133L238 535q55-78 91-125 36 48 90 124L522 682H625L367 336V301H534V238H367V153H534V89H367V0H283Z"/>
<glyph unicode="&#x20b4;" glyph-name="uni20B4" horiz-adv-x="650" d="M593 459V396H471q-30-28-85.5-58T314 298H593V235H237q-14-17-21-36t-7-41q0-48 34.5-75T337 56q53 0 95.5 21.5T511 144l46-57Q514 37 455.5 11T329-15q-93 0-151 47.5T120 155q0 23 5 42.5T141 235H57v63H191q29 24 83 53.5T350 396H57v63H422q12 16 18 33t6 37q0 44-33 70.5T325 626q-45 0-85-19t-70-55l-44 60q37 39 92 62t114 23q91 0 146.5-46T534 531q0-20-4-37.5T517 459h76Z"/>
<glyph unicode="&#x20b8;" glyph-name="uni20B8" horiz-adv-x="650" d="M604 446H368V0H282V446H46v72H604V446Zm0 236V610H46v72H604Z"/>
<glyph unicode="&#xe3f;" glyph-name="uni0E3F" horiz-adv-x="650" d="M355 789V681q71-4 117-25t71-57 25-87q0-59-28.5-98T454 354q66-15 101-57t35-107q0-91-57.5-137.5T355 0V-109H278V-1Q156 0 96 0V682q57 0 182 1V789h77ZM182 72q51-1 135-1 99 0 141 28.5T500 189q0 43-19 70.5t-57 40T311 312H182V72Zm0 309H312q64 0 98 12.5T462 433t18 68q0 37-20.5 63t-63 36.5T286 611q-65 0-104-1V381Z"/>
<glyph unicode="&#x20ae;" glyph-name="uni20AE" horiz-adv-x="650" d="M545 477V411L368 368V271l177 43V249L368 206V0H282V185L105 143v66l177 42v97L105 306v65l177 42V608H37v74H613V608H368V434l177 43Z"/>
<glyph unicode="&#x20ba;" glyph-name="uni20BA" horiz-adv-x="650" d="M470 523V459L250 402V309l220 57V302L250 245V70q18-1 29-1 95 0 161.5 16T570 140V57Q510 24 439 9.5T272-5Q249-5 164 0V223L55 195v64l109 28v92L55 351v64l109 28V682h86V466l220 57Z"/>
<glyph unicode="&#x20bd;" glyph-name="uni20BD" horiz-adv-x="650" d="M54 120v64h92v95H54v67h92V682q108 1 213 1 80 0 136-24t84.5-69T608 482q0-64-30.5-110T489 302.5 352 279H232V184H458V120H232V0H146V120H54ZM517 480q0 44-17.5 73.5t-53 45T357 614q-83 0-125-1V346H355q53 0 89.5 15T499 405.5 517 480Z"/>
<glyph unicode="&#x2116;" glyph-name="uni2116" horiz-adv-x="1159" d="M931 349q-79 0-125 47.5T760 522q0 75 48 125t125 50q79 0 125-47t46-125q0-77-48-126.5T931 349Zm1 60q45 0 70 31t25 84q0 52-25.5 82T932 636q-46 0-70.5-30.5T837 523t25-83 70-31ZM776 228v63h311V228H776ZM552 0L306 387Q200 553 183 584h-1q4-133 4-352V0H106V682H220L459 308q54-84 121-197h2q-2 58-3.5 162.5T577 463V682h81V0H552Z"/>
<glyph unicode="#" glyph-name="numbersign" horiz-adv-x="700" d="M429 239l39 204H271L231 239H429ZM109 0l34 171H33v68H156l40 204H86v68H209l34 171h75L285 511H481l34 171h75L557 511H667V443H544L503 239H614V171H490L457 0H382l33 171H218L185 0H109Z"/>
<glyph unicode="0" glyph-name="zero" horiz-adv-x="682" d="M607 342q0-113-32.5-193.5T482 26.5 339-15q-86 0-145.5 41.5T104.5 148 75 340q0 113 32 193.5t92.5 122T343 697q85 0 144.5-41.5T577 534t30-192Zm-90-1q0 140-44 211T341 623 209 552.5 165 341q0-140 44-210.5T341 60t132 70 44 211Z"/>
<glyph unicode="1" glyph-name="one" horiz-adv-x="440" d="M237 556q-31-28-75.5-41.5T55 501v72q57 0 96 12t62.5 36.5T247 685h78V0H237V556Z"/>
<glyph unicode="2" glyph-name="two" horiz-adv-x="621" d="M557 0H60V77q120 98 174 142.5t89 76T380.5 352t36 46.5T436 442t6 50q0 40-16.5 70T377 608t-76 16q-42 0-72.5-16T181 562.5 164 498q0-21 3-42t9-37H89q-7 14-10.5 34T75 495q0 57 29 103t81.5 72.5T304 697q71 0 122.5-24.5t79-70.5T533 496q0-35-6-61.5t-19-51-35-50-54.5-56T337 207 175 78V76q85 2 213 2H557V0Z"/>
<glyph unicode="3" glyph-name="three" horiz-adv-x="640" d="M132 211q13-76 59.5-115T314 57q71 0 112 35t41 95q0 61-42.5 94T305 314H210v68h67q56 0 89 10.5T422 426q15 15 21.5 34.5T450 508q0 54-39 86T309 626q-64 0-102.5-34T154 489L71 506q22 96 82 143.5T311 697q69 0 121-23.5t79.5-65T539 514q0-58-31-98.5T417 354v-1q68-12 104.5-54T558 191q0-59-31-106.5T440.5 11 311-15Q199-15 132 36.5T47 188l85 23Z"/>
<glyph unicode="4" glyph-name="four" horiz-adv-x="636" d="M381 0V172H42v68L346 682H466V244H587V172H466V0H381ZM127 241q161 3 254 3V438q0 92 4 173h-2L127 241Z"/>
<glyph unicode="5" glyph-name="five" horiz-adv-x="615" d="M512 609H192L174 396h1q22 29 63 45t89 16q70 0 122.5-29.5t80-82T557 225q0-71-32-126T436 14.5 306-15q-88 0-151.5 39T53 140l77 38q29-60 73.5-90.5T308 57q47 0 83 20t55.5 57.5T466 222q0 49-19.5 87T392 366.5 312 386q-52 0-90-23t-53-61H92l32 380H512V609Z"/>
<glyph unicode="6" glyph-name="six" horiz-adv-x="639" d="M484 523q-24 53-59.5 77.5T335 625q-89 0-130.5-76T163 311q20 54 70.5 85T352 427q105 0 164-56t59-155q0-100-67-165.5T335-15Q210-15 142.5 72.5T75 324q0 179 68.5 276T338 697q82 0 135.5-33T562 558l-78-35ZM341 357q-71 0-112-40T188 210q0-68 41-110.5T336 57q69 0 109 43.5T485 215q0 67-38 104.5T341 357Z"/>
<glyph unicode="7" glyph-name="seven" horiz-adv-x="590" d="M178 0q8 106 39 206t85.5 199T440 608H54v74H536V615Q453 512 397 411T309.5 208.5 270 0H178Z"/>
<glyph unicode="8" glyph-name="eight" horiz-adv-x="657" d="M483 507q0 54-42 86.5T329 626q-71 0-112.5-32.5T175 507q0-56 41.5-88T329 387t112.5 32.5T483 507Zm21-319q0 61-47 95.5T328 318q-81 0-127.5-34.5T154 188q0-62 47-96.5T329 57 457 92t47 96Zm90 2q0-61-33.5-108T467 10 327-15 187.5 9 96 78.5 64 184q0 61 34.5 105.5T198 356v1q-52 18-82 57T86 507t30.5 97.5 86 68T331 697t127.5-23.5 84-66.5T572 510q0-52-30-91.5T460 358v-1q65-20 99.5-62.5T594 190Z"/>
<glyph unicode="9" glyph-name="nine" horiz-adv-x="639" d="M146 163q24-56 62.5-81T304 57q89 0 130.5 76T476 371q-21-54-71-85T287 255q-106 0-164.5 56T64 466q0 100 67 165.5T304 697q125 0 192.5-87.5T564 358q0-179-68.5-276T301-15q-87 0-142.5 34.5T68 128l78 35ZM298 325q71 0 112 40t41 107q0 68-41 110.5T303 625q-69 0-109-43.5T154 467q0-68 37.5-105T298 325Z"/>
<glyph unicode="&#x2070;" glyph-name="zero.superior" horiz-adv-x="523" d="M449 559q0-107-50-168.5T260 329q-90 0-137.5 59.5T75 557q0 107 49.5 168.5T263 787q90 0 138-59.5T449 559Zm-79-1q0 80-27.5 122T262 722q-54 0-81.5-42T153 558t27.5-122T262 394q53 0 80.5 42T370 558Z"/>
<glyph unicode="&#xb9;" glyph-name="onesuperior" horiz-adv-x="358" d="M185 338V671q-21-17-52.5-25T55 638v65q63 0 97.5 19T195 780h68V338H185Z"/>
<glyph unicode="&#xb2;" glyph-name="twosuperior" horiz-adv-x="506" d="M433 338H82v71q76 47 126 80t78.5 59.5 39.5 49T337 646q0 37-22.5 58.5T250 726t-64.5-19T163 652q0-26 8-50H94q-9 19-9 49 0 64 45.5 100T254 787q77 0 121.5-37.5T420 648q0-33-13-62.5t-41.5-58-73-58.5T186 404v-2q51 1 121 1H433V338Z"/>
<glyph unicode="&#xb3;" glyph-name="threesuperior" horiz-adv-x="504" d="M142 474q16-85 114-85 45 0 70 19.5T351 463q0 37-24.5 54T252 534H188v56h48q36 0 53.5 5T319 612q18 18 18 51 0 30-23 47.5T251 728q-41 0-65-19t-31-58L80 666q13 60 57 90.5T255 787q76 0 120-32t44-88q0-38-18-62t-54-37v-1q87-21 87-107 0-57-49.5-94T256 329q-83 0-129.5 32T67 458l75 16Z"/>
<glyph unicode="&#x2074;" glyph-name="four.superior" horiz-adv-x="491" d="M126 493q110 3 157 3V609q0 75 2 109h-1L126 493ZM283 338v94H51v67L247 778H361V496h78V432H361V338H283Z"/>
<glyph unicode="&#x2081;" glyph-name="uni2081" horiz-adv-x="358" d="M185-96V237q-21-17-52.5-25T55 204v65q63 0 97.5 19T195 346h68V-96H185Z"/>
<glyph unicode="&#x2082;" glyph-name="uni2082" horiz-adv-x="506" d="M433-96H82v71q76 47 126 80t78.5 59.5 39.5 49T337 212q0 37-22.5 58.5T250 292t-64.5-19T163 218q0-26 8-50H94q-9 19-9 49 0 64 45.5 100T254 353q77 0 121.5-37.5T420 214q0-33-13-62.5t-41.5-58T292.5 35 186-30v-2q51 1 121 1H433V-96Z"/>
<glyph unicode="&#x2083;" glyph-name="uni2083" horiz-adv-x="504" d="M142 40q16-85 114-85 45 0 70 19.5T351 29q0 37-24.5 54T252 100H188v56h48q36 0 53.5 5T319 178q18 18 18 51 0 30-23 47.5T251 294q-41 0-65-19t-31-58L80 232q13 60 57 90.5T255 353q76 0 120-32t44-88q0-38-18-62t-54-37v-1q87-21 87-107 0-57-49.5-94T256-105q-83 0-129.5 32T67 24l75 16Z"/>
<glyph unicode="&#x2084;" glyph-name="uni2084" horiz-adv-x="491" d="M126 59q110 3 157 3V175q0 75 2 109h-1L126 59ZM283-96V-2H51V65L247 344H361V62h78V-2H361V-96H283Z"/>
<glyph unicode="&#x2044;" glyph-name="fraction" horiz-adv-x="394" d="M513 778L-31-96h-87L427 778h86Z"/>
<glyph unicode="&#xbd;" glyph-name="onehalf" horiz-adv-x="985" d="M185 338V671q-21-17-52.5-25T55 638v65q63 0 97.5 19T195 780h68V338H185ZM751 778L207-96H120L665 778h86ZM912-96H561v71q76 47 126 80t78.5 59.5 39.5 49T816 212q0 37-22.5 58.5T729 292t-64.5-19T642 218q0-26 8-50H573q-9 19-9 49 0 64 45.5 100T733 353q77 0 121.5-37.5T899 214q0-33-13-62.5t-41.5-58T771.5 35 665-30v-2q51 1 121 1H912V-96Z"/>
<glyph unicode="&#xbc;" glyph-name="onequarter" horiz-adv-x="942" d="M185 338V671q-21-17-52.5-25T55 638v65q63 0 97.5 19T195 780h68V338H185ZM751 778L207-96H120L665 778h86ZM578 59q110 3 157 3V175q0 75 2 109h-1L578 59ZM735-96V-2H503V65L699 344H813V62h78V-2H813V-96H735Z"/>
<glyph unicode="&#xbe;" glyph-name="threequarters" horiz-adv-x="1068" d="M142 474q16-85 114-85 45 0 70 19.5T351 463q0 37-24.5 54T252 534H188v56h48q36 0 53.5 5T319 612q18 18 18 51 0 30-23 47.5T251 728q-41 0-65-19t-31-58L80 666q13 60 57 90.5T255 787q76 0 120-32t44-88q0-38-18-62t-54-37v-1q87-21 87-107 0-57-49.5-94T256 329q-83 0-129.5 32T67 458l75 16ZM877 778L333-96H246L791 778h86ZM703 59q110 3 157 3V175q0 75 2 109h-1L703 59ZM860-96V-2H628V65L824 344H938V62h78V-2H938V-96H860Z"/>
<glyph unicode="%" glyph-name="percent" horiz-adv-x="1104" d="M449 559q0-107-50-168.5T260 329q-90 0-137.5 59.5T75 557q0 107 49.5 168.5T263 787q90 0 138-59.5T449 559Zm-79-1q0 80-27.5 122T262 722q-54 0-81.5-42T153 558t27.5-122T262 394q53 0 80.5 42T370 558ZM867 778L323-96H236L781 778h86Zm163-653q0-107-50-168.5T841-105q-90 0-137.5 59.5T656 123q0 107 49.5 168.5T844 353q90 0 138-59.5T1030 125Zm-79-1q0 80-27.5 122T843 288q-54 0-81.5-42T734 124 761.5 2 843-40q53 0 80.5 42T951 124Z"/>
<glyph unicode="&#x2030;" glyph-name="perthousand" horiz-adv-x="1590" d="M449 559q0-107-50-168.5T260 329q-90 0-137.5 59.5T75 557q0 107 49.5 168.5T263 787q90 0 138-59.5T449 559Zm-79-1q0 80-27.5 122T262 722q-54 0-81.5-42T153 558t27.5-122T262 394q53 0 80.5 42T370 558ZM867 778L323-96H236L781 778h86Zm163-653q0-107-50-168.5T841-105q-90 0-137.5 59.5T656 123q0 107 49.5 168.5T844 353q90 0 138-59.5T1030 125Zm-79-1q0 80-27.5 122T843 288q-54 0-81.5-42T734 124 761.5 2 843-40q53 0 80.5 42T951 124Zm564 1q0-107-50-168.5T1326-105q-90 0-137.5 59.5T1141 123q0 107 49.5 168.5T1329 353q90 0 138-59.5T1515 125Zm-79-1q0 80-27.5 122T1328 288q-54 0-81.5-42T1219 124 1246.5 2 1328-40q53 0 80.5 42T1436 124Z"/>
<glyph unicode="+" glyph-name="plus" horiz-adv-x="650" d="M286 58V288H61v68H286V584h78V356H589V288H364V58H286Z"/>
<glyph unicode="&#x2212;" glyph-name="minus" horiz-adv-x="650" d="M589 288H61v68H589V288Z"/>
<glyph unicode="&#xd7;" glyph-name="multiply" horiz-adv-x="650" d="M509 85L325 271 140 85 88 138 274 322 88 507l52 52L325 373 509 559l53-52L376 322 562 138 509 85Z"/>
<glyph unicode="&#xf7;" glyph-name="divide" horiz-adv-x="650" d="M276 462V591h98V462H276ZM589 288H61v68H589V288ZM276 53V182h98V53H276Z"/>
<glyph unicode="=" glyph-name="equal" horiz-adv-x="650" d="M579 382H71v69H579V382Zm0-189H71v69H579V193Z"/>
<glyph unicode="&#x2260;" glyph-name="notequal" horiz-adv-x="650" d="M138 27l83 166H71v69H255l59 120H71v69H348l78 160h82L427 451H579V382H393L333 262H579V193H300L219 27H138Z"/>
<glyph unicode="&#x2248;" glyph-name="approxequal" horiz-adv-x="650" d="M433 155q-30 0-56.5 7.5t-64 29.5T255 220t-41 6q-27 0-53.5-13T100 169L57 218q37 39 78 59t82 20q30 0 56.5-7.5t64-29.5T395 232t41-6q27 0 53.5 13T550 283l42-50q-38-39-78-58.5T433 155Zm0 192q-30 0-56.5 7.5t-64 29.5T255 412t-41 6q-27 0-53.5-13T100 361L57 411q37 38 78 58t82 20q30 0 56.5-7.5t64-29.5T395 424t41-6q27 0 53.5 13T550 475l42-49q-38-39-78-59t-81-20Z"/>
<glyph unicode="&lt;" glyph-name="less" horiz-adv-x="650" d="M579 81L71 281v82L579 563V479Q388 404 302 372.5T162 324v-2q54-17 140-49T579 167V81Z"/>
<glyph unicode="&gt;" glyph-name="greater" horiz-adv-x="650" d="M71 563L579 363V281L71 81v84q189 74 275.5 106T488 320v2q-54 17-140 49T71 477v86Z"/>
<glyph unicode="&#xb1;" glyph-name="plusminus" horiz-adv-x="650" d="M579 0H71V68H579V0ZM286 184V400H71v68H286V682h78V468H579V400H364V184H286Z"/>
<glyph unicode="&#x2264;" glyph-name="lessequal" horiz-adv-x="650" d="M579 192L71 391v83L579 674V590Q388 515 302 483T162 435v-2q54-17 140-49T579 277V192ZM579 0H71V68H579V0Z"/>
<glyph unicode="&#x2265;" glyph-name="greaterequal" horiz-adv-x="650" d="M71 674L579 474V391L71 192v84q191 75 277 107t140 48v2q-54 17-140 49T71 589v85ZM579 0H71V68H579V0Z"/>
<glyph unicode="&#xac;" glyph-name="logicalnot" horiz-adv-x="650" d="M490 87V288H61v68H568V87H490Z"/>
<glyph unicode="&#x221e;" glyph-name="infinity" horiz-adv-x="980" d="M257 186q30 0 58 13t57 39 73 81q-45 59-73.5 86T315 445t-58 13q-58 0-92.5-37.5T130 322q0-62 34.5-99T257 186ZM723 458q-30 0-58.5-13T607 405.5 536 325q45-60 73-86.5T665 199t58-13q59 0 93.5 37.5T851 322q0 62-34.5 99T723 458ZM252 117q-91 0-149.5 56T44 319q0 93 60.5 150.5T260 527q61 0 115-33T493 379q67 82 121 115t115 33q90 0 148.5-56T936 325q0-93-60-150.5T720 117q-61 0-115 32.5T487 264q-67-82-121.5-114.5T252 117Z"/>
<glyph unicode="&#x2202;" glyph-name="partialdiff" horiz-adv-x="570" d="M273-13q-69 0-120 31.5T75 107 48 238q0 77 27.5 134.5t79 88.5T274 492q58 0 104-28.5T445 390h1q-2 10-8 48t-15 65.5T401.5 552 373 589q-22 21-51 32t-63 11q-74 0-133-22v72q62 18 136 18 87 0 144.5-39.5t85.5-120T520 336q0-115-28-192.5t-83-117T273-13Zm3 68q44 0 78 23t52.5 65.5T425 240q0 56-18.5 98T355 402t-76 22q-45 0-78-22t-50.5-64T133 239q0-54 17.5-96t50-65T276 55Z"/>
<glyph unicode="&#x222b;" glyph-name="integral" horiz-adv-x="344" d="M85-214q-24 0-48.5 5T-5-196l9 68q15-7 35-12t36-5q29 0 42 17t13 53V649q0 68 33 103t96 35q23 0 46.5-4.5T349 769l-9-69q-18 8-37 13t-35 5q-28 0-41.5-17.5T213 648V-77q1-67-32-102T85-214Z"/>
<glyph unicode="&#x221a;" glyph-name="radical" horiz-adv-x="704" d="M260-96L118 275H14v69H184l60-161q31-84 43-121T306-2h2q8 29 25.5 79.5T397 253L587 778h93L348-96H260Z"/>
<glyph unicode="&#x220f;" glyph-name="product" horiz-adv-x="811" d="M585-204V702H226V-204H140V702H10v76H801V702H671V-204H585Z"/>
<glyph unicode="&#x2211;" glyph-name="summation" horiz-adv-x="660" d="M41-129L341 298 56 704v74H604V702q-87 0-213.5 0.5T165 704L446 304 141-129q105 1 240.5 1.5T620-127v-77H41v75Z"/>
<glyph unicode="&#x25ca;" glyph-name="lozenge" horiz-adv-x="650" d="M327 73q10 21 40.5 70T492 340Q400 482 367.5 534T324 609h-2q-10-21-40-70T158 342q91-142 123.5-194T325 73h2ZM280 0L62 341 279 682h91L587 341 370 0H280Z"/>
<glyph unicode="&#x2113;" glyph-name="afii61289" horiz-adv-x="461" d="M257-12q-64 0-102 40T101 152L52 128 21 190l70 35q-4 52-4 127 0 129 16.5 209T155 678.5 250 716q45 0 74-22.5t43.5-66T382 520q0-110-50.5-191.5T176 190q8-70 29.5-101.5T266 57q22 0 43.5 9.5T352 95l33-54Q358 15 325 1.5T257-12Zm42 529q0 69-13 100t-42 31q-28 0-44-31.5T176.5 520 169 354q0-61 1-88 63 39 96 102.5T299 517Z"/>
<glyph unicode="&#x212e;" glyph-name="estimated" horiz-adv-x="932" d="M467-15q-91 0-165 25T174.5 81 92 193 63 340 93 486.5 176.5 599t128 72.5T468 697t163-25 127-71 82-111 29-145q0-5 0-11t-2-11H231V159q0-21 6-32.5T258 105q35-26 88-43T470 45q83 0 156 26.5T748 147h94q-28-38-67-68T687.5 28 583-4 467-15ZM699 378V531q0 18-4.5 27T680 575q-42 32-95.5 47.5T466 638 346.5 622 250 574q-9-7-14-17.5T231 525V378H699Z"/>
<glyph unicode="&#xf8ff;" glyph-name="uniF8FF" horiz-adv-x="822" d="M525 304H373v76H525v76H373v76H601V152H525V304ZM221 532h76V228H449V152H221V532ZM69 684H753V0H69V684ZM145 76H677V608H145V76Z"/>
</font>
</defs>
</svg>
