<?xml version="1.0" standalone="no"?><!DOCTYPE svg PUBLIC "-//W3C//DTD SVG 1.0//EN" "http://www.w3.org/TR/2001/REC-SVG-20010904/DTD/svg10.dtd"><svg xmlns="http://www.w3.org/2000/svg" width="100%" height="100%">
<defs>
<font id="VolvoNovumWebLatin-SemiLight" horiz-adv-x="589"><font-face
    font-family="Volvo Novum Web Latin SemiLight"
    units-per-em="1000"
    panose-1="2 11 4 3 4 5 2 6 2 4"
    ascent="980"
    descent="-220"
    alphabetic="0" />
<missing-glyph horiz-adv-x="1079"/>
<glyph unicode="" glyph-name="nonmarkingreturn" horiz-adv-x="255"/>
<glyph unicode=" " glyph-name="space" horiz-adv-x="254"/>
<glyph unicode="A" glyph-name="A" horiz-adv-x="643" d="M317 610q-10-43-63-187L191 249H447L382 426q-52 139-64 184h-1Zm44 72L625 0H540L470 189H169L100 0H18L282 682h79Z"/>
<glyph unicode="a" glyph-name="a" horiz-adv-x="516" d="M50 129q0 41 18 70t56.5 49 99 29.5T369 287v36q0 53-29 81t-84 28q-47 0-84-21t-67-65L58 387q38 51 88.5 77.5T259 491q88 0 134-42.5T439 326V236q0-58 0.5-102T442 0H374l-2 71h-1Q344 31 302 9.5T212-12Q139-12 94.5 26T50 129ZM369 232q-69 0-115.5-6t-75-18T137 177.5 124 131q0-41 27-63t76-22q40 0 72.5 20t51 55.5T369 197v35h0Z"/>
<glyph unicode="&#xc0;" glyph-name="Agrave" horiz-adv-x="643" d="M317 610q-10-43-63-187L191 249H447L382 426q-52 139-64 184h-1Zm44 72L625 0H540L470 189H169L100 0H18L282 682h79Zm8 67H296L170 881H276l93-132Z"/>
<glyph unicode="&#xe0;" glyph-name="agrave" horiz-adv-x="516" d="M50 129q0 41 18 70t56.5 49 99 29.5T369 287v36q0 53-29 81t-84 28q-47 0-84-21t-67-65L58 387q38 51 88.5 77.5T259 491q88 0 134-42.5T439 326V236q0-58 0.5-102T442 0H374l-2 71h-1Q344 31 302 9.5T212-12Q139-12 94.5 26T50 129ZM369 232q-69 0-115.5-6t-75-18T137 177.5 124 131q0-41 27-63t76-22q40 0 72.5 20t51 55.5T369 197v35h0ZM306 551H239L122 692h99l85-141Z"/>
<glyph unicode="&#xc1;" glyph-name="Aacute" horiz-adv-x="643" d="M317 610q-10-43-63-187L191 249H447L382 426q-52 139-64 184h-1Zm44 72L625 0H540L470 189H169L100 0H18L282 682h79Zm4 199H471L344 749H272l93 132Z"/>
<glyph unicode="&#xe1;" glyph-name="aacute" horiz-adv-x="516" d="M50 129q0 41 18 70t56.5 49 99 29.5T369 287v36q0 53-29 81t-84 28q-47 0-84-21t-67-65L58 387q38 51 88.5 77.5T259 491q88 0 134-42.5T439 326V236q0-58 0.5-102T442 0H374l-2 71h-1Q344 31 302 9.5T212-12Q139-12 94.5 26T50 129ZM369 232q-69 0-115.5-6t-75-18T137 177.5 124 131q0-41 27-63t76-22q40 0 72.5 20t51 55.5T369 197v35h0ZM302 692h98L284 551H218l84 141Z"/>
<glyph unicode="&#xc2;" glyph-name="Acircumflex" horiz-adv-x="643" d="M317 610q-10-43-63-187L191 249H447L382 426q-52 139-64 184h-1Zm44 72L625 0H540L470 189H169L100 0H18L282 682h79ZM284 882h73L475 750H400l-80 75-80-75H166L284 882Z"/>
<glyph unicode="&#xe2;" glyph-name="acircumflex" horiz-adv-x="516" d="M50 129q0 41 18 70t56.5 49 99 29.5T369 287v36q0 53-29 81t-84 28q-47 0-84-21t-67-65L58 387q38 51 88.5 77.5T259 491q88 0 134-42.5T439 326V236q0-58 0.5-102T442 0H374l-2 71h-1Q344 31 302 9.5T212-12Q139-12 94.5 26T50 129ZM369 232q-69 0-115.5-6t-75-18T137 177.5 124 131q0-41 27-63t76-22q40 0 72.5 20t51 55.5T369 197v35h0ZM219 692h86l99-141H335l-75 90-74-90H119L219 692Z"/>
<glyph unicode="&#xc3;" glyph-name="Atilde" horiz-adv-x="643" d="M317 610q-10-43-63-187L191 249H447L382 426q-52 139-64 184h-1Zm44 72L625 0H540L470 189H169L100 0H18L282 682h79ZM250 817q-18 0-28.5-17T211 755H152q0 38 12 66t34.5 42.5T253 878q21 0 41-8.5t45.5-29 35-25T392 811q18 0 28.5 17T431 873h59q0-37-12-65t-34.5-43T389 750q-21 0-41.5 8.5t-46 29-34.5 25T250 817Z"/>
<glyph unicode="&#xe3;" glyph-name="atilde" horiz-adv-x="516" d="M50 129q0 41 18 70t56.5 49 99 29.5T369 287v36q0 53-29 81t-84 28q-47 0-84-21t-67-65L58 387q38 51 88.5 77.5T259 491q88 0 134-42.5T439 326V236q0-58 0.5-102T442 0H374l-2 71h-1Q344 31 302 9.5T212-12Q139-12 94.5 26T50 129ZM369 232q-69 0-115.5-6t-75-18T137 177.5 124 131q0-41 27-63t76-22q40 0 72.5 20t51 55.5T369 197v35h0ZM200 624q-19 0-28.5-16.5T162 563H106q0 37 11 64t32.5 41T202 682q20 0 38-8t39.5-28T309 621.5t15-4.5q18 0 27.5 16.5T361 678h57q0-36-11-63t-32.5-41.5T322 559q-20 0-38 8t-40 28-29.5 24.5T200 624Z"/>
<glyph unicode="&#xc4;" glyph-name="Adieresis" horiz-adv-x="643" d="M317 610q-10-43-63-187L191 249H447L382 426q-52 139-64 184h-1Zm44 72L625 0H540L470 189H169L100 0H18L282 682h79Zm34 79V873h75V761H395Zm-223 0V873h75V761H172Z"/>
<glyph unicode="&#xe4;" glyph-name="adieresis" horiz-adv-x="516" d="M50 129q0 41 18 70t56.5 49 99 29.5T369 287v36q0 53-29 81t-84 28q-47 0-84-21t-67-65L58 387q38 51 88.5 77.5T259 491q88 0 134-42.5T439 326V236q0-58 0.5-102T442 0H374l-2 71h-1Q344 31 302 9.5T212-12Q139-12 94.5 26T50 129ZM369 232q-69 0-115.5-6t-75-18T137 177.5 124 131q0-41 27-63t76-22q40 0 72.5 20t51 55.5T369 197v35h0ZM318 567V680h71V567H318Zm-184 0V680h71V567H134Z"/>
<glyph unicode="&#x100;" glyph-name="Amacron" horiz-adv-x="643" d="M317 610q-10-43-63-187L191 249H447L382 426q-52 139-64 184h-1Zm44 72L625 0H540L470 189H169L100 0H18L282 682h79Zm108 99H172v62H469V781Z"/>
<glyph unicode="&#x101;" glyph-name="amacron" horiz-adv-x="516" d="M50 129q0 41 18 70t56.5 49 99 29.5T369 287v36q0 53-29 81t-84 28q-47 0-84-21t-67-65L58 387q38 51 88.5 77.5T259 491q88 0 134-42.5T439 326V236q0-58 0.5-102T442 0H374l-2 71h-1Q344 31 302 9.5T212-12Q139-12 94.5 26T50 129ZM369 232q-69 0-115.5-6t-75-18T137 177.5 124 131q0-41 27-63t76-22q40 0 72.5 20t51 55.5T369 197v35h0Zm27 356H128v59H396V588Z"/>
<glyph unicode="&#x102;" glyph-name="Abreve" horiz-adv-x="643" d="M317 610q-10-43-63-187L191 249H447L382 426q-52 139-64 184h-1Zm44 72L625 0H540L470 189H169L100 0H18L282 682h79ZM467 884q0-45-17.5-76.5t-50.5-47T320 745t-78.5 15.5T192 807t-17 77h62q0-26 9.5-43t28-25.5T321 807t47 9 27.5 26 8.5 42h63Z"/>
<glyph unicode="&#x103;" glyph-name="abreve" horiz-adv-x="516" d="M50 129q0 41 18 70t56.5 49 99 29.5T369 287v36q0 53-29 81t-84 28q-47 0-84-21t-67-65L58 387q38 51 88.5 77.5T259 491q88 0 134-42.5T439 326V236q0-58 0.5-102T442 0H374l-2 71h-1Q344 31 302 9.5T212-12Q139-12 94.5 26T50 129ZM369 232q-69 0-115.5-6t-75-18T137 177.5 124 131q0-41 27-63t76-22q40 0 72.5 20t51 55.5T369 197v35h0Zm29 457q0-43-15-73.5t-45.5-46T260 554q-45 0-75 15.5t-45 46T125 689h58q0-24 8.5-41.5t26-26.5 43.5-9q28 0 45.5 9.5t25.5 27 8 40.5h58Z"/>
<glyph unicode="&#xc5;" glyph-name="Aring" horiz-adv-x="643" d="M317 610q-10-43-63-187L191 249H447L382 426q-52 139-64 184h-1Zm44 72L625 0H540L470 189H169L100 0H18L282 682h79Zm6 152q0 20-12 34t-34 14-33.5-13.5T276 834q0-20 11.5-33.5T321 787t34 13.5T367 834Zm57 1q0-40-28-67.5T320 740t-74.5 26.5T219 834q0 39 27.5 66.5T322 928q49 0 75.5-26T424 835Z"/>
<glyph unicode="&#xe5;" glyph-name="aring" horiz-adv-x="516" d="M50 129q0 41 18 70t56.5 49 99 29.5T369 287v36q0 53-29 81t-84 28q-47 0-84-21t-67-65L58 387q38 51 88.5 77.5T259 491q88 0 134-42.5T439 326V236q0-58 0.5-102T442 0H374l-2 71h-1Q344 31 302 9.5T212-12Q139-12 94.5 26T50 129ZM369 232q-69 0-115.5-6t-75-18T137 177.5 124 131q0-41 27-63t76-22q40 0 72.5 20t51 55.5T369 197v35h0ZM307 641q0 21-12 34.5T261 689t-33.5-13.5T216 641q0-20 12-33.5T261 594q22 0 34 13.5T307 641Zm57 1q0-39-28-66.5T260 548q-49 0-75 26t-26 67q0 40 27.5 67.5T262 736q49 0 75.5-26T364 642Z"/>
<glyph unicode="&#x1fa;" glyph-name="Aringacute" horiz-adv-x="643" d="M317 610q-10-43-63-187L191 249H447L382 426q-52 139-64 184h-1Zm44 72L625 0H540L470 189H169L100 0H18L282 682h79Zm-1 298H467L350 875H278l82 105Zm4-237q0 21-11 34t-33 13q-21 0-32-13t-11-33 11-33 32-13 32.5 13T364 743Zm58 2q0-39-27.5-65.5T319 653q-49 0-74.5 25T219 743q0 39 27 65.5T321 835q49 0 75-25t26-65Z"/>
<glyph unicode="&#x1fb;" glyph-name="aringacute" horiz-adv-x="516" d="M50 129q0 41 18 70t56.5 49 99 29.5T369 287v36q0 53-29 81t-84 28q-47 0-84-21t-67-65L58 387q38 51 88.5 77.5T259 491q88 0 134-42.5T439 326V236q0-58 0.5-102T442 0H374l-2 71h-1Q344 31 302 9.5T212-12Q139-12 94.5 26T50 129ZM369 232q-69 0-115.5-6t-75-18T137 177.5 124 131q0-41 27-63t76-22q40 0 72.5 20t51 55.5T369 197v35h0ZM312 884H413L296 767H230l82 117Zm-4-256q0 21-11.5 34T263 675t-33.5-13T218 628q0-20 11.5-33.5T263 581t33.5 13.5T308 628Zm57 1q0-39-27.5-66.5T262 535q-49 0-75 26t-26 67q0 39 27.5 66T264 721q49 0 75-25.5T365 629Z"/>
<glyph unicode="&#x104;" glyph-name="Aogonek" horiz-adv-x="643" d="M190 249H448L382 426q-52 139-64 184h-1q-10-43-63-187L190 249ZM630-206q-23-8-63-8-35 0-57.5 8.5t-33 24.5T466-140q0 32 21.5 68.5T549 0h-9L470 189H169L100 0H18L282 682h79L625 0q-43-40-64-73t-21-58q0-14 8.5-20t27.5-6h54v-49Z"/>
<glyph unicode="&#x105;" glyph-name="aogonek" horiz-adv-x="516" d="M373 71h-1Q344 31 302 9.5T212-12Q139-12 94.5 26T50 129q0 41 18 70t56.5 49 99 29.5T369 287v36q0 53-29 81t-84 28q-47 0-84-21t-67-65L58 387q38 51 88.5 77.5T259 491q88 0 134-42.5T439 326V236q0-126 0.5-164.5T442 0q-42-44-61-74.5T362-133q0-15 9.5-21t27.5-6h51v-47q-12-4-27.5-5.5T393-214q-36 0-58 8t-32.5 24.5T292-140q0 31 18.5 63.5T375 4l-2 67Zm-4 161q-69 0-115.5-6t-75-18T137 177.5 124 131q0-41 27-63t76-22q40 0 72 19.5t51 55T369 197v35h0Z"/>
<glyph unicode="&#xc6;" glyph-name="AE" horiz-adv-x="969" d="M190 248H456V618H375L190 248ZM887 682V618H531V380H840V318H531V65H904V0H456V186H160L67 0H-17L331 682H887Z"/>
<glyph unicode="&#xe6;" glyph-name="ae" horiz-adv-x="844" d="M227 46q40 0 72 19.5t51 55T369 197v35q-69 0-115.5-6t-75-18T137 177.5 124 131q0-41 27-63t76-22ZM722 281q0 43-18 78.5t-49 54T585 432q-40 0-70.5-17.5T465 363t-24-82H722ZM213-12Q140-12 95 26T50 129q0 41 18 70t56.5 49 99 29.5T369 287v36q-1 54-29.5 81.5T256 432q-47 0-84-21t-67-65L58 387q38 51 88.5 77.5T259 491t101.5-21T418 408q28 40 71 61.5T588 491q63 0 109.5-27.5t73.5-79T798 276q0-31-4-51H439q2-80 45-129T597 47q51 0 88 19.5T751 129l48-39q-39-54-88-78T594-12 477.5 16.5 400 102q-29-59-75-86.5T213-12Z"/>
<glyph unicode="&#x1fc;" glyph-name="AEacute" horiz-adv-x="969" d="M190 248H456V618H375L190 248ZM887 682V618H531V380H840V318H531V65H904V0H456V186H160L67 0H-17L331 682H887ZM648 881H754L627 749H555l93 132Z"/>
<glyph unicode="&#x1fd;" glyph-name="aeacute" horiz-adv-x="844" d="M227 46q40 0 72 19.5t51 55T369 197v35q-69 0-115.5-6t-75-18T137 177.5 124 131q0-41 27-63t76-22ZM722 281q0 43-18 78.5t-49 54T585 432q-40 0-70.5-17.5T465 363t-24-82H722ZM213-12Q140-12 95 26T50 129q0 41 18 70t56.5 49 99 29.5T369 287v36q-1 54-29.5 81.5T256 432q-47 0-84-21t-67-65L58 387q38 51 88.5 77.5T259 491t101.5-21T418 408q28 40 71 61.5T588 491q63 0 109.5-27.5t73.5-79T798 276q0-31-4-51H439q2-80 45-129T597 47q51 0 88 19.5T751 129l48-39q-39-54-88-78T594-12 477.5 16.5 400 102q-29-59-75-86.5T213-12ZM475 692h98L457 551H391l84 141Z"/>
<glyph unicode="B" glyph-name="B" horiz-adv-x="706" d="M110 682q32 0 100.5 0.5T328 683q112 0 165.5-14T581 621q44-44 44-109 0-58-28.5-98T509 352q67-14 102-56.5T646 188q0-67-31.5-108.5T520 18.5 350-1Q224-1 110 0V682Zm75-305H352q74 0 108 9.5T517 419q15 15 23 36t8 49q0 45-30 74-23 23-65 32t-129 9q-93 0-139-1V377Zm0-313q59-1 172-1 80 0 124 12.5T546.5 115 568 186q0 45-20 74t-62.5 42T349 315H185V64Z"/>
<glyph unicode="b" glyph-name="b" horiz-adv-x="580" d="M152 229q0-53 19-94.5T224.5 70 305 47q47 0 81 23.5t52 67T456 240q0 57-19.5 101T382 408t-81 23q-44 0-78.5-21.5t-52.5-63T152 250V229ZM84 711h70V501q0-60-4-94h1q24 40 65 62t97 22q65 0 114.5-30.5t76-87.5T530 242q0-76-26.5-134t-77-89T310-12q-52 0-92.5 21T151 69h-1L146 0H77q3 58 5 111.5T84 238V711Z"/>
<glyph unicode="&#x1e02;" glyph-name="uni1E02" horiz-adv-x="706" d="M110 682q32 0 100.5 0.5T328 683q112 0 165.5-14T581 621q44-44 44-109 0-58-28.5-98T509 352q67-14 102-56.5T646 188q0-67-31.5-108.5T520 18.5 350-1Q224-1 110 0V682Zm75-305H352q74 0 108 9.5T517 419q15 15 23 36t8 49q0 45-30 74-23 23-65 32t-129 9q-93 0-139-1V377Zm0-313q59-1 172-1 80 0 124 12.5T546.5 115 568 186q0 45-20 74t-62.5 42T349 315H185V64ZM315 761V873h76V761H315Z"/>
<glyph unicode="&#x1e03;" glyph-name="uni1E03" horiz-adv-x="580" d="M152 229q0-53 19-94.5T224.5 70 305 47q47 0 81 23.5t52 67T456 240q0 57-19.5 101T382 408t-81 23q-44 0-78.5-21.5t-52.5-63T152 250V229ZM84 711h70V501q0-60-4-94h1q24 40 65 62t97 22q65 0 114.5-30.5t76-87.5T530 242q0-76-26.5-134t-77-89T310-12q-52 0-92.5 21T151 69h-1L146 0H77q3 58 5 111.5T84 238V711ZM272 567V680h72V567H272Z"/>
<glyph unicode="C" glyph-name="C" horiz-adv-x="690" d="M654 170Q621 80 551 33T381-14q-92 0-164 43.5t-111.5 124T66 340t40 186T220 651t160 45q90 0 160-45T644 525l-66-30q-26 64-79 99.5T378 630q-67 0-120.5-35.5t-83-101T145 341q0-88 30-153.5t84-100T383 53q76 0 128 35.5T588 191l66-21Z"/>
<glyph unicode="c" glyph-name="c" horiz-adv-x="515" d="M473 122Q441 52 391 20T269-12q-68 0-118 31T75 106.5 49 237q0 77 26.5 134T152 459.5 267 491q70 0 119-31.5T466 364l-63-33q-21 51-55 75.5T266 431q-43 0-75.5-23T141 341.5 124 239q0-57 17.5-100.5t51-67T271 48q51 0 85.5 24T414 148l59-26Z"/>
<glyph unicode="&#x106;" glyph-name="Cacute" horiz-adv-x="690" d="M654 170Q621 80 551 33T381-14q-92 0-164 43.5t-111.5 124T66 340t40 186T220 651t160 45q90 0 160-45T644 525l-66-30q-26 64-79 99.5T378 630q-67 0-120.5-35.5t-83-101T145 341q0-88 30-153.5t84-100T383 53q76 0 128 35.5T588 191l66-21ZM425 881H531L404 749H332l93 132Z"/>
<glyph unicode="&#x107;" glyph-name="cacute" horiz-adv-x="515" d="M473 122Q441 52 391 20T269-12q-68 0-118 31T75 106.5 49 237q0 77 26.5 134T152 459.5 267 491q70 0 119-31.5T466 364l-63-33q-21 51-55 75.5T266 431q-43 0-75.5-23T141 341.5 124 239q0-57 17.5-100.5t51-67T271 48q51 0 85.5 24T414 148l59-26ZM308 692h98L290 551H224l84 141Z"/>
<glyph unicode="&#x108;" glyph-name="Ccircumflex" horiz-adv-x="690" d="M654 170Q621 80 551 33T381-14q-92 0-164 43.5t-111.5 124T66 340t40 186T220 651t160 45q90 0 160-45T644 525l-66-30q-26 64-79 99.5T378 630q-67 0-120.5-35.5t-83-101T145 341q0-88 30-153.5t84-100T383 53q76 0 128 35.5T588 191l66-21ZM345 882h73L536 750H461l-80 75-80-75H227L345 882Z"/>
<glyph unicode="&#x109;" glyph-name="ccircumflex" horiz-adv-x="515" d="M473 122Q441 52 391 20T269-12q-68 0-118 31T75 106.5 49 237q0 77 26.5 134T152 459.5 267 491q70 0 119-31.5T466 364l-63-33q-21 51-55 75.5T266 431q-43 0-75.5-23T141 341.5 124 239q0-57 17.5-100.5t51-67T271 48q51 0 85.5 24T414 148l59-26ZM225 692h86l99-141H341l-75 90-74-90H125L225 692Z"/>
<glyph unicode="&#x10c;" glyph-name="Ccaron" horiz-adv-x="690" d="M654 170Q621 80 551 33T381-14q-92 0-164 43.5t-111.5 124T66 340t40 186T220 651t160 45q90 0 160-45T644 525l-66-30q-26 64-79 99.5T378 630q-67 0-120.5-35.5t-83-101T145 341q0-88 30-153.5t84-100T383 53q76 0 128 35.5T588 191l66-21ZM419 750H344L227 882h74l81-75 80 75h74L419 750Z"/>
<glyph unicode="&#x10d;" glyph-name="ccaron" horiz-adv-x="515" d="M473 122Q441 52 391 20T269-12q-68 0-118 31T75 106.5 49 237q0 77 26.5 134T152 459.5 267 491q70 0 119-31.5T466 364l-63-33q-21 51-55 75.5T266 431q-43 0-75.5-23T141 341.5 124 239q0-57 17.5-100.5t51-67T271 48q51 0 85.5 24T414 148l59-26ZM310 551H224L125 692h69l75-90 74 90h67L310 551Z"/>
<glyph unicode="&#x10a;" glyph-name="Cdotaccent" horiz-adv-x="690" d="M654 170Q621 80 551 33T381-14q-92 0-164 43.5t-111.5 124T66 340t40 186T220 651t160 45q90 0 160-45T644 525l-66-30q-26 64-79 99.5T378 630q-67 0-120.5-35.5t-83-101T145 341q0-88 30-153.5t84-100T383 53q76 0 128 35.5T588 191l66-21ZM343 761V873h76V761H343Z"/>
<glyph unicode="&#x10b;" glyph-name="cdotaccent" horiz-adv-x="515" d="M473 122Q441 52 391 20T269-12q-68 0-118 31T75 106.5 49 237q0 77 26.5 134T152 459.5 267 491q70 0 119-31.5T466 364l-63-33q-21 51-55 75.5T266 431q-43 0-75.5-23T141 341.5 124 239q0-57 17.5-100.5t51-67T271 48q51 0 85.5 24T414 148l59-26ZM231 567V680h72V567H231Z"/>
<glyph unicode="&#xc7;" glyph-name="Ccedilla" horiz-adv-x="690" d="M295-207q28 25 42 43.5T351-129q0 14-13.5 27T300-79l38 68Q256-1 194.5 45t-95 122T66 340q0 105 39.5 185t113 125.5T380 696q91 0 160.5-45T644 525l-66-30q-26 63-79.5 99T378 630q-68 0-122-36.5T173.5 492 145 341t29-151.5 83-101T383 53q75 0 128 36t77 102l66-21Q625 87 558.5 38.5T404-13L381-53q23-16 33.5-33T425-125q0-12-6.5-26.5t-19-30T373-207H295Z"/>
<glyph unicode="&#xe7;" glyph-name="ccedilla" horiz-adv-x="515" d="M192-207q22 17 38 39.5T246-129q0 14-11 25.5T196-78l39 68q-57 7-99 39T71.5 114.5 49 237q0 76 26.5 133.5t76.5 89T267 491q70 0 119-31.5T466 364l-63-33q-22 51-56 75.5T266 431q-43 0-75.5-23T141 341.5 124 239q0-57 18-100.5t51-67T271 48q51 0 85.5 24.5T414 148l59-26q-29-63-72.5-95.5T298-10L274-53q22-15 32.5-32.5T317-125q0-20-14.5-42.5T266-207H192Z"/>
<glyph unicode="D" glyph-name="D" horiz-adv-x="726" d="M110 681q68 1 196 1 97 0 157-20t106-66q45-45 68-108.5T660 343 636 195.5 568 85Q523 40 463 20T306 0Q208 1 110 1V681ZM185 69q59-3 123-3 85 0 126.5 13.5T508 125q37 36 55 90t18 125q0 67-19.5 123T506 554q-35 35-78 49T303 617q-84 0-118-1V69Z"/>
<glyph unicode="d" glyph-name="d" horiz-adv-x="580" d="M431 0l-2 72h-1Q405 30 363.5 9T267-12q-67 0-116 30.5T75.5 106 49 236q0 77 27 134.5t77 89T270 491q51 0 91-20.5T427 412h1q-2 34-2 89V711h70V237q0-89 0.5-138T499 0H431Zm-3 249q0 54-19.5 96T354 409t-79 22q-47 0-81.5-23t-52-67T124 238q0-56 18.5-99.5T196 71t83-24q45 0 79 22.5T410 133t18 96v20Z"/>
<glyph unicode="&#x10e;" glyph-name="Dcaron" horiz-adv-x="726" d="M110 681q68 1 196 1 97 0 157-20t106-66q45-45 68-108.5T660 343 636 195.5 568 85Q523 40 463 20T306 0Q208 1 110 1V681ZM185 69q59-3 123-3 85 0 126.5 13.5T508 125q37 36 55 90t18 125q0 67-19.5 123T506 554q-35 35-78 49T303 617q-84 0-118-1V69ZM380 750H305L188 882h74l81-75 80 75h74L380 750Z"/>
<glyph unicode="&#x10f;" glyph-name="dcaron" horiz-adv-x="597" d="M431 0l-2 72h-1Q405 30 363.5 9T267-12q-67 0-116 30.5T75.5 106 49 236q0 77 27 134.5t77 89T270 491q51 0 91-20.5T427 412h1q-2 34-2 89V711h70V237q0-89 0.5-138T499 0H431Zm-3 249q0 54-19.5 96T354 409t-79 22q-47 0-81.5-23t-52-67T124 238q0-56 18.5-99.5T196 71t83-24q45 0 79 22.5T410 133t18 96v20ZM581 756h76L604 569H546l35 187Z"/>
<glyph unicode="&#x1e0a;" glyph-name="uni1E0A" horiz-adv-x="726" d="M110 681q68 1 196 1 97 0 157-20t106-66q45-45 68-108.5T660 343 636 195.5 568 85Q523 40 463 20T306 0Q208 1 110 1V681ZM185 69q59-3 123-3 85 0 126.5 13.5T508 125q37 36 55 90t18 125q0 67-19.5 123T506 554q-35 35-78 49T303 617q-84 0-118-1V69ZM304 761V873h76V761H304Z"/>
<glyph unicode="&#x1e0b;" glyph-name="uni1E0B" horiz-adv-x="580" d="M431 0l-2 72h-1Q405 30 363.5 9T267-12q-67 0-116 30.5T75.5 106 49 236q0 77 27 134.5t77 89T270 491q51 0 91-20.5T427 412h1q-2 34-2 89V711h70V237q0-89 0.5-138T499 0H431Zm-3 249q0 54-19.5 96T354 409t-79 22q-47 0-81.5-23t-52-67T124 238q0-56 18.5-99.5T196 71t83-24q45 0 79 22.5T410 133t18 96v20ZM233 567V680h72V567H233Z"/>
<glyph unicode="&#xd0;" glyph-name="Eth" horiz-adv-x="741" d="M124 319H11v61H124V681q69 1 197 1 96 0 156-20t107-66q45-45 68-108.5T675 343 651 195.5 583 85Q537 40 477 20T320 0Q222 1 124 1V319ZM199 69q60-3 123-3 84 0 126 13t74 45q37 37 55 91t18 125q0 67-19.5 123T520 555q-34 35-77.5 49T318 618q-85 0-119-1V380H403V319H199V69Z"/>
<glyph unicode="&#xf0;" glyph-name="eth" horiz-adv-x="563" d="M171 526l-25 48 107 54q-45 35-99 64l72 33q49-29 92-64l120 60 26-48L362 621q73-72 111.5-162T512 268q0-86-28-149.5t-80.5-97T278-12q-71 0-122.5 30.5T76.5 106 49 238q0 73 27.5 130.5t77.5 89T269 489q52 0 93-21.5T426 408l2 1q-16 39-45.5 83T298 589L171 526ZM435 238q0 56-19.5 99.5t-55 67.5T279 429q-47 0-82-24t-54-68-19-99q0-56 19.5-99.5t54.5-67T279 48q48 0 83 24t54 67.5T435 238h0Z"/>
<glyph unicode="&#x110;" glyph-name="Dcroat" horiz-adv-x="741" d="M124 319H11v61H124V681q69 1 197 1 96 0 156-20t107-66q45-45 68-108.5T675 343 651 195.5 583 85Q537 40 477 20T320 0Q222 1 124 1V319ZM199 69q60-3 123-3 84 0 126 13t74 45q37 37 55 91t18 125q0 67-19.5 123T520 555q-34 35-77.5 49T318 618q-85 0-119-1V380H403V319H199V69Z"/>
<glyph unicode="&#x111;" glyph-name="dcroat" horiz-adv-x="580" d="M428 249q0 54-19 95.5t-54 64T275 431q-47 0-81-23t-52-67T124 238q0-56 18.5-99.5T196 71t83-24q45 0 79 22.5T410 133t18 96v20ZM431 0l-2 72h-1Q404 31 363 9.5T267-12q-67 0-116 30.5t-75.5 87T49 236q0 77 27 135t77.5 89T270 491q51 0 91-20.5T427 412h1q-2 34-2 89v61H284v57H426v94h70V619h99V562H496V237q0-94 0.5-143T499 0H431Z"/>
<glyph unicode="E" glyph-name="E" horiz-adv-x="645" d="M110 682H563V618H185V380H516V318H185V65H580V0H110V682Z"/>
<glyph unicode="e" glyph-name="e" horiz-adv-x="529" d="M407 281q0 42-17.5 77t-49 54.5T269 432t-70.5-18-49-52T126 281H407ZM279-12q-70 0-122 30T77 105 49 238q0 75 27.5 133t78 89T272 491q64 0 111-28t73-79 26-108q0-31-4-51H124q1-53 21-93.5T201 69t81-22q51 0 88 19.5T436 129l47-39q-37-53-86-77.5T279-12Z"/>
<glyph unicode="&#xc8;" glyph-name="Egrave" horiz-adv-x="645" d="M110 682H563V618H185V380H516V318H185V65H580V0H110V682Zm275 67H312L186 881H292l93-132Z"/>
<glyph unicode="&#xe8;" glyph-name="egrave" horiz-adv-x="529" d="M407 281q0 42-17.5 77t-49 54.5T269 432t-70.5-18-49-52T126 281H407ZM279-12q-70 0-122 30T77 105 49 238q0 75 27.5 133t78 89T272 491q64 0 111-28t73-79 26-108q0-31-4-51H124q1-53 21-93.5T201 69t81-22q51 0 88 19.5T436 129l47-39q-37-53-86-77.5T279-12Zm29 563H241L124 692h99l85-141Z"/>
<glyph unicode="&#xc9;" glyph-name="Eacute" horiz-adv-x="645" d="M110 682H563V618H185V380H516V318H185V65H580V0H110V682ZM375 881H481L354 749H282l93 132Z"/>
<glyph unicode="&#xe9;" glyph-name="eacute" horiz-adv-x="529" d="M407 281q0 42-17.5 77t-49 54.5T269 432t-70.5-18-49-52T126 281H407ZM279-12q-70 0-122 30T77 105 49 238q0 75 27.5 133t78 89T272 491q64 0 111-28t73-79 26-108q0-31-4-51H124q1-53 21-93.5T201 69t81-22q51 0 88 19.5T436 129l47-39q-37-53-86-77.5T279-12Zm26 704h98L287 551H221l84 141Z"/>
<glyph unicode="&#xca;" glyph-name="Ecircumflex" horiz-adv-x="645" d="M110 682H563V618H185V380H516V318H185V65H580V0H110V682ZM300 882h73L491 750H416l-80 75-80-75H182L300 882Z"/>
<glyph unicode="&#xea;" glyph-name="ecircumflex" horiz-adv-x="529" d="M407 281q0 42-17.5 77t-49 54.5T269 432t-70.5-18-49-52T126 281H407ZM279-12q-70 0-122 30T77 105 49 238q0 75 27.5 133t78 89T272 491q64 0 111-28t73-79 26-108q0-31-4-51H124q1-53 21-93.5T201 69t81-22q51 0 88 19.5T436 129l47-39q-37-53-86-77.5T279-12ZM222 692h86l99-141H338l-75 90-74-90H122L222 692Z"/>
<glyph unicode="&#x11a;" glyph-name="Ecaron" horiz-adv-x="645" d="M110 682H563V618H185V380H516V318H185V65H580V0H110V682Zm265 68H300L183 882h74l81-75 80 75h74L375 750Z"/>
<glyph unicode="&#x11b;" glyph-name="ecaron" horiz-adv-x="529" d="M407 281q0 42-17.5 77t-49 54.5T269 432t-70.5-18-49-52T126 281H407ZM279-12q-70 0-122 30T77 105 49 238q0 75 27.5 133t78 89T272 491q64 0 111-28t73-79 26-108q0-31-4-51H124q1-53 21-93.5T201 69t81-22q51 0 88 19.5T436 129l47-39q-37-53-86-77.5T279-12Zm28 563H221L122 692h69l75-90 74 90h67L307 551Z"/>
<glyph unicode="&#xcb;" glyph-name="Edieresis" horiz-adv-x="645" d="M110 682H563V618H185V380H516V318H185V65H580V0H110V682Zm301 79V873h75V761H411Zm-223 0V873h75V761H188Z"/>
<glyph unicode="&#xeb;" glyph-name="edieresis" horiz-adv-x="529" d="M407 281q0 42-17.5 77t-49 54.5T269 432t-70.5-18-49-52T126 281H407ZM279-12q-70 0-122 30T77 105 49 238q0 75 27.5 133t78 89T272 491q64 0 111-28t73-79 26-108q0-31-4-51H124q1-53 21-93.5T201 69t81-22q51 0 88 19.5T436 129l47-39q-37-53-86-77.5T279-12Zm42 579V680h71V567H321Zm-184 0V680h71V567H137Z"/>
<glyph unicode="&#x112;" glyph-name="Emacron" horiz-adv-x="645" d="M110 682H563V618H185V380H516V318H185V65H580V0H110V682Zm373 99H186v62H483V781Z"/>
<glyph unicode="&#x113;" glyph-name="emacron" horiz-adv-x="529" d="M407 281q0 42-17.5 77t-49 54.5T269 432t-70.5-18-49-52T126 281H407ZM279-12q-70 0-122 30T77 105 49 238q0 75 27.5 133t78 89T272 491q64 0 111-28t73-79 26-108q0-31-4-51H124q1-53 21-93.5T201 69t81-22q51 0 88 19.5T436 129l47-39q-37-53-86-77.5T279-12ZM398 588H130v59H398V588Z"/>
<glyph unicode="&#x116;" glyph-name="Edotaccent" horiz-adv-x="645" d="M110 682H563V618H185V380H516V318H185V65H580V0H110V682Zm187 79V873h76V761H297Z"/>
<glyph unicode="&#x117;" glyph-name="edotaccent" horiz-adv-x="529" d="M407 281q0 42-17.5 77t-49 54.5T269 432t-70.5-18-49-52T126 281H407ZM279-12q-70 0-122 30T77 105 49 238q0 75 27.5 133t78 89T272 491q64 0 111-28t73-79 26-108q0-31-4-51H124q1-53 21-93.5T201 69t81-22q51 0 88 19.5T436 129l47-39q-37-53-86-77.5T279-12ZM228 567V680h72V567H228Z"/>
<glyph unicode="&#x114;" glyph-name="Ebreve" horiz-adv-x="645" d="M110 682H563V618H185V380H516V318H185V65H580V0H110V682ZM483 884q0-45-17.5-76.5t-50.5-47T336 745t-78.5 15.5T208 807t-17 77h62q0-26 9.5-43t28-25.5T337 807t47 9 27.5 26 8.5 42h63Z"/>
<glyph unicode="&#x115;" glyph-name="ebreve" horiz-adv-x="529" d="M407 281q0 42-17.5 77t-49 54.5T269 432t-70.5-18-49-52T126 281H407ZM279-12q-70 0-122 30T77 105 49 238q0 75 27.5 133t78 89T272 491q64 0 111-28t73-79 26-108q0-31-4-51H124q1-53 21-93.5T201 69t81-22q51 0 88 19.5T436 129l47-39q-37-53-86-77.5T279-12ZM401 689q0-43-15-73.5t-45.5-46T263 554q-45 0-75 15.5t-45 46T128 689h58q0-24 8.5-41.5t26-26.5 43.5-9q28 0 45.5 9.5t25.5 27 8 40.5h58Z"/>
<glyph unicode="&#x118;" glyph-name="Eogonek" horiz-adv-x="645" d="M580-206q-12-4-28.5-6T517-214q-34 0-56.5 7.5t-33.5 24T416-140q0 30 21.5 66.5T499 0H110V682H563V618H185V380H516V318H185V65H580V3q-46-45-68-78t-22-56q0-14 8-20t28-6h54v-49Z"/>
<glyph unicode="&#x119;" glyph-name="eogonek" horiz-adv-x="529" d="M269 432q-40 0-70.5-18t-49-52T126 281H407q0 42-17.5 77t-49 54.5T269 432ZM451-207q-26-7-57-7-35 0-57.5 8t-33 24T293-140q0 34 16 69T356-2q-30-10-77-10-69 0-121 30T77.5 105 49 238 76.5 371.5t78 88.5T272 491q64 0 111-28t73-79 26-108q0-31-4-51H124q1-52 21-92.5t56-63T282 47q51 0 88 19.5T436 129l47-39q-2-3-35.5-50.5T388.5-57 363-133q0-15 9-21t28-6h51v-47Z"/>
<glyph unicode="&#x18f;" glyph-name="uni018F" horiz-adv-x="728" d="M76 548q49 74 117.5 111T351 696q91 0 162-44.5t110-125T662 342q0-103-38.5-184.5T515.5 31 358-14q-95 0-162.5 41T92.5 148.5 57 341q0 14 1 36H581q-6 77-36.5 134.5t-81 88T349 630q-73 0-125-28.5T133 512L76 548ZM360 52q65 0 114 32t76.5 91.5T582 314H137q3-83 30-142t75.5-89.5T360 52Z"/>
<glyph unicode="&#x259;" glyph-name="uni0259" horiz-adv-x="529" d="M45 388q39 52 89.5 77.5T250 491q70 0 122-30t80-87.5T480 240 452 106.5t-78.5-88T256-12q-63 0-110 27.5t-73.5 79T46 203q0 30 5 50H405q-1 54-21.5 94.5t-56 62T247 431q-50 0-87-19.5T93 349L45 388Zm77-190q0-43 17-78t48.5-54.5T259 46t71 18 49.5 52T403 198H122Z"/>
<glyph unicode="F" glyph-name="F" horiz-adv-x="598" d="M110 682H550V617H185V377H504V315H185V0H110V682Z"/>
<glyph unicode="f" glyph-name="f" horiz-adv-x="312" d="M111 421H8v57H111v98q0 46 14.5 77.5t43 47T239 716q21 0 45-4.5T323 701V640q-17 7-40 11.5T242 656q-21 0-34.5-8t-20-25.5T181 576V478H309V421H181V0H111V421Z"/>
<glyph unicode="&#x1e1e;" glyph-name="uni1E1E" horiz-adv-x="598" d="M110 682H550V617H185V377H504V315H185V0H110V682Zm179 79V873h76V761H289Z"/>
<glyph unicode="&#x1e1f;" glyph-name="uni1E1F" horiz-adv-x="312" d="M111 421H8v57H111v98q0 46 14.5 77.5t43 47T239 716q21 0 45-4.5T323 701V640q-17 7-40 11.5T242 656q-21 0-34.5-8t-20-25.5T181 576V478H309V421H181V0H111V421Zm87 379V913h72V800H198Z"/>
<glyph unicode="&#xfb01;" glyph-name="fi" horiz-adv-x="567" d="M111 421H8v57H111v98q0 46 14.5 77.5t43 47T239 716q21 0 45-4.5T323 701V640q-17 7-40 11.5T242 656q-21 0-34.5-8t-20-25.5T181 576V478H309V421H181V0H111V421ZM412 563V684h72V563H412h0ZM413 0V478h70V0H413Z"/>
<glyph unicode="&#xfb02;" glyph-name="fl" horiz-adv-x="567" d="M413 711h70V0H413V711ZM111 421H8v57H111v98q0 46 14.5 77.5t43 47T239 716q21 0 45-4.5T323 701V640q-17 7-40 11.5T242 656q-21 0-34.5-8t-20-25.5T181 576V478H309V421H181V0H111V421Z"/>
<glyph unicode="G" glyph-name="G" horiz-adv-x="755" d="M588 0V110h-1q-30-58-86-91T373-14q-89 0-159.5 44t-109 124.5T66 340q0 102 39.5 183.5t112 127T381 696q93 0 159-38T651 539l-61-41q-36 68-88.5 100.5T374 631q-68 0-120-37T173.5 491 145 341q0-88 29.5-154T257 86 378 51q59 0 105.5 30.5t72 83.5T581 281v22H381v61H657V0H588Z"/>
<glyph unicode="g" glyph-name="g" horiz-adv-x="581" d="M429 249q0 53-19.5 95t-54 64.5T276 431q-48 0-82-23t-51.5-66.5T125 239q0-56 18.5-99.5T197 72t83-24q45 0 79 22.5T411 134t18 96v19Zm76 229q-4-36-5.5-95T498 241V-16q0-98-53.5-149.5T288-217q-73 0-127 28.5T67-100l54 41q31-50 73.5-74T290-157q67 0 102.5 35.5T428-21q0 15 0.5 45.5T430 71h-2q-23-39-64-60.5T268-11q-67 0-116 30.5t-75.5 87T50 237q0 76 27 133.5t77 89T271 491q51 0 91.5-21.5T430 409h1l4 69h70Z"/>
<glyph unicode="&#x11c;" glyph-name="Gcircumflex" horiz-adv-x="755" d="M588 0V110h-1q-30-58-86-91T373-14q-89 0-159.5 44t-109 124.5T66 340q0 102 39.5 183.5t112 127T381 696q93 0 159-38T651 539l-61-41q-36 68-88.5 100.5T374 631q-68 0-120-37T173.5 491 145 341q0-88 29.5-154T257 86 378 51q59 0 105.5 30.5t72 83.5T581 281v22H381v61H657V0H588ZM344 882h73L535 750H460l-80 75-80-75H226L344 882Z"/>
<glyph unicode="&#x11d;" glyph-name="gcircumflex" horiz-adv-x="581" d="M429 249q0 53-19.5 95t-54 64.5T276 431q-48 0-82-23t-51.5-66.5T125 239q0-56 18.5-99.5T197 72t83-24q45 0 79 22.5T411 134t18 96v19Zm76 229q-4-36-5.5-95T498 241V-16q0-98-53.5-149.5T288-217q-73 0-127 28.5T67-100l54 41q31-50 73.5-74T290-157q67 0 102.5 35.5T428-21q0 15 0.5 45.5T430 71h-2q-23-39-64-60.5T268-11q-67 0-116 30.5t-75.5 87T50 237q0 76 27 133.5t77 89T271 491q51 0 91.5-21.5T430 409h1l4 69h70ZM234 692h86l99-141H350l-75 90-74-90H134L234 692Z"/>
<glyph unicode="&#x11e;" glyph-name="Gbreve" horiz-adv-x="755" d="M588 0V110h-1q-30-58-86-91T373-14q-89 0-159.5 44t-109 124.5T66 340q0 102 39.5 183.5t112 127T381 696q93 0 159-38T651 539l-61-41q-36 68-88.5 100.5T374 631q-68 0-120-37T173.5 491 145 341q0-88 29.5-154T257 86 378 51q59 0 105.5 30.5t72 83.5T581 281v22H381v61H657V0H588ZM526 884q0-45-17.5-76.5t-50.5-47T379 745t-78.5 15.5T251 807t-17 77h62q0-26 9.5-43t28-25.5T380 807t47 9 27.5 26 8.5 42h63Z"/>
<glyph unicode="&#x11f;" glyph-name="gbreve" horiz-adv-x="581" d="M429 249q0 53-19.5 95t-54 64.5T276 431q-48 0-82-23t-51.5-66.5T125 239q0-56 18.5-99.5T197 72t83-24q45 0 79 22.5T411 134t18 96v19Zm76 229q-4-36-5.5-95T498 241V-16q0-98-53.5-149.5T288-217q-73 0-127 28.5T67-100l54 41q31-50 73.5-74T290-157q67 0 102.5 35.5T428-21q0 15 0.5 45.5T430 71h-2q-23-39-64-60.5T268-11q-67 0-116 30.5t-75.5 87T50 237q0 76 27 133.5t77 89T271 491q51 0 91.5-21.5T430 409h1l4 69h70ZM413 689q0-43-15-73.5t-45.5-46T275 554q-45 0-75 15.5t-45 46T140 689h58q0-24 8.5-41.5t26-26.5 43.5-9q28 0 45.5 9.5t25.5 27 8 40.5h58Z"/>
<glyph unicode="&#x1e6;" glyph-name="Gcaron" horiz-adv-x="755" d="M588 0V110h-1q-30-58-86-91T373-14q-89 0-159.5 44t-109 124.5T66 340q0 102 39.5 183.5t112 127T381 696q93 0 159-38T651 539l-61-41q-36 68-88.5 100.5T374 631q-68 0-120-37T173.5 491 145 341q0-88 29.5-154T257 86 378 51q59 0 105.5 30.5t72 83.5T581 281v22H381v61H657V0H588ZM418 750H343L226 882h74l81-75 80 75h74L418 750Z"/>
<glyph unicode="&#x1e7;" glyph-name="gcaron" horiz-adv-x="581" d="M429 249q0 53-19.5 95t-54 64.5T276 431q-48 0-82-23t-51.5-66.5T125 239q0-56 18.5-99.5T197 72t83-24q45 0 79 22.5T411 134t18 96v19Zm76 229q-4-36-5.5-95T498 241V-16q0-98-53.5-149.5T288-217q-73 0-127 28.5T67-100l54 41q31-50 73.5-74T290-157q67 0 102.5 35.5T428-21q0 15 0.5 45.5T430 71h-2q-23-39-64-60.5T268-11q-67 0-116 30.5t-75.5 87T50 237q0 76 27 133.5t77 89T271 491q51 0 91.5-21.5T430 409h1l4 69h70ZM319 551H233L134 692h69l75-90 74 90h67L319 551Z"/>
<glyph unicode="&#x120;" glyph-name="Gdotaccent" horiz-adv-x="755" d="M588 0V110h-1q-30-58-86-91T373-14q-89 0-159.5 44t-109 124.5T66 340q0 102 39.5 183.5t112 127T381 696q93 0 159-38T651 539l-61-41q-36 68-88.5 100.5T374 631q-68 0-120-37T173.5 491 145 341q0-88 29.5-154T257 86 378 51q59 0 105.5 30.5t72 83.5T581 281v22H381v61H657V0H588ZM342 761V873h76V761H342Z"/>
<glyph unicode="&#x121;" glyph-name="gdotaccent" horiz-adv-x="581" d="M429 249q0 53-19.5 95t-54 64.5T276 431q-48 0-82-23t-51.5-66.5T125 239q0-56 18.5-99.5T197 72t83-24q45 0 79 22.5T411 134t18 96v19Zm76 229q-4-36-5.5-95T498 241V-16q0-98-53.5-149.5T288-217q-73 0-127 28.5T67-100l54 41q31-50 73.5-74T290-157q67 0 102.5 35.5T428-21q0 15 0.5 45.5T430 71h-2q-23-39-64-60.5T268-11q-67 0-116 30.5t-75.5 87T50 237q0 76 27 133.5t77 89T271 491q51 0 91.5-21.5T430 409h1l4 69h70ZM240 567V680h72V567H240Z"/>
<glyph unicode="&#x122;" glyph-name="Gcommaaccent" horiz-adv-x="755" d="M588 0V110h-1q-30-58-86-91T373-14q-89 0-159.5 44t-109 124.5T66 340q0 102 39.5 183.5t112 127T381 696q93 0 159-38T651 539l-61-41q-36 68-88.5 100.5T374 631q-68 0-120-37T173.5 491 145 341q0-88 29.5-154T257 86 378 51q59 0 105.5 30.5t72 83.5T581 281v22H381v61H657V0H588ZM415-54v-74q0-39-22.5-60.5T327-210H309v38h17q18 0 26 9t8 29H339v80h76Z"/>
<glyph unicode="&#x123;" glyph-name="gcommaaccent" horiz-adv-x="581" d="M429 249q0 53-19.5 95t-54 64.5T276 431q-48 0-82-23t-51.5-66.5T125 239q0-56 18.5-99.5T197 72t83-24q45 0 79 22.5T411 134t18 96v19Zm76 229q-4-36-5.5-95T498 241V-16q0-98-53.5-149.5T288-217q-73 0-127 28.5T67-100l54 41q31-50 73.5-74T290-157q67 0 102.5 35.5T428-21q0 15 0.5 45.5T430 71h-2q-23-39-64-60.5T268-11q-67 0-116 30.5t-75.5 87T50 237q0 76 27 133.5t77 89T271 491q51 0 91.5-21.5T430 409h1l4 69h70ZM234 567v79q0 36 19.5 59.5T319 729h18V691H318q-21 0-27.5-11T284 651h21V567H234Z"/>
<glyph unicode="H" glyph-name="H" horiz-adv-x="754" d="M110 682h75V387H569V682h75V0H569V320H185V0H110V682Z"/>
<glyph unicode="h" glyph-name="h" horiz-adv-x="560" d="M84 711h70V501q0-58-3-94h1q24 40 64 62t92 22q56 0 95-21.5t59-64T482 300V0H412V272q0 44-3.5 65T396 376q-13 27-39 41t-62 14q-27 0-51.5-9.5T203 396q-26-26-37.5-64.5T154 228V0H84V711Z"/>
<glyph unicode="&#x124;" glyph-name="Hcircumflex" horiz-adv-x="754" d="M110 682h75V387H569V682h75V0H569V320H185V0H110V682ZM340 882h73L531 750H456l-80 75-80-75H222L340 882Z"/>
<glyph unicode="&#x125;" glyph-name="hcircumflex" horiz-adv-x="560" d="M84 711h70V501q0-58-3-94h1q24 40 64 62t92 22q56 0 95-21.5t59-64T482 300V0H412V272q0 44-3.5 65T396 376q-13 27-39 41t-62 14q-27 0-51.5-9.5T203 396q-26-26-37.5-64.5T154 228V0H84V711ZM236 925h86l99-141H352l-75 90-74-90H136L236 925Z"/>
<glyph unicode="&#x126;" glyph-name="Hbar" horiz-adv-x="774" d="M579 374V502H195V374H579ZM120 502H11v63H120V682h75V565H579V682h75V565H763V502H654V0H579V308H195V0H120V502Z"/>
<glyph unicode="&#x127;" glyph-name="hbar" horiz-adv-x="560" d="M84 562H-15v57H84v92h70V619H296V562H154V501q0-58-3-94h1q24 40 64 62t92 22q56 0 95-21.5t59-64T482 300V0H412V272q0 44-3.5 65T396 376q-13 27-39 41t-62 14q-27 0-51.5-9.5T203 396q-26-26-37.5-64.5T154 228V0H84V562Z"/>
<glyph unicode="I" glyph-name="I" horiz-adv-x="295" d="M110 682h75V0H110V682Z"/>
<glyph unicode="i" glyph-name="i" horiz-adv-x="238" d="M83 563V684h72V563H83h0ZM84 0V478h70V0H84Z"/>
<glyph unicode="&#xcc;" glyph-name="Igrave" horiz-adv-x="295" d="M110 682h75V0H110V682Zm86 67H123L-3 881H103l93-132Z"/>
<glyph unicode="&#xec;" glyph-name="igrave" horiz-adv-x="238" d="M84 0V478h70V0H84Zm79 551H96L-21 692H78l85-141Z"/>
<glyph unicode="&#xcd;" glyph-name="Iacute" horiz-adv-x="295" d="M110 682h75V0H110V682Zm82 199H298L171 749H99l93 132Z"/>
<glyph unicode="&#xed;" glyph-name="iacute" horiz-adv-x="238" d="M84 0V478h70V0H84Zm75 692h98L141 551H75l84 141Z"/>
<glyph unicode="&#xce;" glyph-name="Icircumflex" horiz-adv-x="295" d="M110 682h75V0H110V682Zm1 200h73L302 750H227l-80 75L67 750H-7L111 882Z"/>
<glyph unicode="&#xee;" glyph-name="icircumflex" horiz-adv-x="238" d="M84 0V478h70V0H84ZM76 692h86l99-141H192l-75 90L43 551H-24L76 692Z"/>
<glyph unicode="&#x128;" glyph-name="Itilde" horiz-adv-x="295" d="M110 682h75V0H110V682ZM76 817q-18 0-28.5-17T37 755H-22q0 38 12 66t34.5 42.5T79 878q21 0 41-8.5t45.5-29 35-25T218 811q18 0 28.5 17T257 873h59q0-37-12-65t-34.5-43T215 750q-21 0-41.5 8.5t-46 29T93 812.5 76 817Z"/>
<glyph unicode="&#x129;" glyph-name="itilde" horiz-adv-x="238" d="M84 0V478h70V0H84ZM63 625q-13 0-20-16.5T36 563H-19q0 40 10 67t28.5 40T65 683q19 0 36-8.5t35.5-29 25-24.5 12.5-4q13 0 20 16t7 45h55q0-40-10-66.5T217.5 572 172 559q-19 0-36 8.5T100.5 596t-25 24.5T63 625Z"/>
<glyph unicode="&#xcf;" glyph-name="Idieresis" horiz-adv-x="295" d="M110 682h75V0H110V682Zm111 79V873h75V761H221ZM-2 761V873H73V761H-2Z"/>
<glyph unicode="&#xef;" glyph-name="idieresis" horiz-adv-x="238" d="M84 0V478h70V0H84Zm81 567V680h70V567H165ZM3 567V680H73V567H3Z"/>
<glyph unicode="&#x12a;" glyph-name="Imacron" horiz-adv-x="295" d="M110 682h75V0H110V682Zm186 99H-1v62H296V781Z"/>
<glyph unicode="&#x12b;" glyph-name="imacron" horiz-adv-x="238" d="M84 0V478h70V0H84ZM253 588H-15v59H253V588Z"/>
<glyph unicode="&#x12c;" glyph-name="Ibreve" horiz-adv-x="295" d="M110 682h75V0H110V682ZM293 884q0-45-17.5-76.5t-50.5-47T146 745 67.5 760.5 18 807 1 884H63q0-26 9.5-43t28-25.5T147 807t47 9 27.5 26 8.5 42h63Z"/>
<glyph unicode="&#x12d;" glyph-name="ibreve" horiz-adv-x="238" d="M84 0V478h70V0H84ZM255 689q0-43-15-73.5t-45.5-46T117 554q-45 0-75 15.5t-45 46T-18 689H40q0-24 8.5-41.5t26-26.5 43.5-9q28 0 45.5 9.5t25.5 27 8 40.5h58Z"/>
<glyph unicode="&#x12e;" glyph-name="Iogonek" horiz-adv-x="295" d="M208-206q-12-4-29-6t-32-2q-37 0-59.5 8.5T55-180.5 45-140q0 27 16.5 60.5T113 0h-3V682h75V-1q-39-57-53-84t-14-46q0-15 8.5-20.5T153-157h55v-49Z"/>
<glyph unicode="&#x12f;" glyph-name="iogonek" horiz-adv-x="238" d="M178-207q-11-3-27.5-5T121-214q-36 0-58 8T30.5-181.5 20-140q0 26 16.5 59.5T88 0H84V478h70V0q-36-56-50-84.5T90-133q0-15 9-21t28-6h51v-47ZM83 563V684h72V563H83Z"/>
<glyph unicode="&#x130;" glyph-name="Idotaccent" horiz-adv-x="295" d="M110 682h75V0H110V682Zm-1 79V873h76V761H109Z"/>
<glyph unicode="&#x131;" glyph-name="dotlessi" horiz-adv-x="238" d="M84 0V478h70V0H84Z"/>
<glyph unicode="&#x132;" glyph-name="IJ" horiz-adv-x="825" d="M110 682h75V0H110V682Zm611 0V207q0-106-55-163.5T519-14q-40 0-76 11T379 33 332.5 99.5 309 203l75 15q7-87 38-126.5T521 52q61 0 93 38.5T646 208V682h75Z"/>
<glyph unicode="&#x133;" glyph-name="ij" horiz-adv-x="503" d="M83 563V684h72V563H83h0ZM84 0V478h70V0H84ZM348 563V684h72V563H348Zm71-85V-31q0-68-12-107.5t-38.5-58T293-215q-13 0-27 1.5T243-210v55h46q24 0 37 12.5t18 38T349-31V478h70Z"/>
<glyph unicode="J" glyph-name="J" horiz-adv-x="530" d="M426 682V207q0-106-55-163.5T224-14q-40 0-76 11T84 33 37.5 99.5 14 203l75 15q7-87 38-126.5T226 52q61 0 93 38.5T351 208V682h75Z"/>
<glyph unicode="j" glyph-name="j" horiz-adv-x="248" d="M93 563V684h72V563H93Zm71-85V-31q0-68-12-107.5t-38.5-58T38-215q-13 0-27 1.5T-12-210v55H34q24 0 37 12.5t18 38T94-31V478h70Z"/>
<glyph unicode="&#x134;" glyph-name="Jcircumflex" horiz-adv-x="530" d="M426 682V207q0-106-55-163.5T224-14q-40 0-76 11T84 33 37.5 99.5 14 203l75 15q7-87 38-126.5T226 52q61 0 93 38.5T351 208V682h75ZM345 882h73L536 750H461l-80 75-80-75H227L345 882Z"/>
<glyph unicode="&#x135;" glyph-name="jcircumflex" horiz-adv-x="248" d="M164 478V-31q0-68-12-107.5t-38.5-58T38-215q-13 0-27 1.5T-12-210v55H34q24 0 37 12.5t18 38T94-31V478h70ZM86 692h86l99-141H202l-75 90L53 551H-14L86 692Z"/>
<glyph unicode="&#x237;" glyph-name="dotlessj" horiz-adv-x="248" d="M164 478V-31q0-68-12-107.5t-38.5-58T38-215q-13 0-27 1.5T-12-210v55H34q24 0 37 12.5t18 38T94-31V478h70Z"/>
<glyph unicode="K" glyph-name="K" horiz-adv-x="673" d="M652 682L385 422 671 0H579L332 370 185 227V0H110V682h75V319L552 682H652Z"/>
<glyph unicode="k" glyph-name="k" horiz-adv-x="517" d="M84 711h70V254L397 478h98L307 311 512 0H423L254 264 154 175V0H84V711Z"/>
<glyph unicode="&#x136;" glyph-name="Kcommaaccent" horiz-adv-x="673" d="M652 682L385 422 671 0H579L332 370 185 227V0H110V682h75V319L552 682H652ZM400-54v-74q0-39-22.5-60.5T312-210H294v38h17q18 0 26 9t8 29H324v80h76Z"/>
<glyph unicode="&#x137;" glyph-name="kcommaaccent" horiz-adv-x="517" d="M84 711h70V254L397 478h98L307 311 512 0H423L254 264 154 175V0H84V711ZM312-54v-73q0-36-19.5-59.5T227-210H209v38h20q20 0 26.5 11t6.5 29H241v78h71Z"/>
<glyph unicode="&#x138;" glyph-name="kgreenlandic" horiz-adv-x="517" d="M84 478h70V235L405 478h90L306 299 512 0H423L255 251 154 155V0H84V478Z"/>
<glyph unicode="L" glyph-name="L" horiz-adv-x="548" d="M110 682h75V65H537V0H110V682Z"/>
<glyph unicode="l" glyph-name="l" horiz-adv-x="238" d="M84 711h70V0H84V711Z"/>
<glyph unicode="&#x139;" glyph-name="Lacute" horiz-adv-x="548" d="M110 682h75V65H537V0H110V682Zm86 199H302L175 749H103l93 132Z"/>
<glyph unicode="&#x13a;" glyph-name="lacute" horiz-adv-x="238" d="M84 711h70V0H84V711Zm75 214h98L141 784H75l84 141Z"/>
<glyph unicode="&#x13d;" glyph-name="Lcaron" horiz-adv-x="548" d="M110 682h75V65H537V0H110V682Zm189 74h76L322 569H264l35 187Z"/>
<glyph unicode="&#x13e;" glyph-name="lcaron" horiz-adv-x="255" d="M84 711h70V0H84V711Zm156 45h76L263 569H205l35 187Z"/>
<glyph unicode="&#x13b;" glyph-name="Lcommaaccent" horiz-adv-x="548" d="M110 682h75V65H537V0H110V682ZM358-54v-74q0-39-22.5-60.5T270-210H252v38h17q18 0 26 9t8 29H282v80h76Z"/>
<glyph unicode="&#x13c;" glyph-name="lcommaaccent" horiz-adv-x="238" d="M84 711h70V0H84V711ZM154-54v-73q0-36-19.5-59.5T69-210H51v38H71q20 0 26.5 11t6.5 29H83v78h71Z"/>
<glyph unicode="&#x141;" glyph-name="Lslash" horiz-adv-x="558" d="M390 382L195 296V65H547V0H120V263L11 215v65l109 48V682h75V361l195 87V382Z"/>
<glyph unicode="&#x142;" glyph-name="lslash" horiz-adv-x="258" d="M94 0V313L10 259v69l84 52V711h70V423l83 54V409l-83-53V0H94Z"/>
<glyph unicode="&#x13f;" glyph-name="Ldot" horiz-adv-x="548" d="M110 682h75V65H537V0H110V682ZM371 313V431h95V313H371Z"/>
<glyph unicode="&#x140;" glyph-name="ldot" horiz-adv-x="340" d="M84 711h70V0H84V711ZM241 263V381h95V263H241Z"/>
<glyph unicode="M" glyph-name="M" horiz-adv-x="942" d="M110 682H231L377 338q43-101 62.5-149T471 105h1q12 36 31.5 84.5T566 338L712 682H832V0H757V240q0 111 1 217t2 162h-2q-18-45-39-95T666 399L499 0H439L270 400q-52 122-66 157t-24 62h-2q1-56 1.5-162T180 240V0H110V682Z"/>
<glyph unicode="m" glyph-name="m" horiz-adv-x="881" d="M733 0V272q0 44-4 65t-12 39q-14 27-39.5 41T617 431q-26 0-50-9.5T528 396q-26-26-38-64.5T478 228V0H408V272q0 44-3.5 65T392 376q-13 27-38.5 41T293 431q-26 0-50.5-9.5T203 396q-26-26-37.5-64.5T154 228V0H84V241q0 41 0 75t-0.5 62-1 52.5T81 478h68l2-71h1q23 40 63 62t91 22q58 0 98.5-24.5T463 394q29 49 71 73t97 24q84 0 128-48.5T803 300V0H733Z"/>
<glyph unicode="&#x1e40;" glyph-name="uni1E40" horiz-adv-x="942" d="M110 682H231L377 338q43-101 62.5-149T471 105h1q12 36 31.5 84.5T566 338L712 682H832V0H757V240q0 111 1 217t2 162h-2q-18-45-39-95T666 399L499 0H439L270 400q-52 122-66 157t-24 62h-2q1-56 1.5-162T180 240V0H110V682Zm322 79V873h76V761H432Z"/>
<glyph unicode="&#x1e41;" glyph-name="uni1E41" horiz-adv-x="881" d="M733 0V272q0 44-4 65t-12 39q-14 27-39.5 41T617 431q-26 0-50-9.5T528 396q-26-26-38-64.5T478 228V0H408V272q0 44-3.5 65T392 376q-13 27-38.5 41T293 431q-26 0-50.5-9.5T203 396q-26-26-37.5-64.5T154 228V0H84V241q0 41 0 75t-0.5 62-1 52.5T81 478h68l2-71h1q23 40 63 62t91 22q58 0 98.5-24.5T463 394q29 49 71 73t97 24q84 0 128-48.5T803 300V0H733ZM408 567V680h72V567H408Z"/>
<glyph unicode="N" glyph-name="N" horiz-adv-x="762" d="M559 0L307 393q-35 55-71 111t-58 93h-2q2-58 3-166t1-195V0H110V682h99L456 301q28-44 55-86.5T584 96h1q-1 58-2 166t-1 195V682h70V0H559Z"/>
<glyph unicode="n" glyph-name="n" horiz-adv-x="560" d="M412 0V272q0 44-3.5 65T396 376q-13 27-39 41t-62 14q-27 0-51.5-9.5T203 396q-26-26-37.5-64.5T154 228V0H84V241q0 41 0 75t-0.5 62-1 52.5T81 478h68l2-71h1q23 40 63.5 62T308 491q86 0 130-48.5T482 300V0H412Z"/>
<glyph unicode="&#x143;" glyph-name="Nacute" horiz-adv-x="762" d="M559 0L307 393q-35 55-71 111t-58 93h-2q2-58 3-166t1-195V0H110V682h99L456 301q28-44 55-86.5T584 96h1q-1 58-2 166t-1 195V682h70V0H559ZM425 881H531L404 749H332l93 132Z"/>
<glyph unicode="&#x144;" glyph-name="nacute" horiz-adv-x="560" d="M412 0V272q0 44-3.5 65T396 376q-13 27-39 41t-62 14q-27 0-51.5-9.5T203 396q-26-26-37.5-64.5T154 228V0H84V241q0 41 0 75t-0.5 62-1 52.5T81 478h68l2-71h1q23 40 63.5 62T308 491q86 0 130-48.5T482 300V0H412ZM320 692h98L302 551H236l84 141Z"/>
<glyph unicode="&#x147;" glyph-name="Ncaron" horiz-adv-x="762" d="M559 0L307 393q-35 55-71 111t-58 93h-2q2-58 3-166t1-195V0H110V682h99L456 301q28-44 55-86.5T584 96h1q-1 58-2 166t-1 195V682h70V0H559ZM419 750H344L227 882h74l81-75 80 75h74L419 750Z"/>
<glyph unicode="&#x148;" glyph-name="ncaron" horiz-adv-x="560" d="M412 0V272q0 44-3.5 65T396 376q-13 27-39 41t-62 14q-27 0-51.5-9.5T203 396q-26-26-37.5-64.5T154 228V0H84V241q0 41 0 75t-0.5 62-1 52.5T81 478h68l2-71h1q23 40 63.5 62T308 491q86 0 130-48.5T482 300V0H412ZM332 551H246L147 692h69l75-90 74 90h67L332 551Z"/>
<glyph unicode="&#xd1;" glyph-name="Ntilde" horiz-adv-x="762" d="M559 0L307 393q-35 55-71 111t-58 93h-2q2-58 3-166t1-195V0H110V682h99L456 301q28-44 55-86.5T584 96h1q-1 58-2 166t-1 195V682h70V0H559ZM310 817q-18 0-28.5-17T271 755H212q0 38 12 66t34.5 42.5T313 878q21 0 41-8.5t45.5-29 35-25T452 811q18 0 28.5 17T491 873h59q0-37-12-65t-34.5-43T449 750q-21 0-41.5 8.5t-46 29-34.5 25T310 817Z"/>
<glyph unicode="&#xf1;" glyph-name="ntilde" horiz-adv-x="560" d="M412 0V272q0 44-3.5 65T396 376q-13 27-39 41t-62 14q-27 0-51.5-9.5T203 396q-26-26-37.5-64.5T154 228V0H84V241q0 41 0 75t-0.5 62-1 52.5T81 478h68l2-71h1q23 40 63.5 62T308 491q86 0 130-48.5T482 300V0H412ZM218 624q-19 0-28.5-16.5T180 563H124q0 37 11 64t32.5 41T220 682q20 0 38-8t39.5-28T327 621.5t15-4.5q18 0 27.5 16.5T379 678h57q0-36-11-63t-32.5-41.5T340 559q-20 0-38 8t-40 28-29.5 24.5T218 624Z"/>
<glyph unicode="&#x145;" glyph-name="Ncommaaccent" horiz-adv-x="762" d="M559 0L307 393q-35 55-71 111t-58 93h-2q2-58 3-166t1-195V0H110V682h99L456 301q28-44 55-86.5T584 96h1q-1 58-2 166t-1 195V682h70V0H559ZM408-54v-74q0-39-22.5-60.5T320-210H302v38h17q18 0 26 9t8 29H332v80h76Z"/>
<glyph unicode="&#x146;" glyph-name="ncommaaccent" horiz-adv-x="560" d="M412 0V272q0 44-3.5 65T396 376q-13 27-39 41t-62 14q-27 0-51.5-9.5T203 396q-26-26-37.5-64.5T154 228V0H84V241q0 41 0 75t-0.5 62-1 52.5T81 478h68l2-71h1q23 40 63.5 62T308 491q86 0 130-48.5T482 300V0H412ZM317-54v-73q0-36-19.5-59.5T232-210H214v38h20q20 0 26.5 11t6.5 29H246v78h71Z"/>
<glyph unicode="&#x14a;" glyph-name="Eng" horiz-adv-x="762" d="M514-94q24 0 38.5 10.5T574-52t7 54V4L315 392Q233 512 213.5 541.5T178 597h-2q2-58 3-166t1-195V0H110V682h97L448 330q38-55 70-104t66-102h2q-2 81-3 169.5T582 457V682h70V0q0-58-14.5-92.5T592-143t-80-16q-26 0-40 5v60h42Z"/>
<glyph unicode="&#x14b;" glyph-name="eng" horiz-adv-x="560" d="M412 272q0 44-3.5 65T396 376q-13 27-39 41t-62 14q-27 0-51.5-9.5T203 396q-26-26-37.5-64.5T154 228V0H84V241q0 57-0.5 101.5T81 478h68l2-71h1q23 40 63.5 62T308 491q86 0 130-48.5T482 300V-25q0-76-14.5-114T422-196t-79-19q-23 0-37 6v54h33q27 0 43 13t23 39 7 74V272Z"/>
<glyph unicode="O" glyph-name="O" horiz-adv-x="778" d="M712 342q0-105-41-186.5T556 30 388-14q-96 0-169.5 44t-113 124.5T66 340t41 186.5T222 652t168 44q96 0 169.5-44t113-124.5T712 342Zm-80-1q0 87-29.5 153T518 595 389 630q-73 0-128.5-34.5T175 495 145 341q0-87 30-152.5t85-101T389 52 518 87t84.5 101T632 341Z"/>
<glyph unicode="o" glyph-name="o" horiz-adv-x="559" d="M510 240q0-74-28.5-132T401 19 278-12 155.5 18.5 76.5 106 49 238 77.5 370.5t80.5 89T281 491t122.5-31 79-88T510 240Zm-75-1q0 56-19 100t-54.5 68T279 431t-82.5-24.5-54-68.5T124 239t19-99 54.5-68T279 48q48 0 83.5 24t54 68T435 239Z"/>
<glyph unicode="&#xd2;" glyph-name="Ograve" horiz-adv-x="778" d="M712 342q0-105-41-186.5T556 30 388-14q-96 0-169.5 44t-113 124.5T66 340t41 186.5T222 652t168 44q96 0 169.5-44t113-124.5T712 342Zm-80-1q0 87-29.5 153T518 595 389 630q-73 0-128.5-34.5T175 495 145 341q0-87 30-152.5t85-101T389 52 518 87t84.5 101T632 341ZM437 749H364L238 881H344l93-132Z"/>
<glyph unicode="&#xf2;" glyph-name="ograve" horiz-adv-x="559" d="M510 240q0-74-28.5-132T401 19 278-12 155.5 18.5 76.5 106 49 238 77.5 370.5t80.5 89T281 491t122.5-31 79-88T510 240Zm-75-1q0 56-19 100t-54.5 68T279 431t-82.5-24.5-54-68.5T124 239t19-99 54.5-68T279 48q48 0 83.5 24t54 68T435 239ZM323 551H256L139 692h99l85-141Z"/>
<glyph unicode="&#xd3;" glyph-name="Oacute" horiz-adv-x="778" d="M712 342q0-105-41-186.5T556 30 388-14q-96 0-169.5 44t-113 124.5T66 340t41 186.5T222 652t168 44q96 0 169.5-44t113-124.5T712 342Zm-80-1q0 87-29.5 153T518 595 389 630q-73 0-128.5-34.5T175 495 145 341q0-87 30-152.5t85-101T389 52 518 87t84.5 101T632 341ZM433 881H539L412 749H340l93 132Z"/>
<glyph unicode="&#xf3;" glyph-name="oacute" horiz-adv-x="559" d="M510 240q0-74-28.5-132T401 19 278-12 155.5 18.5 76.5 106 49 238 77.5 370.5t80.5 89T281 491t122.5-31 79-88T510 240Zm-75-1q0 56-19 100t-54.5 68T279 431t-82.5-24.5-54-68.5T124 239t19-99 54.5-68T279 48q48 0 83.5 24t54 68T435 239ZM320 692h98L302 551H236l84 141Z"/>
<glyph unicode="&#xd4;" glyph-name="Ocircumflex" horiz-adv-x="778" d="M712 342q0-105-41-186.5T556 30 388-14q-96 0-169.5 44t-113 124.5T66 340t41 186.5T222 652t168 44q96 0 169.5-44t113-124.5T712 342Zm-80-1q0 87-29.5 153T518 595 389 630q-73 0-128.5-34.5T175 495 145 341q0-87 30-152.5t85-101T389 52 518 87t84.5 101T632 341ZM352 882h73L543 750H468l-80 75-80-75H234L352 882Z"/>
<glyph unicode="&#xf4;" glyph-name="ocircumflex" horiz-adv-x="559" d="M510 240q0-74-28.5-132T401 19 278-12 155.5 18.5 76.5 106 49 238 77.5 370.5t80.5 89T281 491t122.5-31 79-88T510 240Zm-75-1q0 56-19 100t-54.5 68T279 431t-82.5-24.5-54-68.5T124 239t19-99 54.5-68T279 48q48 0 83.5 24t54 68T435 239ZM237 692h86l99-141H353l-75 90-74-90H137L237 692Z"/>
<glyph unicode="&#xd5;" glyph-name="Otilde" horiz-adv-x="778" d="M712 342q0-105-41-186.5T556 30 388-14q-96 0-169.5 44t-113 124.5T66 340t41 186.5T222 652t168 44q96 0 169.5-44t113-124.5T712 342Zm-80-1q0 87-29.5 153T518 595 389 630q-73 0-128.5-34.5T175 495 145 341q0-87 30-152.5t85-101T389 52 518 87t84.5 101T632 341ZM318 817q-18 0-28.5-17T279 755H220q0 38 12 66t34.5 42.5T321 878q21 0 41-8.5t45.5-29 35-25T460 811q18 0 28.5 17T499 873h59q0-37-12-65t-34.5-43T457 750q-21 0-41.5 8.5t-46 29-34.5 25T318 817Z"/>
<glyph unicode="&#xf5;" glyph-name="otilde" horiz-adv-x="559" d="M510 240q0-74-28.5-132T401 19 278-12 155.5 18.5 76.5 106 49 238 77.5 370.5t80.5 89T281 491t122.5-31 79-88T510 240Zm-75-1q0 56-19 100t-54.5 68T279 431t-82.5-24.5-54-68.5T124 239t19-99 54.5-68T279 48q48 0 83.5 24t54 68T435 239ZM218 624q-19 0-28.5-16.5T180 563H124q0 37 11 64t32.5 41T220 682q20 0 38-8t39.5-28T327 621.5t15-4.5q18 0 27.5 16.5T379 678h57q0-36-11-63t-32.5-41.5T340 559q-20 0-38 8t-40 28-29.5 24.5T218 624Z"/>
<glyph unicode="&#xd6;" glyph-name="Odieresis" horiz-adv-x="778" d="M712 342q0-105-41-186.5T556 30 388-14q-96 0-169.5 44t-113 124.5T66 340t41 186.5T222 652t168 44q96 0 169.5-44t113-124.5T712 342Zm-80-1q0 87-29.5 153T518 595 389 630q-73 0-128.5-34.5T175 495 145 341q0-87 30-152.5t85-101T389 52 518 87t84.5 101T632 341ZM463 761V873h75V761H463Zm-223 0V873h75V761H240Z"/>
<glyph unicode="&#xf6;" glyph-name="odieresis" horiz-adv-x="559" d="M510 240q0-74-28.5-132T401 19 278-12 155.5 18.5 76.5 106 49 238 77.5 370.5t80.5 89T281 491t122.5-31 79-88T510 240Zm-75-1q0 56-19 100t-54.5 68T279 431t-82.5-24.5-54-68.5T124 239t19-99 54.5-68T279 48q48 0 83.5 24t54 68T435 239ZM336 567V680h71V567H336Zm-184 0V680h71V567H152Z"/>
<glyph unicode="&#x14c;" glyph-name="Omacron" horiz-adv-x="778" d="M712 342q0-105-41-186.5T556 30 388-14q-96 0-169.5 44t-113 124.5T66 340t41 186.5T222 652t168 44q96 0 169.5-44t113-124.5T712 342Zm-80-1q0 87-29.5 153T518 595 389 630q-73 0-128.5-34.5T175 495 145 341q0-87 30-152.5t85-101T389 52 518 87t84.5 101T632 341ZM537 781H240v62H537V781Z"/>
<glyph unicode="&#x14d;" glyph-name="omacron" horiz-adv-x="559" d="M510 240q0-74-28.5-132T401 19 278-12 155.5 18.5 76.5 106 49 238 77.5 370.5t80.5 89T281 491t122.5-31 79-88T510 240Zm-75-1q0 56-19 100t-54.5 68T279 431t-82.5-24.5-54-68.5T124 239t19-99 54.5-68T279 48q48 0 83.5 24t54 68T435 239ZM413 588H145v59H413V588Z"/>
<glyph unicode="&#x14e;" glyph-name="Obreve" horiz-adv-x="778" d="M712 342q0-105-41-186.5T556 30 388-14q-96 0-169.5 44t-113 124.5T66 340t41 186.5T222 652t168 44q96 0 169.5-44t113-124.5T712 342Zm-80-1q0 87-29.5 153T518 595 389 630q-73 0-128.5-34.5T175 495 145 341q0-87 30-152.5t85-101T389 52 518 87t84.5 101T632 341ZM535 884q0-45-17.5-76.5t-50.5-47T388 745t-78.5 15.5T260 807t-17 77h62q0-26 9.5-43t28-25.5T389 807t47 9 27.5 26 8.5 42h63Z"/>
<glyph unicode="&#x14f;" glyph-name="obreve" horiz-adv-x="559" d="M510 240q0-74-28.5-132T401 19 278-12 155.5 18.5 76.5 106 49 238 77.5 370.5t80.5 89T281 491t122.5-31 79-88T510 240Zm-75-1q0 56-19 100t-54.5 68T279 431t-82.5-24.5-54-68.5T124 239t19-99 54.5-68T279 48q48 0 83.5 24t54 68T435 239ZM416 689q0-43-15-73.5t-45.5-46T278 554q-45 0-75 15.5t-45 46T143 689h58q0-24 8.5-41.5t26-26.5 43.5-9q28 0 45.5 9.5t25.5 27 8 40.5h58Z"/>
<glyph unicode="&#x150;" glyph-name="Ohungarumlaut" horiz-adv-x="778" d="M712 342q0-105-41-186.5T556 30 388-14q-96 0-169.5 44t-113 124.5T66 340t41 186.5T222 652t168 44q96 0 169.5-44t113-124.5T712 342Zm-80-1q0 87-29.5 153T518 595 389 630q-73 0-128.5-34.5T175 495 145 341q0-87 30-152.5t85-101T389 52 518 87t84.5 101T632 341ZM537 881H644L518 749H444l93 132Zm-220 0H418L311 749H242l75 132Z"/>
<glyph unicode="&#x151;" glyph-name="ohungarumlaut" horiz-adv-x="559" d="M510 240q0-74-28.5-132T401 19 278-12 155.5 18.5 76.5 106 49 238 77.5 370.5t80.5 89T281 491t122.5-31 79-88T510 240Zm-75-1q0 56-19 100t-54.5 68T279 431t-82.5-24.5-54-68.5T124 239t19-99 54.5-68T279 48q48 0 83.5 24t54 68T435 239ZM411 692h99L393 551H326l85 141Zm-191 0h92L217 551H153l67 141Z"/>
<glyph unicode="&#xd8;" glyph-name="Oslash" horiz-adv-x="778" d="M145 341q0-51 10.5-96T187 164L551 568q-31 31-72 47t-90 16q-75 0-130.5-36T174 493 145 341Zm488 0q0 51-11 95.5T590 518L227 114q30-31 71.5-46.5T389 52q75 0 130 36t84.5 101.5T633 341ZM62 26l72 80q-33 46-50.5 105.5T66 340q0 104 40.5 185T221 651t169 45q62 0 114.5-19T599 622l69 77 47-43-72-81q33-45 51-104t18-129q0-104-40.5-185T557 31 388-14Q326-14 273 4.5T179 59L110-17 62 26Z"/>
<glyph unicode="&#xf8;" glyph-name="oslash" horiz-adv-x="559" d="M436 239q0 31-5.5 57.5T413 345L180 86q18-20 43.5-29.5T279 47q48 0 83.5 24T417 139.5 436 239Zm-313 0q0-31 5.5-57.5T145 132L379 393q-19 18-44.5 28T279 431q-47 0-83-24t-54.5-68T123 239ZM30 5L93 76q-22 31-33 72.5T49 238q0 75 28.5 132.5t80.5 89T281 491q43 0 79.5-12T425 444l62 68 42-39-64-71q22-33 33.5-74T510 240q0-74-28.5-132T401 19 278-12q-44 0-80.5 12T133 33L72-34 30 5Z"/>
<glyph unicode="&#x1fe;" glyph-name="Oslashacute" horiz-adv-x="778" d="M145 341q0-51 10.5-96T187 164L551 568q-31 31-72 47t-90 16q-75 0-130.5-36T174 493 145 341Zm488 0q0 51-11 95.5T590 518L227 114q30-31 71.5-46.5T389 52q75 0 130 36t84.5 101.5T633 341ZM62 26l72 80q-33 46-50.5 105.5T66 340q0 104 40.5 185T221 651t169 45q62 0 114.5-19T599 622l69 77 47-43-72-81q33-45 51-104t18-129q0-104-40.5-185T557 31 388-14Q326-14 273 4.5T179 59L110-17 62 26ZM433 881H539L412 749H340l93 132Z"/>
<glyph unicode="&#x1ff;" glyph-name="oslashacute" horiz-adv-x="559" d="M436 239q0 31-5.5 57.5T413 345L180 86q18-20 43.5-29.5T279 47q48 0 83.5 24T417 139.5 436 239Zm-313 0q0-31 5.5-57.5T145 132L379 393q-19 18-44.5 28T279 431q-47 0-83-24t-54.5-68T123 239ZM30 5L93 76q-22 31-33 72.5T49 238q0 75 28.5 132.5t80.5 89T281 491q43 0 79.5-12T425 444l62 68 42-39-64-71q22-33 33.5-74T510 240q0-74-28.5-132T401 19 278-12q-44 0-80.5 12T133 33L72-34 30 5ZM320 692h98L302 551H236l84 141Z"/>
<glyph unicode="&#x152;" glyph-name="OE" horiz-adv-x="1128" d="M614 341q0 86-28 152T505 594.5 380 630 255 594.5 173.5 493 145 341q0-88 29.5-154T257 86.5 380 52q72 0 125 35.5T586 189t28 152ZM380 696q79 0 139-31.5T613 575h1V682h432V617H689V380H999V318H689V66h374V0H614V116h-1q-34-62-95.5-96T378-14q-92 0-163 43.5t-110 124T66 340q0 104 39 185T216 651t164 45Z"/>
<glyph unicode="&#x153;" glyph-name="oe" horiz-adv-x="912" d="M790 281q-1 43-18.5 78T723 413t-71 19q-39 0-70-17.5T532 363t-24-82H790ZM279 48q47 0 82 23.5T415.5 139 435 239 415.5 339t-55 68T279 431q-47 0-82.5-24.5t-54-68.5T124 239q0-56 19.5-100T198 71.5 279 48Zm-1-60q-70 0-121.5 30T77 105 49 238q0 74 28.5 132T158 459.5 280 491q68 0 116.5-30.5T471 372q25 57 72.5 88T655 491q63 0 110-27.5t73.5-79T865 276q0-31-4-51H507q1-52 20.5-92.5t55.5-63T665 47q51 0 88 19.5T818 129l48-39q-37-53-86-77.5T661-12q-69 0-117 30t-74 90q-26-58-75.5-89T278-12Z"/>
<glyph unicode="P" glyph-name="P" horiz-adv-x="637" d="M110 682q127 1 253 1 87 0 145.5-23T596 591.5 625 479 594.5 366t-91-69.5T356 273q-106 0-171 1V0H110V682ZM546 478q0 49-19.5 79t-60 45T362 617q-123 0-177-1V339q55-1 175-1 64 0 105 15t61 46 20 79Z"/>
<glyph unicode="p" glyph-name="p" horiz-adv-x="580" d="M84-207V241q0 59-0.5 118T81 478h68l2-71h1q23 41 64.5 62.5T313 491q66 0 115-30.5T503.5 373 530 242q0-77-27-134.5T426 19 310-12q-51 0-91.5 20T153 67h-1q2-34 2-89V-207H84Zm68 436q0-54 19-95.5t54-64T305 47q47 0 81 23.5t52 67T456 240q0 57-19.5 101T382 408t-81 23q-45 0-79-22t-52-63-18-96V229Z"/>
<glyph unicode="&#x1e56;" glyph-name="uni1E56" horiz-adv-x="637" d="M110 682q127 1 253 1 87 0 145.5-23T596 591.5 625 479 594.5 366t-91-69.5T356 273q-106 0-171 1V0H110V682ZM546 478q0 49-19.5 79t-60 45T362 617q-123 0-177-1V339q55-1 175-1 64 0 105 15t61 46 20 79ZM313 761V873h76V761H313Z"/>
<glyph unicode="&#x1e57;" glyph-name="uni1E57" horiz-adv-x="580" d="M84-207V241q0 59-0.5 118T81 478h68l2-71h1q23 41 64.5 62.5T313 491q66 0 115-30.5T503.5 373 530 242q0-77-27-134.5T426 19 310-12q-51 0-91.5 20T153 67h-1q2-34 2-89V-207H84Zm68 436q0-54 19-95.5t54-64T305 47q47 0 81 23.5t52 67T456 240q0 57-19.5 101T382 408t-81 23q-45 0-79-22t-52-63-18-96V229ZM268 567V680h72V567H268Z"/>
<glyph unicode="&#xde;" glyph-name="Thorn" horiz-adv-x="637" d="M185 222q55-1 175-1 64 0 105 15.5t61 46T546 361t-19.5 79-60 46T362 501q-122 0-177-2V222ZM110 0V682h75V565q6 0 66 0.5T363 566q89 0 147-23.5T596.5 474 625 362q0-66-30-112t-90.5-70T356 156q-106 0-171 1V0H110Z"/>
<glyph unicode="&#xfe;" glyph-name="thorn" horiz-adv-x="580" d="M84 711h70V501q0-65-4-94h1q24 41 65.5 62.5T313 491q66 0 115.5-31T504 372t26-130q0-77-27-134.5T426 19 310-12q-51 0-91.5 20T153 67h-1q2-34 2-89V-207H84V711Zm68-482q0-53 19-94.5T224.5 70 305 47q47 0 81 23.5t52 67T456 240q0 57-19 100.5t-54 67T301 431q-45 0-79-22t-52-63-18-96V229Z"/>
<glyph unicode="Q" glyph-name="Q" horiz-adv-x="778" d="M712 342q0-74-20.5-136.5T632 96l77-76L662-27 585 50Q544 19 494 2.5T388-14q-95 0-168.5 43.5T106 153.5 66 340q0 105 41 186.5T222 652t168 44q95 0 168.5-43.5T672 528.5 712 342ZM482 247l98-99q26 38 39 86.5T632 341q0 87-29.5 152.5T518 594.5 389 630 259.5 594.5 174.5 493 145 341t29.5-152 85-101.5T389 52q86 0 146 48L435 200l47 47Z"/>
<glyph unicode="q" glyph-name="q" horiz-adv-x="581" d="M429 249q0 54-19 95.5t-54 64T276 431q-48 0-82-23t-51.5-67T125 238q0-57 19-101t54-67 82-23q45 0 79 22.5T411 133t18 96v20Zm-2-456V-22q0 60 3 93h-1Q404 30 363.5 9T268-12q-67 0-116 30.5t-75.5 87T50 236q0 77 27 135t77.5 89T271 491q51 0 91.5-21T430 409h1l3 69h70q-7-138-7-236V-207H427Z"/>
<glyph unicode="R" glyph-name="R" horiz-adv-x="691" d="M185 346q27-1 64.5-1.5T353 344q64 0 105.5 14.5t62 44.5T541 482q0 46-19.5 76T462 602.5 360 617q-77 0-111 0t-64-1V346ZM557 0L336 279H185V0H110V682q18 0 112.5 0.5T363 683q83 0 140.5-22.5t87-67T620 483q0-81-50.5-132T425 286L654 0H557Z"/>
<glyph unicode="r" glyph-name="r" horiz-adv-x="343" d="M84 0V241q0 57-0.5 101.5T81 478h68l2-96h1q29 52 71.5 80T312 490q9 0 15-1V412H311q-31 0-57-10.5T208 371q-29-29-41.5-71T154 173V0H84Z"/>
<glyph unicode="&#x154;" glyph-name="Racute" horiz-adv-x="691" d="M185 346q27-1 64.5-1.5T353 344q64 0 105.5 14.5t62 44.5T541 482q0 46-19.5 76T462 602.5 360 617q-77 0-111 0t-64-1V346ZM557 0L336 279H185V0H110V682q18 0 112.5 0.5T363 683q83 0 140.5-22.5t87-67T620 483q0-81-50.5-132T425 286L654 0H557ZM391 881H497L370 749H298l93 132Z"/>
<glyph unicode="&#x155;" glyph-name="racute" horiz-adv-x="343" d="M84 0V241q0 57-0.5 101.5T81 478h68l2-96h1q29 52 71.5 80T312 490q9 0 15-1V412H311q-31 0-57-10.5T208 371q-29-29-41.5-71T154 173V0H84ZM240 692h98L222 551H156l84 141Z"/>
<glyph unicode="&#x158;" glyph-name="Rcaron" horiz-adv-x="691" d="M185 346q27-1 64.5-1.5T353 344q64 0 105.5 14.5t62 44.5T541 482q0 46-19.5 76T462 602.5 360 617q-77 0-111 0t-64-1V346ZM557 0L336 279H185V0H110V682q18 0 112.5 0.5T363 683q83 0 140.5-22.5t87-67T620 483q0-81-50.5-132T425 286L654 0H557ZM385 750H310L193 882h74l81-75 80 75h74L385 750Z"/>
<glyph unicode="&#x159;" glyph-name="rcaron" horiz-adv-x="343" d="M84 0V241q0 57-0.5 101.5T81 478h68l2-96h1q29 52 71.5 80T312 490q9 0 15-1V412H311q-31 0-57-10.5T208 371q-29-29-41.5-71T154 173V0H84ZM244 551H158L59 692h69l75-90 74 90h67L244 551Z"/>
<glyph unicode="&#x156;" glyph-name="Rcommaaccent" horiz-adv-x="691" d="M185 346q27-1 64.5-1.5T353 344q64 0 105.5 14.5t62 44.5T541 482q0 46-19.5 76T462 602.5 360 617q-77 0-111 0t-64-1V346ZM557 0L336 279H185V0H110V682q18 0 112.5 0.5T363 683q83 0 140.5-22.5t87-67T620 483q0-81-50.5-132T425 286L654 0H557ZM400-54v-74q0-39-22.5-60.5T312-210H294v38h17q18 0 26 9t8 29H324v80h76Z"/>
<glyph unicode="&#x157;" glyph-name="rcommaaccent" horiz-adv-x="343" d="M84 0V241q0 57-0.5 101.5T81 478h68l2-96h1q29 52 71.5 80T312 490q9 0 15-1V412H311q-31 0-57-10.5T208 371q-29-29-41.5-71T154 173V0H84Zm70-54v-73q0-36-19.5-59.5T69-210H51v38H71q20 0 26.5 11t6.5 29H83v78h71Z"/>
<glyph unicode="S" glyph-name="S" horiz-adv-x="655" d="M106 168q51-58 111-88T344 50q50 0 88 15.5t58 44T510 174q0 34-16 58.5t-50 42-132 42-141.5 50-64 63T86 518q0 53 28.5 93.5T195 674t118 22q70 0 129.5-24T557 598l-46-55q-44 46-93 67.5T311 632q-46 0-80-13.5T180 580t-17-58q0-32 15.5-55.5t48.5-41T358 384t142.5-50T566 269.5 587 178q0-55-31-98.5T468.5 11 343-14q-83 0-153.5 32T60 114l46 54Z"/>
<glyph unicode="s" glyph-name="s" horiz-adv-x="487" d="M87 123q36-37 79.5-56.5T254 47q50 0 78.5 20.5T361 125q0 21-10.5 36.5t-33 26.5T227 215t-99.5 34.5T81 295.5 66 361q0 39 21 68.5T146.5 475 233 491q51 0 97.5-17.5T415 423l-41-49q-30 29-66 43.5T232 432q-29 0-50.5-8t-33-23.5T137 364t11-36.5 33-26T270.5 275 370 240.5 417.5 194 433 127q0-41-22.5-72.5t-64-49T253-12Q194-12 142 9T47 72l40 51Z"/>
<glyph unicode="&#x15a;" glyph-name="Sacute" horiz-adv-x="655" d="M106 168q51-58 111-88T344 50q50 0 88 15.5t58 44T510 174q0 34-16 58.5t-50 42-132 42-141.5 50-64 63T86 518q0 53 28.5 93.5T195 674t118 22q70 0 129.5-24T557 598l-46-55q-44 46-93 67.5T311 632q-46 0-80-13.5T180 580t-17-58q0-32 15.5-55.5t48.5-41T358 384t142.5-50T566 269.5 587 178q0-55-31-98.5T468.5 11 343-14q-83 0-153.5 32T60 114l46 54ZM362 881H468L341 749H269l93 132Z"/>
<glyph unicode="&#x15b;" glyph-name="sacute" horiz-adv-x="487" d="M87 123q36-37 79.5-56.5T254 47q50 0 78.5 20.5T361 125q0 21-10.5 36.5t-33 26.5T227 215t-99.5 34.5T81 295.5 66 361q0 39 21 68.5T146.5 475 233 491q51 0 97.5-17.5T415 423l-41-49q-30 29-66 43.5T232 432q-29 0-50.5-8t-33-23.5T137 364t11-36.5 33-26T270.5 275 370 240.5 417.5 194 433 127q0-41-22.5-72.5t-64-49T253-12Q194-12 142 9T47 72l40 51ZM276 692h98L258 551H192l84 141Z"/>
<glyph unicode="&#x15c;" glyph-name="Scircumflex" horiz-adv-x="655" d="M106 168q51-58 111-88T344 50q50 0 88 15.5t58 44T510 174q0 34-16 58.5t-50 42-132 42-141.5 50-64 63T86 518q0 53 28.5 93.5T195 674t118 22q70 0 129.5-24T557 598l-46-55q-44 46-93 67.5T311 632q-46 0-80-13.5T180 580t-17-58q0-32 15.5-55.5t48.5-41T358 384t142.5-50T566 269.5 587 178q0-55-31-98.5T468.5 11 343-14q-83 0-153.5 32T60 114l46 54ZM279 882h73L470 750H395l-80 75-80-75H161L279 882Z"/>
<glyph unicode="&#x15d;" glyph-name="scircumflex" horiz-adv-x="487" d="M87 123q36-37 79.5-56.5T254 47q50 0 78.5 20.5T361 125q0 21-10.5 36.5t-33 26.5T227 215t-99.5 34.5T81 295.5 66 361q0 39 21 68.5T146.5 475 233 491q51 0 97.5-17.5T415 423l-41-49q-30 29-66 43.5T232 432q-29 0-50.5-8t-33-23.5T137 364t11-36.5 33-26T270.5 275 370 240.5 417.5 194 433 127q0-41-22.5-72.5t-64-49T253-12Q194-12 142 9T47 72l40 51ZM193 692h86l99-141H309l-75 90-74-90H93L193 692Z"/>
<glyph unicode="&#x160;" glyph-name="Scaron" horiz-adv-x="655" d="M106 168q51-58 111-88T344 50q50 0 88 15.5t58 44T510 174q0 34-16 58.5t-50 42-132 42-141.5 50-64 63T86 518q0 53 28.5 93.5T195 674t118 22q70 0 129.5-24T557 598l-46-55q-44 46-93 67.5T311 632q-46 0-80-13.5T180 580t-17-58q0-32 15.5-55.5t48.5-41T358 384t142.5-50T566 269.5 587 178q0-55-31-98.5T468.5 11 343-14q-83 0-153.5 32T60 114l46 54ZM353 750H278L161 882h74l81-75 80 75h74L353 750Z"/>
<glyph unicode="&#x161;" glyph-name="scaron" horiz-adv-x="487" d="M87 123q36-37 79.5-56.5T254 47q50 0 78.5 20.5T361 125q0 21-10.5 36.5t-33 26.5T227 215t-99.5 34.5T81 295.5 66 361q0 39 21 68.5T146.5 475 233 491q51 0 97.5-17.5T415 423l-41-49q-30 29-66 43.5T232 432q-29 0-50.5-8t-33-23.5T137 364t11-36.5 33-26T270.5 275 370 240.5 417.5 194 433 127q0-41-22.5-72.5t-64-49T253-12Q194-12 142 9T47 72l40 51ZM276 551H190L91 692h69l75-90 74 90h67L276 551Z"/>
<glyph unicode="&#x15e;" glyph-name="Scedilla" horiz-adv-x="655" d="M262-207q31 28 43.5 46T318-129t-13.5 27T267-79l37 67Q230-4 172.5 25.5T60 114l46 54q52-60 110.5-89T344 50q75 0 120.5 34T510 174q0 34-16.5 58.5t-50.5 42-131 42T171.5 366 107 428.5 86 518q0 80 63 129t164 49q70 0 129.5-24T557 598l-46-55q-44 46-93 67.5T311 632q-70 0-109-29.5T163 522q0-33 16-56.5T228.5 425t120-38.5 125.5-39 63.5-41 37-55.5T587 178q0-78-60.5-130.5T371-13L348-53q23-16 33.5-33.5T392-125q0-19-15.5-43T340-207H262Z"/>
<glyph unicode="&#x15f;" glyph-name="scedilla" horiz-adv-x="487" d="M176-207q23 18 39 40t16 38q0 15-12 26.5T180-78l39 68q-50 5-92.5 25.5T47 72l40 51q36-37 79.5-56.5T254 47q51 0 79 20.5T361 125q0 22-11.5 37.5t-34 26-89 26.5-98 34-47 45.5T66 361q0 59 46.5 94.5T233 491q50 0 96-17.5T415 423l-41-49q-31 29-67 43.5T232 432q-45 0-70-18.5T137 364q0-21 11-36.5t33.5-26T271 275t99-34.5T417.5 194 433 127q0-57-41.5-94T283-10L258-53q22-15 32.5-32.5T301-125q0-20-14.5-42.5T250-207H176Z"/>
<glyph unicode="&#x218;" glyph-name="Scommaaccent" horiz-adv-x="655" d="M106 168q51-58 111-88T344 50q50 0 88 15.5t58 44T510 174q0 34-16 58.5t-50 42-132 42-141.5 50-64 63T86 518q0 53 28.5 93.5T195 674t118 22q70 0 129.5-24T557 598l-46-55q-44 46-93 67.5T311 632q-46 0-80-13.5T180 580t-17-58q0-32 15.5-55.5t48.5-41T358 384t142.5-50T566 269.5 587 178q0-55-31-98.5T468.5 11 343-14q-83 0-153.5 32T60 114l46 54ZM380-54v-74q0-39-22.5-60.5T292-210H274v38h17q18 0 26 9t8 29H304v80h76Z"/>
<glyph unicode="&#x219;" glyph-name="scommaaccent" horiz-adv-x="487" d="M87 123q36-37 79.5-56.5T254 47q50 0 78.5 20.5T361 125q0 21-10.5 36.5t-33 26.5T227 215t-99.5 34.5T81 295.5 66 361q0 39 21 68.5T146.5 475 233 491q51 0 97.5-17.5T415 423l-41-49q-30 29-66 43.5T232 432q-29 0-50.5-8t-33-23.5T137 364t11-36.5 33-26T270.5 275 370 240.5 417.5 194 433 127q0-41-22.5-72.5t-64-49T253-12Q194-12 142 9T47 72l40 51ZM290-54v-73q0-36-19.5-59.5T205-210H187v38h20q20 0 26.5 11t6.5 29H219v78h71Z"/>
<glyph unicode="&#x1e60;" glyph-name="uni1E60" horiz-adv-x="655" d="M106 168q51-58 111-88T344 50q50 0 88 15.5t58 44T510 174q0 34-16 58.5t-50 42-132 42-141.5 50-64 63T86 518q0 53 28.5 93.5T195 674t118 22q70 0 129.5-24T557 598l-46-55q-44 46-93 67.5T311 632q-46 0-80-13.5T180 580t-17-58q0-32 15.5-55.5t48.5-41T358 384t142.5-50T566 269.5 587 178q0-55-31-98.5T468.5 11 343-14q-83 0-153.5 32T60 114l46 54ZM278 761V873h76V761H278Z"/>
<glyph unicode="&#x1e61;" glyph-name="uni1E61" horiz-adv-x="487" d="M87 123q36-37 79.5-56.5T254 47q50 0 78.5 20.5T361 125q0 21-10.5 36.5t-33 26.5T227 215t-99.5 34.5T81 295.5 66 361q0 39 21 68.5T146.5 475 233 491q51 0 97.5-17.5T415 423l-41-49q-30 29-66 43.5T232 432q-29 0-50.5-8t-33-23.5T137 364t11-36.5 33-26T270.5 275 370 240.5 417.5 194 433 127q0-41-22.5-72.5t-64-49T253-12Q194-12 142 9T47 72l40 51ZM197 567V680h72V567H197Z"/>
<glyph unicode="&#x1e9e;" glyph-name="uni1E9E" horiz-adv-x="739" d="M103 442q0 84 32.5 140.5T232 667t160 28q58 0 121.5-8.5T631 664V609L428 387q84-1 142.5-25t88-68T688 187q0-58-29-104T575.5 11.5 449-14q-33 0-71 6T309 8l17 66q28-11 62-17.5T452 50q48 0 83.5 16t55 47T610 185q0 45-23 76t-67 47T411 324H343v63L550 613q-36 9-78 13t-83 4q-74 0-120.5-19T200 551.5 178 444V0H103V442Z"/>
<glyph unicode="&#xdf;" glyph-name="germandbls" horiz-adv-x="569" d="M84 509q0 68 24 114t70 69.5T289 716q63 0 106.5-18T462 646t23-78q0-27-8-48t-24.5-38-51-38T356 412.5t-16.5-22T334 365q0-13 6-24.5T359.5 318 418 282.5t67.5-46 33.5-48T530 130q0-43-19.5-75t-56-49.5T372-12q-32 0-65 9T248 23l27 57q21-16 47.5-24.5T375 47q27 0 45.5 9T448 83t9 44q0 17-7.5 32t-23 29-61 40T300 273.5 271 315t-9 48q0 24 7.5 43.5t23 35.5T343 479.5 390 513t17.5 25 5.5 28q0 27-15 48t-43 32-67 11q-45 0-75-16t-44.5-49T154 508V0H84V509Z"/>
<glyph unicode="&#x17f;" glyph-name="longs" horiz-adv-x="257" d="M84 0V574q0 46 14 77.5t44 48T217 716q18 0 39-3t39-10V641q-19 8-39 11.5T218 656q-23 0-37-8t-20.5-26.5T154 569V0H84Z"/>
<glyph unicode="T" glyph-name="T" horiz-adv-x="533" d="M229 616H-8v66H540V616H304V0H229V616Z"/>
<glyph unicode="t" glyph-name="t" horiz-adv-x="346" d="M9 421v57H109V645l70 19V478H322V421H179V188q0-51 1.5-72.5t5-32.5T198 63q8-8 18.5-11T243 49q21 0 43 4.5T322 65V5Q306-3 281-7.5T232-12q-45 0-72 16T121 52t-12 84V421H9Z"/>
<glyph unicode="&#x164;" glyph-name="Tcaron" horiz-adv-x="533" d="M229 616H-8v66H540V616H304V0H229V616Zm71 134H225L108 882h74l81-75 80 75h74L300 750Z"/>
<glyph unicode="&#x165;" glyph-name="tcaron" horiz-adv-x="346" d="M9 421v57H109V645l70 19V478H322V421H179V188q0-51 1.5-72.5t5-32.5T198 63q8-8 18.5-11T243 49q21 0 43 4.5T322 65V5Q306-3 281-7.5T232-12q-45 0-72 16T121 52t-12 84V421H9ZM275 756h76L298 569H240l35 187Z"/>
<glyph unicode="&#x162;" glyph-name="Tcommaaccent" horiz-adv-x="533" d="M229 616H-8v66H540V616H304V0H229V616ZM300-54v-74q0-39-22.5-60.5T212-210H194v38h17q18 0 26 9t8 29H224v80h76Z"/>
<glyph unicode="&#x163;" glyph-name="tcommaaccent" horiz-adv-x="346" d="M9 421v57H109V645l70 19V478H322V421H179V188q0-51 1.5-72.5t5-32.5T198 63q8-8 18.5-11T243 49q21 0 43 4.5T322 65V5Q306-3 281-7.5T232-12q-45 0-72 16T121 52t-12 84V421H9ZM250-54v-73q0-36-19.5-59.5T165-210H147v38h20q20 0 26.5 11t6.5 29H179v78h71Z"/>
<glyph unicode="&#x21a;" glyph-name="uni021A" horiz-adv-x="533" d="M229 616H-8v66H540V616H304V0H229V616ZM300-54v-74q0-39-22.5-60.5T212-210H194v38h17q18 0 26 9t8 29H224v80h76Z"/>
<glyph unicode="&#x21b;" glyph-name="uni021B" horiz-adv-x="346" d="M9 421v57H109V645l70 19V478H322V421H179V188q0-51 1.5-72.5t5-32.5T198 63q8-8 18.5-11T243 49q21 0 43 4.5T322 65V5Q306-3 281-7.5T232-12q-45 0-72 16T121 52t-12 84V421H9ZM250-54v-73q0-36-19.5-59.5T165-210H147v38h20q20 0 26.5 11t6.5 29H179v78h71Z"/>
<glyph unicode="&#x166;" glyph-name="Tbar" horiz-adv-x="533" d="M229 0V316H39v61H229V616H-8v66H540V616H304V377H494V316H304V0H229Z"/>
<glyph unicode="&#x167;" glyph-name="tbar" horiz-adv-x="346" d="M109 421H9v57H109V645l70 19V478H322V421H179V272H295V216H179V185q0-65 3-87t16-35q14-14 45-14 21 0 43 4.5T322 65V5Q306-3 281-7.5T232-12q-45 0-72 16T121 52t-12 84v80H18v56h91V421Z"/>
<glyph unicode="&#x1e6a;" glyph-name="uni1E6A" horiz-adv-x="533" d="M229 616H-8v66H540V616H304V0H229V616Zm-1 145V873h76V761H228Z"/>
<glyph unicode="&#x1e6b;" glyph-name="uni1E6B" horiz-adv-x="346" d="M9 421v57H109V645l70 19V478H322V421H179V188q0-51 1.5-72.5t5-32.5T198 63q8-8 18.5-11T243 49q21 0 43 4.5T322 65V5Q306-3 281-7.5T232-12q-45 0-72 16T121 52t-12 84V421H9ZM109 723V836h72V723H109Z"/>
<glyph unicode="U" glyph-name="U" horiz-adv-x="730" d="M178 258q0-68 22-114t63.5-69T366 52 469.5 75.5t64 69.5T555 258V682h71V255q0-84-30.5-145t-89-92.5T364-14q-85 0-143.5 31t-88 90.5T103 249V682h75V258Z"/>
<glyph unicode="u" glyph-name="u" horiz-adv-x="554" d="M405 0l-2 72h-1Q379 31 339 9.5T249-12q-56 0-94.5 22t-58 64.5T77 178V478h70V206q0-44 4-64.5T164 102q13-26 38-40.5T260 47q27 0 51.5 9.5T351 82q26 26 37.5 64.5T400 250V478h70V236q0-62 0.5-109T473 0H405Z"/>
<glyph unicode="&#xd9;" glyph-name="Ugrave" horiz-adv-x="730" d="M178 258q0-68 22-114t63.5-69T366 52 469.5 75.5t64 69.5T555 258V682h71V255q0-84-30.5-145t-89-92.5T364-14q-85 0-143.5 31t-88 90.5T103 249V682h75V258ZM413 749H340L214 881H320l93-132Z"/>
<glyph unicode="&#xf9;" glyph-name="ugrave" horiz-adv-x="554" d="M405 0l-2 72h-1Q379 31 339 9.5T249-12q-56 0-94.5 22t-58 64.5T77 178V478h70V206q0-44 4-64.5T164 102q13-26 38-40.5T260 47q27 0 51.5 9.5T351 82q26 26 37.5 64.5T400 250V478h70V236q0-62 0.5-109T473 0H405ZM321 551H254L137 692h99l85-141Z"/>
<glyph unicode="&#xda;" glyph-name="Uacute" horiz-adv-x="730" d="M178 258q0-68 22-114t63.5-69T366 52 469.5 75.5t64 69.5T555 258V682h71V255q0-84-30.5-145t-89-92.5T364-14q-85 0-143.5 31t-88 90.5T103 249V682h75V258ZM409 881H515L388 749H316l93 132Z"/>
<glyph unicode="&#xfa;" glyph-name="uacute" horiz-adv-x="554" d="M405 0l-2 72h-1Q379 31 339 9.5T249-12q-56 0-94.5 22t-58 64.5T77 178V478h70V206q0-44 4-64.5T164 102q13-26 38-40.5T260 47q27 0 51.5 9.5T351 82q26 26 37.5 64.5T400 250V478h70V236q0-62 0.5-109T473 0H405ZM318 692h98L300 551H234l84 141Z"/>
<glyph unicode="&#xdb;" glyph-name="Ucircumflex" horiz-adv-x="730" d="M178 258q0-68 22-114t63.5-69T366 52 469.5 75.5t64 69.5T555 258V682h71V255q0-84-30.5-145t-89-92.5T364-14q-85 0-143.5 31t-88 90.5T103 249V682h75V258ZM328 882h73L519 750H444l-80 75-80-75H210L328 882Z"/>
<glyph unicode="&#xfb;" glyph-name="ucircumflex" horiz-adv-x="554" d="M405 0l-2 72h-1Q379 31 339 9.5T249-12q-56 0-94.5 22t-58 64.5T77 178V478h70V206q0-44 4-64.5T164 102q13-26 38-40.5T260 47q27 0 51.5 9.5T351 82q26 26 37.5 64.5T400 250V478h70V236q0-62 0.5-109T473 0H405ZM235 692h86l99-141H351l-75 90-74-90H135L235 692Z"/>
<glyph unicode="&#x168;" glyph-name="Utilde" horiz-adv-x="730" d="M178 258q0-68 22-114t63.5-69T366 52 469.5 75.5t64 69.5T555 258V682h71V255q0-84-30.5-145t-89-92.5T364-14q-85 0-143.5 31t-88 90.5T103 249V682h75V258ZM294 817q-18 0-28.5-17T255 755H196q0 38 12 66t34.5 42.5T297 878q21 0 41-8.5t45.5-29 35-25T436 811q18 0 28.5 17T475 873h59q0-37-12-65t-34.5-43T433 750q-21 0-41.5 8.5t-46 29-34.5 25T294 817Z"/>
<glyph unicode="&#x169;" glyph-name="utilde" horiz-adv-x="554" d="M405 0l-2 72h-1Q379 31 339 9.5T249-12q-56 0-94.5 22t-58 64.5T77 178V478h70V206q0-44 4-64.5T164 102q13-26 38-40.5T260 47q27 0 51.5 9.5T351 82q26 26 37.5 64.5T400 250V478h70V236q0-62 0.5-109T473 0H405ZM215 624q-19 0-28.5-16.5T177 563H121q0 37 11 64t32.5 41T217 682q20 0 38-8t39.5-28T324 621.5t15-4.5q18 0 27.5 16.5T376 678h57q0-36-11-63t-32.5-41.5T337 559q-20 0-38 8t-40 28-29.5 24.5T215 624Z"/>
<glyph unicode="&#xdc;" glyph-name="Udieresis" horiz-adv-x="730" d="M178 258q0-68 22-114t63.5-69T366 52 469.5 75.5t64 69.5T555 258V682h71V255q0-84-30.5-145t-89-92.5T364-14q-85 0-143.5 31t-88 90.5T103 249V682h75V258ZM439 761V873h75V761H439Zm-223 0V873h75V761H216Z"/>
<glyph unicode="&#xfc;" glyph-name="udieresis" horiz-adv-x="554" d="M405 0l-2 72h-1Q379 31 339 9.5T249-12q-56 0-94.5 22t-58 64.5T77 178V478h70V206q0-44 4-64.5T164 102q13-26 38-40.5T260 47q27 0 51.5 9.5T351 82q26 26 37.5 64.5T400 250V478h70V236q0-62 0.5-109T473 0H405ZM334 567V680h71V567H334Zm-184 0V680h71V567H150Z"/>
<glyph unicode="&#x16a;" glyph-name="Umacron" horiz-adv-x="730" d="M178 258q0-68 22-114t63.5-69T366 52 469.5 75.5t64 69.5T555 258V682h71V255q0-84-30.5-145t-89-92.5T364-14q-85 0-143.5 31t-88 90.5T103 249V682h75V258ZM513 781H216v62H513V781Z"/>
<glyph unicode="&#x16b;" glyph-name="umacron" horiz-adv-x="554" d="M405 0l-2 72h-1Q379 31 339 9.5T249-12q-56 0-94.5 22t-58 64.5T77 178V478h70V206q0-44 4-64.5T164 102q13-26 38-40.5T260 47q27 0 51.5 9.5T351 82q26 26 37.5 64.5T400 250V478h70V236q0-62 0.5-109T473 0H405Zm6 588H143v59H411V588Z"/>
<glyph unicode="&#x16c;" glyph-name="Ubreve" horiz-adv-x="730" d="M178 258q0-68 22-114t63.5-69T366 52 469.5 75.5t64 69.5T555 258V682h71V255q0-84-30.5-145t-89-92.5T364-14q-85 0-143.5 31t-88 90.5T103 249V682h75V258ZM511 884q0-45-17.5-76.5t-50.5-47T364 745t-78.5 15.5T236 807t-17 77h62q0-26 9.5-43t28-25.5T365 807t47 9 27.5 26 8.5 42h63Z"/>
<glyph unicode="&#x16d;" glyph-name="ubreve" horiz-adv-x="554" d="M405 0l-2 72h-1Q379 31 339 9.5T249-12q-56 0-94.5 22t-58 64.5T77 178V478h70V206q0-44 4-64.5T164 102q13-26 38-40.5T260 47q27 0 51.5 9.5T351 82q26 26 37.5 64.5T400 250V478h70V236q0-62 0.5-109T473 0H405Zm9 689q0-43-15-73.5t-45.5-46T276 554q-45 0-75 15.5t-45 46T141 689h58q0-24 8.5-41.5t26-26.5 43.5-9q28 0 45.5 9.5t25.5 27 8 40.5h58Z"/>
<glyph unicode="&#x16e;" glyph-name="Uring" horiz-adv-x="730" d="M178 258q0-68 22-114t63.5-69T366 52 469.5 75.5t64 69.5T555 258V682h71V255q0-84-30.5-145t-89-92.5T364-14q-85 0-143.5 31t-88 90.5T103 249V682h75V258ZM411 834q0 20-12 34t-34 14-33.5-13.5T320 834q0-20 11.5-33.5T365 787t34 13.5T411 834Zm57 1q0-40-28-67.5T364 740t-74.5 26.5T263 834q0 39 27.5 66.5T366 928q49 0 75.5-26T468 835Z"/>
<glyph unicode="&#x16f;" glyph-name="uring" horiz-adv-x="554" d="M405 0l-2 72h-1Q379 31 339 9.5T249-12q-56 0-94.5 22t-58 64.5T77 178V478h70V206q0-44 4-64.5T164 102q13-26 38-40.5T260 47q27 0 51.5 9.5T351 82q26 26 37.5 64.5T400 250V478h70V236q0-62 0.5-109T473 0H405ZM323 641q0 21-12 34.5T277 689t-33.5-13.5T232 641q0-20 12-33.5T277 594q22 0 34 13.5T323 641Zm57 1q0-39-28-66.5T276 548q-49 0-75 26t-26 67q0 40 27.5 67.5T278 736q49 0 75.5-26T380 642Z"/>
<glyph unicode="&#x170;" glyph-name="Uhungarumlaut" horiz-adv-x="730" d="M178 258q0-68 22-114t63.5-69T366 52 469.5 75.5t64 69.5T555 258V682h71V255q0-84-30.5-145t-89-92.5T364-14q-85 0-143.5 31t-88 90.5T103 249V682h75V258ZM511 881H618L492 749H418l93 132Zm-220 0H392L285 749H216l75 132Z"/>
<glyph unicode="&#x171;" glyph-name="uhungarumlaut" horiz-adv-x="554" d="M405 0l-2 72h-1Q379 31 339 9.5T249-12q-56 0-94.5 22t-58 64.5T77 178V478h70V206q0-44 4-64.5T164 102q13-26 38-40.5T260 47q27 0 51.5 9.5T351 82q26 26 37.5 64.5T400 250V478h70V236q0-62 0.5-109T473 0H405Zm-4 692h99L383 551H316l85 141Zm-191 0h92L207 551H143l67 141Z"/>
<glyph unicode="&#x172;" glyph-name="Uogonek" horiz-adv-x="730" d="M516-206q-12-4-28-6t-34-2q-37 0-59.5 8.5t-32.5 25T352-140q0 30 17 63T421-7q-26-7-57-7-85 0-143.5 31t-88 90.5T103 249V682h75V258q0-68 22-114t63.5-69T366 52 469.5 75.5t64 69.5T555 258V682h71V255q0-64-17.5-115T557 55q-9-9-27-25.5T503 4q-38-38-57.5-73.5T426-131q0-14 8.5-20t27.5-6h54v-49Z"/>
<glyph unicode="&#x173;" glyph-name="uogonek" horiz-adv-x="554" d="M404 72h-1Q379 31 339 9.5T249-12q-55 0-93.5 21.5T97 73.5 77 178V478h70V206q0-44 4-64.5T164 102q13-26 38-40.5T260 47q27 0 51.5 9.5T351 82q26 26 37.5 64.5T400 250V478h70V238q0-90 0.5-141T473 0q-41-43-60.5-74T393-133q0-15 9.5-21t28.5-6h51v-47q-13-4-28.5-5.5T424-214q-33 0-55.5 7.5t-33.5 24T324-140q0 30 18 62.5T406 3l-2 69Z"/>
<glyph unicode="V" glyph-name="V" horiz-adv-x="631" d="M278 0L16 682h85L235 318q15-41 43.5-119.5T318 86h1q3 8 25.5 73T401 318L534 682h81L353 0H278Z"/>
<glyph unicode="v" glyph-name="v" horiz-adv-x="487" d="M210 0L13 478H94l81-202q15-40 34.5-93.5T246 79h1q10 34 31.5 93T317 276l80 202h77L277 0H210Z"/>
<glyph unicode="W" glyph-name="W" horiz-adv-x="1032" d="M249 0L35 682h84l94-320q9-30 39.5-129T296 87h1q10 34 28 92.5T382 362L483 682h67L655 362q36-110 56-174T743 87h1q11 39 39.5 136.5T823 361l94 321h80L783 0H698L550 448q-10 33-17 57t-17 65h-2q-5-19-12.5-45.5T478 448L334 0H249Z"/>
<glyph unicode="w" glyph-name="w" horiz-adv-x="818" d="M548 0L461 226q-13 34-27.5 75T405 382h-2q-12-44-17-57.5T351 226L269 0H206L22 478h81l86-238q11-30 28-81.5T240 90h1q10 34 23 72.5T291 240l86 238h60l86-229q5-12 24.5-64T582 90h1q16 49 29 86.5T637 248l79 230h79L611 0H548Z"/>
<glyph unicode="&#x1e80;" glyph-name="Wgrave" horiz-adv-x="1032" d="M249 0L35 682h84l94-320q9-30 39.5-129T296 87h1q10 34 28 92.5T382 362L483 682h67L655 362q36-110 56-174T743 87h1q11 39 39.5 136.5T823 361l94 321h80L783 0H698L550 448q-10 33-17 57t-17 65h-2q-5-19-12.5-45.5T478 448L334 0H249ZM557 749H484L358 881H464l93-132Z"/>
<glyph unicode="&#x1e81;" glyph-name="wgrave" horiz-adv-x="818" d="M548 0L461 226q-13 34-27.5 75T405 382h-2q-12-44-17-57.5T351 226L269 0H206L22 478h81l86-238q11-30 28-81.5T240 90h1q10 34 23 72.5T291 240l86 238h60l86-229q5-12 24.5-64T582 90h1q16 49 29 86.5T637 248l79 230h79L611 0H548ZM446 551H379L262 692h99l85-141Z"/>
<glyph unicode="&#x1e82;" glyph-name="Wacute" horiz-adv-x="1032" d="M249 0L35 682h84l94-320q9-30 39.5-129T296 87h1q10 34 28 92.5T382 362L483 682h67L655 362q36-110 56-174T743 87h1q11 39 39.5 136.5T823 361l94 321h80L783 0H698L550 448q-10 33-17 57t-17 65h-2q-5-19-12.5-45.5T478 448L334 0H249ZM568 881H674L547 749H475l93 132Z"/>
<glyph unicode="&#x1e83;" glyph-name="wacute" horiz-adv-x="818" d="M548 0L461 226q-13 34-27.5 75T405 382h-2q-12-44-17-57.5T351 226L269 0H206L22 478h81l86-238q11-30 28-81.5T240 90h1q10 34 23 72.5T291 240l86 238h60l86-229q5-12 24.5-64T582 90h1q16 49 29 86.5T637 248l79 230h79L611 0H548ZM448 692h98L430 551H364l84 141Z"/>
<glyph unicode="&#x174;" glyph-name="Wcircumflex" horiz-adv-x="1032" d="M249 0L35 682h84l94-320q9-30 39.5-129T296 87h1q10 34 28 92.5T382 362L483 682h67L655 362q36-110 56-174T743 87h1q11 39 39.5 136.5T823 361l94 321h80L783 0H698L550 448q-10 33-17 57t-17 65h-2q-5-19-12.5-45.5T478 448L334 0H249ZM479 882h73L670 750H595l-80 75-80-75H361L479 882Z"/>
<glyph unicode="&#x175;" glyph-name="wcircumflex" horiz-adv-x="818" d="M548 0L461 226q-13 34-27.5 75T405 382h-2q-12-44-17-57.5T351 226L269 0H206L22 478h81l86-238q11-30 28-81.5T240 90h1q10 34 23 72.5T291 240l86 238h60l86-229q5-12 24.5-64T582 90h1q16 49 29 86.5T637 248l79 230h79L611 0H548ZM366 692h86l99-141H482l-75 90-74-90H266L366 692Z"/>
<glyph unicode="&#x1e84;" glyph-name="Wdieresis" horiz-adv-x="1032" d="M249 0L35 682h84l94-320q9-30 39.5-129T296 87h1q10 34 28 92.5T382 362L483 682h67L655 362q36-110 56-174T743 87h1q11 39 39.5 136.5T823 361l94 321h80L783 0H698L550 448q-10 33-17 57t-17 65h-2q-5-19-12.5-45.5T478 448L334 0H249ZM589 761V873h75V761H589Zm-223 0V873h75V761H366Z"/>
<glyph unicode="&#x1e85;" glyph-name="wdieresis" horiz-adv-x="818" d="M548 0L461 226q-13 34-27.5 75T405 382h-2q-12-44-17-57.5T351 226L269 0H206L22 478h81l86-238q11-30 28-81.5T240 90h1q10 34 23 72.5T291 240l86 238h60l86-229q5-12 24.5-64T582 90h1q16 49 29 86.5T637 248l79 230h79L611 0H548ZM463 567V680h71V567H463Zm-184 0V680h71V567H279Z"/>
<glyph unicode="X" glyph-name="X" horiz-adv-x="591" d="M250 359L32 682h92L297 419 473 682h86L342 364 587 0H496L295 304 91 0H4L250 359Z"/>
<glyph unicode="x" glyph-name="x" horiz-adv-x="465" d="M10 0L190 252 30 478h87L235 303 353 478h81L274 253 455 0H367L230 203 92 0H10Z"/>
<glyph unicode="Y" glyph-name="Y" horiz-adv-x="604" d="M264 0V292L0 682H91L304 362 517 682h87L340 292V0H264Z"/>
<glyph unicode="y" glyph-name="y" horiz-adv-x="487" d="M115-207L213 0h-3L13 478H94l81-202q32-81 71-197h1q29 93 70 197l80 202h77L192-207H115Z"/>
<glyph unicode="&#x1ef2;" glyph-name="Ygrave" horiz-adv-x="604" d="M264 0V292L0 682H91L304 362 517 682h87L340 292V0H264Zm85 749H276L150 881H256l93-132Z"/>
<glyph unicode="&#x1ef3;" glyph-name="ygrave" horiz-adv-x="487" d="M115-207L213 0h-3L13 478H94l81-202q32-81 71-197h1q29 93 70 197l80 202h77L192-207H115ZM288 551H221L104 692h99l85-141Z"/>
<glyph unicode="&#xdd;" glyph-name="Yacute" horiz-adv-x="604" d="M264 0V292L0 682H91L304 362 517 682h87L340 292V0H264Zm82 881H452L325 749H253l93 132Z"/>
<glyph unicode="&#xfd;" glyph-name="yacute" horiz-adv-x="487" d="M115-207L213 0h-3L13 478H94l81-202q32-81 71-197h1q29 93 70 197l80 202h77L192-207H115ZM284 692h98L266 551H200l84 141Z"/>
<glyph unicode="&#x176;" glyph-name="Ycircumflex" horiz-adv-x="604" d="M264 0V292L0 682H91L304 362 517 682h87L340 292V0H264Zm2 882h73L457 750H382l-80 75-80-75H148L266 882Z"/>
<glyph unicode="&#x177;" glyph-name="ycircumflex" horiz-adv-x="487" d="M115-207L213 0h-3L13 478H94l81-202q32-81 71-197h1q29 93 70 197l80 202h77L192-207H115Zm86 899h86l99-141H317l-75 90-74-90H101L201 692Z"/>
<glyph unicode="&#x178;" glyph-name="Ydieresis" horiz-adv-x="604" d="M264 0V292L0 682H91L304 362 517 682h87L340 292V0H264ZM376 761V873h75V761H376Zm-223 0V873h75V761H153Z"/>
<glyph unicode="&#xff;" glyph-name="ydieresis" horiz-adv-x="487" d="M115-207L213 0h-3L13 478H94l81-202q32-81 71-197h1q29 93 70 197l80 202h77L192-207H115ZM300 567V680h71V567H300Zm-184 0V680h71V567H116Z"/>
<glyph unicode="Z" glyph-name="Z" horiz-adv-x="628" d="M582 0H46V68L479 617q-48-1-131.5-1.5T223 615H61v67H567V615L135 67q50 0 129 0.5T380 68H582V0Z"/>
<glyph unicode="z" glyph-name="z" horiz-adv-x="489" d="M442 0H47V61L346 420q-24 0-73-0.5T197 419H58v59H428V419L128 60q27 0 83.5 0.5T301 61H442V0Z"/>
<glyph unicode="&#x179;" glyph-name="Zacute" horiz-adv-x="628" d="M582 0H46V68L479 617q-48-1-131.5-1.5T223 615H61v67H567V615L135 67q50 0 129 0.5T380 68H582V0ZM346 881H452L325 749H253l93 132Z"/>
<glyph unicode="&#x17a;" glyph-name="zacute" horiz-adv-x="489" d="M442 0H47V61L346 420q-24 0-73-0.5T197 419H58v59H428V419L128 60q27 0 83.5 0.5T301 61H442V0ZM279 692h98L261 551H195l84 141Z"/>
<glyph unicode="&#x17d;" glyph-name="Zcaron" horiz-adv-x="628" d="M582 0H46V68L479 617q-48-1-131.5-1.5T223 615H61v67H567V615L135 67q50 0 129 0.5T380 68H582V0ZM353 750H278L161 882h74l81-75 80 75h74L353 750Z"/>
<glyph unicode="&#x17e;" glyph-name="zcaron" horiz-adv-x="489" d="M442 0H47V61L346 420q-24 0-73-0.5T197 419H58v59H428V419L128 60q27 0 83.5 0.5T301 61H442V0ZM287 551H201L102 692h69l75-90 74 90h67L287 551Z"/>
<glyph unicode="&#x17b;" glyph-name="Zdotaccent" horiz-adv-x="628" d="M582 0H46V68L479 617q-48-1-131.5-1.5T223 615H61v67H567V615L135 67q50 0 129 0.5T380 68H582V0ZM278 761V873h76V761H278Z"/>
<glyph unicode="&#x17c;" glyph-name="zdotaccent" horiz-adv-x="489" d="M442 0H47V61L346 420q-24 0-73-0.5T197 419H58v59H428V419L128 60q27 0 83.5 0.5T301 61H442V0ZM201 567V680h72V567H201Z"/>
<glyph unicode="&#x394;" glyph-name="Delta" horiz-adv-x="641" d="M119 65H520L416 338q-86 227-98 272h-1q-14-53-95-270L119 65ZM604 0H37V58L283 682h77L604 61V0Z"/>
<glyph unicode="&#x3bc;" glyph-name="mu" horiz-adv-x="561" d="M84-207V478h70V206q0-44 3.5-64.5T170 102q14-26 38.5-40.5T267 47q26 0 50.5 9.5T358 82q26 26 37.5 64.5T407 250V478h70V236q0-62 0.5-109T480 0H411l-1 72h-1Q386 31 346 9.5T257-12q-74 0-107 45h-1q2-45 2-61l4-179H84Z"/>
<glyph unicode="&#x3c0;" glyph-name="pi" horiz-adv-x="588" d="M545 415H445l15-209q6-75 12-104t17-40 38-11q15 0 28 4V-4q-20-5-40-5Q467-9 441.5 7.5T405 62 389 193L377 415H199L153 0H82l47 415H36v63H545V415Z"/>
<glyph unicode="&#x3a9;" glyph-name="Omega" horiz-adv-x="779" d="M67 0V65H256v2q-94 52-139 129.5T72 379q0 91 42 164T228.5 656 391 696q92 0 164-40T667 543.5 707 379q0-100-47-179.5T523 67V65H712V0H457V87q90 54 130.5 121.5T628 372q0 77-29 136t-83.5 90.5T390 630q-74 0-128-31.5t-82-90T152 372q0-96 40.5-163T322 87V0H67Z"/>
<glyph unicode="`" glyph-name="grave" horiz-adv-x="324" d="M254 551H187L70 692h99l85-141Z"/>
<glyph unicode="&#xb4;" glyph-name="acute" horiz-adv-x="332" d="M159 692h98L141 551H75l84 141Z"/>
<glyph unicode="&#x2c6;" glyph-name="circumflex" horiz-adv-x="431" d="M173 692h86l99-141H289l-75 90-74-90H73L173 692Z"/>
<glyph unicode="&#x2c7;" glyph-name="caron" horiz-adv-x="431" d="M258 551H172L73 692h69l75-90 74 90h67L258 551Z"/>
<glyph unicode="&#x2dc;" glyph-name="tilde" horiz-adv-x="474" d="M175 624q-19 0-28.5-16.5T137 563H81q0 37 11 64t32.5 41T177 682q20 0 38-8t39.5-28T284 621.5t15-4.5q18 0 27.5 16.5T336 678h57q0-36-11-63t-32.5-41.5T297 559q-20 0-38 8t-40 28-29.5 24.5T175 624Z"/>
<glyph unicode="&#xa8;" glyph-name="dieresis" horiz-adv-x="417" d="M265 567V680h71V567H265ZM81 567V680h71V567H81Z"/>
<glyph unicode="&#x2c9;" glyph-name="macron" horiz-adv-x="430" d="M349 588H81v59H349V588Z"/>
<glyph unicode="&#x2d8;" glyph-name="breve" horiz-adv-x="433" d="M353 689q0-43-15-73.5t-45.5-46T215 554q-45 0-75 15.5t-45 46T80 689h58q0-24 8.5-41.5t26-26.5 43.5-9q28 0 45.5 9.5t25.5 27 8 40.5h58Z"/>
<glyph unicode="&#x2da;" glyph-name="ring" horiz-adv-x="391" d="M241 641q0 21-12 34.5T195 689t-33.5-13.5T150 641q0-20 12-33.5T195 594q22 0 34 13.5T241 641Zm57 1q0-39-28-66.5T194 548q-49 0-75 26T93 641q0 40 27.5 67.5T196 736q49 0 75.5-26T298 642Z"/>
<glyph unicode="&#x2dd;" glyph-name="hungarumlaut" horiz-adv-x="511" d="M335 692h99L317 551H250l85 141Zm-191 0h92L141 551H77l67 141Z"/>
<glyph unicode="&#x2d9;" glyph-name="dotaccent" horiz-adv-x="234" d="M81 567V680h72V567H81Z"/>
<glyph unicode="&#x326;" glyph-name="uni0326" horiz-adv-x="265" d="M184-54v-73q0-36-19.5-59.5T99-210H81v38h20q20 0 26.5 11t6.5 29H113v78h71Z"/>
<glyph unicode="&#x312;" glyph-name="uni0312" horiz-adv-x="252" d="M81 567v79q0 36 19.5 59.5T166 729h18V691H165q-21 0-27.5-11T131 651h21V567H81Z"/>
<glyph unicode="&#x315;" glyph-name="uni0315" horiz-adv-x="270" d="M115 756h76L138 569H80l35 187Z"/>
<glyph unicode="&#xb8;" glyph-name="cedilla" horiz-adv-x="286" d="M80-207q23 19 38.5 40.5T134-129q0 14-10.5 25T84-78L129 1h64L162-53q22-15 32.5-32.5T205-125q0-20-14.5-42.5T154-207H80Z"/>
<glyph unicode="&#x2db;" glyph-name="ogonek" horiz-adv-x="320" d="M217 0q-37-55-51.5-84T151-133q0-15 9-21t28-6h51v-47q-12-3-28.5-5T181-214q-35 0-57 8T91.5-181.5 81-140q0 26 16 59T148 0h69Z"/>
<glyph unicode="&#xaa;" glyph-name="ordfeminine" horiz-adv-x="498" d="M77 181v56H402V181H77ZM348 551q-63 0-106-5.5T173.5 529 136 501.5 124 459q0-36 24.5-56T218 383q37 0 66.5 18T331 451t17 68v32Zm62-97q0-22 1.5-59.5T413 342H351l-1 64q-25-36-63-55.5T205 331q-43 0-77 15T75.5 389.5 57 458q0 37 16.5 63.5t51.5 44 90 27T348 602v32q-1 49-27 74t-76 25q-41 0-74-19t-62-60L65 692q38 49 82.5 71.5T247 786q80 0 121.5-38T410 637V454Z"/>
<glyph unicode="&#xba;" glyph-name="ordmasculine" horiz-adv-x="532" d="M77 181v56H455V181H77ZM475 559q0-67-25.5-119.5t-73-81T265 330q-65 0-111.5 28T82 437.5 57 557q0 67 25.5 119.5t73.5 81T267 786q64 0 111-27t72-79 25-121Zm-68-1q0 51-17.5 91t-50 61.5T266 732q-43 0-74.5-22t-49-62T125 558t17.5-90T192 406t74-22q43 0 75 22t49 62 17 90Z"/>
<glyph unicode="!" glyph-name="exclam" horiz-adv-x="350" d="M140 210L130 711h91L210 210H140ZM130 0V129h90V0H130Z"/>
<glyph unicode="&#xa1;" glyph-name="exclamdown" horiz-adv-x="350" d="M209 405L221-96H130l11 501h68Zm11 210V486H130V615h90Z"/>
<glyph unicode="?" glyph-name="question" horiz-adv-x="612" d="M279 276q0 24 7.5 44t23 38T366 405.5t58 49T449 496t8 48q0 33-19.5 60.5T384 647t-78 15q-45 0-81-17t-55-47.5T151 528q0-18 1-32t4-24H84q-4 11-5.5 24.5T77 525q0 59 28.5 104.5T187 700t122 25q66 0 118-23t80-63.5T535 547q0-34-9.5-63t-30-54T433 374.5t-55-44-20-28T351 272l-1-62H280l-1 66ZM270 0V129h90V0H270Z"/>
<glyph unicode="&#xbf;" glyph-name="questiondown" horiz-adv-x="612" d="M333 339q0-25-7.5-45t-23-38T246 208.5 188.5 160t-25-41T155 71q0-33 19-60t53-42.5T305-47q46 0 82 17t55 47.5T461 87q-2 46-5 56h72q4-11 7-53 0-59-28.5-104.5T424.5-85 303-110q-67 0-119 23T104.5-23.5 77 68q0 34 9.5 62.5t30 53.5T179 240t55 44.5 20 28 7 30.5l1 62h70l1-66Zm9 276V486H252V615h90Z"/>
<glyph unicode="," glyph-name="comma" horiz-adv-x="256" d="M177 142V24q0-87-7.5-123.5T143-159 80-208L53-166q33 24 45 40t16.5 41T119 0H79V142h98Z"/>
<glyph unicode=";" glyph-name="semicolon" horiz-adv-x="294" d="M99 345V478h96V345H99Zm96-212V24q0-89-7.5-124T160-159 97-208L70-165q33 23 45 38.5T131.5-85 136 0H99V133h96Z"/>
<glyph unicode=":" glyph-name="colon" horiz-adv-x="294" d="M99 345V478h96V345H99ZM99 0V133h96V0H99Z"/>
<glyph unicode="." glyph-name="period" horiz-adv-x="256" d="M79 0V142h98V0H79Z"/>
<glyph unicode="&#x2026;" glyph-name="ellipsis" horiz-adv-x="833" d="M655 0V142h99V0H655ZM367 0V142h99V0H367ZM79 0V142h98V0H79Z"/>
<glyph unicode="&#x2018;" glyph-name="quoteleft" horiz-adv-x="256" d="M79 475V588q0 66 7 100.5T112 748t63 53l27-43q-29-21-42.5-39.5t-18-41.5T137 611h40V475H79Z"/>
<glyph unicode="&#x2019;" glyph-name="quoteright" horiz-adv-x="256" d="M177 780V668q0-72-8-107t-28-58.5T80 455L53 497q32 22 44.5 39t17 40 4.5 68H79V780h98Z"/>
<glyph unicode="&#x201c;" glyph-name="quotedblleft" horiz-adv-x="438" d="M79 475V588q0 67 7 101.5t26 60T170 801l27-43q-32-25-42-42t-15-40.5T135 611h37V475H79Zm186 0V588q0 69 8 103.5T299.5 751 357 801l27-43q-32-25-42.5-42t-15-40.5T322 611h37V475H265Z"/>
<glyph unicode="&#x201d;" glyph-name="quotedblright" horiz-adv-x="438" d="M359 780V668q0-71-7.5-105.5t-25.5-58T268 455l-28 42q28 20 40.5 37.5t17 41T302 644H265V780h94Zm-187 0V668q0-71-7-105.5t-25.5-58T81 455L53 497q28 20 40.5 37.5t17.5 41 5 68.5H79V780h93Z"/>
<glyph unicode="&#x201a;" glyph-name="quotesinglbase" horiz-adv-x="256" d="M177 136V24q0-72-8-107t-28-58.5T80-189L53-147q32 22 44.5 39t17 40T119 0H79V136h98Z"/>
<glyph unicode="&#x201e;" glyph-name="quotedblbase" horiz-adv-x="438" d="M359 136V24q0-71-7.5-105.5t-25.5-58T268-189l-28 42q28 20 40.5 37.5t17 41T302 0H265V136h94Zm-187 0V24q0-71-7-105.5t-25.5-58T81-189L53-147q28 20 40.5 37.5t17.5 41T116 0H79V136h93Z"/>
<glyph unicode="&#x2039;" glyph-name="guilsinglleft" horiz-adv-x="400" d="M257 43L77 272 257 502l55-30L172 274 311 74 257 43Z"/>
<glyph unicode="&#x203a;" glyph-name="guilsinglright" horiz-adv-x="400" d="M143 503L322 273 143 43 88 73 227 271 88 471l55 32Z"/>
<glyph unicode="&#xab;" glyph-name="guillemotleft" horiz-adv-x="644" d="M501 59L330 272 501 486l55-30L425 274 556 90 501 59ZM257 43L77 272 257 502l55-30L172 274 311 74 257 43Z"/>
<glyph unicode="&#xbb;" glyph-name="guillemotright" horiz-adv-x="644" d="M143 486L314 273 143 59 88 89 219 271 88 455l55 31Zm245 17L567 273 387 44 333 73 472 271 333 471l55 32Z"/>
<glyph unicode="/" glyph-name="slash" horiz-adv-x="392" d="M-46-164L339 778h72L26-164H-46Z"/>
<glyph unicode="|" glyph-name="bar" horiz-adv-x="314" d="M122-171V815h69V-171H122Z"/>
<glyph unicode="&#xa6;" glyph-name="brokenbar" horiz-adv-x="314" d="M122-171V218h69V-171H122Zm0 597V815h69V426H122Z"/>
<glyph unicode="\" glyph-name="backslash" horiz-adv-x="392" d="M366-164L-19 778H52L438-164H366Z"/>
<glyph unicode="&#x2010;" glyph-name="hyphen" horiz-adv-x="360" d="M39 237v72H321V237H39Z"/>
<glyph unicode="&#x2013;" glyph-name="endash" horiz-adv-x="650" d="M587 242H63v63H587V242Z"/>
<glyph unicode="&#x2014;" glyph-name="emdash" horiz-adv-x="968" d="M921 242H47v63H921V242Z"/>
<glyph unicode="_" glyph-name="underscore" horiz-adv-x="650" d="M650-217H0v60H650v-60Z"/>
<glyph unicode="&#x2022;" glyph-name="bullet" horiz-adv-x="418" d="M338 323q0-36-18-66.5T272 209t-64-17q-36 0-66 17.5T95.5 257 79 321q0 36 18 66.5T145.5 435 210 452q36 0 65.5-17.5t46-47.5T338 323Z"/>
<glyph unicode="&#x2219;" glyph-name="periodcentered" horiz-adv-x="255" d="M80 263V381h95V263H80Z"/>
<glyph unicode="(" glyph-name="parenleft" horiz-adv-x="312" d="M224-171Q156-65 119 62T82 322q0 132 37 260T224 815h72Q227 705 191.5 579.5T156 323q0-132 34.5-255T295-171H224Z"/>
<glyph unicode=")" glyph-name="parenright" horiz-adv-x="312" d="M88 815q68-106 104.5-233T229 322q0-88-17-175.5t-48.5-168T88-171H16Q84-61 120 64.5T156 321q0 132-35 255T17 815H88Z"/>
<glyph unicode="[" glyph-name="bracketleft" horiz-adv-x="365" d="M333-171H110V815H333V755H179V-111H333v-60Z"/>
<glyph unicode="]" glyph-name="bracketright" horiz-adv-x="365" d="M32-171v60H186V755H32v60H256V-171H32Z"/>
<glyph unicode="{" glyph-name="braceleft" horiz-adv-x="398" d="M37 352H68q31 0 46.5 10t22 36 6.5 80V636q0 62 16 101t50 58.5T300 815h66V755H299q-36 0-54-11t-25.5-36.5T212 635V481q0-52-5.5-83T188 350.5 150 323v-1q25-11 38-27.5t18.5-47T212 167V10q0-49 8.5-74.5t27.5-36T301-111h65v-60H298q-56 0-89.5 18.5T159-95 143 6V164q0 54-7 81t-22.5 37T67 292H37v60Z"/>
<glyph unicode="}" glyph-name="braceright" horiz-adv-x="398" d="M32-171v60H99q34 0 52 10t26.5 35T186 8V163q0 52 6 83t18.5 47.5T248 321v1q-25 11-37.5 27.5t-18.5 47T186 477V634q0 49-8.5 74.5t-27.5 36T97 755H32v60h69q55 0 88.5-18.5t50-57T256 638V480q0-54 6.5-81T285 362t46-10h30V292H331q-32 0-47.5-10T262 246t-6-80V8q0-64-17.5-103T187-152.5 99-171H32Z"/>
<glyph unicode="*" glyph-name="asterisk" horiz-adv-x="498" d="M274 558l163 63 21-65L289 510 399 375l-55-40L249 481 153 335 98 375 208 510 40 556l21 65 162-63-8 175h68l-9-175Z"/>
<glyph unicode="&#x2020;" glyph-name="dagger" horiz-adv-x="489" d="M210 96V521H45v60H210V757h70V581H444V521H280V96H210Z"/>
<glyph unicode="&#x2021;" glyph-name="daggerdbl" horiz-adv-x="489" d="M444 267H280V82H210V267H45v60H210V521H45v60H210V757h70V581H444V521H280V327H444V267Z"/>
<glyph unicode="&#xa7;" glyph-name="section" horiz-adv-x="610" d="M484 255q0 31-16 54t-48 40T317.5 386 220 416q-39-21-58-48.5T143 305q0-31 16-54t48.5-40T310 174t97-30q39 23 58 50.5T484 255ZM70 298q0 43 25.5 82.5T166 447q-27 20-41.5 49.5T110 561q0 70 53 112.5T302 716q58 0 107-18t91-54l-43-56q-34 33-73 49t-84 16q-54 0-84.5-23T185 567q0-26 13.5-46T241 485.5t114.5-41 124.5-49 58-56T557 263q0-43-25.5-82.5T462 114q26-20 40.5-50T517-1q0-69-54-112T321-156q-62 0-119 23T102-68L146-9q35-39 81.5-60.5T323-91q58 0 89 22T443-6q0 26-13.5 46T387 75.5t-115 41-125 49-58 56T70 298Z"/>
<glyph unicode="&#xb6;" glyph-name="paragraph" horiz-adv-x="700" d="M523-207V620H412V-207H344V237H309q-80 0-137.5 27.5t-88 78T53 462q0 70 32.5 119.5t92.5 75T318 682q30 0 65.5-0.5T445 681H590V-207H523Z"/>
<glyph unicode="^" glyph-name="asciicircum" horiz-adv-x="650" d="M478 351q-39 65-78.5 135.5T325 625h-1q-33-64-73-135T169 351H83L286 682h78L567 351H478Z"/>
<glyph unicode="~" glyph-name="asciitilde" horiz-adv-x="650" d="M68 236q0 63 15 105t45 62.5T203 424q36 0 68.5-16t75-60T409 292.5 449 281q26 0 40 13.5t20.5 41T516 408h66q0-63-15-105t-45-62.5T447 220q-36 0-68.5 16T303 296.5 240.5 352 201 363q-26 0-40-13.5t-20.5-41T134 236H68Z"/>
<glyph unicode="&apos;" glyph-name="quotesingle" horiz-adv-x="243" d="M90 449L81 730h81l-9-281H90Z"/>
<glyph unicode="&quot;" glyph-name="quotedbl" horiz-adv-x="436" d="M284 449l-9 281h79l-9-281H284ZM90 449L81 730h80l-9-281H90Z"/>
<glyph unicode="&amp;" glyph-name="ampersand" horiz-adv-x="764" d="M184 559q0-37 18.5-69.5T264 414q59 26 85 41.5T391.5 487t25 35 8.5 41q0 45-33.5 72.5T304 663q-56 0-88-28t-32-76ZM299 48q126 0 205 79-86 64-151 116.5T242 338q-62-34-88.5-69.5T127 188q0-65 46.5-102.5T299 48ZM50 182q0 65 34.5 113.5T197 383q-47 49-67.5 89T109 553q0 53 23.5 91.5t69 59.5T308 725q58 0 101.5-20t67-56T500 569q0-31-10.5-57.5t-31-48.5T407 421.5 310 371q45-40 104-86.5T548 184q28 45 42 103t14 126h72q0-78-19-146T602 144L753 36 709-20Q613 47 556 89 506 39 439.5 12.5T296-14Q185-14 117.5 40T50 182Z"/>
<glyph unicode="@" glyph-name="at" horiz-adv-x="1033" d="M625 303q0 66-27 96.5T513 430q-48 0-82.5-26T377 330 358 228q0-66 26-97t80-31q51 0 86.5 26t55 74T625 303Zm342 30q0-86-27.5-153.5T861 76.5 740 41q-53 0-82.5 21T623 125h-1q-28-41-70.5-62.5T456 41q-82 0-126.5 48T285 224q0 73 28.5 135T394 454.5 515 488q48 0 81.5-16T650 424h1l10 53h70L689 250q-11-55-8.5-88t17-47.5T745 100q48 0 82.5 28t53 81T899 330q0 97-43.5 173.5T732 621.5 546 663q-117 0-210.5-54.5T188.5 457 135 247q0-111 46-198T312-85.5 509-133q60 0 120.5 10T746-93l11-58q-60-19-123.5-29T506-190q-128 0-229 55T121 18.5 66 241q0 131 63.5 242T304 657t247 63q121 0 216-50T914.5 531.5 967 333Z"/>
<glyph unicode="&#xa9;" glyph-name="copyright" horiz-adv-x="879" d="M625 242q-26-55-74-85.5T443 126 337.5 152.5t-69.5 75T244 340q0 65 24 114.5t69.5 76T443 557t106-27 71-78l-53-32q-18 38-51.5 58.5T441 499q-39 0-67.5-18.5t-44-54T314 342q0-46 16-82.5t45.5-56T444 184q45 0 75.5 20.5T570 269l55-27Zm121 99q0 92-38 166T600.5 621.5 441 662q-92 0-162-40T171 508 133 341t38-166.5T278.5 60 439 19 600 59.5t108 114T746 341Zm68 3q0-109-48-196.5T632 10.5 438-39Q329-39 243.5 9.5T111.5 144 65 338t48 196T247.5 671.5 442 721q109 0 194-48.5t131.5-135T814 344Z"/>
<glyph unicode="&#xae;" glyph-name="registered" horiz-adv-x="709" d="M297 543q22-1 63-1 35 0 50 11t15 35q0 17-6.5 25.5t-20 12.5T362 630H297V543ZM426 389L354 497H297V389H244V675q67 0 124 0 38 0 63-10t37.5-29T481 591q0-32-19-54.5T409 504l82-115H426ZM575 527q0 63-28 115.5T468 725 354 755q-62 0-113-30t-79-82.5T134 527q0-65 29-117.5T242.5 328 354 299q63 0 114 30t79 82.5T575 527Zm57 1q0-76-36.5-140.5T495 286.5 353 250q-77 0-140 35.5t-99.5 99T77 526q0 76 36.5 140.5T214 767.5 356 804t141.5-36.5 99-99.5T632 528Z"/>
<glyph unicode="&#x2122;" glyph-name="trademark" horiz-adv-x="895" d="M399 682h89l91-217q6-14 12.5-33.5T605 389h1q6 21 12.5 40.5T632 465l93 217h89V314H756V443q0 66 0 111.5t2 79.5h-1q-4-18-11-36.5T730 559L625 314H582L478 559q-9 20-15.5 38T451 634h-2q2-34 2.5-79.5T452 443V314H399V682ZM153 631H28v51H334V631H212V314H153V631Z"/>
<glyph unicode="&#xb0;" glyph-name="degree" horiz-adv-x="413" d="M357 602q0-41-18.5-74T285 476t-80-19q-42 0-76 17.5T75.5 525 56 600q0 40 18.5 73t53 52T207 744q44 0 78.5-18.5t53-51T357 602Zm-65-1q0 39-23.5 63.5T206 689q-40 0-62.5-24.5T121 601q0-40 23-64.5T206 512q40 0 63 24.5T292 601Z"/>
<glyph unicode="&#xa4;" glyph-name="currency" horiz-adv-x="654" d="M454 322q0 66-34 105t-93 39q-61 0-94.5-39.5T199 322q0-66 34-105.5T327 177t93.5 40T454 322Zm69 3q0-71-33-121l102-98L545 59 447 161q-51-39-122-39-73 0-122 37L108 59 61 106l102 95q-33 47-33 118t34 121L61 539l47 47 98-103q53 38 123 38 71 0 120-36l96 101 46-47L490 443q33-48 33-118Z"/>
<glyph unicode="&#x20ac;" glyph-name="Euro" horiz-adv-x="720" d="M440 236H210q20-90 74.5-138T420 50q57 0 101.5 23.5T602 147l50-40Q606 45 548.5 15.5T418-14Q306-14 230.5 52T132 236H34v57h90q-2 30-2 47 0 34 2 50H34v57h98q25 117 102.5 183T421 696q70 0 126.5-28T647 585l-56-45q-33 46-76 69.5T420 633q-80 0-134.5-48.5T211 447H440V390H202q-2-16-2-49 0-18 2-48H440V236Z"/>
<glyph unicode="$" glyph-name="dollar" horiz-adv-x="664" d="M294-101V13q-66 9-120 38.5T75 133l47 52q44-53 101-82T343 74q69 0 111 32t42 84q0 30-14.5 52.5t-46 38-123 38T180 365t-60.5 59.5T100 508q0 72 53 117.5T294 676V788h67V674q58-9 100-30t84-61l-44-56q-41 44-88 65T313 613q-64 0-100.5-27T176 512q0-30 14.5-51.5t45.5-37T359 386t133.5-46.5 61-60.5T573 193q0-76-60-126.5T361 11V-101H294Z"/>
<glyph unicode="&#xa2;" glyph-name="cent" horiz-adv-x="566" d="M326 692V579q53-8 93.5-37T488 461l-63-34q-26 49-59 72t-78 23q-65 0-103-48T147 341q0-82 39.5-131T294 161q53 0 86 23t56 75l58-29q-23-55-64.5-86T326 103V-10H261V102q-88 10-138.5 73.5T72 339q0 102 51 166.5T261 580V692h65Z"/>
<glyph unicode="&#xa3;" glyph-name="sterling" horiz-adv-x="650" d="M576 0H80V55q64 47 89 82t25 79q0 35-12 77H71v59h94q-17 52-23.5 86.5T135 501q0 56 26.5 100.5T236 671t108 25q77 0 130.5-37T559 548l-65-34q-22 59-60 88t-92 29q-40 0-69.5-16t-45-45T212 503q0-42 15-91.5T245 352H430V293H261q10-45 10-73 0-45-21.5-83.5T187 68V66q142 2 226 2H576V0Z"/>
<glyph unicode="&#x192;" glyph-name="florin" horiz-adv-x="524" d="M442 322H270L244 111Q231 15 218.5-22.5T186.5-83t-49-34T68-128q-23 0-48.5 5T-24-110L-6-49q17-7 39.5-12T72-66q23 0 38 8.5t25.5 26 18.5 48T170 111l26 211H55v59H204l14 101q12 95 24.5 133t32 61 49 34T393 721q22 0 48-5t44-13l-18-61q-18 7-39.5 12T389 659q-23 0-38.5-8.5T325 624t-17.5-48T291 482L278 381H442V322Z"/>
<glyph unicode="&#xa5;" glyph-name="yen" horiz-adv-x="650" d="M289 0V91H121v57H289v89H121v57H289v38L26 682h95L232 527q60-81 97-130 36 49 95 130L533 682h91L361 332V294H529V237H361V148H529V91H361V0H289Z"/>
<glyph unicode="&#x20b4;" glyph-name="uni20B4" horiz-adv-x="650" d="M589 455V398H469q-33-30-91-61.5T304 296H589V239H232q-16-19-23.5-40T201 154q0-48 36-76.5T334 49q55 0 98 22t80 70l44-50Q513 39 455.5 12.5T328-14q-91 0-148 46.5T123 153q0 24 5.5 45.5T145 239H61v57H194q31 26 90 58t79 44H61v57H429q13 17 19.5 36.5T455 532q0 46-34.5 73.5T329 633q-46 0-87-20t-72-58l-43 52q37 42 92 65.5T334 696q89 0 143.5-45T532 534q0-22-4.5-41.5T514 455h75Z"/>
<glyph unicode="&#x20b8;" glyph-name="uni20B8" horiz-adv-x="650" d="M602 456H362V0H287V456H48v64H602V456Zm0 226V617H48v65H602Z"/>
<glyph unicode="&#xe3f;" glyph-name="uni0E3F" horiz-adv-x="650" d="M350 788V681q73-4 118.5-24.5t71-57T565 512q0-58-29-98t-87-62q67-14 102-56.5T586 188q0-91-57.5-137T350 0V-110H283V-1Q152 0 100 0V682q52 0 183 1V788h67ZM175 64q53-1 141-1 103 0 147.5 30T508 186q0 46-20.5 74.5T427 302 308 315H175V64Zm0 313H312q69 0 103 14t53.5 41.5T488 504q0 39-23 66.5t-62.5 38T284 619q-67 0-109-1V377Z"/>
<glyph unicode="&#x20ae;" glyph-name="uni20AE" horiz-adv-x="650" d="M541 477V417L362 373V271l179 44V255L362 211V0H287V193L108 149v60l179 44V355L108 312v60l179 43V616H39v66H611V616H362V433l179 44Z"/>
<glyph unicode="&#x20ba;" glyph-name="uni20BA" horiz-adv-x="650" d="M467 516V458L243 400V303l224 58V303L243 245V61q19-1 29-1 97 0 164.5 16T568 132V58Q508 25 436.5 10.5T267-4q-38 0-99 4V225L57 197v58l111 28v97L57 352v58l111 28V682h75V458l224 58Z"/>
<glyph unicode="&#x20bd;" glyph-name="uni20BD" horiz-adv-x="650" d="M56 123v59h94v98H56v61h94V682q114 1 210 1 78 0 133.5-24t83-69T604 482q0-62-30-108t-87.5-70T353 280H225V182H455V123H225V0H150V123H56ZM525 480q0 46-18.5 77T451 604t-93 16q-88 0-133-1V341H356q56 0 93.5 15.5t56.5 46T525 480Z"/>
<glyph unicode="&#x2116;" glyph-name="uni2116" horiz-adv-x="1150" d="M925 353q-77 0-121.5 47T759 524q0 74 46.5 123T927 696q76 0 120.5-46T1092 527q0-76-46-125T925 353Zm1 55q46 0 72 31.5t26 86.5q0 53-26 84.5T926 642q-47 0-72.5-31.5T828 525t26-85.5T926 408ZM775 237v56h302V237H775ZM559 0L307 393Q193 570 178 597h-2q4-134 4-361V0H110V682h99L456 301q56-86 128-205h1q-1 58-2 166t-1 195V682h70V0H559Z"/>
<glyph unicode="#" glyph-name="numbersign" horiz-adv-x="700" d="M432 233l42 216H268L225 233H432ZM113 0l35 174H34v59H159l42 216H87v59H213l34 174h66L280 508H485l35 174h66L552 508H666V449H541L498 233H613V174H486L453 0H386l34 174H214L180 0H113Z"/>
<glyph unicode="0" glyph-name="zero" horiz-adv-x="678" d="M600 342q0-113-32-193.5T477 27 338-14q-85 0-143 41.5t-87.5 121T78 340q0 113 32 193.5T200.5 655 340 696q85 0 143-41.5t87.5-121T600 342Zm-79-1q0 145-45.5 218T339 632 202.5 559 157 341t45.5-217.5T339 51t136.5 72.5T521 341Z"/>
<glyph unicode="1" glyph-name="one" horiz-adv-x="437" d="M242 564q-31-29-76-42.5T58 508v62q56 0 95.5 13t63 38T250 686h67V0H242V564Z"/>
<glyph unicode="2" glyph-name="two" horiz-adv-x="621" d="M552 0H64V68Q190 172 243.5 217t88 77T388 351t35 47 19.5 44.5T449 493q0 42-18 74t-51.5 48.5T300 632q-43 0-75-17t-50-47-18-67q0-21 3.5-43t9.5-38H94q-7 15-10.5 35T80 498q0 56 28.5 101t80 71T304 696q69 0 119.5-24T501 602t27-105q0-36-6-62.5T503 384t-34.5-50-54-56.5-82-72T163 68V67q84 1 218 1H552V0Z"/>
<glyph unicode="3" glyph-name="three" horiz-adv-x="639" d="M123 209q14-78 62.5-119T313 49q75 0 117.5 37T473 185q0 64-44 98.5T307 318H207v61h68q59 0 93.5 11T426 424q17 16 23.5 36.5T456 510q0 56-41 89.5T308 633q-65 0-105-34.5T148 493L75 509q23 95 81.5 141T311 696q66 0 117.5-23T507 608t27-94q0-58-31-98t-92-62v-1q68-12 105-54.5T553 190q0-58-31-105.5t-85.5-73T311-14Q201-14 134.5 37T49 186l74 23Z"/>
<glyph unicode="4" glyph-name="four" horiz-adv-x="633" d="M384 0V175H43v60L354 682H457V238H580V175H457V0H384ZM119 235q170 3 265 3V439q0 97 3 179h-1L119 235Z"/>
<glyph unicode="5" glyph-name="five" horiz-adv-x="612" d="M507 617H187L169 394h1q21 29 62.5 45.5T322 456q70 0 122.5-29.5t80-82.5T552 224q0-70-31.5-124.5t-87-84T307-14q-86 0-149 38T55 137l66 37q31-62 77.5-93T308 50q49 0 86.5 20.5t58 59.5T473 221t-20 91.5-57 60T312 393q-53 0-93-24t-55-63H97l30 376H507V617Z"/>
<glyph unicode="6" glyph-name="six" horiz-adv-x="636" d="M488 527q-25 55-62.5 80.5T333 633q-93 0-136-79.5T155 304q20 57 71 89.5T347 426q105 0 164-56.5T570 216q0-99-66-164.5T334-14Q212-14 145 73.5T78 324q0 179 67.5 275.5T336 696q79 0 131.5-32.5T555 560l-67-33ZM341 364q-75 0-117.5-42.5T181 209 224 94 335 49q72 0 114 46t42 119q0 71-40 110.5T341 364Z"/>
<glyph unicode="7" glyph-name="seven" horiz-adv-x="585" d="M180 0q9 108 40 209t86.5 202T445 617H56v65H530V624Q446 521 389.5 419T301 213.5 260 0H180Z"/>
<glyph unicode="8" glyph-name="eight" horiz-adv-x="656" d="M489 509q0 57-43.5 90.5T328 633 210.5 599.5 167 509q0-59 43.5-92T328 384q75 0 118 33.5T489 509Zm22-323q0 64-49.5 100.5T327 323q-84 0-133-36.5T145 186 194.5 85.5 328 49 461.5 86 511 186Zm78 3q0-60-33-106.5T463.5 11 326-14 189.5 9.5 99 78.5 67 183q0 62 35 106.5T203 356v1q-54 18-83.5 57.5T90 509q0 53 29.5 96T204 672t126 24q72 0 125.5-23.5t82-66T566 511q0-52-29.5-92T453 359v-2q66-19 101-62.5T589 189Z"/>
<glyph unicode="9" glyph-name="nine" horiz-adv-x="636" d="M140 159q25-58 65-84t99-26q93 0 136 79.5T482 377q-20-56-71.5-88.5T290 256q-106 0-164.5 56.5T67 466q0 99 66 164.5T303 696q122 0 189-87.5T559 358q0-179-67.5-275.5T301-14q-84 0-139 34T72 126l68 33ZM296 318q75 0 117.5 42.5T456 473 413 588 302 633q-72 0-114-46T146 468q0-72 39.5-111T296 318Z"/>
<glyph unicode="&#x2070;" glyph-name="zero.superior" horiz-adv-x="521" d="M442 559q0-107-48.5-168T259 330q-87 0-134 59.5T78 557q0 107 48.5 168T262 786t133.5-59.5T442 559Zm-68-1q0 83-29 127.5T260 730q-55 0-84-44.5T147 558t29-127.5T260 386q56 0 85 44.5T374 558Z"/>
<glyph unicode="&#xb9;" glyph-name="onesuperior" horiz-adv-x="354" d="M189 338V678q-21-17-53-25.5T58 644v58q64 0 98.5 19T198 780h59V338H189Z"/>
<glyph unicode="&#xb2;" glyph-name="twosuperior" horiz-adv-x="502" d="M427 338H84v63q77 48 126.5 82.5t79 61.5T330 596t11 51q0 40-24 62.5T248 732q-44 0-68-20t-24-58q0-27 9-51H97q-10 18-10 50 0 63 44.5 98T252 786q75 0 118-37t43-100q0-34-13.5-64T357 526t-73.5-61T175 396v-1q49 1 123 1H427V338Z"/>
<glyph unicode="&#xb3;" glyph-name="threesuperior" horiz-adv-x="499" d="M136 472q16-88 120-88 47 0 73.5 21T356 463q0 38-25 55.5T254 536H188v52h48q37 0 55.5 5.5T323 611q18 18 18 53 0 32-24 50.5T250 733t-68-19.5T149 654L84 668q12 60 54.5 89T253 786q73 0 116-32t43-86q0-39-17.5-63T341 568v-1q87-21 87-107 0-57-48-93.5T255 330q-80 0-126 31T70 457l66 15Z"/>
<glyph unicode="&#x2074;" glyph-name="four.superior" horiz-adv-x="484" d="M120 488q112 3 164 3V609q0 83 2 115h-2L120 488ZM284 338v96H53v60L251 778H351V491h80V434H351V338H284Z"/>
<glyph unicode="&#x2081;" glyph-name="uni2081" horiz-adv-x="354" d="M189-96V244q-21-17-53-25.5T58 210v58q64 0 98.5 19T198 346h59V-96H189Z"/>
<glyph unicode="&#x2082;" glyph-name="uni2082" horiz-adv-x="502" d="M427-96H84v63q77 48 126.5 82.5t79 61.5T330 162t11 51q0 40-24 62.5T248 298q-44 0-68-20t-24-58q0-27 9-51H97q-10 18-10 50 0 63 44.5 98T252 352q75 0 118-37t43-100q0-34-13.5-64T357 92 283.5 31 175-38v-1q49 1 123 1H427V-96Z"/>
<glyph unicode="&#x2083;" glyph-name="uni2083" horiz-adv-x="499" d="M136 38q16-88 120-88 47 0 73.5 21T356 29q0 38-25 55.5T254 102H188v52h48q37 0 55.5 5.5T323 177q18 18 18 53 0 32-24 50.5T250 299t-68-19.5T149 220L84 234q12 60 54.5 89T253 352q73 0 116-32t43-86q0-39-17.5-63T341 134v-1q87-21 87-107 0-57-48-93.5T255-104q-80 0-126 31T70 23l66 15Z"/>
<glyph unicode="&#x2084;" glyph-name="uni2084" horiz-adv-x="484" d="M120 54q112 3 164 3V175q0 83 2 115h-2L120 54ZM284-96V0H53V60L251 344H351V57h80V0H351V-96H284Z"/>
<glyph unicode="&#x2044;" glyph-name="fraction" horiz-adv-x="391" d="M506 778L-39-96h-75L430 778h76Z"/>
<glyph unicode="&#xbd;" glyph-name="onehalf" horiz-adv-x="980" d="M189 338V678q-21-17-53-25.5T58 644v58q64 0 98.5 19T198 780h59V338H189ZM744 778L199-96H124L668 778h76ZM905-96H562v63q77 48 126.5 82.5t79 61.5T808 162t11 51q0 40-24 62.5T726 298q-44 0-68-20t-24-58q0-27 9-51H575q-10 18-10 50 0 63 44.5 98T730 352q75 0 118-37t43-100q0-34-13.5-64T835 92 761.5 31 653-38v-1q49 1 123 1H905V-96Z"/>
<glyph unicode="&#xbc;" glyph-name="onequarter" horiz-adv-x="936" d="M189 338V678q-21-17-53-25.5T58 644v58q64 0 98.5 19T198 780h59V338H189ZM744 778L199-96H124L668 778h76ZM572 54q112 3 164 3V175q0 83 2 115h-2L572 54ZM736-96V0H505V60L703 344H803V57h80V0H803V-96H736Z"/>
<glyph unicode="&#xbe;" glyph-name="threequarters" horiz-adv-x="1060" d="M136 472q16-88 120-88 47 0 73.5 21T356 463q0 38-25 55.5T254 536H188v52h48q37 0 55.5 5.5T323 611q18 18 18 53 0 32-24 50.5T250 733t-68-19.5T149 654L84 668q12 60 54.5 89T253 786q73 0 116-32t43-86q0-39-17.5-63T341 568v-1q87-21 87-107 0-57-48-93.5T255 330q-80 0-126 31T70 457l66 15ZM869 778L324-96H249L793 778h76ZM697 54q112 3 164 3V175q0 83 2 115h-2L697 54ZM861-96V0H630V60L828 344H928V57h80V0H928V-96H861Z"/>
<glyph unicode="%" glyph-name="percent" horiz-adv-x="1100" d="M442 559q0-107-48.5-168T259 330q-87 0-134 59.5T78 557q0 107 48.5 168T262 786t133.5-59.5T442 559Zm-68-1q0 83-29 127.5T260 730q-55 0-84-44.5T147 558t29-127.5T260 386q56 0 85 44.5T374 558ZM860 778L315-96H240L784 778h76Zm162-653q0-107-48.5-168T839-104q-87 0-134 59.5T658 123q0 107 48.5 168T842 352t133.5-59.5T1022 125Zm-68-1q0 83-29 127.5T840 296q-55 0-84-44.5T727 124 756-3.5 840-48q56 0 85 44.5T954 124Z"/>
<glyph unicode="&#x2030;" glyph-name="perthousand" horiz-adv-x="1582" d="M442 559q0-107-48.5-168T259 330q-87 0-134 59.5T78 557q0 107 48.5 168T262 786t133.5-59.5T442 559Zm-68-1q0 83-29 127.5T260 730q-55 0-84-44.5T147 558t29-127.5T260 386q56 0 85 44.5T374 558ZM860 778L315-96H240L784 778h76Zm162-653q0-107-48.5-168T839-104q-87 0-134 59.5T658 123q0 107 48.5 168T842 352t133.5-59.5T1022 125Zm-68-1q0 83-29 127.5T840 296q-55 0-84-44.5T727 124 756-3.5 840-48q56 0 85 44.5T954 124Zm549 1q0-107-48.5-168T1320-104q-87 0-134 59.5T1139 123q0 107 48.5 168T1323 352t133.5-59.5T1503 125Zm-68-1q0 83-29 127.5T1321 296q-55 0-84-44.5T1208 124 1237-3.5 1321-48q56 0 85 44.5T1435 124Z"/>
<glyph unicode="+" glyph-name="plus" horiz-adv-x="650" d="M291 60V292H63v60H291V582h68V352H587V292H359V60H291Z"/>
<glyph unicode="&#x2212;" glyph-name="minus" horiz-adv-x="650" d="M587 292H63v60H587V292Z"/>
<glyph unicode="&#xd7;" glyph-name="multiply" horiz-adv-x="650" d="M512 89L325 278 137 89 92 135 281 322 92 509l45 46L325 366 512 555l46-46L369 322 558 135 512 89Z"/>
<glyph unicode="&#xf7;" glyph-name="divide" horiz-adv-x="650" d="M279 463V589h92V463H279ZM587 292H63v60H587V292ZM279 55V181h92V55H279Z"/>
<glyph unicode="=" glyph-name="equal" horiz-adv-x="650" d="M577 385H73v60H577V385Zm0-186H73v60H577V199Z"/>
<glyph unicode="&#x2260;" glyph-name="notequal" horiz-adv-x="650" d="M142 27l86 172H73v60H258l62 126H73v60H350l81 165h72L420 445H577V385H390L327 259H577V199H297L214 27H142Z"/>
<glyph unicode="&#x2248;" glyph-name="approxequal" horiz-adv-x="650" d="M433 160q-30 0-56.5 7.5t-64 30.5T255 227t-41 6q-28 0-55.5-13.5T97 175L60 220q37 37 76.5 56.5T217 296q30 0 56.5-7.5t64-30.5T395 229t41-6q28 0 55 13t62 44l37-44q-39-38-78-57t-79-19Zm0 188q-30 0-56.5 7.5t-64 30.5T255 415t-41 6q-28 0-55-13T97 364L60 408q38 38 77.5 57T217 484q30 0 56.5-7.5t64-30.5T395 417t41-6q28 0 55.5 13.5T553 469l37-45q-39-38-78-57t-79-19Z"/>
<glyph unicode="&lt;" glyph-name="less" horiz-adv-x="650" d="M577 86L73 285v74L577 558V485Q383 408 295.5 375T153 324v-2q55-18 142.5-51.5T577 161V86Z"/>
<glyph unicode="&gt;" glyph-name="greater" horiz-adv-x="650" d="M73 558L577 359V285L73 86v73q193 77 281 110t143 51v2q-55 18-142.5 51.5T73 483v75Z"/>
<glyph unicode="&#xb1;" glyph-name="plusminus" horiz-adv-x="650" d="M577 0H73V60H577V0ZM291 184V404H73v60H291V682h68V464H577V404H359V184H291Z"/>
<glyph unicode="&#x2264;" glyph-name="lessequal" horiz-adv-x="650" d="M577 197L73 396v74L577 669V596Q383 519 295.5 486T153 435v-2q55-18 142.5-51.5T577 272V197ZM577 0H73V60H577V0Z"/>
<glyph unicode="&#x2265;" glyph-name="greaterequal" horiz-adv-x="650" d="M73 669L577 470V396L73 197v73q194 77 281.5 110T497 431v2q-55 18-142.5 51.5T73 594v75ZM577 0H73V60H577V0Z"/>
<glyph unicode="&#xac;" glyph-name="logicalnot" horiz-adv-x="650" d="M497 89V292H63v60H565V89H497Z"/>
<glyph unicode="&#x221e;" glyph-name="infinity" horiz-adv-x="973" d="M253 180q31 0 59.5 13.5T371 234t75 86q-46 60-75 88.5t-58.5 42T253 464q-61 0-97.5-39T119 322t36.5-103T253 180ZM720 464q-31 0-60-13.5t-59-41T527 324q47-62 76-89.5t57.5-41T720 180q61 0 97.5 39T854 322 817.5 425 720 464ZM249 120q-89 0-146.5 55.5T45 319q0 91 59 148t152 57q60 0 113.5-33T489 373q67 85 121 118t114 33q89 0 146.5-55.5T928 325q0-92-59-148.5T717 120q-61 0-114.5 33T484 270q-67-84-121.5-117T249 120Z"/>
<glyph unicode="&#x2202;" glyph-name="partialdiff" horiz-adv-x="562" d="M270-12q-68 0-117.5 31t-76 88T50 236q0 77 27 134.5T154.5 459 272 490q60 0 107.5-30.5T447 382h1q-5 33-10 66.5t-13.5 59T403 555t-31 40q-21 20-50.5 31.5T257 638q-68 0-134-23v64q59 19 137 19 84 0 140.5-39t84-119T512 336q0-114-27-191.5t-81-117T270-12Zm3 60q45 0 80.5 23.5t55 67.5T428 240 409 340.5 355 407t-79 23q-46 0-80.5-22.5t-52.5-66T125 238q0-55 18-99t52-67.5T273 48Z"/>
<glyph unicode="&#x222b;" glyph-name="integral" horiz-adv-x="338" d="M82-217q-23 0-47 5T-6-198l9 61q16-8 36-13.5T75-156q30 0 43.5 18.5T132-82V651q0 67 31.5 101T255 786q22 0 45.5-4.5T344 768l-9-62q-19 8-38 13.5T263 725q-30 0-43.5-18T206 651V-82q0-67-31.5-101T82-217Z"/>
<glyph unicode="&#x221a;" glyph-name="radical" horiz-adv-x="702" d="M264-96L117 284H13v60H174l64-170q34-87 46-123.5T303-12h2q7 29 25.5 80.5T398 253L593 778h81L337-96H264Z"/>
<glyph unicode="&#x220f;" glyph-name="product" horiz-adv-x="803" d="M587-207V713H217V-207H142V713H11v67H792V713H662V-207H587Z"/>
<glyph unicode="&#x2211;" glyph-name="summation" horiz-adv-x="654" d="M40-142L347 298 56 717v63H600V714q-97 0-241 1.5T150 719L438 304 126-144q63 2 212 3.5T615-139v-67H40v64Z"/>
<glyph unicode="&#x25ca;" glyph-name="lozenge" horiz-adv-x="648" d="M326 63q10 21 40.5 70.5T498 340Q400 492 367 544.5T324 619h-2q-10-21-41-70.5T150 342q98-152 131-204.5T324 63h2ZM286 0L68 341 285 682h77L580 341 363 0H286Z"/>
<glyph unicode="&#x2113;" glyph-name="afii61289" horiz-adv-x="452" d="M255-12q-64 0-101 41T102 157L52 131 23 185l71 38q-4 52-4 129 0 129 16 209t49.5 117.5T246 716q42 0 69.5-22t41-65.5T370 522q0-109-50-191T168 193q8-76 30.5-109.5T262 50q21 0 42.5 9.5T346 88l30-48Q349 15 318 1.5T255-12h0Zm42 531q0 72-14 104.5T239 656q-29 0-45-32.5T170 524t-8-172q0-65 1-93 65 38 99.5 104.5T297 519Z"/>
<glyph unicode="&#x212e;" glyph-name="estimated" horiz-adv-x="930" d="M466-14q-89 0-163 25T176 82 94.5 193.5 66 340 95.5 486.5t83 112 127 72T467 696t161-25 125.5-70.5T835 490t29-145q0-4 0-8.5t-1-8.5H223V154q0-24 6.5-35.5T252 95q36-27 90.5-43.5T469 35q86 0 162 27t128 79h76q-29-37-67.5-65.5T681.5 27 579.5-3.5 466-14ZM706 373V537q0 20-5 29.5T685 584q-44 33-99 48.5T465 648q-65 0-121.5-15.5T244 583q-10-8-15.5-19T223 531V373H706Z"/>
<glyph unicode="&#xf8ff;" glyph-name="uniF8FF" horiz-adv-x="821" d="M524 304H372v76H524v76H372v76H600V152H524V304ZM220 532h76V228H448V152H220V532ZM68 684H752V0H68V684ZM144 76H676V608H144V76Z"/>
</font>
</defs>
</svg>
