<?xml version="1.0" standalone="no"?><!DOCTYPE svg PUBLIC "-//W3C//DTD SVG 1.0//EN" "http://www.w3.org/TR/2001/REC-SVG-20010904/DTD/svg10.dtd"><svg xmlns="http://www.w3.org/2000/svg" width="100%" height="100%">
<defs>
<font id="VolvoNovumWebLatin-SemiLightItalic" horiz-adv-x="586"><font-face
    font-family="Volvo Novum Web Latin SemiLight Italic"
    units-per-em="1000"
    panose-1="2 11 4 3 4 5 2 13 2 4"
    ascent="980"
    descent="-220"
    alphabetic="0" />
<missing-glyph horiz-adv-x="1079"/>
<glyph unicode="" glyph-name="nonmarkingreturn" horiz-adv-x="255"/>
<glyph unicode=" " glyph-name="space" horiz-adv-x="254"/>
<glyph unicode="A" glyph-name="A" horiz-adv-x="643" d="M471 682L565 0H484L460 190H161L43 0H-43L392 682h79Zm-56-72h-1q-17-30-53.5-92T289 400L196 249H454L436 395q-7 63-13.5 121.5T415 610h0Z"/>
<glyph unicode="a" glyph-name="a" horiz-adv-x="516" d="M366 232q-69 0-117.5-6T169 208t-48-30.5T97 131Q86 90 107 67.5T177 45q40 0 78 21t66 57 37 74l8 35Zm72 4Q406 110 393.5 56T381 0H312l19 71h-1Q296 30 251.5 9T154-12Q80-12 43.5 29T23 134q10 41 35.5 69T127 249.5 232.5 277 380 286l9 37q9 36 2.5 61t-29 37T304 433q-44 0-83.5-20T134 346L95 391q52 51 106 75.5T316 491q58 0 95-20.5t49.5-59T460 322l-22-86Z"/>
<glyph unicode="&#xc0;" glyph-name="Agrave" horiz-adv-x="643" d="M471 682L565 0H484L460 190H161L43 0H-43L392 682h79Zm-56-72h-1q-17-30-53.5-92T289 400L196 249H454L436 395q-7 63-13.5 121.5T415 610h0Zm7 139L329 881H432l59-132H422Z"/>
<glyph unicode="&#xe0;" glyph-name="agrave" horiz-adv-x="516" d="M366 232q-69 0-117.5-6T169 208t-48-30.5T97 131Q86 90 107 67.5T177 45q40 0 78 21t66 57 37 74l8 35Zm72 4Q406 110 393.5 56T381 0H312l19 71h-1Q296 30 251.5 9T154-12Q80-12 43.5 29T23 134q10 41 35.5 69T127 249.5 232.5 277 380 286l9 37q9 36 2.5 61t-29 37T304 433q-44 0-83.5-20T134 346L95 391q52 51 106 75.5T316 491q58 0 95-20.5t49.5-59T460 322l-22-86ZM237 692h94l50-141H317L237 692Z"/>
<glyph unicode="&#xc1;" glyph-name="Aacute" horiz-adv-x="643" d="M471 682L565 0H484L460 190H161L43 0H-43L392 682h79Zm-56-72h-1q-17-30-53.5-92T289 400L196 249H454L436 395q-7 63-13.5 121.5T415 610h0ZM396 749L523 881H634L473 749H396Z"/>
<glyph unicode="&#xe1;" glyph-name="aacute" horiz-adv-x="516" d="M366 232q-69 0-117.5-6T169 208t-48-30.5T97 131Q86 90 107 67.5T177 45q40 0 78 21t66 57 37 74l8 35Zm72 4Q406 110 393.5 56T381 0H312l19 71h-1Q296 30 251.5 9T154-12Q80-12 43.5 29T23 134q10 41 35.5 69T127 249.5 232.5 277 380 286l9 37q9 36 2.5 61t-29 37T304 433q-44 0-83.5-20T134 346L95 391q52 51 106 75.5T316 491q58 0 95-20.5t49.5-59T460 322l-22-86ZM293 551L413 692H515L364 551H293Z"/>
<glyph unicode="&#xc2;" glyph-name="Acircumflex" horiz-adv-x="643" d="M471 682L565 0H484L460 190H161L43 0H-43L392 682h79Zm-56-72h-1q-17-30-53.5-92T289 400L196 249H454L436 395q-7 63-13.5 121.5T415 610h0Zm29 272h72l87-132H531l-61 75-98-75H293L444 882Z"/>
<glyph unicode="&#xe2;" glyph-name="acircumflex" horiz-adv-x="516" d="M366 232q-69 0-117.5-6T169 208t-48-30.5T97 131Q86 90 107 67.5T177 45q40 0 78 21t66 57 37 74l8 35Zm72 4Q406 110 393.5 56T381 0H312l19 71h-1Q296 30 251.5 9T154-12Q80-12 43.5 29T23 134q10 41 35.5 69T127 249.5 232.5 277 380 286l9 37q9 36 2.5 61t-29 37T304 433q-44 0-83.5-20T134 346L95 391q52 51 106 75.5T316 491q58 0 95-20.5t49.5-59T460 322l-22-86ZM331 692h87l64-141H417l-52 90-98-90H197L331 692Z"/>
<glyph unicode="&#xc3;" glyph-name="Atilde" horiz-adv-x="643" d="M471 682L565 0H484L460 190H161L43 0H-43L392 682h79Zm-56-72h-1q-17-30-53.5-92T289 400L196 249H454L436 395q-7 63-13.5 121.5T415 610h0ZM395 818q-19 0-31.5-14.5T340 755H279q16 60 48.5 91.5T407 878q21 0 39.5-8.5t39.5-29T515.5 815t17.5-5q19 0 32 15t23 48h60q-15-60-47.5-91.5T521 750q-21 0-39.5 8.5t-39.5 29T412.5 813 395 818h0Z"/>
<glyph unicode="&#xe3;" glyph-name="atilde" horiz-adv-x="516" d="M366 232q-69 0-117.5-6T169 208t-48-30.5T97 131Q86 90 107 67.5T177 45q40 0 78 21t66 57 37 74l8 35Zm72 4Q406 110 393.5 56T381 0H312l19 71h-1Q296 30 251.5 9T154-12Q80-12 43.5 29T23 134q10 41 35.5 69T127 249.5 232.5 277 380 286l9 37q9 36 2.5 61t-29 37T304 433q-44 0-83.5-20T134 346L95 391q52 51 106 75.5T316 491q58 0 95-20.5t49.5-59T460 322l-22-86ZM298 625q-19 0-31-13.5T242 563H186q14 58 44.5 88T307 681q20 0 36-8t33.5-28.5 24.5-25 15-4.5q18 0 30 13.5T471 677h56q-14-59-44-88.5T407 559q-19 0-35.5 8T337 595.5t-25 25T298 625h0Z"/>
<glyph unicode="&#xc4;" glyph-name="Adieresis" horiz-adv-x="643" d="M471 682L565 0H484L460 190H161L43 0H-43L392 682h79Zm-56-72h-1q-17-30-53.5-92T289 400L196 249H454L436 395q-7 63-13.5 121.5T415 610h0ZM525 761l28 112h76L600 761H525Zm-223 0l28 112h76L377 761H302Z"/>
<glyph unicode="&#xe4;" glyph-name="adieresis" horiz-adv-x="516" d="M366 232q-69 0-117.5-6T169 208t-48-30.5T97 131Q86 90 107 67.5T177 45q40 0 78 21t66 57 37 74l8 35Zm72 4Q406 110 393.5 56T381 0H312l19 71h-1Q296 30 251.5 9T154-12Q80-12 43.5 29T23 134q10 41 35.5 69T127 249.5 232.5 277 380 286l9 37q9 36 2.5 61t-29 37T304 433q-44 0-83.5-20T134 346L95 391q52 51 106 75.5T316 491q58 0 95-20.5t49.5-59T460 322l-22-86ZM399 567l28 113h71L470 567H399Zm-184 0l28 113h71L286 567H215Z"/>
<glyph unicode="&#x100;" glyph-name="Amacron" horiz-adv-x="643" d="M471 682L565 0H484L460 190H161L43 0H-43L392 682h79Zm-56-72h-1q-17-30-53.5-92T289 400L196 249H454L436 395q-7 63-13.5 121.5T415 610h0ZM604 781H307l16 62H620l-16-62Z"/>
<glyph unicode="&#x101;" glyph-name="amacron" horiz-adv-x="516" d="M366 232q-69 0-117.5-6T169 208t-48-30.5T97 131Q86 90 107 67.5T177 45q40 0 78 21t66 57 37 74l8 35Zm72 4Q406 110 393.5 56T381 0H312l19 71h-1Q296 30 251.5 9T154-12Q80-12 43.5 29T23 134q10 41 35.5 69T127 249.5 232.5 277 380 286l9 37q9 36 2.5 61t-29 37T304 433q-44 0-83.5-20T134 346L95 391q52 51 106 75.5T316 491q58 0 95-20.5t49.5-59T460 322l-22-86Zm44 353H213l15 58H497l-15-58Z"/>
<glyph unicode="&#x102;" glyph-name="Abreve" horiz-adv-x="643" d="M471 682L565 0H484L460 190H161L43 0H-43L392 682h79Zm-56-72h-1q-17-30-53.5-92T289 400L196 249H454L436 395q-7 63-13.5 121.5T415 610h0ZM626 884q-10-45-32-76t-57.5-47T454 745q-49 0-80 17.5t-40.5 49T338 884h59q-8-41 7.5-59.5T461 806q42 0 67.5 19T565 884h61Z"/>
<glyph unicode="&#x103;" glyph-name="abreve" horiz-adv-x="516" d="M366 232q-69 0-117.5-6T169 208t-48-30.5T97 131Q86 90 107 67.5T177 45q40 0 78 21t66 57 37 74l8 35Zm72 4Q406 110 393.5 56T381 0H312l19 71h-1Q296 30 251.5 9T154-12Q80-12 43.5 29T23 134q10 41 35.5 69T127 249.5 232.5 277 380 286l9 37q9 36 2.5 61t-29 37T304 433q-44 0-83.5-20T134 346L95 391q52 51 106 75.5T316 491q58 0 95-20.5t49.5-59T460 322l-22-86Zm70 452q-7-43-29-73.5T422.5 569 344 554t-72.5 16-37 46 3.5 72h55q-5-29 0-45.5t19.5-24T351 611q27 0 47 9t33.5 26T453 688h55Z"/>
<glyph unicode="&#xc5;" glyph-name="Aring" horiz-adv-x="643" d="M471 682L565 0H484L460 190H161L43 0H-43L392 682h79Zm-56-72h-1q-17-30-53.5-92T289 400L196 249H454L436 395q-7 63-13.5 121.5T415 610h0ZM515 834q5 20-3.5 34T481 882q-21 0-36-13.5T424 834q-5-21 3.5-34T458 787t37 13.5T515 834Zm55-7q-9-37-41.5-62T449 740q-49 0-70.5 29T369 842q9 37 41 61.5T489 928q49 0 70.5-28.5T570 827Z"/>
<glyph unicode="&#xe5;" glyph-name="aring" horiz-adv-x="516" d="M366 232q-69 0-117.5-6T169 208t-48-30.5T97 131Q86 90 107 67.5T177 45q40 0 78 21t66 57 37 74l8 35Zm72 4Q406 110 393.5 56T381 0H312l19 71h-1Q296 30 251.5 9T154-12Q80-12 43.5 29T23 134q10 41 35.5 69T127 249.5 232.5 277 380 286l9 37q9 36 2.5 61t-29 37T304 433q-44 0-83.5-20T134 346L95 391q52 51 106 75.5T316 491q58 0 95-20.5t49.5-59T460 322l-22-86ZM406 641q6 21-2 34.5T374 689t-38-13.5T315 641q-4-20 4.5-33.5T349 594q22 0 37 13.5T406 641Zm57-3q-10-40-42-65t-79-25q-49 0-71 28t-12 70q11 40 42.5 65T380 736q49 0 71.5-28T463 638Z"/>
<glyph unicode="&#x1fa;" glyph-name="Aringacute" horiz-adv-x="643" d="M471 682L565 0H484L460 190H161L43 0H-43L392 682h79Zm-56-72h-1q-17-30-53.5-92T289 400L196 249H454L436 395q-7 63-13.5 121.5T415 610h0Zm20 265L543 980H654L511 875H435Zm54-132q6 21-2 34t-30 13q-21 0-35-13t-20-33q-5-20 3.5-33T435 698t35.5 13T489 743Zm57-3q-9-39-40.5-63T426 653q-49 0-69.5 27T345 748q9 39 40.5 63T465 835q49 0 70.5-27T546 740Z"/>
<glyph unicode="&#x1fb;" glyph-name="aringacute" horiz-adv-x="516" d="M366 232q-69 0-117.5-6T169 208t-48-30.5T97 131Q86 90 107 67.5T177 45q40 0 78 21t66 57 37 74l8 35Zm72 4Q406 110 393.5 56T381 0H312l19 71h-1Q296 30 251.5 9T154-12Q80-12 43.5 29T23 134q10 41 35.5 69T127 249.5 232.5 277 380 286l9 37q9 36 2.5 61t-29 37T304 433q-44 0-83.5-20T134 346L95 391q52 51 106 75.5T316 491q58 0 95-20.5t49.5-59T460 322l-22-86ZM359 767L472 884H575L430 767H359Zm46-139q5 20-3.5 33.5T371 675t-36.5-13T314 628q-5-21 3.5-34T348 581t36.5 13T405 628Zm55-4q-9-39-40.5-64T341 535q-49 0-70.5 28T259 632q9 39 40.5 64T379 721t70-27.5T460 624Z"/>
<glyph unicode="&#x104;" glyph-name="Aogonek" horiz-adv-x="643" d="M196 249H454l-10 86q-15 125-21 185.5T415 610h-1q-17-31-58.5-101T250 337l-54-88ZM517-205q-9-5-24-7t-30-2q-30 0-51 6t-32 19-11 33q0 34 30 73.5T489 0h-5L461 190H161L43 0H-43L392 682h79L565 0q-56-43-88-81t-32-61q0-9 8-12.5t26-3.5h51l-13-47Z"/>
<glyph unicode="&#x105;" glyph-name="aogonek" horiz-adv-x="516" d="M366 232q-69 0-117.5-6T169 208t-48-30.5T97 131Q86 90 107 67.5T177 45q40 0 78 21t66 57 37 74l8 35ZM383 0q-65-56-91-88.5T266-142q0-10 8-14.5t25-4.5h50l-11-45q-10-4-25.5-6T284-214q-31 0-51 6.5T204-188t-9 32q0 34 27.5 70.5T315 4l16 67h-1Q296 30 251.5 9T154-12Q80-12 43.5 29T23 134q10 41 35.5 69T127 249.5 232.5 277 380 286l9 37q9 35 3 59.5T364 420t-60 13q-44 0-83.5-20T134 346L95 391q52 51 106 75.5T316 491q59 0 95.5-20.5t49-59T460 322l-22-86q-20-78-36-148T383 0Z"/>
<glyph unicode="&#xc6;" glyph-name="AE" horiz-adv-x="969" d="M197 248H458l92 371H475L197 248ZM997 682l-16-63H625L566 379H874l-15-60H550L487 65H860L844 0H396l47 188H153L12 0H-77L441 682H997Z"/>
<glyph unicode="&#xe6;" glyph-name="ae" horiz-adv-x="844" d="M760 89q-44-51-99.5-76T536-12q-67 0-109 29.5T370 102q-44-59-97.5-86.5T154-12Q81-12 44 28.5T23 134q10 40 35.5 68.5t68 47T232 277t148 9l9 37q9 36 2.5 60.5t-28.5 37T304 433q-45 0-84-20t-86-67L95 391q51 51 105 75.5T316 491q61 0 96-22t42-62q34 40 82.5 62T639 491q50 0 86-16.5T782.5 427 810 354.5 805 271q-7-28-15-46H435q-12-52-2.5-92.5T472 69t76-23q51 0 91.5 20T717 129l43-40ZM732 281q11 43 2 78.5T698.5 414 633 433q-40 0-75.5-17.5t-63-52T450 281H732ZM366 232q-69 0-117.5-6T169 208t-48.5-30.5T97 131q-11-41 9.5-63.5T177 45q31 0 60 11.5t53.5 33 42 49.5T358 197l8 35Z"/>
<glyph unicode="&#x1fc;" glyph-name="AEacute" horiz-adv-x="969" d="M197 248H458l92 371H475L197 248ZM997 682l-16-63H625L566 379H874l-15-60H550L487 65H860L844 0H396l47 188H153L12 0H-77L441 682H997ZM679 749L806 881H917L756 749H679Z"/>
<glyph unicode="&#x1fd;" glyph-name="aeacute" horiz-adv-x="844" d="M760 89q-44-51-99.5-76T536-12q-67 0-109 29.5T370 102q-44-59-97.5-86.5T154-12Q81-12 44 28.5T23 134q10 40 35.5 68.5t68 47T232 277t148 9l9 37q9 36 2.5 60.5t-28.5 37T304 433q-45 0-84-20t-86-67L95 391q51 51 105 75.5T316 491q61 0 96-22t42-62q34 40 82.5 62T639 491q50 0 86-16.5T782.5 427 810 354.5 805 271q-7-28-15-46H435q-12-52-2.5-92.5T472 69t76-23q51 0 91.5 20T717 129l43-40ZM732 281q11 43 2 78.5T698.5 414 633 433q-40 0-75.5-17.5t-63-52T450 281H732ZM366 232q-69 0-117.5-6T169 208t-48.5-30.5T97 131q-11-41 9.5-63.5T177 45q31 0 60 11.5t53.5 33 42 49.5T358 197l8 35ZM466 551L586 692H688L537 551H466Z"/>
<glyph unicode="B" glyph-name="B" horiz-adv-x="706" d="M221 682q18 0 90 0.5T442 683q102 0 154-15.5T675 616q16-22 20-51t-4-61q-14-57-52-95.5T536 348q62-15 87-59.5T631 180q-16-64-56-104T469 17.5 291-1Q192-1 140-1T50 0L221 682Zm-2-306H386q74 0 110 9.5T561 419q20 15 33 36t19 49q12 45-10 75-19 24-53 32.5T428 620q-31 0-71.5-0.5T279 618L219 376ZM141 64q64-1 99-1.5T306 62q88 0 134.5 12.5t74.5 40T554 186q12 46-1.5 75T500 303 368 316H204L141 64Z"/>
<glyph unicode="b" glyph-name="b" horiz-adv-x="569" d="M149 229q-13-57-5.5-98.5t34.5-63T248 46q46 0 85.5 24.5t68 68.5T444 240q15 56 8 100t-34 68-72 24q-43 0-83-23.5T195 344t-41-94l-5-21Zm53 482h70L219 501q-18-70-27-94h1q35 42 78 63t93 21q65 0 106.5-32.5t54-90.5T519 237q-19-76-58.5-132.5T365.5 18 246-12q-49 0-85.5 21.5T107 69h-1L85 0H15Q32 51 49.5 112T83 238L202 711Z"/>
<glyph unicode="&#x1e02;" glyph-name="uni1E02" horiz-adv-x="706" d="M221 682q18 0 90 0.5T442 683q102 0 154-15.5T675 616q16-22 20-51t-4-61q-14-57-52-95.5T536 348q62-15 87-59.5T631 180q-16-64-56-104T469 17.5 291-1Q192-1 140-1T50 0L221 682Zm-2-306H386q74 0 110 9.5T561 419q20 15 33 36t19 49q12 45-10 75-19 24-53 32.5T428 620q-31 0-71.5-0.5T279 618L219 376ZM141 64q64-1 99-1.5T306 62q88 0 134.5 12.5t74.5 40T554 186q12 46-1.5 75T500 303 368 316H204L141 64ZM445 761l28 112h77L522 761H445Z"/>
<glyph unicode="&#x1e03;" glyph-name="uni1E03" horiz-adv-x="569" d="M149 229q-13-57-5.5-98.5t34.5-63T248 46q46 0 85.5 24.5t68 68.5T444 240q15 56 8 100t-34 68-72 24q-43 0-83-23.5T195 344t-41-94l-5-21Zm53 482h70L219 501q-18-70-27-94h1q35 42 78 63t93 21q65 0 106.5-32.5t54-90.5T519 237q-19-76-58.5-132.5T365.5 18 246-12q-49 0-85.5 21.5T107 69h-1L85 0H15Q32 51 49.5 112T83 238L202 711ZM348 567l28 113h72L420 567H348Z"/>
<glyph unicode="C" glyph-name="C" horiz-adv-x="690" d="M633 163Q579 75 501 30.5T323-14q-93 0-155 46T86 160.5 93 348q26 105 84 183.5T317.5 653 488 696q92 0 153-47t74-128l-72-21q-13 65-55.5 99T476 633q-68 0-131-37T237 493 170 341q-21-87-8.5-153T219 86.5 336 51q76 0 137 37T578 198l55-35Z"/>
<glyph unicode="c" glyph-name="c" horiz-adv-x="515" d="M442 119Q398 53 340 20.5T210-12q-66 0-109 32.5t-56.5 91T51 246q19 76 57.5 131t94 84.5T324 491q70 0 115-34t58-97l-69-22q-14 51-40 72.5T313 432q-42 0-80-23t-66.5-67T123 239q-14-58-7.5-102t33-67.5T220 46q50 0 90 25t79 79l53-31Z"/>
<glyph unicode="&#x106;" glyph-name="Cacute" horiz-adv-x="690" d="M633 163Q579 75 501 30.5T323-14q-93 0-155 46T86 160.5 93 348q26 105 84 183.5T317.5 653 488 696q92 0 153-47t74-128l-72-21q-13 65-55.5 99T476 633q-68 0-131-37T237 493 170 341q-21-87-8.5-153T219 86.5 336 51q76 0 137 37T578 198l55-35ZM456 749L583 881H694L533 749H456Z"/>
<glyph unicode="&#x107;" glyph-name="cacute" horiz-adv-x="515" d="M442 119Q398 53 340 20.5T210-12q-66 0-109 32.5t-56.5 91T51 246q19 76 57.5 131t94 84.5T324 491q70 0 115-34t58-97l-69-22q-14 51-40 72.5T313 432q-42 0-80-23t-66.5-67T123 239q-14-58-7.5-102t33-67.5T220 46q50 0 90 25t79 79l53-31ZM299 551L419 692H521L370 551H299Z"/>
<glyph unicode="&#x108;" glyph-name="Ccircumflex" horiz-adv-x="690" d="M633 163Q579 75 501 30.5T323-14q-93 0-155 46T86 160.5 93 348q26 105 84 183.5T317.5 653 488 696q92 0 153-47t74-128l-72-21q-13 65-55.5 99T476 633q-68 0-131-37T237 493 170 341q-21-87-8.5-153T219 86.5 336 51q76 0 137 37T578 198l55-35ZM505 882h72l87-132H592l-61 75-98-75H354L505 882Z"/>
<glyph unicode="&#x109;" glyph-name="ccircumflex" horiz-adv-x="515" d="M442 119Q398 53 340 20.5T210-12q-66 0-109 32.5t-56.5 91T51 246q19 76 57.5 131t94 84.5T324 491q70 0 115-34t58-97l-69-22q-14 51-40 72.5T313 432q-42 0-80-23t-66.5-67T123 239q-14-58-7.5-102t33-67.5T220 46q50 0 90 25t79 79l53-31ZM337 692h87l64-141H423l-52 90-98-90H203L337 692Z"/>
<glyph unicode="&#x10c;" glyph-name="Ccaron" horiz-adv-x="690" d="M633 163Q579 75 501 30.5T323-14q-93 0-155 46T86 160.5 93 348q26 105 84 183.5T317.5 653 488 696q92 0 153-47t74-128l-72-21q-13 65-55.5 99T476 633q-68 0-131-37T237 493 170 341q-21-87-8.5-153T219 86.5 336 51q76 0 137 37T578 198l55-35ZM546 750H471L387 882h69l63-75 98 75h80L546 750Z"/>
<glyph unicode="&#x10d;" glyph-name="ccaron" horiz-adv-x="515" d="M442 119Q398 53 340 20.5T210-12q-66 0-109 32.5t-56.5 91T51 246q19 76 57.5 131t94 84.5T324 491q70 0 115-34t58-97l-69-22q-14 51-40 72.5T313 432q-42 0-80-23t-66.5-67T123 239q-14-58-7.5-102t33-67.5T220 46q50 0 90 25t79 79l53-31ZM387 551H302L237 692h65l52-91 98 91h71L387 551Z"/>
<glyph unicode="&#x10a;" glyph-name="Cdotaccent" horiz-adv-x="690" d="M633 163Q579 75 501 30.5T323-14q-93 0-155 46T86 160.5 93 348q26 105 84 183.5T317.5 653 488 696q92 0 153-47t74-128l-72-21q-13 65-55.5 99T476 633q-68 0-131-37T237 493 170 341q-21-87-8.5-153T219 86.5 336 51q76 0 137 37T578 198l55-35ZM473 761l28 112h77L550 761H473Z"/>
<glyph unicode="&#x10b;" glyph-name="cdotaccent" horiz-adv-x="515" d="M442 119Q398 53 340 20.5T210-12q-66 0-109 32.5t-56.5 91T51 246q19 76 57.5 131t94 84.5T324 491q70 0 115-34t58-97l-69-22q-14 51-40 72.5T313 432q-42 0-80-23t-66.5-67T123 239q-14-58-7.5-102t33-67.5T220 46q50 0 90 25t79 79l53-31ZM312 567l28 113h72L384 567H312Z"/>
<glyph unicode="&#xc7;" glyph-name="Ccedilla" horiz-adv-x="690" d="M274-10Q196 2 146 51T82.5 177.5 93 348q26 106 83.5 184t140 121T488 696q62 0 110.5-22t78-61.5T715 521l-72-21q-9 45-31.5 74.5t-57 44T476 633q-68 0-131.5-37t-108-103T170 341q-21-87-8.5-153T219 86.5 336 51q77 0 138 37.5T578 198l55-35Q581 78 507.5 34T341-14L306-56q27-24 27-56 0-23-17.5-47T263-207H181q38 28 57 50t19 38q0 12-9.5 22.5T219-76l55 66Z"/>
<glyph unicode="&#xe7;" glyph-name="ccedilla" horiz-adv-x="515" d="M77-207q39 28 57.5 50T153-119q0 12-9.5 22.5T115-76L170-9Q117 1 84 36T42.5 125 51 246q19 76 57.5 131t94 84.5T324 491q47 0 83.5-15.5t59-45T497 360l-69-22q-9 33-23 53.5T369 422t-56 10q-43 0-81.5-24T165 340.5 123 239t-7.5-102T149 69.5 220 46q51 0 91 25t78 79l53-31q-40-59-91.5-91.5T235-11L198-56q14-13 20.5-26.5T225-112q0-23-17.5-47T155-207H77Z"/>
<glyph unicode="D" glyph-name="D" horiz-adv-x="726" d="M220 682q15 0 81.5 0.5T410 683q82 0 137.5-17T637 614q32-34 47-79.5T697 431q-2-86-39.5-175T556 104Q500 49 430 24T250-1Q204-1 136-0.5T50 0L220 682ZM141 64q49-1 74-1.5T261 62q88 0 141.5 20T501 146q53 52 84 131.5T617 430q1 47-10 82t-36 61q-24 25-64 36T396 620q-26 0-52-0.5T279 618L141 64Z"/>
<glyph unicode="d" glyph-name="d" horiz-adv-x="569" d="M360 0l15 72h0Q340 29 298 8.5T203-12Q138-12 97 20.5T43 111t6 130q19 77 59 134t95.5 86.5T322 491q49 0 85-21t51-58h1q5 27 21 89l53 210h70L485 241q-15-60-27-109T428 0H360Zm58 248q14 54 7 96t-34 65-72 23q-44 0-83.5-23.5T167 341 123 238q-15-56-8-99.5t34-68T221 46q42 0 81.5 23T371 133t42 96l5 19Z"/>
<glyph unicode="&#x10e;" glyph-name="Dcaron" horiz-adv-x="726" d="M220 682q15 0 81.5 0.5T410 683q82 0 137.5-17T637 614q32-34 47-79.5T697 431q-2-86-39.5-175T556 104Q500 49 430 24T250-1Q204-1 136-0.5T50 0L220 682ZM141 64q49-1 74-1.5T261 62q88 0 141.5 20T501 146q53 52 84 131.5T617 430q1 47-10 82t-36 61q-24 25-64 36T396 620q-26 0-52-0.5T279 618L141 64ZM507 750H432L348 882h69l63-75 98 75h80L507 750Z"/>
<glyph unicode="&#x10f;" glyph-name="dcaron" horiz-adv-x="586" d="M360 0l15 72h0Q340 29 298 8.5T203-12Q138-12 97 20.5T43 111t6 130q19 77 59 134t95.5 86.5T322 491q49 0 85-21t51-58h1q5 27 21 89l53 210h70L485 241q-15-60-27-109T428 0H360Zm58 248q14 54 7 96t-34 65-72 23q-44 0-83.5-23.5T167 341 123 238q-15-56-8-99.5t34-68T221 46q42 0 81.5 23T371 133t42 96l5 19ZM698 756h78L678 569H618l80 187Z"/>
<glyph unicode="&#x1e0a;" glyph-name="uni1E0A" horiz-adv-x="726" d="M220 682q15 0 81.5 0.5T410 683q82 0 137.5-17T637 614q32-34 47-79.5T697 431q-2-86-39.5-175T556 104Q500 49 430 24T250-1Q204-1 136-0.5T50 0L220 682ZM141 64q49-1 74-1.5T261 62q88 0 141.5 20T501 146q53 52 84 131.5T617 430q1 47-10 82t-36 61q-24 25-64 36T396 620q-26 0-52-0.5T279 618L141 64ZM434 761l28 112h77L511 761H434Z"/>
<glyph unicode="&#x1e0b;" glyph-name="uni1E0B" horiz-adv-x="569" d="M360 0l15 72h0Q340 29 298 8.5T203-12Q138-12 97 20.5T43 111t6 130q19 77 59 134t95.5 86.5T322 491q49 0 85-21t51-58h1q5 27 21 89l53 210h70L485 241q-15-60-27-109T428 0H360Zm58 248q14 54 7 96t-34 65-72 23q-44 0-83.5-23.5T167 341 123 238q-15-56-8-99.5t34-68T221 46q42 0 81.5 23T371 133t42 96l5 19ZM309 567l28 113h72L381 567H309Z"/>
<glyph unicode="&#xd0;" glyph-name="Eth" horiz-adv-x="741" d="M143 319H30l16 60H158l75 303q15 0 81.5 0.5T423 683q82 0 137.5-17T650 614q32-34 47.5-79.5T711 431q-3-87-40.5-175.5T570 104Q514 49 444 24T263-1Q218-1 149.5-0.5T63 0l80 319ZM154 64q48-1 73.5-1.5T275 62q88 0 141.5 20T515 146q52 52 83 130.5T631 430q1 47-10 82t-36 61q-25 25-65 36T409 620q-26 0-52.5-0.5T292 618L232 379H438l-16-60H218L154 64Z"/>
<glyph unicode="&#xf0;" glyph-name="eth" horiz-adv-x="563" d="M342 725q47-34 77-66l133 61 21-48L454 617q37-50 56.5-106.5t21.5-119T517 263q-22-88-64-150T352 19.5 222-12q-55 0-94.5 18.5T66 59.5 39.5 141 49 242q19 75 60 131.5t98 86T333 489q45 0 83.5-24T468 407l2 1q-8 49-29 95t-54 86L248 526l-21 48 122 55q-34 35-82 66l75 30Zm92-487q11 41 9 76.5T426.5 376t-40 40T327 430q-49 0-90-23.5T166.5 339 123 238q-11-40-9-76t16-62 39.5-39.5T230 47q48 0 88.5 22.5t71 66T434 238Z"/>
<glyph unicode="&#x110;" glyph-name="Dcroat" horiz-adv-x="741" d="M143 319H30l16 60H158l75 303q15 0 81.5 0.5T423 683q82 0 137.5-17T650 614q32-34 47.5-79.5T711 431q-3-87-40.5-175.5T570 104Q514 49 444 24T263-1Q218-1 149.5-0.5T63 0l80 319ZM154 64q48-1 73.5-1.5T275 62q88 0 141.5 20T515 146q52 52 83 130.5T631 430q1 47-10 82t-36 61q-25 25-65 36T409 620q-26 0-52.5-0.5T292 618L232 379H438l-16-60H218L154 64Z"/>
<glyph unicode="&#x111;" glyph-name="dcroat" horiz-adv-x="569" d="M418 248q14 54 7 96t-34 65-72 23q-44 0-83.5-23.5T167 341 123 238q-15-56-8-99.5t34-68T221 46q43 0 83 23.5T372 134t41 95l5 19ZM360 0l15 72h0Q340 29 298 8.5T203-12Q138-12 97 20.5T43 111t6 130q19 77 59 134t95.5 86.5T322 491q49 0 85-21t51-58h1q5 26 21 88l16 62H352l14 56H509l24 95h70l-24-95h98l-14-56H566L485 241q-15-60-27-109T428 0H360Z"/>
<glyph unicode="E" glyph-name="E" horiz-adv-x="645" d="M220 682H673l-16-63H280L219 379H550l-14-60H204L141 64H536L519 0H50L220 682Z"/>
<glyph unicode="e" glyph-name="e" horiz-adv-x="529" d="M445 89Q401 38 345 13T221-12q-70 0-115.5 32.5T46 112.5 51 247t58.5 131T204 462.5 324 491q49 0 85-16.5T466.5 427 494 354.5 490 271q-7-27-15-46H120q-12-52-2.5-92.5T157 69t75-23q52 0 92.5 20T402 129l43-40ZM417 281q10 42 1.5 78t-35 55T318 433q-40 0-75.5-17.5t-63-52T134 281H417Z"/>
<glyph unicode="&#xc8;" glyph-name="Egrave" horiz-adv-x="645" d="M220 682H673l-16-63H280L219 379H550l-14-60H204L141 64H536L519 0H50L220 682Zm221 67L348 881H451l59-132H441Z"/>
<glyph unicode="&#xe8;" glyph-name="egrave" horiz-adv-x="529" d="M445 89Q401 38 345 13T221-12q-70 0-115.5 32.5T46 112.5 51 247t58.5 131T204 462.5 324 491q49 0 85-16.5T466.5 427 494 354.5 490 271q-7-27-15-46H120q-12-52-2.5-92.5T157 69t75-23q52 0 92.5 20T402 129l43-40ZM417 281q10 42 1.5 78t-35 55T318 433q-40 0-75.5-17.5t-63-52T134 281H417ZM239 692h94l50-141H319L239 692Z"/>
<glyph unicode="&#xc9;" glyph-name="Eacute" horiz-adv-x="645" d="M220 682H673l-16-63H280L219 379H550l-14-60H204L141 64H536L519 0H50L220 682Zm186 67L533 881H644L483 749H406Z"/>
<glyph unicode="&#xe9;" glyph-name="eacute" horiz-adv-x="529" d="M445 89Q401 38 345 13T221-12q-70 0-115.5 32.5T46 112.5 51 247t58.5 131T204 462.5 324 491q49 0 85-16.5T466.5 427 494 354.5 490 271q-7-27-15-46H120q-12-52-2.5-92.5T157 69t75-23q52 0 92.5 20T402 129l43-40ZM417 281q10 42 1.5 78t-35 55T318 433q-40 0-75.5-17.5t-63-52T134 281H417ZM296 551L416 692H518L367 551H296Z"/>
<glyph unicode="&#xca;" glyph-name="Ecircumflex" horiz-adv-x="645" d="M220 682H673l-16-63H280L219 379H550l-14-60H204L141 64H536L519 0H50L220 682ZM460 882h72l87-132H547l-61 75-98-75H309L460 882Z"/>
<glyph unicode="&#xea;" glyph-name="ecircumflex" horiz-adv-x="529" d="M445 89Q401 38 345 13T221-12q-70 0-115.5 32.5T46 112.5 51 247t58.5 131T204 462.5 324 491q49 0 85-16.5T466.5 427 494 354.5 490 271q-7-27-15-46H120q-12-52-2.5-92.5T157 69t75-23q52 0 92.5 20T402 129l43-40ZM417 281q10 42 1.5 78t-35 55T318 433q-40 0-75.5-17.5t-63-52T134 281H417ZM334 692h87l64-141H420l-52 90-98-90H200L334 692Z"/>
<glyph unicode="&#x11a;" glyph-name="Ecaron" horiz-adv-x="645" d="M220 682H673l-16-63H280L219 379H550l-14-60H204L141 64H536L519 0H50L220 682Zm281 68H426L342 882h69l63-75 98 75h80L501 750Z"/>
<glyph unicode="&#x11b;" glyph-name="ecaron" horiz-adv-x="529" d="M445 89Q401 38 345 13T221-12q-70 0-115.5 32.5T46 112.5 51 247t58.5 131T204 462.5 324 491q49 0 85-16.5T466.5 427 494 354.5 490 271q-7-27-15-46H120q-12-52-2.5-92.5T157 69t75-23q52 0 92.5 20T402 129l43-40ZM417 281q10 42 1.5 78t-35 55T318 433q-40 0-75.5-17.5t-63-52T134 281H417ZM384 551H299L234 692h65l52-91 98 91h71L384 551Z"/>
<glyph unicode="&#xcb;" glyph-name="Edieresis" horiz-adv-x="645" d="M220 682H673l-16-63H280L219 379H550l-14-60H204L141 64H536L519 0H50L220 682Zm321 79l28 112h76L616 761H541Zm-223 0l28 112h76L393 761H318Z"/>
<glyph unicode="&#xeb;" glyph-name="edieresis" horiz-adv-x="529" d="M445 89Q401 38 345 13T221-12q-70 0-115.5 32.5T46 112.5 51 247t58.5 131T204 462.5 324 491q49 0 85-16.5T466.5 427 494 354.5 490 271q-7-27-15-46H120q-12-52-2.5-92.5T157 69t75-23q52 0 92.5 20T402 129l43-40ZM417 281q10 42 1.5 78t-35 55T318 433q-40 0-75.5-17.5t-63-52T134 281H417ZM402 567l28 113h71L473 567H402Zm-184 0l28 113h71L289 567H218Z"/>
<glyph unicode="&#x112;" glyph-name="Emacron" horiz-adv-x="645" d="M220 682H673l-16-63H280L219 379H550l-14-60H204L141 64H536L519 0H50L220 682Zm398 99H321l16 62H634l-16-62Z"/>
<glyph unicode="&#x113;" glyph-name="emacron" horiz-adv-x="529" d="M445 89Q401 38 345 13T221-12q-70 0-115.5 32.5T46 112.5 51 247t58.5 131T204 462.5 324 491q49 0 85-16.5T466.5 427 494 354.5 490 271q-7-27-15-46H120q-12-52-2.5-92.5T157 69t75-23q52 0 92.5 20T402 129l43-40ZM417 281q10 42 1.5 78t-35 55T318 433q-40 0-75.5-17.5t-63-52T134 281H417Zm68 308H216l15 58H500l-15-58Z"/>
<glyph unicode="&#x116;" glyph-name="Edotaccent" horiz-adv-x="645" d="M220 682H673l-16-63H280L219 379H550l-14-60H204L141 64H536L519 0H50L220 682Zm207 79l28 112h77L504 761H427Z"/>
<glyph unicode="&#x117;" glyph-name="edotaccent" horiz-adv-x="529" d="M445 89Q401 38 345 13T221-12q-70 0-115.5 32.5T46 112.5 51 247t58.5 131T204 462.5 324 491q49 0 85-16.5T466.5 427 494 354.5 490 271q-7-27-15-46H120q-12-52-2.5-92.5T157 69t75-23q52 0 92.5 20T402 129l43-40ZM417 281q10 42 1.5 78t-35 55T318 433q-40 0-75.5-17.5t-63-52T134 281H417ZM310 567l28 113h72L382 567H310Z"/>
<glyph unicode="&#x114;" glyph-name="Ebreve" horiz-adv-x="645" d="M220 682H673l-16-63H280L219 379H550l-14-60H204L141 64H536L519 0H50L220 682ZM642 884q-10-45-32-76t-57.5-47T470 745q-49 0-80 17.5t-40.5 49T354 884h59q-8-41 7.5-59.5T477 806q42 0 67.5 19T581 884h61Z"/>
<glyph unicode="&#x115;" glyph-name="ebreve" horiz-adv-x="529" d="M445 89Q401 38 345 13T221-12q-70 0-115.5 32.5T46 112.5 51 247t58.5 131T204 462.5 324 491q49 0 85-16.5T466.5 427 494 354.5 490 271q-7-27-15-46H120q-12-52-2.5-92.5T157 69t75-23q52 0 92.5 20T402 129l43-40ZM417 281q10 42 1.5 78t-35 55T318 433q-40 0-75.5-17.5t-63-52T134 281H417Zm94 407q-7-43-29-73.5T425.5 569 347 554t-72.5 16-37 46 3.5 72h55q-5-29 0-45.5t19.5-24T354 611q27 0 47 9t33.5 26T456 688h55Z"/>
<glyph unicode="&#x118;" glyph-name="Eogonek" horiz-adv-x="645" d="M467-205q-8-4-23-6.5T413-214q-31 0-52 6.5T329.5-188 319-156q0 34 29.5 73T437 0H50L220 682H673l-16-63H280L219 379H550l-14-60H204L141 64H536L520 5q-64-52-94.5-88T395-142q0-9 7.5-12.5T429-158h51l-13-47Z"/>
<glyph unicode="&#x119;" glyph-name="eogonek" horiz-adv-x="529" d="M338-206q-9-4-23.5-6T285-214q-30 0-49.5 6T206-189.5 196-156q0 29 21 61T294-4q-14-4-33.5-6T221-12q-70 0-115.5 32.5T46 112.5 51 247t58.5 131T204 462.5 324 491q49 0 85-16.5T466.5 427 494 354t-4-83q-9-34-15-46H120q-13-54-2.5-94.5T158 68t74-22q55 0 94 20t76 63l43-39q-5-8-33-41T371 2q-39-42-61-69.5T277.5-112 267-142q0-10 8-14.5t25-4.5h51l-13-45ZM318 433q-40 0-75.5-17.5t-63-52T134 281H417q10 41 2 76.5T384.5 413 318 433h0Z"/>
<glyph unicode="&#x18f;" glyph-name="uni018F" horiz-adv-x="728" d="M152 554q42 49 89.5 80.5t101 46.5T457 696q92 0 153.5-47T691 519t-7-187q-26-103-82-181.5T468.5 29 302-14q-96 0-154.5 44.5T73 158 85 351q1 6 3.5 13.5T92 376H615q14 76-2 134t-59 89.5T446 631q-53 0-95.5-12.5t-81-38T194 512l-42 42ZM312 51q64 0 121 32t99.5 91.5T599 314H155q-18-84-5.5-143T203 81.5 312 51Z"/>
<glyph unicode="&#x259;" glyph-name="uni0259" horiz-adv-x="529" d="M85 395q45 49 99 72.5T305 491q71 0 117-33t60.5-92T478 232q-19-76-58.5-131.5t-95-84T205-12q-49 0-85 16T62.5 51t-28 73T39 207q9 33 15 46H409q12 52 1.5 93t-41 63.5T294 432q-51 0-94-20.5T121 349L85 395Zm27-196q-10-43-1.5-79t35-55.5T211 45q41 0 76.5 18T350 116t44 83H112Z"/>
<glyph unicode="F" glyph-name="F" horiz-adv-x="598" d="M220 682H660l-16-63H279L219 377H538l-16-61H203L125 0H50L220 682Z"/>
<glyph unicode="f" glyph-name="f" horiz-adv-x="312" d="M51 0L156 422H53l15 56H170l26 103q10 45 31.5 75T281 701t73 15q21 0 45.5-4.5T440 700l-19-59q-17 8-36.5 12T348 657q-22 0-38-8.5t-27-26T265 577l-25-99H369l-15-56H226L121 0H51Z"/>
<glyph unicode="&#x1e1e;" glyph-name="uni1E1E" horiz-adv-x="598" d="M220 682H660l-16-63H279L219 377H538l-16-61H203L125 0H50L220 682Zm199 79l28 112h77L496 761H419Z"/>
<glyph unicode="&#x1e1f;" glyph-name="uni1E1F" horiz-adv-x="312" d="M51 0L156 422H53l15 56H170l26 103q10 45 31.5 75T281 701t73 15q21 0 45.5-4.5T440 700l-19-59q-17 8-36.5 12T348 657q-22 0-38-8.5t-27-26T265 577l-25-99H369l-15-56H226L121 0H51ZM337 800l28 113h72L409 800H337Z"/>
<glyph unicode="&#xfb01;" glyph-name="fi" horiz-adv-x="567" d="M51 0L156 422H53l15 56H170l26 103q10 45 31.5 75T281 701t73 15q21 0 45.5-4.5T440 700l-19-59q-17 8-36.5 12T348 657q-22 0-38-8.5t-27-26T265 577l-25-99H369l-15-56H226L121 0H51ZM492 563l30 121h72L565 563H492ZM353 0L472 478h70L423 0H353Z"/>
<glyph unicode="&#xfb02;" glyph-name="fl" horiz-adv-x="567" d="M51 0L156 422H53l15 56H170l26 103q10 45 31.5 75T281 701t73 15q21 0 45.5-4.5T440 700l-19-59q-17 8-36.5 12T348 657q-22 0-38-8.5t-27-26T265 577l-25-99H369l-15-56H226L121 0H51ZM531 711h70L423 0H353L531 711Z"/>
<glyph unicode="G" glyph-name="G" horiz-adv-x="755" d="M527 0l28 111h-1Q511 52 446.5 19T310-14q-89 0-148.5 45.5T84 158.5 92 345q26 104 84.5 184t140 123.5T488 696q95 0 156.5-44T722 532l-69-30q-17 67-61.5 99T472 633q-68 0-129-37T236.5 492 170 341q-22-88-10-154T216 85 330 49q89 0 162.5 66.5T591 283l5 20H396l17 61H688L597 0H527Z"/>
<glyph unicode="g" glyph-name="g" horiz-adv-x="571" d="M553 478q0-1-18.5-58.5T486 241q-9-35-30.5-126.5T424-19q-17-69-49-112t-81.5-64.5T174-217q-73 0-121 29.5T-18-100L42-61q18-50 52.5-74T182-159q45 0 79 15t56.5 45.5T352-21l25 93h-1Q340 30 297.5 9.5T204-11Q140-11 98.5 20.5T44 110t6 132q19 76 58 132t94.5 86.5T322 491q50 0 86.5-22T461 409h1l22 69h69ZM419 248q13 54 6 96t-34 65-71 23q-45 0-84.5-24T167 340 124 239q-14-58-7-102t34-67 71-23q43 0 82.5 23T373 134.5 415 230l4 18Z"/>
<glyph unicode="&#x11c;" glyph-name="Gcircumflex" horiz-adv-x="755" d="M527 0l28 111h-1Q511 52 446.5 19T310-14q-89 0-148.5 45.5T84 158.5 92 345q26 104 84.5 184t140 123.5T488 696q95 0 156.5-44T722 532l-69-30q-17 67-61.5 99T472 633q-68 0-129-37T236.5 492 170 341q-22-88-10-154T216 85 330 49q89 0 162.5 66.5T591 283l5 20H396l17 61H688L597 0H527ZM504 882h72l87-132H591l-61 75-98-75H353L504 882Z"/>
<glyph unicode="&#x11d;" glyph-name="gcircumflex" horiz-adv-x="571" d="M553 478q0-1-18.5-58.5T486 241q-9-35-30.5-126.5T424-19q-17-69-49-112t-81.5-64.5T174-217q-73 0-121 29.5T-18-100L42-61q18-50 52.5-74T182-159q45 0 79 15t56.5 45.5T352-21l25 93h-1Q340 30 297.5 9.5T204-11Q140-11 98.5 20.5T44 110t6 132q19 76 58 132t94.5 86.5T322 491q50 0 86.5-22T461 409h1l22 69h69ZM419 248q13 54 6 96t-34 65-71 23q-45 0-84.5-24T167 340 124 239q-14-58-7-102t34-67 71-23q43 0 82.5 23T373 134.5 415 230l4 18ZM346 692h87l64-141H432l-52 90-98-90H212L346 692Z"/>
<glyph unicode="&#x11e;" glyph-name="Gbreve" horiz-adv-x="755" d="M527 0l28 111h-1Q511 52 446.5 19T310-14q-89 0-148.5 45.5T84 158.5 92 345q26 104 84.5 184t140 123.5T488 696q95 0 156.5-44T722 532l-69-30q-17 67-61.5 99T472 633q-68 0-129-37T236.5 492 170 341q-22-88-10-154T216 85 330 49q89 0 162.5 66.5T591 283l5 20H396l17 61H688L597 0H527ZM685 884q-10-45-32-76t-57.5-47T513 745q-49 0-80 17.5t-40.5 49T397 884h59q-8-41 7.5-59.5T520 806q42 0 67.5 19T624 884h61Z"/>
<glyph unicode="&#x11f;" glyph-name="gbreve" horiz-adv-x="571" d="M553 478q0-1-18.5-58.5T486 241q-9-35-30.5-126.5T424-19q-17-69-49-112t-81.5-64.5T174-217q-73 0-121 29.5T-18-100L42-61q18-50 52.5-74T182-159q45 0 79 15t56.5 45.5T352-21l25 93h-1Q340 30 297.5 9.5T204-11Q140-11 98.5 20.5T44 110t6 132q19 76 58 132t94.5 86.5T322 491q50 0 86.5-22T461 409h1l22 69h69ZM419 248q13 54 6 96t-34 65-71 23q-45 0-84.5-24T167 340 124 239q-14-58-7-102t34-67 71-23q43 0 82.5 23T373 134.5 415 230l4 18ZM523 688q-7-43-29-73.5T437.5 569 359 554t-72.5 16-37 46 3.5 72h55q-5-29 0-45.5t19.5-24T366 611q27 0 47 9t33.5 26T468 688h55Z"/>
<glyph unicode="&#x1e6;" glyph-name="Gcaron" horiz-adv-x="755" d="M527 0l28 111h-1Q511 52 446.5 19T310-14q-89 0-148.5 45.5T84 158.5 92 345q26 104 84.5 184t140 123.5T488 696q95 0 156.5-44T722 532l-69-30q-17 67-61.5 99T472 633q-68 0-129-37T236.5 492 170 341q-22-88-10-154T216 85 330 49q89 0 162.5 66.5T591 283l5 20H396l17 61H688L597 0H527Zm18 750H470L386 882h69l63-75 98 75h80L545 750Z"/>
<glyph unicode="&#x1e7;" glyph-name="gcaron" horiz-adv-x="571" d="M553 478q0-1-18.5-58.5T486 241q-9-35-30.5-126.5T424-19q-17-69-49-112t-81.5-64.5T174-217q-73 0-121 29.5T-18-100L42-61q18-50 52.5-74T182-159q45 0 79 15t56.5 45.5T352-21l25 93h-1Q340 30 297.5 9.5T204-11Q140-11 98.5 20.5T44 110t6 132q19 76 58 132t94.5 86.5T322 491q50 0 86.5-22T461 409h1l22 69h69ZM419 248q13 54 6 96t-34 65-71 23q-45 0-84.5-24T167 340 124 239q-14-58-7-102t34-67 71-23q43 0 82.5 23T373 134.5 415 230l4 18ZM396 551H311L246 692h65l52-91 98 91h71L396 551Z"/>
<glyph unicode="&#x120;" glyph-name="Gdotaccent" horiz-adv-x="755" d="M527 0l28 111h-1Q511 52 446.5 19T310-14q-89 0-148.5 45.5T84 158.5 92 345q26 104 84.5 184t140 123.5T488 696q95 0 156.5-44T722 532l-69-30q-17 67-61.5 99T472 633q-68 0-129-37T236.5 492 170 341q-22-88-10-154T216 85 330 49q89 0 162.5 66.5T591 283l5 20H396l17 61H688L597 0H527ZM472 761l28 112h77L549 761H472Z"/>
<glyph unicode="&#x121;" glyph-name="gdotaccent" horiz-adv-x="571" d="M553 478q0-1-18.5-58.5T486 241q-9-35-30.5-126.5T424-19q-17-69-49-112t-81.5-64.5T174-217q-73 0-121 29.5T-18-100L42-61q18-50 52.5-74T182-159q45 0 79 15t56.5 45.5T352-21l25 93h-1Q340 30 297.5 9.5T204-11Q140-11 98.5 20.5T44 110t6 132q19 76 58 132t94.5 86.5T322 491q50 0 86.5-22T461 409h1l22 69h69ZM419 248q13 54 6 96t-34 65-71 23q-45 0-84.5-24T167 340 124 239q-14-58-7-102t34-67 71-23q43 0 82.5 23T373 134.5 415 230l4 18ZM321 567l28 113h72L393 567H321Z"/>
<glyph unicode="&#x122;" glyph-name="Gcommaaccent" horiz-adv-x="755" d="M527 0l28 111h-1Q511 52 446.5 19T310-14q-89 0-148.5 45.5T84 158.5 92 345q26 104 84.5 184t140 123.5T488 696q95 0 156.5-44T722 532l-69-30q-17 67-61.5 99T472 633q-68 0-129-37T236.5 492 170 341q-22-88-10-154T216 85 330 49q89 0 162.5 66.5T591 283l5 20H396l17 61H688L597 0H527ZM341-54l-20-78q-9-39-35.5-58.5T216-210H195l10 37h17q18 0 28.5 9.5T265-134H245l19 80h77Z"/>
<glyph unicode="&#x123;" glyph-name="gcommaaccent" horiz-adv-x="571" d="M553 478q0-1-18.5-58.5T486 241q-9-35-30.5-126.5T424-19q-17-69-49-112t-81.5-64.5T174-217q-73 0-121 29.5T-18-100L42-61q18-50 52.5-74T182-159q45 0 79 15t56.5 45.5T352-21l25 93h-1Q340 30 297.5 9.5T204-11Q140-11 98.5 20.5T44 110t6 132q19 76 58 132t94.5 86.5T322 491q50 0 86.5-22T461 409h1l22 69h69ZM419 248q13 54 6 96t-34 65-71 23q-45 0-84.5-24T167 340 124 239q-14-58-7-102t34-67 71-23q43 0 82.5 23T373 134.5 415 230l4 18ZM315 567l21 84q11 40 36 59t67 19h20l-9-37H430q-17 0-27.5-10T387 651h20l-20-84H315Z"/>
<glyph unicode="H" glyph-name="H" horiz-adv-x="754" d="M220 682h75L221 386H605l74 296h75L584 0H509l80 321H205L125 0H50L220 682Z"/>
<glyph unicode="h" glyph-name="h" horiz-adv-x="560" d="M202 711h70L218 500q-17-66-26-94h1q70 85 171 85 57 0 91.5-24T500 398.5 495 292L422 0H352l68 272q1 3 9 39.5t1 65.5q-6 27-28 41t-58 14q-26 0-52.5-9T245 398q-34-27-56.5-67T150 228L94 0H24L202 711Z"/>
<glyph unicode="&#x124;" glyph-name="Hcircumflex" horiz-adv-x="754" d="M220 682h75L221 386H605l74 296h75L584 0H509l80 321H205L125 0H50L220 682ZM500 882h72l87-132H587l-61 75-98-75H349L500 882Z"/>
<glyph unicode="&#x125;" glyph-name="hcircumflex" horiz-adv-x="560" d="M202 711h70L218 500q-17-66-26-94h1q70 85 171 85 57 0 91.5-24T500 398.5 495 292L422 0H352l68 272q1 3 9 39.5t1 65.5q-6 27-28 41t-58 14q-26 0-52.5-9T245 398q-34-27-56.5-67T150 228L94 0H24L202 711ZM407 926h87l64-141H493l-52 90-98-90H273L407 926Z"/>
<glyph unicode="&#x126;" glyph-name="Hbar" horiz-adv-x="774" d="M612 373l32 130H260L228 373H612ZM185 503H76l15 61H200l30 118h75L275 564H660l29 118h75L735 564H843l-15-61H719L594 0H519l77 309H211L135 0H60L185 503Z"/>
<glyph unicode="&#x127;" glyph-name="hbar" horiz-adv-x="560" d="M164 562H66l13 56h99l24 95h70l-24-95H389l-14-56H234l-15-61q-12-44-27-95h1q35 43 78.5 64T364 491q57 0 92-24t44.5-69T495 292L422 0H352l68 272q12 47 13 67.5T430 377q-7 27-28 41t-58 14q-27 0-53-9t-46-25q-35-27-57-67.5T150 228L94 0H24L164 562Z"/>
<glyph unicode="I" glyph-name="I" horiz-adv-x="295" d="M220 682h75L125 0H50L220 682Z"/>
<glyph unicode="i" glyph-name="i" horiz-adv-x="238" d="M163 563l30 121h72L236 563H163ZM24 0L143 478h70L94 0H24Z"/>
<glyph unicode="&#xcc;" glyph-name="Igrave" horiz-adv-x="295" d="M220 682h75L125 0H50L220 682Zm32 67L159 881H262l59-132H252Z"/>
<glyph unicode="&#xec;" glyph-name="igrave" horiz-adv-x="238" d="M24 0L143 478h70L94 0H24ZM94 692h94l50-141H174L94 692Z"/>
<glyph unicode="&#xcd;" glyph-name="Iacute" horiz-adv-x="295" d="M220 682h75L125 0H50L220 682Zm3 67L350 881H461L300 749H223Z"/>
<glyph unicode="&#xed;" glyph-name="iacute" horiz-adv-x="238" d="M24 0L143 478h70L94 0H24ZM150 551L270 692H372L221 551H150Z"/>
<glyph unicode="&#xce;" glyph-name="Icircumflex" horiz-adv-x="295" d="M220 682h75L125 0H50L220 682Zm51 200h72l87-132H358l-61 75-98-75H120L271 882Z"/>
<glyph unicode="&#xee;" glyph-name="icircumflex" horiz-adv-x="238" d="M24 0L143 478h70L94 0H24ZM188 692h87l64-141H274l-52 90-98-90H54L188 692Z"/>
<glyph unicode="&#x128;" glyph-name="Itilde" horiz-adv-x="295" d="M220 682h75L125 0H50L220 682Zm1 136q-19 0-31.5-14.5T166 755H105q16 60 48.5 91.5T233 878q21 0 39.5-8.5t39.5-29T341.5 815t17.5-5q19 0 32 15t23 48h60q-15-60-47.5-91.5T347 750q-21 0-39.5 8.5t-39.5 29T238.5 813 221 818h0Z"/>
<glyph unicode="&#x129;" glyph-name="itilde" horiz-adv-x="238" d="M24 0L143 478h70L94 0H24ZM161 625q-13 0-24.5-15.5T116 563H61q16 63 43 91t68 28q19 0 34-8.5T234.5 645t19-24.5T265 616q14 0 25 15t21 46h55q-16-62-43-90t-68-28q-19 0-34 8.5T192 596t-19.5 24.5T161 625h0Z"/>
<glyph unicode="&#xcf;" glyph-name="Idieresis" horiz-adv-x="295" d="M220 682h75L125 0H50L220 682Zm131 79l28 112h76L426 761H351Zm-223 0l28 112h76L203 761H128Z"/>
<glyph unicode="&#xef;" glyph-name="idieresis" horiz-adv-x="238" d="M24 0L143 478h70L94 0H24ZM246 567l28 113h70L316 567H246ZM84 567l28 113h70L154 567H84Z"/>
<glyph unicode="&#x12a;" glyph-name="Imacron" horiz-adv-x="295" d="M220 682h75L125 0H50L220 682Zm211 99H134l16 62H447l-16-62Z"/>
<glyph unicode="&#x12b;" glyph-name="imacron" horiz-adv-x="238" d="M24 0L143 478h70L94 0H24ZM340 589H71l15 58H355l-15-58Z"/>
<glyph unicode="&#x12c;" glyph-name="Ibreve" horiz-adv-x="295" d="M220 682h75L125 0H50L220 682ZM452 884q-10-45-32-76t-57.5-47T280 745q-49 0-80 17.5t-40.5 49T164 884h59q-8-41 7.5-59.5T287 806q42 0 67.5 19T391 884h61Z"/>
<glyph unicode="&#x12d;" glyph-name="ibreve" horiz-adv-x="238" d="M24 0L143 478h70L94 0H24ZM365 688q-7-43-29-73.5T279.5 569 201 554t-72.5 16-37 46T95 688h55q-5-29 0-45.5t19.5-24T208 611q27 0 47 9t33.5 26T310 688h55Z"/>
<glyph unicode="&#x12e;" glyph-name="Iogonek" horiz-adv-x="295" d="M95-206q-22-8-53-8-47 0-71 15t-24 43q0 30 23 64T52 0H50L220 682h75L125 0Q70-58 46.5-90.5T23-142q0-9 8-12.5T58-158h51L95-206Z"/>
<glyph unicode="&#x12f;" glyph-name="iogonek" horiz-adv-x="238" d="M65-207q-9-3-24.5-5T12-214q-30 0-49.5 6T-67-189t-10 33q0 30 22 63T26 0H24L143 478h70L94 0Q40-59 17-91.5T-6-142q0-10 8-14.5T27-161H76L65-207Zm98 770l30 121h72L236 563H163Z"/>
<glyph unicode="&#x130;" glyph-name="Idotaccent" horiz-adv-x="295" d="M220 682h75L125 0H50L220 682Zm19 79l28 112h77L316 761H239Z"/>
<glyph unicode="&#x131;" glyph-name="dotlessi" horiz-adv-x="238" d="M24 0L143 478h70L94 0H24Z"/>
<glyph unicode="&#x132;" glyph-name="IJ" horiz-adv-x="825" d="M220 682h75L125 0H50L220 682Zm611 0L711 199Q685 92 619.5 39T462-14q-40 0-74 11.5t-57 37-32.5 67T299 203l79 15q-15-88 6.5-127T473 52q61 0 103 38.5T638 208L756 682h75Z"/>
<glyph unicode="&#x133;" glyph-name="ij" horiz-adv-x="503" d="M163 563l30 121h72L236 563H163ZM24 0L143 478h70L94 0H24ZM479 478L350-37q-17-70-38.5-107.5t-52-54T182-215q-33 0-50 5l13 54h45q22 0 38 11.5T256.5-107 281-32L409 478h70Zm-50 85l30 121h72L501 563H429Z"/>
<glyph unicode="J" glyph-name="J" horiz-adv-x="530" d="M536 682L416 199Q390 92 324.5 39T167-14Q127-14 93-2.5t-57 37-32.5 67T4 203l79 15Q68 130 89.5 91T178 52q61 0 103 38.5T343 208L461 682h75Z"/>
<glyph unicode="j" glyph-name="j" horiz-adv-x="248" d="M224 478L95-37Q78-107 56.5-144.5t-52-54T-73-215q-33 0-50 5l13 54h45q22 0 38 11.5T1.5-107 26-32L154 478h70Zm-50 85l30 121h72L246 563H174Z"/>
<glyph unicode="&#x134;" glyph-name="Jcircumflex" horiz-adv-x="530" d="M536 682L416 199Q390 92 324.5 39T167-14Q127-14 93-2.5t-57 37-32.5 67T4 203l79 15Q68 130 89.5 91T178 52q61 0 103 38.5T343 208L461 682h75ZM504 882h72l87-132H591l-61 75-98-75H353L504 882Z"/>
<glyph unicode="&#x135;" glyph-name="jcircumflex" horiz-adv-x="248" d="M224 478L94-37Q76-108 55-145.5T4-199t-77-16q-33 0-50 5l12 53h45q22 0 38 11.5T1-108 26-32L154 478h70ZM198 692h87l64-141H284l-52 90-98-90H64L198 692Z"/>
<glyph unicode="&#x237;" glyph-name="dotlessj" horiz-adv-x="248" d="M224 478L94-37Q76-108 55-145.5T4-199t-77-16q-33 0-50 5l12 53h45q22 0 38 11.5T1-108 26-32L154 478h70Z"/>
<glyph unicode="K" glyph-name="K" horiz-adv-x="673" d="M762 682L429 421 612 0H525L368 373 181 227 125 0H50L220 682h75L205 325 655 682H762Z"/>
<glyph unicode="k" glyph-name="k" horiz-adv-x="517" d="M202 711h70L158 258 453 478H555L325 309 452 0H370L267 265 136 170 94 0H24L202 711Z"/>
<glyph unicode="&#x136;" glyph-name="Kcommaaccent" horiz-adv-x="673" d="M762 682L429 421 612 0H525L368 373 181 227 125 0H50L220 682h75L205 325 655 682H762ZM326-54l-20-78q-9-39-35.5-58.5T201-210H180l10 37h17q18 0 28.5 9.5T250-134H230l19 80h77Z"/>
<glyph unicode="&#x137;" glyph-name="kcommaaccent" horiz-adv-x="517" d="M202 711h70L158 258 453 478H555L325 309 452 0H370L267 265 136 170 94 0H24L202 711ZM239-54l-20-78q-11-40-36-59t-67-19H96l9 37h20q17 0 27 9.5T168-132H146l20 78h73Z"/>
<glyph unicode="&#x138;" glyph-name="kgreenlandic" horiz-adv-x="517" d="M143 478h70L155 244 457 478h99L321 299 452 0H370L261 252 132 153 94 0H24L143 478Z"/>
<glyph unicode="L" glyph-name="L" horiz-adv-x="548" d="M220 682h75L141 65H494L478 0H50L220 682Z"/>
<glyph unicode="l" glyph-name="l" horiz-adv-x="238" d="M202 711h70L94 0H24L202 711Z"/>
<glyph unicode="&#x139;" glyph-name="Lacute" horiz-adv-x="548" d="M220 682h75L141 65H494L478 0H50L220 682Zm7 67L354 881H465L304 749H227Z"/>
<glyph unicode="&#x13a;" glyph-name="lacute" horiz-adv-x="238" d="M202 711h70L94 0H24L202 711Zm7 74L329 926H431L280 785H209Z"/>
<glyph unicode="&#x13d;" glyph-name="Lcaron" horiz-adv-x="548" d="M220 682h75L141 65H494L478 0H50L220 682Zm206 74h78L406 569H346l80 187Z"/>
<glyph unicode="&#x13e;" glyph-name="lcaron" horiz-adv-x="255" d="M202 711h70L94 0H24L202 711Zm165 45h78L347 569H287l80 187Z"/>
<glyph unicode="&#x13b;" glyph-name="Lcommaaccent" horiz-adv-x="548" d="M220 682h75L141 65H494L478 0H50L220 682ZM284-54l-20-78q-9-39-35.5-58.5T159-210H138l10 37h17q18 0 28.5 9.5T208-134H188l19 80h77Z"/>
<glyph unicode="&#x13c;" glyph-name="lcommaaccent" horiz-adv-x="238" d="M202 711h70L94 0H24L202 711ZM81-54L61-132q-11-40-36-59t-67-19H-62l9 37h20q17 0 27 9.5T10-132H-12L8-54H81Z"/>
<glyph unicode="&#x141;" glyph-name="Lslash" horiz-adv-x="558" d="M425 382L208 296 151 65H504L488 0H60l65 263L4 215l16 65 122 48 88 354h75L225 361l217 86-17-65Z"/>
<glyph unicode="&#x142;" glyph-name="lslash" horiz-adv-x="258" d="M113 317L19 276l16 63 94 42 83 330h69L207 414l93 41-15-63-93-42L104 0H34l79 317Z"/>
<glyph unicode="&#x13f;" glyph-name="Ldot" horiz-adv-x="548" d="M220 682h75L141 65H494L478 0H50L220 682ZM389 313l29 118h96L485 313H389Z"/>
<glyph unicode="&#x140;" glyph-name="ldot" horiz-adv-x="340" d="M202 711h70L94 0H24L202 711Zm44-448l29 118h96L342 263H246Z"/>
<glyph unicode="M" glyph-name="M" horiz-adv-x="942" d="M220 682H337l60-344q17-95 24.5-145T433 104h1q24 44 82 131t69 103L817 682H942L772 0H697l60 240q40 163 58 230t39 149h-2q-10-14-49.5-74.5T706 399L439 0H379L310 400q-2 12-16.5 97T274 619h-2q-12-53-37.5-158.5T180 240L120 0H50L220 682Z"/>
<glyph unicode="m" glyph-name="m" horiz-adv-x="881" d="M672 0l69 273q11 45 12.5 65T751 377q-7 27-28.5 41T665 432q-25 0-50-9t-46-25q-35-28-57-68T475 228L418 0H348l68 273q11 46 12.5 65.5T426 377q-6 27-27.5 41T341 432q-26 0-51-9t-45-25q-34-28-56.5-68T150 228L94 0H24L84 240q15 62 28.5 120T139 478h68l-15-71h1q33 41 76 62.5T360 491q58 0 93-25.5T494 393q42 49 89.5 73.5T685 491q57 0 92-24t44.5-68.5T815 292L742 0H672Z"/>
<glyph unicode="&#x1e40;" glyph-name="uni1E40" horiz-adv-x="942" d="M220 682H337l60-344q17-95 24.5-145T433 104h1q24 44 82 131t69 103L817 682H942L772 0H697l60 240q40 163 58 230t39 149h-2q-10-14-49.5-74.5T706 399L439 0H379L310 400q-2 12-16.5 97T274 619h-2q-12-53-37.5-158.5T180 240L120 0H50L220 682Zm342 79l28 112h77L639 761H562Z"/>
<glyph unicode="&#x1e41;" glyph-name="uni1E41" horiz-adv-x="881" d="M672 0l69 273q11 45 12.5 65T751 377q-7 27-28.5 41T665 432q-25 0-50-9t-46-25q-35-28-57-68T475 228L418 0H348l68 273q11 46 12.5 65.5T426 377q-6 27-27.5 41T341 432q-26 0-51-9t-45-25q-34-28-56.5-68T150 228L94 0H24L84 240q15 62 28.5 120T139 478h68l-15-71h1q33 41 76 62.5T360 491q58 0 93-25.5T494 393q42 49 89.5 73.5T685 491q57 0 92-24t44.5-68.5T815 292L742 0H672ZM489 567l28 113h72L561 567H489Z"/>
<glyph unicode="N" glyph-name="N" horiz-adv-x="755" d="M499 0L345 394q-34 87-49.5 128.5T267 599h-1q-8-36-22-95T179 237L120 0H50L220 682h92L464 300q18-47 37.5-100.5T541 94h1q14 65 40.5 177T628 456l56 226h71L584 0H499Z"/>
<glyph unicode="n" glyph-name="n" horiz-adv-x="560" d="M352 0l68 272q12 49 13.5 68T430 377q-6 27-28 41t-58 14q-26 0-52.5-9T245 398q-34-27-56.5-67T150 228L94 0H24L84 240q15 62 28.5 120T139 478h69l-16-71h1q34 42 77.5 63T364 491q57 0 92-24t45-68.5T496 292L422 0H352Z"/>
<glyph unicode="&#x143;" glyph-name="Nacute" horiz-adv-x="755" d="M499 0L345 394q-34 87-49.5 128.5T267 599h-1q-8-36-22-95T179 237L120 0H50L220 682h92L464 300q18-47 37.5-100.5T541 94h1q14 65 40.5 177T628 456l56 226h71L584 0H499ZM452 749L579 881H690L529 749H452Z"/>
<glyph unicode="&#x144;" glyph-name="nacute" horiz-adv-x="560" d="M352 0l68 272q12 49 13.5 68T430 377q-6 27-28 41t-58 14q-26 0-52.5-9T245 398q-34-27-56.5-67T150 228L94 0H24L84 240q15 62 28.5 120T139 478h69l-16-71h1q34 42 77.5 63T364 491q57 0 92-24t45-68.5T496 292L422 0H352ZM311 551L431 692H533L382 551H311Z"/>
<glyph unicode="&#x147;" glyph-name="Ncaron" horiz-adv-x="755" d="M499 0L345 394q-34 87-49.5 128.5T267 599h-1q-8-36-22-95T179 237L120 0H50L220 682h92L464 300q18-47 37.5-100.5T541 94h1q14 65 40.5 177T628 456l56 226h71L584 0H499Zm44 750H468L384 882h69l63-75 98 75h80L543 750Z"/>
<glyph unicode="&#x148;" glyph-name="ncaron" horiz-adv-x="560" d="M352 0l68 272q12 49 13.5 68T430 377q-6 27-28 41t-58 14q-26 0-52.5-9T245 398q-34-27-56.5-67T150 228L94 0H24L84 240q15 62 28.5 120T139 478h69l-16-71h1q34 42 77.5 63T364 491q57 0 92-24t45-68.5T496 292L422 0H352Zm57 551H324L259 692h65l52-91 98 91h71L409 551Z"/>
<glyph unicode="&#xd1;" glyph-name="Ntilde" horiz-adv-x="755" d="M499 0L345 394q-34 87-49.5 128.5T267 599h-1q-8-36-22-95T179 237L120 0H50L220 682h92L464 300q18-47 37.5-100.5T541 94h1q14 65 40.5 177T628 456l56 226h71L584 0H499ZM453 818q-19 0-31.5-14.5T398 755H337q16 60 48.5 91.5T465 878q21 0 39.5-8.5t39.5-29T573.5 815t17.5-5q19 0 32 15t23 48h60q-15-60-47.5-91.5T579 750q-21 0-39.5 8.5t-39.5 29T470.5 813 453 818h0Z"/>
<glyph unicode="&#xf1;" glyph-name="ntilde" horiz-adv-x="560" d="M352 0l68 272q12 49 13.5 68T430 377q-6 27-28 41t-58 14q-26 0-52.5-9T245 398q-34-27-56.5-67T150 228L94 0H24L84 240q15 62 28.5 120T139 478h69l-16-71h1q34 42 77.5 63T364 491q57 0 92-24t45-68.5T496 292L422 0H352ZM316 625q-19 0-31-13.5T260 563H204q14 58 44.5 88T325 681q20 0 36-8t33.5-28.5 24.5-25 15-4.5q18 0 30 13.5T489 677h56q-14-59-44-88.5T425 559q-19 0-35.5 8T355 595.5t-25 25T316 625h0Z"/>
<glyph unicode="&#x145;" glyph-name="Ncommaaccent" horiz-adv-x="755" d="M499 0L345 394q-34 87-49.5 128.5T267 599h-1q-8-36-22-95T179 237L120 0H50L220 682h92L464 300q18-47 37.5-100.5T541 94h1q14 65 40.5 177T628 456l56 226h71L584 0H499ZM334-54l-20-78q-9-39-35.5-58.5T209-210H188l10 37h17q18 0 28.5 9.5T258-134H238l19 80h77Z"/>
<glyph unicode="&#x146;" glyph-name="ncommaaccent" horiz-adv-x="560" d="M352 0l68 272q12 49 13.5 68T430 377q-6 27-28 41t-58 14q-26 0-52.5-9T245 398q-34-27-56.5-67T150 228L94 0H24L84 240q15 62 28.5 120T139 478h69l-16-71h1q34 42 77.5 63T364 491q57 0 92-24t45-68.5T496 292L422 0H352ZM244-54l-20-78q-11-40-36-59t-67-19H101l9 37h20q17 0 27 9.5T173-132H151l20 78h73Z"/>
<glyph unicode="&#x14a;" glyph-name="Eng" horiz-adv-x="754" d="M420-95q24 0 41.5 10.5t30 32T511 2l4 14L354 393q-35 81-53.5 125.5T268 599h-1q-13-60-46-192.5T179 237L120 0H50L221 682h89L463 328q27-64 46.5-113T545 121h2q14 65 35.5 154.5T627 456l57 226h70L583 0q-14-56-37-90.5t-58-51T404-158q-25 0-39 7l14 56h41Z"/>
<glyph unicode="&#x14b;" glyph-name="eng" horiz-adv-x="560" d="M420 272q12 46 13.5 66.5T430 377q-6 27-28 41t-58 14q-26 0-52.5-9T245 398q-34-27-56.5-67T150 228L94 0H24L84 240q15 62 29 121.5T139 478h69l-16-71h1q34 42 77.5 63T364 491q57 0 92-24t45-68.5T496 292L415-31q-17-71-41.5-109t-60-56.5T230-215q-25 0-37 5l13 53h32q27 0 46.5 13t33 39T343-30l77 302Z"/>
<glyph unicode="O" glyph-name="O" horiz-adv-x="778" d="M736 337q-26-104-85-184T508.5 29.5 330-14q-96 0-160 45.5T86 159t6 186q27 106 86.5 185.5T321 653t177 43q96 0 159.5-45.5t84-127.5T736 337Zm-79 4q22 87 9 153T606.5 595.5 486 631q-73 0-137-35.5T238.5 494 170 341q-21-86-8.5-152t59-102T341 51q75 0 139 36T590 189t67 152Z"/>
<glyph unicode="o" glyph-name="o" horiz-adv-x="559" d="M508 235q-19-75-60-131.5t-99-86T222-12q-71 0-116.5 31.5t-60 90T50 243q19 76 60 132t98.5 86T336 491q71 0 116.5-32t60-90.5T508 235Zm-74 4q15 56 7 100.5T403.5 408 327 432q-49 0-90-24t-70.5-68T123 239t-5.5-101T155 70.5 230 47q49 0 90 23.5T390.5 138 434 239Z"/>
<glyph unicode="&#xd2;" glyph-name="Ograve" horiz-adv-x="778" d="M736 337q-26-104-85-184T508.5 29.5 330-14q-96 0-160 45.5T86 159t6 186q27 106 86.5 185.5T321 653t177 43q96 0 159.5-45.5t84-127.5T736 337Zm-79 4q22 87 9 153T606.5 595.5 486 631q-73 0-137-35.5T238.5 494 170 341q-21-86-8.5-152t59-102T341 51q75 0 139 36T590 189t67 152ZM493 749L400 881H503l59-132H493Z"/>
<glyph unicode="&#xf2;" glyph-name="ograve" horiz-adv-x="559" d="M508 235q-19-75-60-131.5t-99-86T222-12q-71 0-116.5 31.5t-60 90T50 243q19 76 60 132t98.5 86T336 491q71 0 116.5-32t60-90.5T508 235Zm-74 4q15 56 7 100.5T403.5 408 327 432q-49 0-90-24t-70.5-68T123 239t-5.5-101T155 70.5 230 47q49 0 90 23.5T390.5 138 434 239ZM254 692h94l50-141H334L254 692Z"/>
<glyph unicode="&#xd3;" glyph-name="Oacute" horiz-adv-x="778" d="M736 337q-26-104-85-184T508.5 29.5 330-14q-96 0-160 45.5T86 159t6 186q27 106 86.5 185.5T321 653t177 43q96 0 159.5-45.5t84-127.5T736 337Zm-79 4q22 87 9 153T606.5 595.5 486 631q-73 0-137-35.5T238.5 494 170 341q-21-86-8.5-152t59-102T341 51q75 0 139 36T590 189t67 152ZM464 749L591 881H702L541 749H464Z"/>
<glyph unicode="&#xf3;" glyph-name="oacute" horiz-adv-x="559" d="M508 235q-19-75-60-131.5t-99-86T222-12q-71 0-116.5 31.5t-60 90T50 243q19 76 60 132t98.5 86T336 491q71 0 116.5-32t60-90.5T508 235Zm-74 4q15 56 7 100.5T403.5 408 327 432q-49 0-90-24t-70.5-68T123 239t-5.5-101T155 70.5 230 47q49 0 90 23.5T390.5 138 434 239ZM311 551L431 692H533L382 551H311Z"/>
<glyph unicode="&#xd4;" glyph-name="Ocircumflex" horiz-adv-x="778" d="M736 337q-26-104-85-184T508.5 29.5 330-14q-96 0-160 45.5T86 159t6 186q27 106 86.5 185.5T321 653t177 43q96 0 159.5-45.5t84-127.5T736 337Zm-79 4q22 87 9 153T606.5 595.5 486 631q-73 0-137-35.5T238.5 494 170 341q-21-86-8.5-152t59-102T341 51q75 0 139 36T590 189t67 152ZM512 882h72l87-132H599l-61 75-98-75H361L512 882Z"/>
<glyph unicode="&#xf4;" glyph-name="ocircumflex" horiz-adv-x="559" d="M508 235q-19-75-60-131.5t-99-86T222-12q-71 0-116.5 31.5t-60 90T50 243q19 76 60 132t98.5 86T336 491q71 0 116.5-32t60-90.5T508 235Zm-74 4q15 56 7 100.5T403.5 408 327 432q-49 0-90-24t-70.5-68T123 239t-5.5-101T155 70.5 230 47q49 0 90 23.5T390.5 138 434 239ZM349 692h87l64-141H435l-52 90-98-90H215L349 692Z"/>
<glyph unicode="&#xd5;" glyph-name="Otilde" horiz-adv-x="778" d="M736 337q-26-104-85-184T508.5 29.5 330-14q-96 0-160 45.5T86 159t6 186q27 106 86.5 185.5T321 653t177 43q96 0 159.5-45.5t84-127.5T736 337Zm-79 4q22 87 9 153T606.5 595.5 486 631q-73 0-137-35.5T238.5 494 170 341q-21-86-8.5-152t59-102T341 51q75 0 139 36T590 189t67 152ZM463 818q-19 0-31.5-14.5T408 755H347q16 60 48.5 91.5T475 878q21 0 39.5-8.5t39.5-29T583.5 815t17.5-5q19 0 32 15t23 48h60q-15-60-47.5-91.5T589 750q-21 0-39.5 8.5t-39.5 29T480.5 813 463 818h0Z"/>
<glyph unicode="&#xf5;" glyph-name="otilde" horiz-adv-x="559" d="M508 235q-19-75-60-131.5t-99-86T222-12q-71 0-116.5 31.5t-60 90T50 243q19 76 60 132t98.5 86T336 491q71 0 116.5-32t60-90.5T508 235Zm-74 4q15 56 7 100.5T403.5 408 327 432q-49 0-90-24t-70.5-68T123 239t-5.5-101T155 70.5 230 47q49 0 90 23.5T390.5 138 434 239ZM316 625q-19 0-31-13.5T260 563H204q14 58 44.5 88T325 681q20 0 36-8t33.5-28.5 24.5-25 15-4.5q18 0 30 13.5T489 677h56q-14-59-44-88.5T425 559q-19 0-35.5 8T355 595.5t-25 25T316 625h0Z"/>
<glyph unicode="&#xd6;" glyph-name="Odieresis" horiz-adv-x="778" d="M736 337q-26-104-85-184T508.5 29.5 330-14q-96 0-160 45.5T86 159t6 186q27 106 86.5 185.5T321 653t177 43q96 0 159.5-45.5t84-127.5T736 337Zm-79 4q22 87 9 153T606.5 595.5 486 631q-73 0-137-35.5T238.5 494 170 341q-21-86-8.5-152t59-102T341 51q75 0 139 36T590 189t67 152ZM593 761l28 112h76L668 761H593Zm-223 0l28 112h76L445 761H370Z"/>
<glyph unicode="&#xf6;" glyph-name="odieresis" horiz-adv-x="559" d="M508 235q-19-75-60-131.5t-99-86T222-12q-71 0-116.5 31.5t-60 90T50 243q19 76 60 132t98.5 86T336 491q71 0 116.5-32t60-90.5T508 235Zm-74 4q15 56 7 100.5T403.5 408 327 432q-49 0-90-24t-70.5-68T123 239t-5.5-101T155 70.5 230 47q49 0 90 23.5T390.5 138 434 239ZM417 567l28 113h71L488 567H417Zm-184 0l28 113h71L304 567H233Z"/>
<glyph unicode="&#x14c;" glyph-name="Omacron" horiz-adv-x="778" d="M736 337q-26-104-85-184T508.5 29.5 330-14q-96 0-160 45.5T86 159t6 186q27 106 86.5 185.5T321 653t177 43q96 0 159.5-45.5t84-127.5T736 337Zm-79 4q22 87 9 153T606.5 595.5 486 631q-73 0-137-35.5T238.5 494 170 341q-21-86-8.5-152t59-102T341 51q75 0 139 36T590 189t67 152Zm15 440H375l16 62H688l-16-62Z"/>
<glyph unicode="&#x14d;" glyph-name="omacron" horiz-adv-x="559" d="M508 235q-19-75-60-131.5t-99-86T222-12q-71 0-116.5 31.5t-60 90T50 243q19 76 60 132t98.5 86T336 491q71 0 116.5-32t60-90.5T508 235Zm-74 4q15 56 7 100.5T403.5 408 327 432q-49 0-90-24t-70.5-68T123 239t-5.5-101T155 70.5 230 47q49 0 90 23.5T390.5 138 434 239Zm66 350H231l15 58H515l-15-58Z"/>
<glyph unicode="&#x14e;" glyph-name="Obreve" horiz-adv-x="778" d="M736 337q-26-104-85-184T508.5 29.5 330-14q-96 0-160 45.5T86 159t6 186q27 106 86.5 185.5T321 653t177 43q96 0 159.5-45.5t84-127.5T736 337Zm-79 4q22 87 9 153T606.5 595.5 486 631q-73 0-137-35.5T238.5 494 170 341q-21-86-8.5-152t59-102T341 51q75 0 139 36T590 189t67 152Zm37 543q-10-45-32-76t-57.5-47T522 745q-49 0-80 17.5t-40.5 49T406 884h59q-8-41 7.5-59.5T529 806q42 0 67.5 19T633 884h61Z"/>
<glyph unicode="&#x14f;" glyph-name="obreve" horiz-adv-x="559" d="M508 235q-19-75-60-131.5t-99-86T222-12q-71 0-116.5 31.5t-60 90T50 243q19 76 60 132t98.5 86T336 491q71 0 116.5-32t60-90.5T508 235Zm-74 4q15 56 7 100.5T403.5 408 327 432q-49 0-90-24t-70.5-68T123 239t-5.5-101T155 70.5 230 47q49 0 90 23.5T390.5 138 434 239Zm92 449q-7-43-29-73.5T440.5 569 362 554t-72.5 16-37 46 3.5 72h55q-5-29 0-45.5t19.5-24T369 611q27 0 47 9t33.5 26T471 688h55Z"/>
<glyph unicode="&#x150;" glyph-name="Ohungarumlaut" horiz-adv-x="778" d="M736 337q-26-104-85-184T508.5 29.5 330-14q-96 0-160 45.5T86 159t6 186q27 106 86.5 185.5T321 653t177 43q96 0 159.5-45.5t84-127.5T736 337Zm-79 4q22 87 9 153T606.5 595.5 486 631q-73 0-137-35.5T238.5 494 170 341q-21-86-8.5-152t59-102T341 51q75 0 139 36T590 189t67 152ZM569 749L695 881H805L645 749H569Zm-203 0L475 881H580L438 749H366Z"/>
<glyph unicode="&#x151;" glyph-name="ohungarumlaut" horiz-adv-x="559" d="M508 235q-19-75-60-131.5t-99-86T222-12q-71 0-116.5 31.5t-60 90T50 243q19 76 60 132t98.5 86T336 491q71 0 116.5-32t60-90.5T508 235Zm-74 4q15 56 7 100.5T403.5 408 327 432q-49 0-90-24t-70.5-68T123 239t-5.5-101T155 70.5 230 47q49 0 90 23.5T390.5 138 434 239ZM402 551L522 692H624L472 551H402Zm-174 0L331 692h96L297 551H228Z"/>
<glyph unicode="&#xd8;" glyph-name="Oslash" horiz-adv-x="778" d="M170 341q-13-52-13.5-96.5T168 164L633 569q-23 31-60.5 47T487 632q-74 0-138-35.5T238.5 495 170 341Zm488 0q13 51 13.5 95.5T660 518L195 113q23-31 60-46.5T341 51q74 0 138 35T589.5 187 658 341ZM8 27l96 81Q81 155 78 216T92 345q26 105 85.5 185T320 653t178 43q61 0 111-20t83-57l88 78 39-42-95-82q23-45 26-105.5T736 337q-27-106-86.5-185.5T507 29 330-14Q267-14 217.5 5.5T137 62L47-16 8 27Z"/>
<glyph unicode="&#xf8;" glyph-name="oslash" horiz-adv-x="559" d="M435 239q8 28 9.5 56T442 347L139 83q15-18 38.5-27.5T231 46q48 0 89 23.5T391 137t44 102Zm-313 0q-7-27-8.5-54.5T115 132L419 395q-15 18-38.5 27.5T327 432q-48 0-88.5-23T168 342 122 239ZM-30 6L56 79q-15 33-16.5 75.5T50 243q19 76 60 132t98.5 86T336 491q44 0 79-13t57-36l80 70 35-40-85-72q15-33 16.5-75.5T508 235q-18-74-59-130.5T350 18 222-12q-44 0-79 12.5T85 37L5-34-30 6Z"/>
<glyph unicode="&#x1fe;" glyph-name="Oslashacute" horiz-adv-x="778" d="M170 341q-13-52-13.5-96.5T168 164L633 569q-23 31-60.5 47T487 632q-74 0-138-35.5T238.5 495 170 341Zm488 0q13 51 13.5 95.5T660 518L195 113q23-31 60-46.5T341 51q74 0 138 35T589.5 187 658 341ZM8 27l96 81Q81 155 78 216T92 345q26 105 85.5 185T320 653t178 43q61 0 111-20t83-57l88 78 39-42-95-82q23-45 26-105.5T736 337q-27-106-86.5-185.5T507 29 330-14Q267-14 217.5 5.5T137 62L47-16 8 27ZM464 749L591 881H702L541 749H464Z"/>
<glyph unicode="&#x1ff;" glyph-name="oslashacute" horiz-adv-x="559" d="M435 239q8 28 9.5 56T442 347L139 83q15-18 38.5-27.5T231 46q48 0 89 23.5T391 137t44 102Zm-313 0q-7-27-8.5-54.5T115 132L419 395q-15 18-38.5 27.5T327 432q-48 0-88.5-23T168 342 122 239ZM-30 6L56 79q-15 33-16.5 75.5T50 243q19 76 60 132t98.5 86T336 491q44 0 79-13t57-36l80 70 35-40-85-72q15-33 16.5-75.5T508 235q-18-74-59-130.5T350 18 222-12q-44 0-79 12.5T85 37L5-34-30 6ZM311 551L431 692H533L382 551H311Z"/>
<glyph unicode="&#x152;" glyph-name="OE" horiz-adv-x="1128" d="M639 341q22 87 10 153.5T592.5 597 477 633 344 597 237 494.5 170 341 160 187.5t56.5-102T332 50 465 85.5 572 187t67 154ZM487 696q79 0 134-34.5T695 566h1l28 116h432l-16-63H785L723 379h310l-14-60H708L645 64h374L1002 0H554l27 109h-1Q528 47 464 16.5T321-14q-93 0-154.5 45.5T85.5 159 92 345q26 105 84 184.5t138.5 123T487 696Z"/>
<glyph unicode="&#x153;" glyph-name="oe" horiz-adv-x="912" d="M828 89Q784 38 728 13T604-12 494 19t-52 90q-41-59-97-90T222-12q-72 0-117.5 31.5t-60 90T50 243q19 76 59.5 132.5t98.5 86T336 491q69 0 110-30t53-90q40 59 92.5 89.5T707 491q49 0 85-16.5T849.5 427 877 354.5 873 271q-8-32-16-46H503q-13-54-2.5-94.5T541 68t74-22q52 0 92.5 20T785 129l43-40ZM434 239q15 56 7 100t-37.5 68.5T327 432q-49 0-90-24t-70.5-68T123 239q-14-56-6-100t37-68 76-24q49 0 90 23.5T390.5 138 434 239h0Zm365 42q11 41 3 76.5T767.5 413 700 433q-39 0-74.5-17.5t-63-52T517 281H799Z"/>
<glyph unicode="P" glyph-name="P" horiz-adv-x="637" d="M220 682q35 0 120 0.5T468 683q86 0 140-25t73-72.5T683 472 626.5 362t-103-66T371 274q-69 0-106.5 0T193 275L125 0H50L220 682ZM605 478q12 49 0 80t-48.5 46T456 619q-77 0-112 0t-64-1L209 339q30-1 65-1t110 0q64 0 109 15.5t72.5 46T605 478Z"/>
<glyph unicode="p" glyph-name="p" horiz-adv-x="569" d="M-28-207L84 241q15 58 28.5 117T139 478h69l-16-71h1q34 41 77.5 62.5T364 491q65 0 106.5-32.5t54-90.5T519 237q-19-77-59-133.5t-95.5-86T246-12q-49 0-85 21T109 67h-1q-5-27-21-89L42-207H-28ZM149 229q-13-56-6-97.5T177 68t71-22q46 0 85.5 24.5t68 68.5T444 240q15 58 8 102t-34.5 67T346 432q-42 0-81.5-22.5t-68.5-64T154 250l-5-21Z"/>
<glyph unicode="&#x1e56;" glyph-name="uni1E56" horiz-adv-x="637" d="M220 682q35 0 120 0.5T468 683q86 0 140-25t73-72.5T683 472 626.5 362t-103-66T371 274q-69 0-106.5 0T193 275L125 0H50L220 682ZM605 478q12 49 0 80t-48.5 46T456 619q-77 0-112 0t-64-1L209 339q30-1 65-1t110 0q64 0 109 15.5t72.5 46T605 478ZM443 761l28 112h77L520 761H443Z"/>
<glyph unicode="&#x1e57;" glyph-name="uni1E57" horiz-adv-x="569" d="M-28-207L84 241q15 58 28.5 117T139 478h69l-16-71h1q34 41 77.5 62.5T364 491q65 0 106.5-32.5t54-90.5T519 237q-19-77-59-133.5t-95.5-86T246-12q-49 0-85 21T109 67h-1q-5-27-21-89L42-207H-28ZM149 229q-13-56-6-97.5T177 68t71-22q46 0 85.5 24.5t68 68.5T444 240q15 58 8 102t-34.5 67T346 432q-42 0-81.5-22.5t-68.5-64T154 250l-5-21ZM343 567l28 113h72L415 567H343Z"/>
<glyph unicode="&#xde;" glyph-name="Thorn" horiz-adv-x="637" d="M180 221q30-1 64.5-1T354 220q64 0 109 15t72.5 46T576 361q12 48 0 79t-49 46.5T427 502q-34 0-93-0.5T249 501L180 221ZM50 0L220 682h75L266 564q24 0 82 0.5t91 0.5q86 0 140-25t73-72.5T654 354 597.5 244t-103-66T342 156q-48 0-178 2L125 0H50Z"/>
<glyph unicode="&#xfe;" glyph-name="thorn" horiz-adv-x="569" d="M202 711h70L219 501q-18-70-27-94h1q35 42 78 63t93 21q65 0 106.5-32.5t54-90.5T519 237q-19-77-59-133.5t-95.5-86T246-12q-49 0-85 21T109 67h-1q-3-20-21-89L42-207H-28L202 711ZM149 229q-13-55-6-96.5t34-64T248 46q45 0 84.5 24T401 138t43 102q15 56 8 100t-34 68-72 24q-42 0-81.5-22.5t-68.5-64T154 250l-5-21Z"/>
<glyph unicode="Q" glyph-name="Q" horiz-adv-x="778" d="M736 337q-19-75-55-137.5T595 90l59-77L601-27 543 50Q446-14 330-14q-96 0-160 45.5T86 159t6 186q27 106 86.5 186t142 122.5T498 696q96 0 160-45.5T742 523t-6-186ZM477 247l76-102q37 37 63 87t41 109q23 87 9.5 153t-60 101.5T486 631q-72 0-136-35T239.5 495 170 341q-21-86-8.5-152t59-102T341 51q44 0 84.5 13T503 102L425 207l52 40Z"/>
<glyph unicode="q" glyph-name="q" horiz-adv-x="570" d="M418 248q14 54 7 96t-34.5 65T319 432q-45 0-84.5-23.5t-68.5-68T123 238q-14-57-7.5-101T149 69.5 221 46q43 0 82.5 23.5t68 65T413 229l5 19ZM303-207L348-22q15 57 28 93h-1Q339 29 296 8.5T203-12Q138-12 96.5 20.5T43 111t6 130q19 77 59 133.5T203.5 461 322 491q49 0 85.5-22T460 409h1l22 69h69q-17-53-33.5-110.5T485 242L372-207H303Z"/>
<glyph unicode="R" glyph-name="R" horiz-adv-x="691" d="M220 682q18 0 108 0.5T464 683q84 0 138-25t73.5-72.5T678 474q-13-55-46-94t-83-63T433 286L591 0H504L351 281H194L125 0H50L220 682Zm-9-336q27-1 63.5-1.5T375 344q65 0 111 14.5t74 45T601 482q11 46-0.5 76t-48 45.5T454 619q-80 0-175-1L211 346Z"/>
<glyph unicode="r" glyph-name="r" horiz-adv-x="343" d="M24 0L84 240q21 85 36 148.5T140 478h68l-22-97h1q39 53 87.5 81T374 490q7 0 15-1l-19-76H353q-29 0-56.5-10.5T244 372q-38-31-63-75T137 173L94 0H24Z"/>
<glyph unicode="&#x154;" glyph-name="Racute" horiz-adv-x="691" d="M220 682q18 0 108 0.5T464 683q84 0 138-25t73.5-72.5T678 474q-13-55-46-94t-83-63T433 286L591 0H504L351 281H194L125 0H50L220 682Zm-9-336q27-1 63.5-1.5T375 344q65 0 111 14.5t74 45T601 482q11 46-0.5 76t-48 45.5T454 619q-80 0-175-1L211 346ZM422 749L549 881H660L499 749H422Z"/>
<glyph unicode="&#x155;" glyph-name="racute" horiz-adv-x="343" d="M24 0L84 240q21 85 36 148.5T140 478h68l-22-97h1q39 53 87.5 81T374 490q7 0 15-1l-19-76H353q-29 0-56.5-10.5T244 372q-38-31-63-75T137 173L94 0H24ZM231 551L351 692H453L302 551H231Z"/>
<glyph unicode="&#x158;" glyph-name="Rcaron" horiz-adv-x="691" d="M220 682q18 0 108 0.5T464 683q84 0 138-25t73.5-72.5T678 474q-13-55-46-94t-83-63T433 286L591 0H504L351 281H194L125 0H50L220 682Zm-9-336q27-1 63.5-1.5T375 344q65 0 111 14.5t74 45T601 482q11 46-0.5 76t-48 45.5T454 619q-80 0-175-1L211 346ZM512 750H437L353 882h69l63-75 98 75h80L512 750Z"/>
<glyph unicode="&#x159;" glyph-name="rcaron" horiz-adv-x="343" d="M24 0L84 240q21 85 36 148.5T140 478h68l-22-97h1q39 53 87.5 81T374 490q7 0 15-1l-19-76H353q-29 0-56.5-10.5T244 372q-38-31-63-75T137 173L94 0H24ZM321 551H236L171 692h65l52-91 98 91h71L321 551Z"/>
<glyph unicode="&#x156;" glyph-name="Rcommaaccent" horiz-adv-x="691" d="M220 682q18 0 108 0.5T464 683q84 0 138-25t73.5-72.5T678 474q-13-55-46-94t-83-63T433 286L591 0H504L351 281H194L125 0H50L220 682Zm-9-336q27-1 63.5-1.5T375 344q65 0 111 14.5t74 45T601 482q11 46-0.5 76t-48 45.5T454 619q-80 0-175-1L211 346ZM326-54l-20-78q-9-39-35.5-58.5T201-210H180l10 37h17q18 0 28.5 9.5T250-134H230l19 80h77Z"/>
<glyph unicode="&#x157;" glyph-name="rcommaaccent" horiz-adv-x="343" d="M24 0L84 240q21 85 36 148.5T140 478h68l-22-97h1q39 53 87.5 81T374 490q7 0 15-1l-19-76H353q-29 0-56.5-10.5T244 372q-38-31-63-75T137 173L94 0H24ZM81-54L61-132q-11-40-36-59t-67-19H-62l9 37h20q17 0 27 9.5T10-132H-12L8-54H81Z"/>
<glyph unicode="S" glyph-name="S" horiz-adv-x="655" d="M86 166q40-59 95-88T309 49q46 0 84.5 13.5T457 102t33 60q9 35-1 61.5T450 270 331 321 205 381t-47 69.5 3 94.5q12 45 46 79.5t85 53T403 696q80 0 142.5-26.5T643 596l-53-51q-33 45-80 66.5T396 633q-44 0-77.5-11.5t-54-33.5T236 534q-8-34 2-59.5T276.5 430t117-49T519 321.5t48-71T564 153q-12-50-49-87.5T422 7 302-14q-89 0-156 32.5T31 117l55 49Z"/>
<glyph unicode="s" glyph-name="s" horiz-adv-x="487" d="M55 121q26-37 65.5-56.5T206 45q36 0 61.5 7.5t40.5 23T328 113q6 23-1.5 40T300 183t-79.5 36.5-86.5 45-34.5 50T100 381q8 34 32.5 59T196 478t88 13q54 0 100.5-18.5T457 423l-46-48q-23 28-58 43t-75 15q-32 0-54.5-6.5T188 407t-18-33q-5-22 1.5-38.5T197 306t79.5-36T363 225.5t34.5-51T397 106q-8-36-34-62.5t-68-41T200-12Q138-12 86.5 11T8 74l47 47Z"/>
<glyph unicode="&#x15a;" glyph-name="Sacute" horiz-adv-x="655" d="M86 166q40-59 95-88T309 49q46 0 84.5 13.5T457 102t33 60q9 35-1 61.5T450 270 331 321 205 381t-47 69.5 3 94.5q12 45 46 79.5t85 53T403 696q80 0 142.5-26.5T643 596l-53-51q-33 45-80 66.5T396 633q-44 0-77.5-11.5t-54-33.5T236 534q-8-34 2-59.5T276.5 430t117-49T519 321.5t48-71T564 153q-12-50-49-87.5T422 7 302-14q-89 0-156 32.5T31 117l55 49ZM393 749L520 881H631L470 749H393Z"/>
<glyph unicode="&#x15b;" glyph-name="sacute" horiz-adv-x="487" d="M55 121q26-37 65.5-56.5T206 45q36 0 61.5 7.5t40.5 23T328 113q6 23-1.5 40T300 183t-79.5 36.5-86.5 45-34.5 50T100 381q8 34 32.5 59T196 478t88 13q54 0 100.5-18.5T457 423l-46-48q-23 28-58 43t-75 15q-32 0-54.5-6.5T188 407t-18-33q-5-22 1.5-38.5T197 306t79.5-36T363 225.5t34.5-51T397 106q-8-36-34-62.5t-68-41T200-12Q138-12 86.5 11T8 74l47 47ZM267 551L387 692H489L338 551H267Z"/>
<glyph unicode="&#x15c;" glyph-name="Scircumflex" horiz-adv-x="655" d="M86 166q40-59 95-88T309 49q46 0 84.5 13.5T457 102t33 60q9 35-1 61.5T450 270 331 321 205 381t-47 69.5 3 94.5q12 45 46 79.5t85 53T403 696q80 0 142.5-26.5T643 596l-53-51q-33 45-80 66.5T396 633q-44 0-77.5-11.5t-54-33.5T236 534q-8-34 2-59.5T276.5 430t117-49T519 321.5t48-71T564 153q-12-50-49-87.5T422 7 302-14q-89 0-156 32.5T31 117l55 49ZM439 882h72l87-132H526l-61 75-98-75H288L439 882Z"/>
<glyph unicode="&#x15d;" glyph-name="scircumflex" horiz-adv-x="487" d="M55 121q26-37 65.5-56.5T206 45q36 0 61.5 7.5t40.5 23T328 113q6 23-1.5 40T300 183t-79.5 36.5-86.5 45-34.5 50T100 381q8 34 32.5 59T196 478t88 13q54 0 100.5-18.5T457 423l-46-48q-23 28-58 43t-75 15q-32 0-54.5-6.5T188 407t-18-33q-5-22 1.5-38.5T197 306t79.5-36T363 225.5t34.5-51T397 106q-8-36-34-62.5t-68-41T200-12Q138-12 86.5 11T8 74l47 47ZM305 692h87l64-141H391l-52 90-98-90H171L305 692Z"/>
<glyph unicode="&#x160;" glyph-name="Scaron" horiz-adv-x="655" d="M86 166q40-59 95-88T309 49q46 0 84.5 13.5T457 102t33 60q9 35-1 61.5T450 270 331 321 205 381t-47 69.5 3 94.5q12 45 46 79.5t85 53T403 696q80 0 142.5-26.5T643 596l-53-51q-33 45-80 66.5T396 633q-44 0-77.5-11.5t-54-33.5T236 534q-8-34 2-59.5T276.5 430t117-49T519 321.5t48-71T564 153q-12-50-49-87.5T422 7 302-14q-89 0-156 32.5T31 117l55 49ZM480 750H405L321 882h69l63-75 98 75h80L480 750Z"/>
<glyph unicode="&#x161;" glyph-name="scaron" horiz-adv-x="487" d="M55 121q26-37 65.5-56.5T206 45q36 0 61.5 7.5t40.5 23T328 113q6 23-1.5 40T300 183t-79.5 36.5-86.5 45-34.5 50T100 381q8 34 32.5 59T196 478t88 13q54 0 100.5-18.5T457 423l-46-48q-23 28-58 43t-75 15q-32 0-54.5-6.5T188 407t-18-33q-5-22 1.5-38.5T197 306t79.5-36T363 225.5t34.5-51T397 106q-8-36-34-62.5t-68-41T200-12Q138-12 86.5 11T8 74l47 47ZM353 551H268L203 692h65l52-91 98 91h71L353 551Z"/>
<glyph unicode="&#x15e;" glyph-name="Scedilla" horiz-adv-x="655" d="M148-207q39 28 57.5 50T224-119q0 11-8.5 21.5T186-76l54 66Q174-1 122 30T31 117l55 49q40-60 95-88.5T309 49q46 0 84.5 13.5T457 102t33 60q7 28 2 50t-21 39.5T423.5 284 324 323.5 224.5 368t-49 45.5-21.5 58 7 73.5q12 45 46 79.5t85.5 53T403 696q80 0 142.5-26T643 596l-53-51q-33 45-80.5 66.5T396 633q-44 0-77.5-12t-54-33.5T236 534q-7-27-2-48t21-38 47-31 98.5-38T500 335t50-46 21.5-60T564 153q-12-49-49-86.5T423.5 8 308-14L273-56q27-24 27-56 0-23-17.5-47T230-207H148Z"/>
<glyph unicode="&#x15f;" glyph-name="scedilla" horiz-adv-x="487" d="M62-207q43 31 60 52t17 36q0 11-8.5 21.5T100-76L156-9Q106-2 68 19.5T8 74l47 47q27-38 67-57t84-19q50 0 81.5 15.5T328 113q8 33-9 52t-46 33-64 26.5-63 31-42.5 48T100 381q14 55 63.5 82.5T284 491q52 0 98.5-17.5T457 423l-46-48q-26 31-61.5 44.5T278 433q-47 0-74-14t-34-45q-8-32 9-51t46-32 64-25.5T352 234t42.5-49 2.5-79q-13-55-61.5-84.5T220-11L184-56q27-24 27-56 0-22-16.5-46T141-207H62Z"/>
<glyph unicode="&#x218;" glyph-name="Scommaaccent" horiz-adv-x="655" d="M86 166q40-59 95-88T309 49q46 0 84.5 13.5T457 102t33 60q9 35-1 61.5T450 270 331 321 205 381t-47 69.5 3 94.5q12 45 46 79.5t85 53T403 696q80 0 142.5-26.5T643 596l-53-51q-33 45-80 66.5T396 633q-44 0-77.5-11.5t-54-33.5T236 534q-8-34 2-59.5T276.5 430t117-49T519 321.5t48-71T564 153q-12-50-49-87.5T422 7 302-14q-89 0-156 32.5T31 117l55 49ZM306-54l-20-78q-9-39-35.5-58.5T181-210H160l10 37h17q18 0 28.5 9.5T230-134H210l19 80h77Z"/>
<glyph unicode="&#x219;" glyph-name="scommaaccent" horiz-adv-x="487" d="M55 121q26-37 65.5-56.5T206 45q36 0 61.5 7.5t40.5 23T328 113q6 23-1.5 40T300 183t-79.5 36.5-86.5 45-34.5 50T100 381q8 34 32.5 59T196 478t88 13q54 0 100.5-18.5T457 423l-46-48q-23 28-58 43t-75 15q-32 0-54.5-6.5T188 407t-18-33q-5-22 1.5-38.5T197 306t79.5-36T363 225.5t34.5-51T397 106q-8-36-34-62.5t-68-41T200-12Q138-12 86.5 11T8 74l47 47ZM217-54l-20-78q-11-40-36-59T94-210H74l9 37h20q17 0 27 9.5T146-132H124l20 78h73Z"/>
<glyph unicode="&#x1e60;" glyph-name="uni1E60" horiz-adv-x="655" d="M86 166q40-59 95-88T309 49q46 0 84.5 13.5T457 102t33 60q9 35-1 61.5T450 270 331 321 205 381t-47 69.5 3 94.5q12 45 46 79.5t85 53T403 696q80 0 142.5-26.5T643 596l-53-51q-33 45-80 66.5T396 633q-44 0-77.5-11.5t-54-33.5T236 534q-8-34 2-59.5T276.5 430t117-49T519 321.5t48-71T564 153q-12-50-49-87.5T422 7 302-14q-89 0-156 32.5T31 117l55 49ZM408 761l28 112h77L485 761H408Z"/>
<glyph unicode="&#x1e61;" glyph-name="uni1E61" horiz-adv-x="487" d="M55 121q26-37 65.5-56.5T206 45q36 0 61.5 7.5t40.5 23T328 113q6 23-1.5 40T300 183t-79.5 36.5-86.5 45-34.5 50T100 381q8 34 32.5 59T196 478t88 13q54 0 100.5-18.5T457 423l-46-48q-23 28-58 43t-75 15q-32 0-54.5-6.5T188 407t-18-33q-5-22 1.5-38.5T197 306t79.5-36T363 225.5t34.5-51T397 106q-8-36-34-62.5t-68-41T200-12Q138-12 86.5 11T8 74l47 47ZM278 567l28 113h72L350 567H278Z"/>
<glyph unicode="&#x1e9e;" glyph-name="uni1E9E" horiz-adv-x="739" d="M155 450q20 83 65 137.5t115 81T501 695q117 0 242-31l-14-54L474 387q77-2 128-27.5T671 288t2-109q-15-59-54-103T521 9 390-14q-36 0-71 6T256 8l24 65q26-11 58.5-17.5T402 49q50 0 90 16.5T558.5 113 596 185q12 46-2 77t-53 47T437 325H369l15 63L643 616q-72 15-151 15-77 0-129-19.5T278 551 228 444L118 0H43L155 450Z"/>
<glyph unicode="&#xdf;" glyph-name="germandbls" horiz-adv-x="569" d="M152 513q17 68 50.5 113t84 67.5T404 716q60 0 100-20t55.5-57 3.5-81q-7-26-20-46.5t-33.5-37-60-35T397 412t-20.5-19.5T366 370q-4-16 0-29.5t14.5-26 47-41.5T480 220t20-52.5T495 105q-9-36-32.5-62.5T402.5 2 321-12q-38 0-71 9.5T198 24l31 54q21-16 45-24.5T326 45q27 0 47.5 8T407 77t19 38q5 20 1 37t-16 32.5T362 229t-51.5 49.5T292 322t3 51q5 22 16.5 39.5t30 32 58.5 34 55 31T479 534t13 28q7 28-2.5 50.5t-34.5 34T392 658q-45 0-78.5-16T257 592.5 221 508L94 0H24L152 513Z"/>
<glyph unicode="&#x17f;" glyph-name="longs" horiz-adv-x="257" d="M25 0L167 577q11 47 32.5 77.5t53.5 46T328 716q20 0 44-4.5T412 701l-19-60q-16 8-35.5 12T321 657q-22 0-38-8.5t-27-26T238 577L94 0H25Z"/>
<glyph unicode="T" glyph-name="T" horiz-adv-x="533" d="M323 619H86l16 63H650l-16-63H398L244 0H169L323 619Z"/>
<glyph unicode="t" glyph-name="t" horiz-adv-x="346" d="M154 421H54l15 57h98l43 167 77 20L237 478H381l-14-57H224L165 188q-13-52-17-74.5T145.5 79 155 59q6-6 15-9t22-3q20 0 42.5 4.5T277 65L263 5Q242-4 220-8t-45-4q-46 0-70.5 16.5T74.5 54 81 137q5 18 18.5 69.5T123 299l31 122Z"/>
<glyph unicode="&#x164;" glyph-name="Tcaron" horiz-adv-x="533" d="M323 619H86l16 63H650l-16-63H398L244 0H169L323 619ZM426 750H351L267 882h69l63-75 98 75h80L426 750Z"/>
<glyph unicode="&#x165;" glyph-name="tcaron" horiz-adv-x="346" d="M154 421H54l15 57h98l43 167 77 20L237 478H381l-14-57H224L165 188q-13-52-17-74.5T145.5 79 155 59q6-6 15-9t22-3q20 0 42.5 4.5T277 65L263 5Q242-4 220-8t-45-4q-46 0-70.5 16.5T74.5 54 81 137q5 18 18.5 69.5T123 299l31 122ZM402 756h78L382 569H322l80 187Z"/>
<glyph unicode="&#x162;" glyph-name="Tcommaaccent" horiz-adv-x="533" d="M323 619H86l16 63H650l-16-63H398L244 0H169L323 619ZM226-54l-20-78q-9-39-35.5-58.5T101-210H80l10 37h17q18 0 28.5 9.5T150-134H130l19 80h77Z"/>
<glyph unicode="&#x163;" glyph-name="tcommaaccent" horiz-adv-x="346" d="M154 421H54l15 57h98l43 167 77 20L237 478H381l-14-57H224L165 188q-13-52-17-74.5T145.5 79 155 59q6-6 15-9t22-3q20 0 42.5 4.5T277 65L263 5Q242-4 220-8t-45-4q-46 0-70.5 16.5T74.5 54 81 137q5 18 18.5 69.5T123 299l31 122ZM177-54l-20-78q-11-40-36-59T54-210H34l9 37H63q17 0 27 9.5T106-132H84l20 78h73Z"/>
<glyph unicode="&#x21a;" glyph-name="uni021A" horiz-adv-x="533" d="M323 619H86l16 63H650l-16-63H398L244 0H169L323 619ZM226-54l-20-78q-9-39-35.5-58.5T101-210H80l10 37h17q18 0 28.5 9.5T150-134H130l19 80h77Z"/>
<glyph unicode="&#x21b;" glyph-name="uni021B" horiz-adv-x="346" d="M154 421H54l15 57h98l43 167 77 20L237 478H381l-14-57H224L165 188q-13-52-17-74.5T145.5 79 155 59q6-6 15-9t22-3q20 0 42.5 4.5T277 65L263 5Q242-4 220-8t-45-4q-46 0-70.5 16.5T74.5 54 81 137q5 18 18.5 69.5T123 299l31 122ZM177-54l-20-78q-11-40-36-59T54-210H34l9 37H63q17 0 27 9.5T106-132H84l20 78h73Z"/>
<glyph unicode="&#x166;" glyph-name="Tbar" horiz-adv-x="533" d="M169 0l79 317H58l15 60H263l60 241H86l16 64H650l-16-64H398L338 377H528l-16-60H323L244 0H169Z"/>
<glyph unicode="&#x167;" glyph-name="tbar" horiz-adv-x="346" d="M154 421H54l15 57h98l43 167 77 20L237 478H381l-15-57H224L186 271H303l-14-55H172q-17-69-22-96.5t-4-40T155 59q6-6 15-9t22-3q20 0 42.5 4.5T277 65L263 5Q242-4 220-8t-45-4q-46 0-70.5 16.5T74.5 54 82 137l19 79H12l14 55h90l38 150Z"/>
<glyph unicode="&#x1e6a;" glyph-name="uni1E6A" horiz-adv-x="533" d="M323 619H86l16 63H650l-16-63H398L244 0H169L323 619Zm35 142l28 112h77L435 761H358Z"/>
<glyph unicode="&#x1e6b;" glyph-name="uni1E6B" horiz-adv-x="346" d="M154 421H54l15 57h98l43 167 77 20L237 478H381l-14-57H224L165 188q-13-52-17-74.5T145.5 79 155 59q6-6 15-9t22-3q20 0 42.5 4.5T277 65L263 5Q242-4 220-8t-45-4q-46 0-70.5 16.5T74.5 54 81 137q5 18 18.5 69.5T123 299l31 122Zm75 302l28 113h72L301 723H229Z"/>
<glyph unicode="U" glyph-name="U" horiz-adv-x="730" d="M182 257q-17-68-7-114.5T221 73t96-23q62 0 110.5 24T509 144.5 559 257L665 682h70L630 250q-21-84-65.5-143.5t-110-90T306-14q-85 0-137 33t-68 95 5 143L213 682h75L182 257Z"/>
<glyph unicode="u" glyph-name="u" horiz-adv-x="554" d="M344 0l17 72h-1Q326 30 284 9T194-12q-57 0-92 24T57 80.5 63 187l75 291h69L139 205q-11-42-13-63.5t3-40.5q7-27 27.5-41T210 46q26 0 53 9.5T310 81q33 26 55 67t38 106l57 224h70L470 238Q437 110 425.5 57.5T413 0H344Z"/>
<glyph unicode="&#xd9;" glyph-name="Ugrave" horiz-adv-x="730" d="M182 257q-17-68-7-114.5T221 73t96-23q62 0 110.5 24T509 144.5 559 257L665 682h70L630 250q-21-84-65.5-143.5t-110-90T306-14q-85 0-137 33t-68 95 5 143L213 682h75L182 257ZM469 749L376 881H479l59-132H469Z"/>
<glyph unicode="&#xf9;" glyph-name="ugrave" horiz-adv-x="554" d="M344 0l17 72h-1Q326 30 284 9T194-12q-57 0-92 24T57 80.5 63 187l75 291h69L139 205q-11-42-13-63.5t3-40.5q7-27 27.5-41T210 46q26 0 53 9.5T310 81q33 26 55 67t38 106l57 224h70L470 238Q437 110 425.5 57.5T413 0H344ZM252 692h94l50-141H332L252 692Z"/>
<glyph unicode="&#xda;" glyph-name="Uacute" horiz-adv-x="730" d="M182 257q-17-68-7-114.5T221 73t96-23q62 0 110.5 24T509 144.5 559 257L665 682h70L630 250q-21-84-65.5-143.5t-110-90T306-14q-85 0-137 33t-68 95 5 143L213 682h75L182 257ZM440 749L567 881H678L517 749H440Z"/>
<glyph unicode="&#xfa;" glyph-name="uacute" horiz-adv-x="554" d="M344 0l17 72h-1Q326 30 284 9T194-12q-57 0-92 24T57 80.5 63 187l75 291h69L139 205q-11-42-13-63.5t3-40.5q7-27 27.5-41T210 46q26 0 53 9.5T310 81q33 26 55 67t38 106l57 224h70L470 238Q437 110 425.5 57.5T413 0H344ZM309 551L429 692H531L380 551H309Z"/>
<glyph unicode="&#xdb;" glyph-name="Ucircumflex" horiz-adv-x="730" d="M182 257q-17-68-7-114.5T221 73t96-23q62 0 110.5 24T509 144.5 559 257L665 682h70L630 250q-21-84-65.5-143.5t-110-90T306-14q-85 0-137 33t-68 95 5 143L213 682h75L182 257ZM488 882h72l87-132H575l-61 75-98-75H337L488 882Z"/>
<glyph unicode="&#xfb;" glyph-name="ucircumflex" horiz-adv-x="554" d="M344 0l17 72h-1Q326 30 284 9T194-12q-57 0-92 24T57 80.5 63 187l75 291h69L139 205q-11-42-13-63.5t3-40.5q7-27 27.5-41T210 46q26 0 53 9.5T310 81q33 26 55 67t38 106l57 224h70L470 238Q437 110 425.5 57.5T413 0H344Zm3 692h87l64-141H433l-52 90-98-90H213L347 692Z"/>
<glyph unicode="&#x168;" glyph-name="Utilde" horiz-adv-x="730" d="M182 257q-17-68-7-114.5T221 73t96-23q62 0 110.5 24T509 144.5 559 257L665 682h70L630 250q-21-84-65.5-143.5t-110-90T306-14q-85 0-137 33t-68 95 5 143L213 682h75L182 257ZM439 818q-19 0-31.5-14.5T384 755H323q16 60 48.5 91.5T451 878q21 0 39.5-8.5t39.5-29T559.5 815t17.5-5q19 0 32 15t23 48h60q-15-60-47.5-91.5T565 750q-21 0-39.5 8.5t-39.5 29T456.5 813 439 818h0Z"/>
<glyph unicode="&#x169;" glyph-name="utilde" horiz-adv-x="554" d="M344 0l17 72h-1Q326 30 284 9T194-12q-57 0-92 24T57 80.5 63 187l75 291h69L139 205q-11-42-13-63.5t3-40.5q7-27 27.5-41T210 46q26 0 53 9.5T310 81q33 26 55 67t38 106l57 224h70L470 238Q437 110 425.5 57.5T413 0H344ZM313 625q-19 0-31-13.5T257 563H201q14 58 44.5 88T322 681q20 0 36-8t33.5-28.5 24.5-25 15-4.5q18 0 30 13.5T486 677h56q-14-59-44-88.5T422 559q-19 0-35.5 8T352 595.5t-25 25T313 625h0Z"/>
<glyph unicode="&#xdc;" glyph-name="Udieresis" horiz-adv-x="730" d="M182 257q-17-68-7-114.5T221 73t96-23q62 0 110.5 24T509 144.5 559 257L665 682h70L630 250q-21-84-65.5-143.5t-110-90T306-14q-85 0-137 33t-68 95 5 143L213 682h75L182 257ZM569 761l28 112h76L644 761H569Zm-223 0l28 112h76L421 761H346Z"/>
<glyph unicode="&#xfc;" glyph-name="udieresis" horiz-adv-x="554" d="M344 0l17 72h-1Q326 30 284 9T194-12q-57 0-92 24T57 80.5 63 187l75 291h69L139 205q-11-42-13-63.5t3-40.5q7-27 27.5-41T210 46q26 0 53 9.5T310 81q33 26 55 67t38 106l57 224h70L470 238Q437 110 425.5 57.5T413 0H344Zm71 567l28 113h71L486 567H415Zm-184 0l28 113h71L302 567H231Z"/>
<glyph unicode="&#x16a;" glyph-name="Umacron" horiz-adv-x="730" d="M182 257q-17-68-7-114.5T221 73t96-23q62 0 110.5 24T509 144.5 559 257L665 682h70L630 250q-21-84-65.5-143.5t-110-90T306-14q-85 0-137 33t-68 95 5 143L213 682h75L182 257ZM648 781H351l16 62H664l-16-62Z"/>
<glyph unicode="&#x16b;" glyph-name="umacron" horiz-adv-x="554" d="M344 0l17 72h-1Q326 30 284 9T194-12q-57 0-92 24T57 80.5 63 187l75 291h69L139 205q-11-42-13-63.5t3-40.5q7-27 27.5-41T210 46q26 0 53 9.5T310 81q33 26 55 67t38 106l57 224h70L470 238Q437 110 425.5 57.5T413 0H344ZM498 589H229l15 58H513l-15-58Z"/>
<glyph unicode="&#x16c;" glyph-name="Ubreve" horiz-adv-x="730" d="M182 257q-17-68-7-114.5T221 73t96-23q62 0 110.5 24T509 144.5 559 257L665 682h70L630 250q-21-84-65.5-143.5t-110-90T306-14q-85 0-137 33t-68 95 5 143L213 682h75L182 257ZM670 884q-10-45-32-76t-57.5-47T498 745q-49 0-80 17.5t-40.5 49T382 884h59q-8-41 7.5-59.5T505 806q42 0 67.5 19T609 884h61Z"/>
<glyph unicode="&#x16d;" glyph-name="ubreve" horiz-adv-x="554" d="M344 0l17 72h-1Q326 30 284 9T194-12q-57 0-92 24T57 80.5 63 187l75 291h69L139 205q-11-42-13-63.5t3-40.5q7-27 27.5-41T210 46q26 0 53 9.5T310 81q33 26 55 67t38 106l57 224h70L470 238Q437 110 425.5 57.5T413 0H344ZM524 688q-7-43-29-73.5T438.5 569 360 554t-72.5 16-37 46 3.5 72h55q-5-29 0-45.5t19.5-24T367 611q27 0 47 9t33.5 26T469 688h55Z"/>
<glyph unicode="&#x16e;" glyph-name="Uring" horiz-adv-x="730" d="M182 257q-17-68-7-114.5T221 73t96-23q62 0 110.5 24T509 144.5 559 257L665 682h70L630 250q-21-84-65.5-143.5t-110-90T306-14q-85 0-137 33t-68 95 5 143L213 682h75L182 257ZM559 834q5 20-3.5 34T525 882q-21 0-36-13.5T468 834q-5-21 3.5-34T502 787t37 13.5T559 834Zm55-7q-9-37-41.5-62T493 740q-49 0-70.5 29T413 842q9 37 41 61.5T533 928q49 0 70.5-28.5T614 827Z"/>
<glyph unicode="&#x16f;" glyph-name="uring" horiz-adv-x="554" d="M344 0l17 72h-1Q326 30 284 9T194-12q-57 0-92 24T57 80.5 63 187l75 291h69L139 205q-11-42-13-63.5t3-40.5q7-27 27.5-41T210 46q26 0 53 9.5T310 81q33 26 55 67t38 106l57 224h70L470 238Q437 110 425.5 57.5T413 0H344Zm78 641q6 21-2 34.5T390 689t-38-13.5T331 641q-4-20 4.5-33.5T365 594q22 0 37 13.5T422 641Zm57-3q-10-40-42-65t-79-25q-49 0-71 28t-12 70q11 40 42.5 65T396 736q49 0 71.5-28T479 638Z"/>
<glyph unicode="&#x170;" glyph-name="Uhungarumlaut" horiz-adv-x="730" d="M182 257q-17-68-7-114.5T221 73t96-23q62 0 110.5 24T509 144.5 559 257L665 682h70L630 250q-21-84-65.5-143.5t-110-90T306-14q-85 0-137 33t-68 95 5 143L213 682h75L182 257ZM543 749L669 881H779L619 749H543Zm-203 0L449 881H554L412 749H340Z"/>
<glyph unicode="&#x171;" glyph-name="uhungarumlaut" horiz-adv-x="554" d="M344 0l17 72h-1Q326 30 284 9T194-12q-57 0-92 24T57 80.5 63 187l75 291h69L139 205q-11-42-13-63.5t3-40.5q7-27 27.5-41T210 46q26 0 53 9.5T310 81q33 26 55 67t38 106l57 224h70L470 238Q437 110 425.5 57.5T413 0H344Zm48 551L512 692H614L462 551H392Zm-174 0L321 692h96L287 551H218Z"/>
<glyph unicode="&#x172;" glyph-name="Uogonek" horiz-adv-x="730" d="M403-205q-9-5-24-7t-30-2q-32 0-52.5 6.5t-31 19.5T255-156q0 31 25.5 67.5T358-9q-27-5-52-5-86 0-137.5 33t-68 95T106 257L213 682h75L182 257q-18-68-7.5-114.5T221 73t96-23q62 0 110.5 24.5T509 145t50 112L665 682h70L630 250q-15-62-44.5-112.5T512 52q-10-8-33.5-24T443 2q-33-28-58-55.5t-39.5-51T331-142q0-9 7.5-12.5T365-158h51l-13-47Z"/>
<glyph unicode="&#x173;" glyph-name="uogonek" horiz-adv-x="554" d="M362 72h-1Q327 30 284.5 9T194-12q-57 0-92 24T57 80.5 63 187l75 291h69L139 205q-12-47-13-67t3-37q7-27 27.5-41T210 46q26 0 53 9.5T310 81q33 26 55 67t38 106l57 224h70L470 238Q440 123 427 64T413 1q-59-50-87-85t-28-58q0-10 8-14.5t24-4.5h51l-13-45q-7-4-22.5-6T315-214q-31 0-50.5 6.5T236-188t-9 32q0 34 28.5 71.5T349 6l13 66Z"/>
<glyph unicode="V" glyph-name="V" horiz-adv-x="631" d="M219 0L126 682h79l45-363q23-186 25-237h1q33 64 141 237L640 682h84L291 0H219Z"/>
<glyph unicode="v" glyph-name="v" horiz-adv-x="487" d="M150 0L73 478h77l30-202q15-106 21-200h2q80 140 120 200L453 478h80L217 0H150Z"/>
<glyph unicode="W" glyph-name="W" horiz-adv-x="1032" d="M638 0L601 448q-3 54-3 122h-1q-14-28-67-122L274 0H188L145 682h81l14-317q9-176 13-281h1q56 105 157 282L590 682h67l24-317q6-70 20-281h1Q832 328 851 364l173 318h83L723 0H638Z"/>
<glyph unicode="w" glyph-name="w" horiz-adv-x="818" d="M488 0L450 290q-4 31-10 93h-2q-24-48-53-93L210 0H144L83 478h75l25-240q11-104 14-151h1q37 67 89 153L432 478h61l28-229q14-105 19-162h1q37 67 92 160L770 478h82L551 0H488Z"/>
<glyph unicode="&#x1e80;" glyph-name="Wgrave" horiz-adv-x="1032" d="M638 0L601 448q-3 54-3 122h-1q-14-28-67-122L274 0H188L145 682h81l14-317q9-176 13-281h1q56 105 157 282L590 682h67l24-317q6-70 20-281h1Q832 328 851 364l173 318h83L723 0H638ZM610 749L517 881H620l59-132H610Z"/>
<glyph unicode="&#x1e81;" glyph-name="wgrave" horiz-adv-x="818" d="M488 0L450 290q-4 31-10 93h-2q-24-48-53-93L210 0H144L83 478h75l25-240q11-104 14-151h1q37 67 89 153L432 478h61l28-229q14-105 19-162h1q37 67 92 160L770 478h82L551 0H488ZM376 692h94l50-141H456L376 692Z"/>
<glyph unicode="&#x1e82;" glyph-name="Wacute" horiz-adv-x="1032" d="M638 0L601 448q-3 54-3 122h-1q-14-28-67-122L274 0H188L145 682h81l14-317q9-176 13-281h1q56 105 157 282L590 682h67l24-317q6-70 20-281h1Q832 328 851 364l173 318h83L723 0H638ZM596 749L723 881H834L673 749H596Z"/>
<glyph unicode="&#x1e83;" glyph-name="wacute" horiz-adv-x="818" d="M488 0L450 290q-4 31-10 93h-2q-24-48-53-93L210 0H144L83 478h75l25-240q11-104 14-151h1q37 67 89 153L432 478h61l28-229q14-105 19-162h1q37 67 92 160L770 478h82L551 0H488ZM438 551L558 692H660L509 551H438Z"/>
<glyph unicode="&#x174;" glyph-name="Wcircumflex" horiz-adv-x="1032" d="M638 0L601 448q-3 54-3 122h-1q-14-28-67-122L274 0H188L145 682h81l14-317q9-176 13-281h1q56 105 157 282L590 682h67l24-317q6-70 20-281h1Q832 328 851 364l173 318h83L723 0H638Zm-1 882h72l87-132H724l-61 75-98-75H486L637 882Z"/>
<glyph unicode="&#x175;" glyph-name="wcircumflex" horiz-adv-x="818" d="M488 0L450 290q-4 31-10 93h-2q-24-48-53-93L210 0H144L83 478h75l25-240q11-104 14-151h1q37 67 89 153L432 478h61l28-229q14-105 19-162h1q37 67 92 160L770 478h82L551 0H488ZM476 692h87l64-141H562l-52 90-98-90H342L476 692Z"/>
<glyph unicode="&#x1e84;" glyph-name="Wdieresis" horiz-adv-x="1032" d="M638 0L601 448q-3 54-3 122h-1q-14-28-67-122L274 0H188L145 682h81l14-317q9-176 13-281h1q56 105 157 282L590 682h67l24-317q6-70 20-281h1Q832 328 851 364l173 318h83L723 0H638Zm81 761l28 112h76L794 761H719Zm-223 0l28 112h76L571 761H496Z"/>
<glyph unicode="&#x1e85;" glyph-name="wdieresis" horiz-adv-x="818" d="M488 0L450 290q-4 31-10 93h-2q-24-48-53-93L210 0H144L83 478h75l25-240q11-104 14-151h1q37 67 89 153L432 478h61l28-229q14-105 19-162h1q37 67 92 160L770 478h82L551 0H488Zm57 567l28 113h71L616 567H545Zm-184 0l28 113h71L432 567H361Z"/>
<glyph unicode="X" glyph-name="X" horiz-adv-x="591" d="M441 0L313 307 35 0H-55L282 365 144 682h85L337 415 575 682h89L368 357 526 0H441Z"/>
<glyph unicode="x" glyph-name="x" horiz-adv-x="465" d="M164 478l80-177L402 478h84L275 251 392 0H312L221 206 39 0H-48L190 256 84 478h80Z"/>
<glyph unicode="Y" glyph-name="Y" horiz-adv-x="604" d="M204 0l73 292L110 682h86L330 362 622 682h92L352 292 279 0H204Z"/>
<glyph unicode="y" glyph-name="y" horiz-adv-x="487" d="M-1-207L149 1 73 478h77l30-202q9-67 14-118t7-79h1q22 38 53 89t67 108L453 478h80L79-207H-1Z"/>
<glyph unicode="&#x1ef2;" glyph-name="Ygrave" horiz-adv-x="604" d="M204 0l73 292L110 682h86L330 362 622 682h92L352 292 279 0H204ZM404 749L311 881H414l59-132H404Z"/>
<glyph unicode="&#x1ef3;" glyph-name="ygrave" horiz-adv-x="487" d="M-1-207L149 1 73 478h77l30-202q9-67 14-118t7-79h1q22 38 53 89t67 108L453 478h80L79-207H-1ZM214 692h94l50-141H294L214 692Z"/>
<glyph unicode="&#xdd;" glyph-name="Yacute" horiz-adv-x="604" d="M204 0l73 292L110 682h86L330 362 622 682h92L352 292 279 0H204ZM370 749L497 881H608L447 749H370Z"/>
<glyph unicode="&#xfd;" glyph-name="yacute" horiz-adv-x="487" d="M-1-207L149 1 73 478h77l30-202q9-67 14-118t7-79h1q22 38 53 89t67 108L453 478h80L79-207H-1ZM270 551L390 692H492L341 551H270Z"/>
<glyph unicode="&#x176;" glyph-name="Ycircumflex" horiz-adv-x="604" d="M204 0l73 292L110 682h86L330 362 622 682h92L352 292 279 0H204ZM418 882h72l87-132H505l-61 75-98-75H267L418 882Z"/>
<glyph unicode="&#x177;" glyph-name="ycircumflex" horiz-adv-x="487" d="M-1-207L149 1 73 478h77l30-202q9-67 14-118t7-79h1q22 38 53 89t67 108L453 478h80L79-207H-1ZM304 692h87l64-141H390l-52 90-98-90H170L304 692Z"/>
<glyph unicode="&#x178;" glyph-name="Ydieresis" horiz-adv-x="604" d="M204 0l73 292L110 682h86L330 362 622 682h92L352 292 279 0H204ZM503 761l28 112h76L578 761H503Zm-223 0l28 112h76L355 761H280Z"/>
<glyph unicode="&#xff;" glyph-name="ydieresis" horiz-adv-x="487" d="M-1-207L149 1 73 478h77l30-202q9-67 14-118t7-79h1q22 38 53 89t67 108L453 478h80L79-207H-1ZM377 567l28 113h71L448 567H377Zm-184 0l28 113h71L264 567H193Z"/>
<glyph unicode="Z" glyph-name="Z" horiz-adv-x="628" d="M522 0H-15L1 65 563 618q-29 0-110.5-0.5T328 617H154l16 65H677l-16-64L100 65q39 0 129.5 0.5T365 66H539L522 0Z"/>
<glyph unicode="z" glyph-name="z" horiz-adv-x="489" d="M382 0H-13L1 59 385 422q-160-1-182-1H102l15 57H487l-15-57L88 58q162 1 200 1H397L382 0Z"/>
<glyph unicode="&#x179;" glyph-name="Zacute" horiz-adv-x="628" d="M522 0H-15L1 65 563 618q-29 0-110.5-0.5T328 617H154l16 65H677l-16-64L100 65q39 0 129.5 0.5T365 66H539L522 0ZM377 749L504 881H615L454 749H377Z"/>
<glyph unicode="&#x17a;" glyph-name="zacute" horiz-adv-x="489" d="M382 0H-13L1 59 385 422q-160-1-182-1H102l15 57H487l-15-57L88 58q162 1 200 1H397L382 0ZM270 551L390 692H492L341 551H270Z"/>
<glyph unicode="&#x17d;" glyph-name="Zcaron" horiz-adv-x="628" d="M522 0H-15L1 65 563 618q-29 0-110.5-0.5T328 617H154l16 65H677l-16-64L100 65q39 0 129.5 0.5T365 66H539L522 0ZM479 750H404L320 882h69l63-75 98 75h80L479 750Z"/>
<glyph unicode="&#x17e;" glyph-name="zcaron" horiz-adv-x="489" d="M382 0H-13L1 59 385 422q-160-1-182-1H102l15 57H487l-15-57L88 58q162 1 200 1H397L382 0ZM364 551H279L214 692h65l52-91 98 91h71L364 551Z"/>
<glyph unicode="&#x17b;" glyph-name="Zdotaccent" horiz-adv-x="628" d="M522 0H-15L1 65 563 618q-29 0-110.5-0.5T328 617H154l16 65H677l-16-64L100 65q39 0 129.5 0.5T365 66H539L522 0ZM408 761l28 112h77L485 761H408Z"/>
<glyph unicode="&#x17c;" glyph-name="zdotaccent" horiz-adv-x="489" d="M382 0H-13L1 59 385 422q-160-1-182-1H102l15 57H487l-15-57L88 58q162 1 200 1H397L382 0ZM282 567l28 113h72L354 567H282Z"/>
<glyph unicode="&#x394;" glyph-name="Delta" horiz-adv-x="641" d="M78 64H479L444 338q-17 132-23.5 187T414 611h-2q-16-31-50.5-88.5T249 340L78 64ZM544 0H-23L-9 58 393 682h77L559 61 544 0Z"/>
<glyph unicode="&#x3bc;" glyph-name="mu" horiz-adv-x="561" d="M-28-207L143 478h70L145 205q-11-43-12.5-63.5T135 102q7-27 28-41.5T217 46q26 0 53 9.5T317 81q33 26 54 64.5T409 250l57 228h70L475 237Q445 117 433 62T420 0H352l16 72h-1Q334 31 292 9.5T202-12q-37 0-66 13.5T98 38H97Q85-19 82-32L42-207H-28Z"/>
<glyph unicode="&#x3c0;" glyph-name="pi" horiz-adv-x="588" d="M589 416H488L451 206q-12-74-13.5-103.5t7-41T479 50q15 0 30 4L493-4q-25-5-41-5Q415-9 395.5 1t-27 31.5-5 58T379 194l44 222H244L95 0H22L172 416H80l16 62H605l-16-62Z"/>
<glyph unicode="&#x3a9;" glyph-name="Omega" horiz-adv-x="779" d="M7 0L22 64H94q65 0 120-1v1q-79 53-106 134t1 189q22 89 79.5 160t139 110T500 696q92 0 155-41.5t85.5-116T739 372q-24-100-89-176.5T478 64V63q64 1 119 1h71L652 0H397l21 87q106 57 162.5 123T661 372q19 77 4.5 136.5t-60.5 92T487 633 353.5 601.5 248.5 511 185 372q-24-96-1-162.5T283 87L262 0H7Z"/>
<glyph unicode="`" glyph-name="grave" horiz-adv-x="324" d="M185 692h94l50-141H265L185 692Z"/>
<glyph unicode="&#xb4;" glyph-name="acute" horiz-adv-x="332" d="M150 551L270 692H372L221 551H150Z"/>
<glyph unicode="&#x2c6;" glyph-name="circumflex" horiz-adv-x="431" d="M285 692h87l64-141H371l-52 90-98-90H151L285 692Z"/>
<glyph unicode="&#x2c7;" glyph-name="caron" horiz-adv-x="431" d="M335 551H250L185 692h65l52-91 98 91h71L335 551Z"/>
<glyph unicode="&#x2dc;" glyph-name="tilde" horiz-adv-x="474" d="M273 625q-19 0-31-13.5T217 563H161q14 58 44.5 88T282 681q20 0 36-8t33.5-28.5 24.5-25 15-4.5q18 0 30 13.5T446 677h56q-14-59-44-88.5T382 559q-19 0-35.5 8T312 595.5t-25 25T273 625h0Z"/>
<glyph unicode="&#xa8;" glyph-name="dieresis" horiz-adv-x="417" d="M346 567l28 113h71L417 567H346Zm-184 0l28 113h71L233 567H162Z"/>
<glyph unicode="&#x2c9;" glyph-name="macron" horiz-adv-x="430" d="M436 589H167l15 58H451l-15-58Z"/>
<glyph unicode="&#x2d8;" glyph-name="breve" horiz-adv-x="433" d="M463 688q-7-43-29-73.5T377.5 569 299 554t-72.5 16-37 46 3.5 72h55q-5-29 0-45.5t19.5-24T306 611q27 0 47 9t33.5 26T408 688h55Z"/>
<glyph unicode="&#x2da;" glyph-name="ring" horiz-adv-x="391" d="M340 641q6 21-2 34.5T308 689t-38-13.5T249 641q-4-20 4.5-33.5T283 594q22 0 37 13.5T340 641Zm57-3q-10-40-42-65t-79-25q-49 0-71 28t-12 70q11 40 42.5 65T314 736q49 0 71.5-28T397 638Z"/>
<glyph unicode="&#x2dd;" glyph-name="hungarumlaut" horiz-adv-x="511" d="M326 551L446 692H548L396 551H326Zm-174 0L255 692h96L221 551H152Z"/>
<glyph unicode="&#x2d9;" glyph-name="dotaccent" horiz-adv-x="234" d="M162 567l28 113h72L234 567H162Z"/>
<glyph unicode="&#x326;" glyph-name="uni0326" horiz-adv-x="265" d="M111-54L91-132q-11-40-36-59t-67-19H-32l9 37H-3q17 0 27 9.5T40-132H18L38-54h73Z"/>
<glyph unicode="&#x312;" glyph-name="uni0312" horiz-adv-x="252" d="M162 567l21 84q11 40 36 59t67 19h20l-9-37H277q-17 0-27.5-10T234 651h20l-20-84H162Z"/>
<glyph unicode="&#x315;" glyph-name="uni0315" horiz-adv-x="270" d="M242 756h78L222 569H162l80 187Z"/>
<glyph unicode="&#xb8;" glyph-name="cedilla" horiz-adv-x="286" d="M-34-207q36 26 53 44t22 34q5 13-2.5 25.5T4-76L69 1h66L87-56q19-16 25-35t1-37q-5-20-24-41T45-207H-34Z"/>
<glyph unicode="&#x2db;" glyph-name="ogonek" horiz-adv-x="320" d="M157 0Q101-60 78-92T55-142q0-10 8-14.5T87-161h51l-12-45q-8-4-23.5-6T72-214q-44 0-66 14t-22 44q0 20 9.5 40.5T24.5-68 86 0h71Z"/>
<glyph unicode="&#xaa;" glyph-name="ordfeminine" horiz-adv-x="498" d="M62 182l14 55H401l-14-55H62ZM425 552q-82 0-133-9.5T214 513t-36-54q-9-37 11-57t64-20q57 0 103.5 40T418 519l7 33Zm63 3q-14-54-27.5-113.5T439 342H377l16 62h-1q-23-33-66-53t-92-20q-68 0-102 37.5T113 464q12 49 49.5 79t105 44.5T438 602l8 32q11 52-7.5 76T371 734q-42 0-78.5-18T214 655l-38 36q51 50 99 72.5T379 786q80 0 113-42t14-118l-18-71Z"/>
<glyph unicode="&#xba;" glyph-name="ordmasculine" horiz-adv-x="532" d="M62 182l14 55H454l-14-55H62ZM552 552q-26-103-95-162.5T292 330q-98 0-139 65T138 564q26 103 95.5 162.5T399 786q97 0 138.5-64.5T552 552Zm-66 6q20 77-6.5 126T389 733q-65 0-115-48.5T204 558q-19-78 7.5-126.5T302 383q65 0 115 48.5T486 558Z"/>
<glyph unicode="!" glyph-name="exclam" horiz-adv-x="350" d="M134 210L246 711h92L201 210H134ZM69 0l33 129h90L159 0H69Z"/>
<glyph unicode="&#xa1;" glyph-name="exclamdown" horiz-adv-x="350" d="M250 405L137-96H46L181 405h69Zm64 210L281 486H191l33 129h90Z"/>
<glyph unicode="?" glyph-name="question" horiz-adv-x="612" d="M288 277q5 23 17 43t32.5 38T407 406t70.5 49 35 40T532 541t1 48-21 40-41.5 26T412 664q-45 0-84.5-17t-67-47.5T223 529q-7-26-9-58H142q-2 24 7 59 15 60 53.5 104t96 67.5T424 725q66 0 113.5-25T604 631.5t5-95.5q-8-32-24.5-59.5t-42.5-51-76.5-54-67.5-44-27-28T357 269l-15-59H273l15 67ZM210 0l32 129h90L300 0H210Z"/>
<glyph unicode="&#xbf;" glyph-name="questiondown" horiz-adv-x="612" d="M357 338q-5-23-17-43t-32.5-38.5-69.5-48-70-48-34.5-40T113 74t-1.5-47.5 21-40 41-26.5T233-49q44 0 84 17t67 47.5T422 86q7 24 9 58h72q2-24-7-59Q480 25 441.5-19.5T346-87 221-110q-66 0-113.5 25T41-16.5 35 79q8 31 24.5 58.5t42.5 51 76.5 54T246 287t27 28 14 31l16 59h68l-14-67Zm78 277L403 486H313l32 129h90Z"/>
<glyph unicode="," glyph-name="comma" horiz-adv-x="256" d="M153 142L123 24Q103-55 86-93T45.5-155-28-208l-23 41q37 21 54.5 39.5T33.5-81 59 0H18L54 142h99Z"/>
<glyph unicode=";" glyph-name="semicolon" horiz-adv-x="294" d="M125 345l34 133h95L221 345H125Zm43-212L140 20Q120-60 104-97T64-157.5-11-208l-23 41q38 21 56 39.5t30 46T76 0H39L72 133h96Z"/>
<glyph unicode=":" glyph-name="colon" horiz-adv-x="294" d="M124 345l34 133h95L220 345H124ZM38 0L71 133h96L134 0H38Z"/>
<glyph unicode="." glyph-name="period" horiz-adv-x="256" d="M18 0L54 142h99L117 0H18Z"/>
<glyph unicode="&#x2026;" glyph-name="ellipsis" horiz-adv-x="833" d="M594 0l36 142h99L693 0H594ZM306 0l36 142h99L405 0H306ZM18 0L54 142h99L117 0H18Z"/>
<glyph unicode="&#x2018;" glyph-name="quoteleft" horiz-adv-x="256" d="M136 475l28 112q18 71 34 104t40.5 55.5T310 795l22-41q-34-18-52.5-36t-30-43T229 611h40L235 475H136Z"/>
<glyph unicode="&#x2019;" glyph-name="quoteright" horiz-adv-x="256" d="M313 780L284 669q-19-75-35.5-108.5T207 504t-69-47l-23 40q33 18 51.5 36T197 575.5 219 644H180l34 136h99Z"/>
<glyph unicode="&#x201c;" glyph-name="quotedblleft" horiz-adv-x="438" d="M137 475l28 111q18 69 34 103.5t38.5 57T305 795l22-40q-35-21-51.5-38.5t-27-41.5T229 611h36L231 475H137Zm187 0l28 111q18 69 34 103.5t38.5 57T492 795l22-40q-35-21-51.5-38.5t-27-41.5T416 611h36L418 475H324Z"/>
<glyph unicode="&#x201d;" glyph-name="quotedblright" horiz-adv-x="438" d="M493 780L464 665q-15-62-32-99t-41.5-62T325 456l-23 41q29 16 46.5 33.5T379 574t24 70H365l35 136h93Zm-186 0L278 665q-15-62-32.5-99t-42-62T138 456l-23 41q29 16 46.5 33.5T192 574t24 70H179l34 136h94Z"/>
<glyph unicode="&#x201a;" glyph-name="quotesinglbase" horiz-adv-x="256" d="M152 136L123 25Q104-50 87.5-83.5T46-140t-69-47l-23 40q33 18 51.5 36T36-68.5 58 0H19L53 136h99Z"/>
<glyph unicode="&#x201e;" glyph-name="quotedblbase" horiz-adv-x="438" d="M332 136L303 21q-15-62-32-99t-41.5-62T164-188l-23 41q29 16 46.5 33.5T218-70 242 0H204l35 136h93Zm-186 0L117 21Q102-41 84.5-78t-42-62T-23-188l-23 41q29 16 46.5 33.5T31-70 55 0H18L52 136h94Z"/>
<glyph unicode="&#x2039;" glyph-name="guilsinglleft" horiz-adv-x="400" d="M211 43L86 277 319 503l51-33L179 270 270 72 211 43Z"/>
<glyph unicode="&#x203a;" glyph-name="guilsinglright" horiz-adv-x="400" d="M205 502L329 269 96 43 46 75 236 276 145 473l60 29Z"/>
<glyph unicode="&#xab;" glyph-name="guillemotleft" horiz-adv-x="644" d="M458 60L339 278 561 487l47-32L433 270 517 88 458 60ZM209 44L86 277 320 503l48-32L179 270 269 72 209 44Z"/>
<glyph unicode="&#xbb;" glyph-name="guillemotright" horiz-adv-x="644" d="M202 486L321 268 99 59 52 91 227 276 142 457l60 29Zm249 16L574 269 340 43 292 75 480 276 391 473l60 29Z"/>
<glyph unicode="/" glyph-name="slash" horiz-adv-x="392" d="M-148-164L471 778h76L-73-164h-75Z"/>
<glyph unicode="|" glyph-name="bar" horiz-adv-x="314" d="M19-171L266 815h69L88-171H19Z"/>
<glyph unicode="&#xa6;" glyph-name="brokenbar" horiz-adv-x="314" d="M19-171l98 389h69L88-171H19ZM169 426l97 389h69L238 426H169Z"/>
<glyph unicode="\" glyph-name="backslash" horiz-adv-x="392" d="M266-164L116 778h69L335-164H266Z"/>
<glyph unicode="&#x2010;" glyph-name="hyphen" horiz-adv-x="360" d="M38 238l17 71H337l-17-71H38Z"/>
<glyph unicode="&#x2013;" glyph-name="endash" horiz-adv-x="650" d="M586 243H62l16 61H601l-15-61Z"/>
<glyph unicode="&#x2014;" glyph-name="emdash" horiz-adv-x="968" d="M921 243H48l15 61H936l-15-61Z"/>
<glyph unicode="_" glyph-name="underscore" horiz-adv-x="650" d="M534-217H-115l15 58H549l-15-58Z"/>
<glyph unicode="&#x2022;" glyph-name="bullet" horiz-adv-x="418" d="M357 334q0-38-18.5-70.5T288 212t-69-19q-34 0-61.5 15t-43 42T99 310q0 39 19 71.5t51.5 51T238 451q34 0 61-15t42.5-42T357 334Z"/>
<glyph unicode="&#x2219;" glyph-name="periodcentered" horiz-adv-x="255" d="M85 263l29 118h96L181 263H85Z"/>
<glyph unicode="(" glyph-name="parenleft" horiz-adv-x="312" d="M123-171Q81-56 76.5 72.5T105 331q22 89 57.5 171T248 662 364 815h75q-67-77-118-157T234 494.5 176 323Q143 190 147 67t44-238H123Z"/>
<glyph unicode=")" glyph-name="parenright" horiz-adv-x="312" d="M228 815q42-114 46.5-242.5T247 312q-22-89-58-171.5t-86-160T-12-171H-87Q-21-95 30-16t87 163 59 174q32 132 28 255.5T160 815h68Z"/>
<glyph unicode="[" glyph-name="bracketleft" horiz-adv-x="365" d="M230-171H7L253 815H477l-15-59H308L91-112H245l-15-59Z"/>
<glyph unicode="]" glyph-name="bracketright" horiz-adv-x="365" d="M-71-171l15 59H98L314 756H160l15 59H399L152-171H-71Z"/>
<glyph unicode="{" glyph-name="braceleft" horiz-adv-x="398" d="M65 351H95q32 0 50 11t30.5 37T202 478l40 162q15 62 40 100.5T344.5 797 439 815h71l-15-59H427q-36 0-56.5-11t-34-36T311 636L271 477q-13-50-26-80.5t-29.5-48T169 319v-1q24-11 32-28.5t6-47.5-14-79L154 8q-12-47-10-72.5T161.5-101 213-112h65l-15-59H199q-57 0-87 20.5T75.5-90 85 11l39 153q13 52 13 79t-12.5 38.5T80 293H51l14 58Z"/>
<glyph unicode="}" glyph-name="braceright" horiz-adv-x="398" d="M373 293H344q-33 0-51-11t-30.5-37T236 166L196 4Q181-58 156-96.5T93.5-153 0-171H-71l15 59H11q36 0 56.5 11T102-65 128 8l39 159q13 50 26 80.5t30 48T269 325v1q-23 10-31.5 27t-7 47T245 481l39 155q12 47 10.5 72t-17 36.5T226 756H160l15 59h64q57 0 87-20.5T362.5 734 353 633L315 480q-14-54-14-81t13-37.5T358 351h29l-14-58Z"/>
<glyph unicode="*" glyph-name="asterisk" horiz-adv-x="498" d="M352 557l176 62 10-64L357 509l75-135-60-40L312 482 182 336l-51 39L276 512 119 558l35 62 147-63 36 176h69L352 557Z"/>
<glyph unicode="&#x2020;" glyph-name="dagger" horiz-adv-x="489" d="M173 96L279 521H115l16 59H294l44 177h70L364 580H529l-15-59H349L244 96H173Z"/>
<glyph unicode="&#x2021;" glyph-name="daggerdbl" horiz-adv-x="489" d="M451 268H286L240 82H169l47 186H52l15 59H231l48 194H115l16 59H294l44 177h70L364 580H529l-15-59H349L301 327H466l-15-59Z"/>
<glyph unicode="&#xa7;" glyph-name="section" horiz-adv-x="610" d="M487 256q11 45-17 75.5t-105 56T266 422q-42-21-70.5-52T159 305q-8-30 2.5-53.5t39.5-42 92.5-40T379 139q44 22 72 52.5T487 256h0ZM86 306q11 43 46 81.5T218 453q-21 20-28 50t2 65q11 45 41 78.5T309.5 698 414 716q62 0 111.5-21T598 638l-55-47q-24 32-59 47.5T404 654q-54 0-91-23t-47-64q-6-26 2.5-46.5T302 484t104.5-43.5 112-52.5T561 330t-1-75q-11-44-45.5-82.5T428 107q21-20 28.5-50T456-8q-12-46-44-79.5t-79.5-51T228-156q-32 0-62.5 6.5t-57.5 19-48 30T27-62L82-12q28-39 68.5-59.5T239-92q58 0 94.5 22.5T380-6q7 26-1.5 46.5T345 77 240.5 120.5t-112 52T85.5 230 86 306h0Z"/>
<glyph unicode="&#xb6;" glyph-name="paragraph" horiz-adv-x="700" d="M411-207L618 623H507L300-207H233L343 238H308q-119 0-172 59.5T109 462q17 69 61.5 118.5t111 75.5T428 682H700L478-207H411Z"/>
<glyph unicode="^" glyph-name="asciicircum" horiz-adv-x="650" d="M512 351L471 473q-9 28-22 69.5T424 626h-2q-26-35-54-71t-47-58L198 351H111L395 682h78L594 351H512Z"/>
<glyph unicode="~" glyph-name="asciitilde" horiz-adv-x="650" d="M75 236q2 60 19.5 102t50 64T223 424q36 0 67-16t70.5-60.5 58.5-56T458 280q25 0 41 13t24.5 41T535 408h65q-2-61-20-103t-50.5-63.5T452 220q-36 0-67 16t-70.5 60.5-58.5 56T217 364q-25 0-41-13t-25-41-11-74H75Z"/>
<glyph unicode="&apos;" glyph-name="quotesingle" horiz-adv-x="243" d="M143 449l60 281h81L205 449H143Z"/>
<glyph unicode="&quot;" glyph-name="quotedbl" horiz-adv-x="436" d="M337 449l59 281h81L397 449H337Zm-194 0l59 281h81L204 449H143Z"/>
<glyph unicode="&amp;" glyph-name="ampersand" horiz-adv-x="764" d="M648-21q-36 31-66.5 58T524 88Q463 38 391 12T242-14q-74 0-126 25T43 83 38 192q16 63 61 109t136 86q-34 51-45.5 92T189 562q13 51 45 88t79 56 107 19 100.5-21.5 56-59.5 4.5-83q-10-39-34.5-70T480 433.5 344 370q31-37 77-83T532 182q40 46 69.5 104.5T647 413h72q-19-80-54.5-149.5T579 140q32-29 62-55t60-51L648-21ZM272 340q-73-35-110-70.5T114 188Q98 123 135 85.5T251 48q62 0 119.5 21T477 129q-71 66-121.5 118T272 340h0ZM505 563q11 45-15.5 72.5T410 663q-57 0-95.5-28T264 559q-9-35 1.5-68.5T306 416q85 32 118.5 52t53 43.5T505 563h0Z"/>
<glyph unicode="@" glyph-name="at" horiz-adv-x="1033" d="M978 332q-6-86-38.5-153T853 76.5 729 41q-53 0-81 21t-31 63q-31-41-75-62.5T446 41q-54 0-91.5 21T300 124 287 224q6 73 39.5 134.5t87.5 95T537 487q47 0 79.5-15.5T667 423h1l13 53h71L693 250q-14-57-14.5-90T692 112.5 738 98q48 0 84.5 28t59 81.5T909 330q7 97-31 174T763.5 622.5 581 664q-117 0-215-55T207.5 457 139 247q-8-112 32-199.5T292.5-87 485-134q62 0 121 10T725-94l9-55q-60-20-124.5-30.5T478-190q-95 0-174 31T169.5-69.5t-81 138T70 240q9 132 81 243T339 657t251 63q121 0 212.5-50T940 531t38-199ZM634 303q5 66-20 97t-83 31q-48 0-84.5-26t-59-74.5T362 227q-4-45 5.5-73.5t32-42T457 98q51 0 88.5 26T606 198.5 634 303Z"/>
<glyph unicode="&#xa9;" glyph-name="copyright" horiz-adv-x="879" d="M622 238q-35-53-88.5-82.5T418 126q-59 0-99 27t-53 77 3 115q16 66 51.5 114t86 73T516 557q60 0 103-29.5T673 448l-63-23q-14 39-39.5 57T504 500q-38 0-71.5-18.5t-58-54.5T338 342q-12-48-4.5-84.5t32-55.5T429 183q43 0 79 22t69 68l45-35ZM770 341q7 92-26 166.5T644.5 623 487 664 323.5 623.5 207.5 509 157 341t26.5-168.5T283.5 58 439 18q91 0 164 40.5t116.5 115T770 341Zm68 3q-8-109-63-197T630 10 432-39 243 8.5t-122 134T88 338t62.5 197T295 672t198 49q109 0 190.5-48t122-134.5T838 344Z"/>
<glyph unicode="&#xae;" glyph-name="registered" horiz-adv-x="709" d="M703 528q-6-76-47-140.5t-107.5-101T404 250q-77 0-138 35.5T173.5 385 148 526q5 76 46.5 140.5t108 101T447 804t138.5-36T677 668t26-140Zm-57-1q5 63-19.5 116T554 726 443 756 327 726t-85-83T205 527q-5-64 20-117t73-82.5T408 298q63 0 116 30t85 83 37 116ZM357 675q45 0 118 0 57 0 82-24.5T572 584q-8-31-32-52.5T481 501l51-112-58-1L427 497H365L339 389H285l72 286Zm20-132q22-1 63-1 34 0 52 10.5T515 585q7 25-5.5 35T464 630H398l-21-87Z"/>
<glyph unicode="&#x2122;" glyph-name="trademark" horiz-adv-x="895" d="M509 682h86l36-218q3-15 4.5-34t2.5-42h1q10 18 22.5 38T685 463L832 682h91L832 314H774l32 129q15 63 27.5 110T857 635h-1q-8-14-18.5-31T810 561L644 314H600L557 561q-3 16-5 37.5T549 635h-1q-8-37-19.5-84.5T502 443L470 314H416l93 368ZM250 632H126l13 50H445l-13-50H309L230 314H171l79 318Z"/>
<glyph unicode="&#xb0;" glyph-name="degree" horiz-adv-x="413" d="M446 602q-5-63-50.5-104T283 457q-66 0-104.5 40T145 600t50.5 103T307 743t105-40 34-101Zm-65-1q2 39-19.5 63.5T302 689q-40 0-65-24t-28-64q-2-40 19.5-65T289 511q40 0 64.5 24.5T381 601Z"/>
<glyph unicode="&#xa4;" glyph-name="currency" horiz-adv-x="654" d="M474 322q18 66-6.5 106T383 468 279.5 428.5 219 322q-16-67 7.5-106.5T310 176t103.5 39.5T474 322Zm69-2q-19-72-64-121l76-96L502 60 430 161q-61-39-132-39-72 0-112 37L63 59 26 107l127 98q-21 49-3 119 19 72 64 121l-75 98 55 42 69-102q63 38 132 38 72 0 111-36L631 587l36-49L539 439q22-52 4-119Z"/>
<glyph unicode="&#x20ac;" glyph-name="Euro" horiz-adv-x="720" d="M439 237H210q-2-60 16.5-102.5t55-64T372 49 477 73.5 581 151l36-49Q564 44 498 15T359-14q-71 0-123.5 30T157 102.5 133 237H33l14 56h91q7 50 23 97H71l14 56h97q34 79 86 134.5T387.5 666 529 696q72 0 125.5-30.5T731 581l-65-36q-21 44-58 66.5T518 634 417.5 612t-87-64T262 446H491l-14-56H239q-16-47-25-97H452l-13-56Z"/>
<glyph unicode="$" glyph-name="dollar" horiz-adv-x="664" d="M209-100L239 14Q176 24 126 57T50 137l58 45q41-57 88.5-83.5T302 72q46 0 85 15t64 41.5T485 189q7 31-2 54t-36 39.5-113 41T213.5 373t-45 60 2.5 83q11 47 43 82t81.5 55T404 676l28 112h69L471 673q52-8 94-32.5T632 579l-56-48q-32 43-73.5 63T407 614q-42 0-75.5-12.5t-56-35.5T245 512q-7-31 2.5-53T283 421t112.5-40T517 331t45.5-62T560 184q-12-49-48-87.5t-90-61T305 10L278-100H209Z"/>
<glyph unicode="&#xa2;" glyph-name="cent" horiz-adv-x="566" d="M439 692L410 579q52-8 85.5-39.5T542 455l-70-23q-13 48-40 69.5T358 523q-65 0-115-48T172 341q-21-83 6.5-132.5T273 159q50 0 89 24t80 80l49-38q-37-53-86.5-83.5T291 102L264-10H197l29 112q-84 10-119 76.5T98 348q26 102 92 163t156 70l27 111h66Z"/>
<glyph unicode="&#xa3;" glyph-name="sterling" horiz-adv-x="650" d="M515 0H19L35 58q94 55 127.5 102.5T195 293H84l15 58h93q-12 180 64 262.5T448 696q80 0 127.5-38.5T635 545l-72-28q-11 62-39.5 89T440 633q-75 0-128-59.5T270 351H458l-15-58H272q0-88-35.5-140.5T141 63V62q109 2 216 3H531L515 0Z"/>
<glyph unicode="&#x192;" glyph-name="florin" horiz-adv-x="524" d="M462 322H291L209 105Q167-3 147.5-35.5T104-88 49.5-118-21-128q-21 0-44.5 5.5T-106-110l23 61q16-7 37-12.5T-9-67q24 0 42.5 9.5T67.5-29 99 22t39 90l79 210H75l15 58H239l40 108q42 108 61.5 140.5T384 681t54.5 30T509 721q22 0 45.5-5T596 703l-24-61q-18 8-37 13t-38 5q-24 0-42.5-9.5t-34-28.5-31-50.5T351 481L313 380H477l-15-58Z"/>
<glyph unicode="&#xa5;" glyph-name="yen" horiz-adv-x="650" d="M229 0l22 91H82l15 56H265l23 90H119l14 56H301l10 38L138 682h82L361 395 640 682h91L384 331l-10-38H542l-14-56H361l-23-90H505L491 91H324L301 0H229Z"/>
<glyph unicode="&#x20b4;" glyph-name="uni20B4" horiz-adv-x="650" d="M473 454q23 20 36.5 40T529 536q8 29-2 51.5T490.5 622 425 634q-48 0-93-20.5T249 555l-31 53q46 42 104 65t116 23q62 0 104-20.5T600.5 618t5.5-81q-6-23-17.5-43.5T560 454h83l-15-56H499q-39-28-96.5-60T328 296H603l-15-56H242q-27-22-42.5-42T179 157q-8-35-0.5-59.5t32-37T275 48q57 0 110.5 23.5T486 141l35-53Q467 38 400 12T259-14q-59 0-99 20T105.5 65.5 103 158q6 22 17.5 42T150 240H60l15 56H218q32 21 93 54.5T396 398H100l15 56H473Z"/>
<glyph unicode="&#x20b8;" glyph-name="uni20B8" horiz-adv-x="650" d="M655 457H416L302 0H228L341 457H102l15 63H671l-16-63Zm57 225l-16-63H142l16 63H712Z"/>
<glyph unicode="&#xe3f;" glyph-name="uni0E3F" horiz-adv-x="650" d="M195-110L222-1Q96 0 40 0L210 682q54 0 183 1l27 105h67L460 681q69-8 100-21.5T612 620q16-20 21-51.5T630 504q-15-59-53.5-97.5T478 351q39-9 63-32.5t32-59T570 181q-12-47-35.5-80.5T477 45 397 11.5 289-1L262-110H195ZM131 62q52-1 139-1 51 0 88 7t64 22 45.5 39T494 186q9 36 3 60.5t-25.5 40T419 309t-93 7H193L131 62Zm78 314H346q57 0 92 10t63 33q19 15 32 35t19 45q7 24 4.5 44T543 578q-18 24-55.5 33.5T378 621q-65 0-109-1L209 376Z"/>
<glyph unicode="&#x20ae;" glyph-name="uni20AE" horiz-adv-x="650" d="M331 415l50 203H133l16 64H721l-16-64H456L411 433l190 44-16-60L395 373 370 271l189 44-14-60L355 211 302 0H228l48 193L86 149l14 60 190 43 26 103L126 312l15 60 190 43Z"/>
<glyph unicode="&#x20ba;" glyph-name="uni20BA" horiz-adv-x="650" d="M217 438l61 244h75L297 457l238 58-14-56L282 400l-24-98 239 58-15-57L244 245 198 60q18-1 29-1 65 0 117 7t99 22 98 43L522 58Q454 25 379 10.5T205-4q-21 0-42 1T108 0l56 225L45 197l15 57 118 28 24 99L85 352l14 57 118 29Z"/>
<glyph unicode="&#x20bd;" glyph-name="uni20BD" horiz-adv-x="650" d="M90 0l31 123H27l14 58h94l25 100H66l16 60h94l84 341q64 0 204 1 78 0 128.5-25.5t68-72T662 476q-15-62-54.5-106T507 303.5 367 281q-87 0-132 1L210 181H439l-14-58H196L165 0H90ZM585 480q11 46 0.5 77.5T542 605t-90 16q-88 0-132-1L251 342q46-1 130-1 57 0 98.5 15.5T547 403t38 77Z"/>
<glyph unicode="&#x2116;" glyph-name="uni2116" horiz-adv-x="1141" d="M952 353q-38 0-66.5 13t-45 37-20 56.5T826 529q18 75 73 121t130 46q38 0 66.5-13t45-37 20-56-5.5-69q-18-76-73-122T952 353Zm9 54q46 0 79.5 32t48.5 87q13 54-5.5 85.5T1019 643q-45 0-79-31.5T892 525q-13-55 5-86.5T961 407ZM767 237l14 55h302l-14-55H767ZM499 0L345 394q-34 87-78 205h-1q-10-43-87-362L120 0H50L220 682h92L464 300q20-51 77-206h1q35 163 86 362l56 226h71L584 0H499Z"/>
<glyph unicode="#" glyph-name="numbersign" horiz-adv-x="700" d="M356 682h68L347 508H551l78 174h68L620 508H733l-15-58H594L497 232H611l-15-58H471L394 0H325l77 174H198L121 0H52l77 174H17l15 58H155l97 218H139l15 58H278l78 174ZM225 232H428l96 218H321L225 232Z"/>
<glyph unicode="0" glyph-name="zero" horiz-adv-x="678" d="M622 330q-27-110-75.5-187.5T431 25.5 281-14q-84 0-133 43.5t-59.5 126T107 352q28 111 76.5 188T299 656.5 449 696q84 0 133-43.5t59-126T622 330Zm-75 11q36 147 9 220T438 634 283 560.5 183 341q-37-145-9.5-218.5T292 49t154.5 73T547 341Z"/>
<glyph unicode="1" glyph-name="one" horiz-adv-x="437" d="M322 565q-38-29-86.5-43T124 508l15 62q56 0 98 12.5T309 620t51 66h68L257 0H181L322 565Z"/>
<glyph unicode="2" glyph-name="two" horiz-adv-x="621" d="M493 0H4L21 70Q189 184 250.5 227.5T352 301t67 54 45 45 29.5 43T512 493q11 43 1 75t-39.5 48.5T399 633q-43 0-79.5-16.5t-61.5-47T224 502q-5-21-8-42t-3-40H138q-2 13 0.5 37.5T147 506q14 56 51.5 99T291 672t119 24q70 0 116-26t63-73.5T591 488q-8-33-21-59t-32.5-50T489 329t-72-58.5-107.5-77T121 66V64q117 1 234 1H509L493 0Z"/>
<glyph unicode="3" glyph-name="three" horiz-adv-x="639" d="M114 202q-3-80 33.5-117T265 48q74 0 126.5 37.5T460 185q16 64-19 99T328 319H226l16 59h65q60 0 97 11t66 35q21 16 33.5 36.5T524 510q13 56-19.5 90.5T406 635q-67 0-115.5-33.5T210 500l-67 25q41 84 110.5 127.5T418 696q67 0 113.5-24.5t64.5-67 4-95.5q-15-60-55-99T438 351v-1q63-12 89.5-56.5T539 186q-15-59-56-105T383 10.5 254-14Q142-14 85 40T36 192l78 10Z"/>
<glyph unicode="4" glyph-name="four" horiz-adv-x="633" d="M324 0l43 175H27l16 62L461 682H567L456 237H580l-16-62H440L397 0H324ZM428 417q24 94 55 202h-2L120 236q66 1 115 1t138 0h10l45 180Z"/>
<glyph unicode="5" glyph-name="five" horiz-adv-x="612" d="M602 620H281L207 394h2q28 29 71.5 45.5T371 456q69 0 114.5-31t61-86T545 216q-17-69-59.5-121.5T382 14 249-14q-88 0-144.5 40.5T29 144l75 27q13-61 52-92T260 48q50 0 92.5 21T425 129.5 468 221q20 78-12 125.5T351 394q-53 0-97.5-23.5T183 307H113L237 682H616l-14-62Z"/>
<glyph unicode="6" glyph-name="six" horiz-adv-x="636" d="M559 532q-7 36-23 59t-42 33.5T431 635q-92 0-155.5-79.5T170 304q78 121 215 121 71 0 116.5-27.5T562 320t-1-113q-16-64-57-114.5T403.5 14 276-14q-83 0-131.5 41.5T85 148t17 189q44 178 131 268.5T444 696q79 0 127.5-36T635 555l-76-23ZM287 47q47 0 87 20t68.5 58T484 212q18 73-13 113T366 365q-63 0-117.5-38.5T172 209q-19-71 13.5-116.5T287 47h0Z"/>
<glyph unicode="7" glyph-name="seven" horiz-adv-x="585" d="M117 0q27 80 65 156t89 151.5 116.5 153T536 619H151l15 63H640l-15-60q-81-75-147-151T359.5 318t-92-156.5T201 0H117Z"/>
<glyph unicode="8" glyph-name="eight" horiz-adv-x="656" d="M555 509q15 58-20 92T426 635 300 601t-67-92q-14-58 21.5-92T364 383t125.5 34T555 509ZM497 186q16 65-24 101.5T348 324 205 287 131 186 155 85 280 48 423 85t74 101Zm78-2q-15-60-58-105.5T410.5 9.5 269-14 136.5 12t-76 72.5T53 188q16 63 61.5 106T232 358l1 1q-47 19-67.5 60.5T158 514q13 54 52 95.5t97.5 64T437 696t120-24.5T626 603t7-97q-14-53-52.5-91.5T481 356v-1q60-20 84.5-64.5T575 184Z"/>
<glyph unicode="9" glyph-name="nine" horiz-adv-x="636" d="M118 154q8-38 24-61.5T185.5 58 256 47q92 0 154.5 78.5T515 374Q443 257 302 257q-70 0-115.5 27.5t-61 77.5T126 475q16 65 58 116t100.5 78T411 696q82 0 130-43t59.5-122T584 345Q540 167 453 76.5T242-14q-82 0-133.5 37.5T43 132l75 22ZM400 635q-47 0-86.5-20t-69-57.5T203 470q-18-71 13.5-112T320 317q73 0 124.5 42T514 473q18 71-14 116.5T400 635h0Z"/>
<glyph unicode="&#x2070;" glyph-name="zero.superior" horiz-adv-x="521" d="M520 555q-26-108-87-166.5T286 330q-87 0-121 62t-7 169q27 108 88 166.5T392 786q88 0 121.5-62T520 555Zm-67 3q21 84 3 128.5T382 731q-55 0-95-44.5T226 558q-21-85-3.5-129T296 385t96 44 61 129Z"/>
<glyph unicode="&#xb9;" glyph-name="onesuperior" horiz-adv-x="354" d="M213 338l85 340q-25-17-59-25t-81-8l15 57q62 0 102 19.5T331 780h60L281 338H213Z"/>
<glyph unicode="&#xb2;" glyph-name="twosuperior" horiz-adv-x="502" d="M451 338H109l16 65q99 53 155 86.5T368.5 548t50 48T443 647q10 40-9 63t-63 23-73-20.5T260 654q-3-12-4.5-24.5T254 603H187q-2 10-0.5 25t4.5 29q16 63 65 96t126 33q76 0 111.5-39.5T514 645q-8-33-27.5-61.5t-52-55.5T351 470 214 395v-1q80 1 159 1h93l-15-57Z"/>
<glyph unicode="&#xb3;" glyph-name="threesuperior" horiz-adv-x="499" d="M192 468q0-46 22-65.5T289 383q48 0 80 21t41 59q10 38-11 55.5T326 536H261l12 52h49q37 0 56.5 5.5T414 611q12 10 20 23t12 30q8 33-11.5 51.5T373 734q-45 0-75-17.5T249 662l-58 21q24 50 73.5 76.5T383 786q73 0 110-34t24-89q-9-37-32-60.5T421 566v-1q41-10 56-38t4-71q-14-57-68.5-91.5T281 330q-81 0-122 34t-36 98l69 6Z"/>
<glyph unicode="&#x2074;" glyph-name="four.superior" horiz-adv-x="484" d="M309 338l23 96H102l14 61L385 778H485L413 490h80l-14-56H399l-24-96H309ZM181 487q37 1 88.5 2t76.5 1l30 119q12 48 30 115h-1L181 487Z"/>
<glyph unicode="&#x2081;" glyph-name="uni2081" horiz-adv-x="354" d="M104-96l85 340q-25-17-59-25t-81-8l15 57q62 0 102 19.5T222 346h60L172-96H104Z"/>
<glyph unicode="&#x2082;" glyph-name="uni2082" horiz-adv-x="502" d="M342-96H0L16-31q99 53 155 86.5T259.5 114t50 48T334 213q10 40-9 63t-63 23-73-20.5T151 220q-3-12-4.5-24.5T145 169H78q-2 10-0.5 25T82 223q16 63 65 96t126 33q76 0 111.5-39.5T405 211q-8-33-27.5-61.5T325.5 94 242 36 105-39v-1q80 1 159 1h93L342-96Z"/>
<glyph unicode="&#x2083;" glyph-name="uni2083" horiz-adv-x="499" d="M83 34q0-46 22-65.5T180-51q48 0 80 21t41 59q10 38-11 55.5T217 102H152l12 52h49q37 0 56.5 5.5T305 177q12 10 20 23t12 30q8 33-11.5 51.5T264 300q-45 0-75-17.5T140 228L82 249q24 50 73.5 76.5T274 352q73 0 110-34t24-89q-9-37-32-60.5T312 132v-1q41-10 56-38t4-71q-14-57-68.5-91.5T172-104Q91-104 50-70T14 28l69 6Z"/>
<glyph unicode="&#x2084;" glyph-name="uni2084" horiz-adv-x="484" d="M200-96L223 0H-7L7 61 276 344H376L304 56h80L370 0H290L266-96H200ZM72 53q37 1 88.5 2T237 56l30 119q12 48 30 115h-1L72 53Z"/>
<glyph unicode="&#x2044;" glyph-name="fraction" horiz-adv-x="391" d="M642 778L-121-96h-78L564 778h78Z"/>
<glyph unicode="&#xbd;" glyph-name="onehalf" horiz-adv-x="980" d="M880 778L117-96H39L802 778h78ZM213 338l85 340q-25-17-59-25t-81-8l15 57q62 0 102 19.5T331 780h60L281 338H213ZM820-96H478l16 65q99 53 155 86.5T737.5 114t50 48T812 213q10 40-9 63t-63 23-73-20.5T629 220q-3-12-4.5-24.5T623 169H556q-2 10-0.5 25t4.5 29q16 63 65 96t126 33q76 0 111.5-39.5T883 211q-8-33-27.5-61.5T803.5 94 720 36 583-39v-1q80 1 159 1h93L820-96Z"/>
<glyph unicode="&#xbc;" glyph-name="onequarter" horiz-adv-x="936" d="M880 778L117-96H39L802 778h78ZM213 338l85 340q-25-17-59-25t-81-8l15 57q62 0 102 19.5T331 780h60L281 338H213ZM652-96L675 0H445l14 61L728 344H828L756 56h80L822 0H742L718-96H652ZM524 53q37 1 88.5 2T689 56l30 119q12 48 30 115h-1L524 53Z"/>
<glyph unicode="&#xbe;" glyph-name="threequarters" horiz-adv-x="1060" d="M1005 778L242-96H164L927 778h78ZM777-96L800 0H570l14 61L853 344H953L881 56h80L947 0H867L843-96H777ZM649 53q37 1 88.5 2T814 56l30 119q12 48 30 115h-1L649 53ZM192 468q0-46 22-65.5T289 383q48 0 80 21t41 59q10 38-11 55.5T326 536H261l12 52h49q37 0 56.5 5.5T414 611q12 10 20 23t12 30q8 33-11.5 51.5T373 734q-45 0-75-17.5T249 662l-58 21q24 50 73.5 76.5T383 786q73 0 110-34t24-89q-9-37-32-60.5T421 566v-1q41-10 56-38t4-71q-14-57-68.5-91.5T281 330q-81 0-122 34t-36 98l69 6Z"/>
<glyph unicode="%" glyph-name="percent" horiz-adv-x="1100" d="M996 778L233-96H155L918 778h78Zm-4-657Q966 13 905-45.5T758-104q-87 0-121 62t-7 169q27 108 88 166.5T864 352q88 0 121.5-62T992 121Zm-67 3q21 84 3 128.5T854 297q-55 0-95-44.5T698 124Q677 39 694.5-5T768-49 864-5t61 129ZM520 555q-26-108-87-166.5T286 330q-87 0-121 62t-7 169q27 108 88 166.5T392 786q88 0 121.5-62T520 555Zm-67 3q21 84 3 128.5T382 731q-55 0-95-44.5T226 558q-21-85-3.5-129T296 385t96 44 61 129Z"/>
<glyph unicode="&#x2030;" glyph-name="perthousand" horiz-adv-x="1582" d="M996 778L233-96H155L918 778h78Zm-4-657Q966 13 905-45.5T758-104q-87 0-121 62t-7 169q27 108 88 166.5T864 352q88 0 121.5-62T992 121Zm-67 3q21 84 3 128.5T854 297q-55 0-95-44.5T698 124Q677 39 694.5-5T768-49 864-5t61 129Zm548-3q-26-108-87-166.5T1239-104q-87 0-121 62t-7 169q27 108 88 166.5T1345 352q88 0 121.5-62t6.5-169Zm-67 3q21 84 3 128.5T1335 297q-55 0-95-44.5T1179 124q-21-85-3.5-129T1249-49t96 44 61 129ZM520 555q-26-108-87-166.5T286 330q-87 0-121 62t-7 169q27 108 88 166.5T392 786q88 0 121.5-62T520 555Zm-67 3q21 84 3 128.5T382 731q-55 0-95-44.5T226 558q-21-85-3.5-129T296 385t96 44 61 129Z"/>
<glyph unicode="+" glyph-name="plus" horiz-adv-x="650" d="M246 60l58 233H76l15 58H319l58 231h67L387 351H615l-15-58H372L313 60H246Z"/>
<glyph unicode="&#x2212;" glyph-name="minus" horiz-adv-x="650" d="M600 293H76l15 58H615l-15-58Z"/>
<glyph unicode="&#xd7;" glyph-name="multiply" horiz-adv-x="650" d="M477 90L338 279 104 90 67 139 302 326 160 514l53 40L352 365 587 554l37-48L388 318 531 129 477 90Z"/>
<glyph unicode="&#xf7;" glyph-name="divide" horiz-adv-x="650" d="M335 463l31 126h91L426 463H335ZM600 293H76l15 58H615l-15-58ZM233 55l32 126h91L325 55H233Z"/>
<glyph unicode="=" glyph-name="equal" horiz-adv-x="650" d="M567 200H63l16 59H583l-16-59Zm45 185H108l16 59H628l-16-59Z"/>
<glyph unicode="&#x2260;" glyph-name="notequal" horiz-adv-x="650" d="M87 27L216 200H63l16 59H260l94 126H109l15 59H398L521 610h75L473 444H628l-16-59H429L334 259H583l-16-59H289L163 27H87Z"/>
<glyph unicode="&#x2248;" glyph-name="approxequal" horiz-adv-x="650" d="M471 348q-31 0-57 8t-61 30-54.5 28.5T257 421q-28 0-56-13t-66-44l-33 43q19 18 39 32t40.5 24 41 15 41.5 5q30 0 56-7.5T382 445t55.5-29 40.5-6q28 0 55.5 13T600 468l33-44q-40-37-81.5-56.5T471 348h0ZM425 161q-31 0-57 8t-61 30-54.5 28.5T211 234q-28 0-56-13T89 177L56 220q20 18 40 32t40 23.5T176.5 290t40.5 5q31 0 57-7.5t61.5-30 55-28.5 41.5-6q27 0 55 13t67 44l33-43q-39-37-80.5-56.5T425 161h0Z"/>
<glyph unicode="&lt;" glyph-name="less" horiz-adv-x="650" d="M538 87L84 286l18 72L655 556l-17-75L340 375q-42-15-75.5-26T172 320l-1-2q50-19 88.5-34T337 251l219-95L538 87Z"/>
<glyph unicode="&gt;" glyph-name="greater" horiz-adv-x="650" d="M152 556L606 358l-18-72L35 87l17 76L350 269q42 15 75.5 26T518 324l1 2q-50 19-88.5 34T353 392L134 488l18 68Z"/>
<glyph unicode="&#xb1;" glyph-name="plusminus" horiz-adv-x="650" d="M518 0H14L29 59H533L518 0ZM278 184l55 221H116l14 58H347l55 219h68L415 463H633l-13-58H401L346 184H278Z"/>
<glyph unicode="&#x2264;" glyph-name="lessequal" horiz-adv-x="650" d="M567 199L113 397l18 72L684 667l-18-75L369 486q-44-15-89.5-30.5T201 431l-1-2q36-13 82.5-31.5T366 362l219-95-18-68ZM518 0H14L28 59H532L518 0Z"/>
<glyph unicode="&#x2265;" glyph-name="greaterequal" horiz-adv-x="650" d="M180 667L634 468l-18-72L63 198l17 75L378 379q40 15 82 28.5T545 434l1 2q-33 13-80.5 31.5T381 502L162 598l18 69ZM517 0H13L28 59H532L517 0Z"/>
<glyph unicode="&#xac;" glyph-name="logicalnot" horiz-adv-x="650" d="M460 89l50 204H76l15 58H592L528 89H460Z"/>
<glyph unicode="&#x221e;" glyph-name="infinity" horiz-adv-x="973" d="M225 120q-60 0-102 27T66 220.5 65 323q15 61 52 106.5t90 70T321 524q60 0 106-34t90-117q87 84 149 117.5T789 524q59 0 101-27t57.5-73.5T948 321q-15-60-51.5-105.5T807 145 692 120q-60 0-105.5 32.5T495 270q-88-84-149.5-117T225 120h0Zm478 59q41 0 76.5 18.5t60 51T874 322q16 65-10 104t-87 39q-45 0-94.5-29.5T546 320q43-83 77.5-112T703 179h0Zm-467 0q46 0 96 30T467 324q-43 83-78 112t-79 29q-39 0-74-17.5t-60.5-50T139 322q-10-42-2-74.5T170.5 197 236 179h0Z"/>
<glyph unicode="&#x2202;" glyph-name="partialdiff" horiz-adv-x="562" d="M210-12Q109-12 65.5 59T50 242Q79 356 154 423t177 67q60 0 101.5-31T482 381h1q0 9 6 59t0 89.5T463 596q-15 21-42.5 32T359 639q-68 0-138-21l8 61q69 19 141 19 127 0 168-93t-4-277Q491 157 410.5 72.5T210-12Zm14 59q70 0 126 53.5T427 240q22 86-6.5 138.5T323 431 200 378.5 124 239q-21-85 6-138.5T224 47Z"/>
<glyph unicode="&#x222b;" glyph-name="integral" horiz-adv-x="338" d="M-31-217q-19 0-40.5 4T-110-202l16 65q16-10 35-15.5t34-5.5q29 0 47.5 18T51-84L236 656q17 67 54.5 98.5T390 786q24 0 44.5-4.5T470 769l-16-63q-16 9-34.5 14.5T384 726q-30 0-48.5-18.5T308 652L123-87q-17-67-54.5-98.5T-31-217h0Z"/>
<glyph unicode="&#x221a;" glyph-name="radical" horiz-adv-x="702" d="M180-96L128 285H24l15 59H197l21-172q7-53 12.5-105T237-14h2q15 31 48.5 86T399 253L725 778h83L251-96H180Z"/>
<glyph unicode="&#x220f;" glyph-name="product" horiz-adv-x="803" d="M474-207L704 713H334L104-207H30L259 713H129l16 65H926l-16-65H779L549-207H474Z"/>
<glyph unicode="&#x2211;" glyph-name="summation" horiz-adv-x="654" d="M-55-140L363 303 175 714l16 64H734l-15-66H498q-90 0-141 0t-94 1L451 300 33-142q42 0 130 0.5T298-141H519l-16-66H-72l17 67Z"/>
<glyph unicode="&#x25ca;" glyph-name="lozenge" horiz-adv-x="648" d="M276 61q15 20 61 72.5T524 347q-55 142-75 196.5T423 621h-2q-15-21-59.5-72T174 335q57-148 76-200t24-74h2ZM226 0L93 340 395 682h76L605 341 302 0H226Z"/>
<glyph unicode="&#x2113;" glyph-name="afii61289" horiz-adv-x="452" d="M199-12q-63 0-91 42T85 158L25 130 10 188l81 37q7 49 27 131 33 131 67 209.5T259.5 680 358 716q42 0 65-24t26.5-70T438 514q-18-73-55-131.5t-93-105T155 192q-11-75 3-109t53-34q22 0 44.5 9T305 86l20-47Q294 14 262 1T199-12h0ZM366 519q13 51 14 81t-8 43.5T343 657q-28 0-52.5-32T241 525.5 189 352q-15-58-21-91 48 25 88 62.5T324 410t42 109h0Z"/>
<glyph unicode="&#x212e;" glyph-name="estimated" horiz-adv-x="930" d="M402-14Q221-14 136 82.5T91 340q40 159 175.5 257.5T581 696q122 0 202-46.5T889.5 519 885 329H245L201 152q-6-21-3-33.5T215 93q32-29 83.5-45T416 32q88 0 172.5 29T731 140h78Q738 68 629.5 27T402-14h0ZM739 372l41 166q4 17 2.5 27.5T771 586q-34 32-85 48T567 650q-69 0-129-16.5T329 585q-13-9-20.5-21.5T296 532L256 372H739Z"/>
<glyph unicode="&#xf8ff;" glyph-name="uniF8FF" horiz-adv-x="821" d="M524 304H372v76H524v76H372v76H600V152H524V304ZM220 532h76V228H448V152H220V532ZM68 684H752V0H68V684ZM144 76H676V608H144V76Z"/>
</font>
</defs>
</svg>
